%TF.GenerationSoftware,KiCad,Pcbnew,7.0.1-0*%
%TF.CreationDate,2024-02-14T11:54:31-05:00*%
%TF.ProjectId,Tympan_Rev_F,54796d70-616e-45f5-9265-765f462e6b69,rev?*%
%TF.SameCoordinates,Original*%
%TF.FileFunction,Legend,Bot*%
%TF.FilePolarity,Positive*%
%FSLAX46Y46*%
G04 Gerber Fmt 4.6, Leading zero omitted, Abs format (unit mm)*
G04 Created by KiCad (PCBNEW 7.0.1-0) date 2024-02-14 11:54:31*
%MOMM*%
%LPD*%
G01*
G04 APERTURE LIST*
%ADD10C,0.150000*%
%ADD11C,0.125000*%
%ADD12C,0.170000*%
%ADD13C,0.100000*%
%ADD14C,0.120000*%
%ADD15C,0.010000*%
G04 APERTURE END LIST*
D10*
X145992857Y-61293928D02*
X145992857Y-59793928D01*
X145278571Y-61293928D02*
X145278571Y-59793928D01*
X145278571Y-59793928D02*
X144421428Y-61293928D01*
X144421428Y-61293928D02*
X144421428Y-59793928D01*
X143707142Y-61293928D02*
X143707142Y-59793928D01*
X143707142Y-59793928D02*
X143135713Y-59793928D01*
X143135713Y-59793928D02*
X142992856Y-59865357D01*
X142992856Y-59865357D02*
X142921427Y-59936785D01*
X142921427Y-59936785D02*
X142849999Y-60079642D01*
X142849999Y-60079642D02*
X142849999Y-60293928D01*
X142849999Y-60293928D02*
X142921427Y-60436785D01*
X142921427Y-60436785D02*
X142992856Y-60508214D01*
X142992856Y-60508214D02*
X143135713Y-60579642D01*
X143135713Y-60579642D02*
X143707142Y-60579642D01*
X142207142Y-59793928D02*
X142207142Y-61008214D01*
X142207142Y-61008214D02*
X142135713Y-61151071D01*
X142135713Y-61151071D02*
X142064285Y-61222500D01*
X142064285Y-61222500D02*
X141921427Y-61293928D01*
X141921427Y-61293928D02*
X141635713Y-61293928D01*
X141635713Y-61293928D02*
X141492856Y-61222500D01*
X141492856Y-61222500D02*
X141421427Y-61151071D01*
X141421427Y-61151071D02*
X141349999Y-61008214D01*
X141349999Y-61008214D02*
X141349999Y-59793928D01*
X140849998Y-59793928D02*
X139992856Y-59793928D01*
X140421427Y-61293928D02*
X140421427Y-59793928D01*
X167307142Y-59693928D02*
X167021428Y-59693928D01*
X167021428Y-59693928D02*
X166878571Y-59765357D01*
X166878571Y-59765357D02*
X166735714Y-59908214D01*
X166735714Y-59908214D02*
X166664285Y-60193928D01*
X166664285Y-60193928D02*
X166664285Y-60693928D01*
X166664285Y-60693928D02*
X166735714Y-60979642D01*
X166735714Y-60979642D02*
X166878571Y-61122500D01*
X166878571Y-61122500D02*
X167021428Y-61193928D01*
X167021428Y-61193928D02*
X167307142Y-61193928D01*
X167307142Y-61193928D02*
X167450000Y-61122500D01*
X167450000Y-61122500D02*
X167592857Y-60979642D01*
X167592857Y-60979642D02*
X167664285Y-60693928D01*
X167664285Y-60693928D02*
X167664285Y-60193928D01*
X167664285Y-60193928D02*
X167592857Y-59908214D01*
X167592857Y-59908214D02*
X167450000Y-59765357D01*
X167450000Y-59765357D02*
X167307142Y-59693928D01*
X166021428Y-59693928D02*
X166021428Y-60908214D01*
X166021428Y-60908214D02*
X165949999Y-61051071D01*
X165949999Y-61051071D02*
X165878571Y-61122500D01*
X165878571Y-61122500D02*
X165735713Y-61193928D01*
X165735713Y-61193928D02*
X165449999Y-61193928D01*
X165449999Y-61193928D02*
X165307142Y-61122500D01*
X165307142Y-61122500D02*
X165235713Y-61051071D01*
X165235713Y-61051071D02*
X165164285Y-60908214D01*
X165164285Y-60908214D02*
X165164285Y-59693928D01*
X164664284Y-59693928D02*
X163807142Y-59693928D01*
X164235713Y-61193928D02*
X164235713Y-59693928D01*
X163307142Y-61193928D02*
X163307142Y-59693928D01*
X163307142Y-59693928D02*
X162735713Y-59693928D01*
X162735713Y-59693928D02*
X162592856Y-59765357D01*
X162592856Y-59765357D02*
X162521427Y-59836785D01*
X162521427Y-59836785D02*
X162449999Y-59979642D01*
X162449999Y-59979642D02*
X162449999Y-60193928D01*
X162449999Y-60193928D02*
X162521427Y-60336785D01*
X162521427Y-60336785D02*
X162592856Y-60408214D01*
X162592856Y-60408214D02*
X162735713Y-60479642D01*
X162735713Y-60479642D02*
X163307142Y-60479642D01*
X161807142Y-59693928D02*
X161807142Y-60908214D01*
X161807142Y-60908214D02*
X161735713Y-61051071D01*
X161735713Y-61051071D02*
X161664285Y-61122500D01*
X161664285Y-61122500D02*
X161521427Y-61193928D01*
X161521427Y-61193928D02*
X161235713Y-61193928D01*
X161235713Y-61193928D02*
X161092856Y-61122500D01*
X161092856Y-61122500D02*
X161021427Y-61051071D01*
X161021427Y-61051071D02*
X160949999Y-60908214D01*
X160949999Y-60908214D02*
X160949999Y-59693928D01*
X160449998Y-59693928D02*
X159592856Y-59693928D01*
X160021427Y-61193928D02*
X160021427Y-59693928D01*
D11*
X138271428Y-120600238D02*
X138328571Y-120552619D01*
X138328571Y-120552619D02*
X138414285Y-120552619D01*
X138414285Y-120552619D02*
X138499999Y-120600238D01*
X138499999Y-120600238D02*
X138557142Y-120695476D01*
X138557142Y-120695476D02*
X138585713Y-120790714D01*
X138585713Y-120790714D02*
X138614285Y-120981190D01*
X138614285Y-120981190D02*
X138614285Y-121124047D01*
X138614285Y-121124047D02*
X138585713Y-121314523D01*
X138585713Y-121314523D02*
X138557142Y-121409761D01*
X138557142Y-121409761D02*
X138499999Y-121505000D01*
X138499999Y-121505000D02*
X138414285Y-121552619D01*
X138414285Y-121552619D02*
X138357142Y-121552619D01*
X138357142Y-121552619D02*
X138271428Y-121505000D01*
X138271428Y-121505000D02*
X138242856Y-121457380D01*
X138242856Y-121457380D02*
X138242856Y-121124047D01*
X138242856Y-121124047D02*
X138357142Y-121124047D01*
X137985713Y-121552619D02*
X137985713Y-120552619D01*
X137985713Y-120552619D02*
X137642856Y-121552619D01*
X137642856Y-121552619D02*
X137642856Y-120552619D01*
X137357142Y-121552619D02*
X137357142Y-120552619D01*
X137357142Y-120552619D02*
X137214285Y-120552619D01*
X137214285Y-120552619D02*
X137128571Y-120600238D01*
X137128571Y-120600238D02*
X137071428Y-120695476D01*
X137071428Y-120695476D02*
X137042857Y-120790714D01*
X137042857Y-120790714D02*
X137014285Y-120981190D01*
X137014285Y-120981190D02*
X137014285Y-121124047D01*
X137014285Y-121124047D02*
X137042857Y-121314523D01*
X137042857Y-121314523D02*
X137071428Y-121409761D01*
X137071428Y-121409761D02*
X137128571Y-121505000D01*
X137128571Y-121505000D02*
X137214285Y-121552619D01*
X137214285Y-121552619D02*
X137357142Y-121552619D01*
X139528571Y-122791666D02*
X139071429Y-122791666D01*
X139300000Y-123172619D02*
X139300000Y-122410714D01*
X138585714Y-122648809D02*
X138500000Y-122696428D01*
X138500000Y-122696428D02*
X138471429Y-122744047D01*
X138471429Y-122744047D02*
X138442857Y-122839285D01*
X138442857Y-122839285D02*
X138442857Y-122982142D01*
X138442857Y-122982142D02*
X138471429Y-123077380D01*
X138471429Y-123077380D02*
X138500000Y-123125000D01*
X138500000Y-123125000D02*
X138557143Y-123172619D01*
X138557143Y-123172619D02*
X138785714Y-123172619D01*
X138785714Y-123172619D02*
X138785714Y-122172619D01*
X138785714Y-122172619D02*
X138585714Y-122172619D01*
X138585714Y-122172619D02*
X138528572Y-122220238D01*
X138528572Y-122220238D02*
X138500000Y-122267857D01*
X138500000Y-122267857D02*
X138471429Y-122363095D01*
X138471429Y-122363095D02*
X138471429Y-122458333D01*
X138471429Y-122458333D02*
X138500000Y-122553571D01*
X138500000Y-122553571D02*
X138528572Y-122601190D01*
X138528572Y-122601190D02*
X138585714Y-122648809D01*
X138585714Y-122648809D02*
X138785714Y-122648809D01*
X138214286Y-122886904D02*
X137928572Y-122886904D01*
X138271429Y-123172619D02*
X138071429Y-122172619D01*
X138071429Y-122172619D02*
X137871429Y-123172619D01*
X137757143Y-122172619D02*
X137414286Y-122172619D01*
X137585714Y-123172619D02*
X137585714Y-122172619D01*
X137300000Y-122172619D02*
X136957143Y-122172619D01*
X137128571Y-123172619D02*
X137128571Y-122172619D01*
X140071429Y-124745000D02*
X139985715Y-124792619D01*
X139985715Y-124792619D02*
X139842857Y-124792619D01*
X139842857Y-124792619D02*
X139785715Y-124745000D01*
X139785715Y-124745000D02*
X139757143Y-124697380D01*
X139757143Y-124697380D02*
X139728572Y-124602142D01*
X139728572Y-124602142D02*
X139728572Y-124506904D01*
X139728572Y-124506904D02*
X139757143Y-124411666D01*
X139757143Y-124411666D02*
X139785715Y-124364047D01*
X139785715Y-124364047D02*
X139842857Y-124316428D01*
X139842857Y-124316428D02*
X139957143Y-124268809D01*
X139957143Y-124268809D02*
X140014286Y-124221190D01*
X140014286Y-124221190D02*
X140042857Y-124173571D01*
X140042857Y-124173571D02*
X140071429Y-124078333D01*
X140071429Y-124078333D02*
X140071429Y-123983095D01*
X140071429Y-123983095D02*
X140042857Y-123887857D01*
X140042857Y-123887857D02*
X140014286Y-123840238D01*
X140014286Y-123840238D02*
X139957143Y-123792619D01*
X139957143Y-123792619D02*
X139814286Y-123792619D01*
X139814286Y-123792619D02*
X139728572Y-123840238D01*
X139528571Y-123792619D02*
X139385714Y-124792619D01*
X139385714Y-124792619D02*
X139271428Y-124078333D01*
X139271428Y-124078333D02*
X139157143Y-124792619D01*
X139157143Y-124792619D02*
X139014286Y-123792619D01*
X138928572Y-124887857D02*
X138471429Y-124887857D01*
X138128571Y-124268809D02*
X138042857Y-124316428D01*
X138042857Y-124316428D02*
X138014286Y-124364047D01*
X138014286Y-124364047D02*
X137985714Y-124459285D01*
X137985714Y-124459285D02*
X137985714Y-124602142D01*
X137985714Y-124602142D02*
X138014286Y-124697380D01*
X138014286Y-124697380D02*
X138042857Y-124745000D01*
X138042857Y-124745000D02*
X138100000Y-124792619D01*
X138100000Y-124792619D02*
X138328571Y-124792619D01*
X138328571Y-124792619D02*
X138328571Y-123792619D01*
X138328571Y-123792619D02*
X138128571Y-123792619D01*
X138128571Y-123792619D02*
X138071429Y-123840238D01*
X138071429Y-123840238D02*
X138042857Y-123887857D01*
X138042857Y-123887857D02*
X138014286Y-123983095D01*
X138014286Y-123983095D02*
X138014286Y-124078333D01*
X138014286Y-124078333D02*
X138042857Y-124173571D01*
X138042857Y-124173571D02*
X138071429Y-124221190D01*
X138071429Y-124221190D02*
X138128571Y-124268809D01*
X138128571Y-124268809D02*
X138328571Y-124268809D01*
X137757143Y-124506904D02*
X137471429Y-124506904D01*
X137814286Y-124792619D02*
X137614286Y-123792619D01*
X137614286Y-123792619D02*
X137414286Y-124792619D01*
X137300000Y-123792619D02*
X136957143Y-123792619D01*
X137128571Y-124792619D02*
X137128571Y-123792619D01*
X137957143Y-128652619D02*
X137585715Y-128652619D01*
X137585715Y-128652619D02*
X137785715Y-129033571D01*
X137785715Y-129033571D02*
X137700000Y-129033571D01*
X137700000Y-129033571D02*
X137642858Y-129081190D01*
X137642858Y-129081190D02*
X137614286Y-129128809D01*
X137614286Y-129128809D02*
X137585715Y-129224047D01*
X137585715Y-129224047D02*
X137585715Y-129462142D01*
X137585715Y-129462142D02*
X137614286Y-129557380D01*
X137614286Y-129557380D02*
X137642858Y-129605000D01*
X137642858Y-129605000D02*
X137700000Y-129652619D01*
X137700000Y-129652619D02*
X137871429Y-129652619D01*
X137871429Y-129652619D02*
X137928572Y-129605000D01*
X137928572Y-129605000D02*
X137957143Y-129557380D01*
X137071429Y-128985952D02*
X137071429Y-129652619D01*
X137214286Y-128605000D02*
X137357143Y-129319285D01*
X137357143Y-129319285D02*
X136985714Y-129319285D01*
X137957143Y-130272619D02*
X137585715Y-130272619D01*
X137585715Y-130272619D02*
X137785715Y-130653571D01*
X137785715Y-130653571D02*
X137700000Y-130653571D01*
X137700000Y-130653571D02*
X137642858Y-130701190D01*
X137642858Y-130701190D02*
X137614286Y-130748809D01*
X137614286Y-130748809D02*
X137585715Y-130844047D01*
X137585715Y-130844047D02*
X137585715Y-131082142D01*
X137585715Y-131082142D02*
X137614286Y-131177380D01*
X137614286Y-131177380D02*
X137642858Y-131225000D01*
X137642858Y-131225000D02*
X137700000Y-131272619D01*
X137700000Y-131272619D02*
X137871429Y-131272619D01*
X137871429Y-131272619D02*
X137928572Y-131225000D01*
X137928572Y-131225000D02*
X137957143Y-131177380D01*
X137042857Y-130272619D02*
X137328571Y-130272619D01*
X137328571Y-130272619D02*
X137357143Y-130748809D01*
X137357143Y-130748809D02*
X137328571Y-130701190D01*
X137328571Y-130701190D02*
X137271429Y-130653571D01*
X137271429Y-130653571D02*
X137128571Y-130653571D01*
X137128571Y-130653571D02*
X137071429Y-130701190D01*
X137071429Y-130701190D02*
X137042857Y-130748809D01*
X137042857Y-130748809D02*
X137014286Y-130844047D01*
X137014286Y-130844047D02*
X137014286Y-131082142D01*
X137014286Y-131082142D02*
X137042857Y-131177380D01*
X137042857Y-131177380D02*
X137071429Y-131225000D01*
X137071429Y-131225000D02*
X137128571Y-131272619D01*
X137128571Y-131272619D02*
X137271429Y-131272619D01*
X137271429Y-131272619D02*
X137328571Y-131225000D01*
X137328571Y-131225000D02*
X137357143Y-131177380D01*
X137999999Y-82477571D02*
X138199999Y-82191857D01*
X138342856Y-82477571D02*
X138342856Y-81877571D01*
X138342856Y-81877571D02*
X138114285Y-81877571D01*
X138114285Y-81877571D02*
X138057142Y-81906142D01*
X138057142Y-81906142D02*
X138028571Y-81934714D01*
X138028571Y-81934714D02*
X137999999Y-81991857D01*
X137999999Y-81991857D02*
X137999999Y-82077571D01*
X137999999Y-82077571D02*
X138028571Y-82134714D01*
X138028571Y-82134714D02*
X138057142Y-82163285D01*
X138057142Y-82163285D02*
X138114285Y-82191857D01*
X138114285Y-82191857D02*
X138342856Y-82191857D01*
X137742856Y-82477571D02*
X137742856Y-81877571D01*
X137142857Y-81906142D02*
X137200000Y-81877571D01*
X137200000Y-81877571D02*
X137285714Y-81877571D01*
X137285714Y-81877571D02*
X137371428Y-81906142D01*
X137371428Y-81906142D02*
X137428571Y-81963285D01*
X137428571Y-81963285D02*
X137457142Y-82020428D01*
X137457142Y-82020428D02*
X137485714Y-82134714D01*
X137485714Y-82134714D02*
X137485714Y-82220428D01*
X137485714Y-82220428D02*
X137457142Y-82334714D01*
X137457142Y-82334714D02*
X137428571Y-82391857D01*
X137428571Y-82391857D02*
X137371428Y-82449000D01*
X137371428Y-82449000D02*
X137285714Y-82477571D01*
X137285714Y-82477571D02*
X137228571Y-82477571D01*
X137228571Y-82477571D02*
X137142857Y-82449000D01*
X137142857Y-82449000D02*
X137114285Y-82420428D01*
X137114285Y-82420428D02*
X137114285Y-82220428D01*
X137114285Y-82220428D02*
X137228571Y-82220428D01*
X136857142Y-82477571D02*
X136857142Y-81877571D01*
X136857142Y-82163285D02*
X136514285Y-82163285D01*
X136514285Y-82477571D02*
X136514285Y-81877571D01*
X136314286Y-81877571D02*
X135971429Y-81877571D01*
X136142857Y-82477571D02*
X136142857Y-81877571D01*
D12*
X169788857Y-127599999D02*
X170988857Y-127599999D01*
X170988857Y-127599999D02*
X170988857Y-127314285D01*
X170988857Y-127314285D02*
X170931714Y-127142856D01*
X170931714Y-127142856D02*
X170817428Y-127028571D01*
X170817428Y-127028571D02*
X170703142Y-126971428D01*
X170703142Y-126971428D02*
X170474571Y-126914285D01*
X170474571Y-126914285D02*
X170303142Y-126914285D01*
X170303142Y-126914285D02*
X170074571Y-126971428D01*
X170074571Y-126971428D02*
X169960285Y-127028571D01*
X169960285Y-127028571D02*
X169846000Y-127142856D01*
X169846000Y-127142856D02*
X169788857Y-127314285D01*
X169788857Y-127314285D02*
X169788857Y-127599999D01*
X169846000Y-125942856D02*
X169788857Y-126057142D01*
X169788857Y-126057142D02*
X169788857Y-126285714D01*
X169788857Y-126285714D02*
X169846000Y-126399999D01*
X169846000Y-126399999D02*
X169960285Y-126457142D01*
X169960285Y-126457142D02*
X170417428Y-126457142D01*
X170417428Y-126457142D02*
X170531714Y-126399999D01*
X170531714Y-126399999D02*
X170588857Y-126285714D01*
X170588857Y-126285714D02*
X170588857Y-126057142D01*
X170588857Y-126057142D02*
X170531714Y-125942856D01*
X170531714Y-125942856D02*
X170417428Y-125885714D01*
X170417428Y-125885714D02*
X170303142Y-125885714D01*
X170303142Y-125885714D02*
X170188857Y-126457142D01*
X169846000Y-125428571D02*
X169788857Y-125314285D01*
X169788857Y-125314285D02*
X169788857Y-125085714D01*
X169788857Y-125085714D02*
X169846000Y-124971428D01*
X169846000Y-124971428D02*
X169960285Y-124914285D01*
X169960285Y-124914285D02*
X170017428Y-124914285D01*
X170017428Y-124914285D02*
X170131714Y-124971428D01*
X170131714Y-124971428D02*
X170188857Y-125085714D01*
X170188857Y-125085714D02*
X170188857Y-125257143D01*
X170188857Y-125257143D02*
X170246000Y-125371428D01*
X170246000Y-125371428D02*
X170360285Y-125428571D01*
X170360285Y-125428571D02*
X170417428Y-125428571D01*
X170417428Y-125428571D02*
X170531714Y-125371428D01*
X170531714Y-125371428D02*
X170588857Y-125257143D01*
X170588857Y-125257143D02*
X170588857Y-125085714D01*
X170588857Y-125085714D02*
X170531714Y-124971428D01*
X169788857Y-124399999D02*
X170588857Y-124399999D01*
X170988857Y-124399999D02*
X170931714Y-124457142D01*
X170931714Y-124457142D02*
X170874571Y-124399999D01*
X170874571Y-124399999D02*
X170931714Y-124342856D01*
X170931714Y-124342856D02*
X170988857Y-124399999D01*
X170988857Y-124399999D02*
X170874571Y-124399999D01*
X170588857Y-123314285D02*
X169617428Y-123314285D01*
X169617428Y-123314285D02*
X169503142Y-123371427D01*
X169503142Y-123371427D02*
X169446000Y-123428570D01*
X169446000Y-123428570D02*
X169388857Y-123542856D01*
X169388857Y-123542856D02*
X169388857Y-123714285D01*
X169388857Y-123714285D02*
X169446000Y-123828570D01*
X169846000Y-123314285D02*
X169788857Y-123428570D01*
X169788857Y-123428570D02*
X169788857Y-123657142D01*
X169788857Y-123657142D02*
X169846000Y-123771427D01*
X169846000Y-123771427D02*
X169903142Y-123828570D01*
X169903142Y-123828570D02*
X170017428Y-123885713D01*
X170017428Y-123885713D02*
X170360285Y-123885713D01*
X170360285Y-123885713D02*
X170474571Y-123828570D01*
X170474571Y-123828570D02*
X170531714Y-123771427D01*
X170531714Y-123771427D02*
X170588857Y-123657142D01*
X170588857Y-123657142D02*
X170588857Y-123428570D01*
X170588857Y-123428570D02*
X170531714Y-123314285D01*
X170588857Y-122742856D02*
X169788857Y-122742856D01*
X170474571Y-122742856D02*
X170531714Y-122685713D01*
X170531714Y-122685713D02*
X170588857Y-122571428D01*
X170588857Y-122571428D02*
X170588857Y-122399999D01*
X170588857Y-122399999D02*
X170531714Y-122285713D01*
X170531714Y-122285713D02*
X170417428Y-122228571D01*
X170417428Y-122228571D02*
X169788857Y-122228571D01*
X169846000Y-121199999D02*
X169788857Y-121314285D01*
X169788857Y-121314285D02*
X169788857Y-121542857D01*
X169788857Y-121542857D02*
X169846000Y-121657142D01*
X169846000Y-121657142D02*
X169960285Y-121714285D01*
X169960285Y-121714285D02*
X170417428Y-121714285D01*
X170417428Y-121714285D02*
X170531714Y-121657142D01*
X170531714Y-121657142D02*
X170588857Y-121542857D01*
X170588857Y-121542857D02*
X170588857Y-121314285D01*
X170588857Y-121314285D02*
X170531714Y-121199999D01*
X170531714Y-121199999D02*
X170417428Y-121142857D01*
X170417428Y-121142857D02*
X170303142Y-121142857D01*
X170303142Y-121142857D02*
X170188857Y-121714285D01*
X169788857Y-120114286D02*
X170988857Y-120114286D01*
X169846000Y-120114286D02*
X169788857Y-120228571D01*
X169788857Y-120228571D02*
X169788857Y-120457143D01*
X169788857Y-120457143D02*
X169846000Y-120571428D01*
X169846000Y-120571428D02*
X169903142Y-120628571D01*
X169903142Y-120628571D02*
X170017428Y-120685714D01*
X170017428Y-120685714D02*
X170360285Y-120685714D01*
X170360285Y-120685714D02*
X170474571Y-120628571D01*
X170474571Y-120628571D02*
X170531714Y-120571428D01*
X170531714Y-120571428D02*
X170588857Y-120457143D01*
X170588857Y-120457143D02*
X170588857Y-120228571D01*
X170588857Y-120228571D02*
X170531714Y-120114286D01*
X169788857Y-118628571D02*
X170988857Y-118628571D01*
X170531714Y-118628571D02*
X170588857Y-118514286D01*
X170588857Y-118514286D02*
X170588857Y-118285714D01*
X170588857Y-118285714D02*
X170531714Y-118171428D01*
X170531714Y-118171428D02*
X170474571Y-118114286D01*
X170474571Y-118114286D02*
X170360285Y-118057143D01*
X170360285Y-118057143D02*
X170017428Y-118057143D01*
X170017428Y-118057143D02*
X169903142Y-118114286D01*
X169903142Y-118114286D02*
X169846000Y-118171428D01*
X169846000Y-118171428D02*
X169788857Y-118285714D01*
X169788857Y-118285714D02*
X169788857Y-118514286D01*
X169788857Y-118514286D02*
X169846000Y-118628571D01*
X170588857Y-117657143D02*
X169788857Y-117371429D01*
X170588857Y-117085714D02*
X169788857Y-117371429D01*
X169788857Y-117371429D02*
X169503142Y-117485714D01*
X169503142Y-117485714D02*
X169446000Y-117542857D01*
X169446000Y-117542857D02*
X169388857Y-117657143D01*
X168473428Y-127542855D02*
X168473428Y-127942855D01*
X167844857Y-127942855D02*
X169044857Y-127942855D01*
X169044857Y-127942855D02*
X169044857Y-127371427D01*
X167844857Y-126742856D02*
X167902000Y-126857141D01*
X167902000Y-126857141D02*
X168016285Y-126914284D01*
X168016285Y-126914284D02*
X169044857Y-126914284D01*
X168644857Y-126399999D02*
X167844857Y-126114285D01*
X168644857Y-125828570D02*
X167844857Y-126114285D01*
X167844857Y-126114285D02*
X167559142Y-126228570D01*
X167559142Y-126228570D02*
X167502000Y-126285713D01*
X167502000Y-126285713D02*
X167444857Y-126399999D01*
X168644857Y-125485713D02*
X167844857Y-125257142D01*
X167844857Y-125257142D02*
X168416285Y-125028570D01*
X168416285Y-125028570D02*
X167844857Y-124799999D01*
X167844857Y-124799999D02*
X168644857Y-124571427D01*
X167844857Y-124114284D02*
X169044857Y-124114284D01*
X167844857Y-123599999D02*
X168473428Y-123599999D01*
X168473428Y-123599999D02*
X168587714Y-123657141D01*
X168587714Y-123657141D02*
X168644857Y-123771427D01*
X168644857Y-123771427D02*
X168644857Y-123942856D01*
X168644857Y-123942856D02*
X168587714Y-124057141D01*
X168587714Y-124057141D02*
X168530571Y-124114284D01*
X167902000Y-122571427D02*
X167844857Y-122685713D01*
X167844857Y-122685713D02*
X167844857Y-122914285D01*
X167844857Y-122914285D02*
X167902000Y-123028570D01*
X167902000Y-123028570D02*
X168016285Y-123085713D01*
X168016285Y-123085713D02*
X168473428Y-123085713D01*
X168473428Y-123085713D02*
X168587714Y-123028570D01*
X168587714Y-123028570D02*
X168644857Y-122914285D01*
X168644857Y-122914285D02*
X168644857Y-122685713D01*
X168644857Y-122685713D02*
X168587714Y-122571427D01*
X168587714Y-122571427D02*
X168473428Y-122514285D01*
X168473428Y-122514285D02*
X168359142Y-122514285D01*
X168359142Y-122514285D02*
X168244857Y-123085713D01*
X167902000Y-121542856D02*
X167844857Y-121657142D01*
X167844857Y-121657142D02*
X167844857Y-121885714D01*
X167844857Y-121885714D02*
X167902000Y-121999999D01*
X167902000Y-121999999D02*
X168016285Y-122057142D01*
X168016285Y-122057142D02*
X168473428Y-122057142D01*
X168473428Y-122057142D02*
X168587714Y-121999999D01*
X168587714Y-121999999D02*
X168644857Y-121885714D01*
X168644857Y-121885714D02*
X168644857Y-121657142D01*
X168644857Y-121657142D02*
X168587714Y-121542856D01*
X168587714Y-121542856D02*
X168473428Y-121485714D01*
X168473428Y-121485714D02*
X168359142Y-121485714D01*
X168359142Y-121485714D02*
X168244857Y-122057142D01*
X167844857Y-120800000D02*
X167902000Y-120914285D01*
X167902000Y-120914285D02*
X168016285Y-120971428D01*
X168016285Y-120971428D02*
X169044857Y-120971428D01*
X167844857Y-118857143D02*
X167844857Y-119428571D01*
X167844857Y-119428571D02*
X169044857Y-119428571D01*
X167844857Y-117942857D02*
X168473428Y-117942857D01*
X168473428Y-117942857D02*
X168587714Y-117999999D01*
X168587714Y-117999999D02*
X168644857Y-118114285D01*
X168644857Y-118114285D02*
X168644857Y-118342857D01*
X168644857Y-118342857D02*
X168587714Y-118457142D01*
X167902000Y-117942857D02*
X167844857Y-118057142D01*
X167844857Y-118057142D02*
X167844857Y-118342857D01*
X167844857Y-118342857D02*
X167902000Y-118457142D01*
X167902000Y-118457142D02*
X168016285Y-118514285D01*
X168016285Y-118514285D02*
X168130571Y-118514285D01*
X168130571Y-118514285D02*
X168244857Y-118457142D01*
X168244857Y-118457142D02*
X168302000Y-118342857D01*
X168302000Y-118342857D02*
X168302000Y-118057142D01*
X168302000Y-118057142D02*
X168359142Y-117942857D01*
X167844857Y-117371428D02*
X169044857Y-117371428D01*
X168587714Y-117371428D02*
X168644857Y-117257143D01*
X168644857Y-117257143D02*
X168644857Y-117028571D01*
X168644857Y-117028571D02*
X168587714Y-116914285D01*
X168587714Y-116914285D02*
X168530571Y-116857143D01*
X168530571Y-116857143D02*
X168416285Y-116800000D01*
X168416285Y-116800000D02*
X168073428Y-116800000D01*
X168073428Y-116800000D02*
X167959142Y-116857143D01*
X167959142Y-116857143D02*
X167902000Y-116914285D01*
X167902000Y-116914285D02*
X167844857Y-117028571D01*
X167844857Y-117028571D02*
X167844857Y-117257143D01*
X167844857Y-117257143D02*
X167902000Y-117371428D01*
X166529428Y-127457142D02*
X166472285Y-127285714D01*
X166472285Y-127285714D02*
X166415142Y-127228571D01*
X166415142Y-127228571D02*
X166300857Y-127171428D01*
X166300857Y-127171428D02*
X166129428Y-127171428D01*
X166129428Y-127171428D02*
X166015142Y-127228571D01*
X166015142Y-127228571D02*
X165958000Y-127285714D01*
X165958000Y-127285714D02*
X165900857Y-127399999D01*
X165900857Y-127399999D02*
X165900857Y-127857142D01*
X165900857Y-127857142D02*
X167100857Y-127857142D01*
X167100857Y-127857142D02*
X167100857Y-127457142D01*
X167100857Y-127457142D02*
X167043714Y-127342857D01*
X167043714Y-127342857D02*
X166986571Y-127285714D01*
X166986571Y-127285714D02*
X166872285Y-127228571D01*
X166872285Y-127228571D02*
X166758000Y-127228571D01*
X166758000Y-127228571D02*
X166643714Y-127285714D01*
X166643714Y-127285714D02*
X166586571Y-127342857D01*
X166586571Y-127342857D02*
X166529428Y-127457142D01*
X166529428Y-127457142D02*
X166529428Y-127857142D01*
X165900857Y-126657142D02*
X166700857Y-126657142D01*
X166472285Y-126657142D02*
X166586571Y-126599999D01*
X166586571Y-126599999D02*
X166643714Y-126542857D01*
X166643714Y-126542857D02*
X166700857Y-126428571D01*
X166700857Y-126428571D02*
X166700857Y-126314285D01*
X165900857Y-125742857D02*
X165958000Y-125857142D01*
X165958000Y-125857142D02*
X166015142Y-125914285D01*
X166015142Y-125914285D02*
X166129428Y-125971428D01*
X166129428Y-125971428D02*
X166472285Y-125971428D01*
X166472285Y-125971428D02*
X166586571Y-125914285D01*
X166586571Y-125914285D02*
X166643714Y-125857142D01*
X166643714Y-125857142D02*
X166700857Y-125742857D01*
X166700857Y-125742857D02*
X166700857Y-125571428D01*
X166700857Y-125571428D02*
X166643714Y-125457142D01*
X166643714Y-125457142D02*
X166586571Y-125400000D01*
X166586571Y-125400000D02*
X166472285Y-125342857D01*
X166472285Y-125342857D02*
X166129428Y-125342857D01*
X166129428Y-125342857D02*
X166015142Y-125400000D01*
X166015142Y-125400000D02*
X165958000Y-125457142D01*
X165958000Y-125457142D02*
X165900857Y-125571428D01*
X165900857Y-125571428D02*
X165900857Y-125742857D01*
X165900857Y-124657143D02*
X165958000Y-124771428D01*
X165958000Y-124771428D02*
X166015142Y-124828571D01*
X166015142Y-124828571D02*
X166129428Y-124885714D01*
X166129428Y-124885714D02*
X166472285Y-124885714D01*
X166472285Y-124885714D02*
X166586571Y-124828571D01*
X166586571Y-124828571D02*
X166643714Y-124771428D01*
X166643714Y-124771428D02*
X166700857Y-124657143D01*
X166700857Y-124657143D02*
X166700857Y-124485714D01*
X166700857Y-124485714D02*
X166643714Y-124371428D01*
X166643714Y-124371428D02*
X166586571Y-124314286D01*
X166586571Y-124314286D02*
X166472285Y-124257143D01*
X166472285Y-124257143D02*
X166129428Y-124257143D01*
X166129428Y-124257143D02*
X166015142Y-124314286D01*
X166015142Y-124314286D02*
X165958000Y-124371428D01*
X165958000Y-124371428D02*
X165900857Y-124485714D01*
X165900857Y-124485714D02*
X165900857Y-124657143D01*
X165900857Y-123742857D02*
X167100857Y-123742857D01*
X166358000Y-123628572D02*
X165900857Y-123285714D01*
X166700857Y-123285714D02*
X166243714Y-123742857D01*
X165900857Y-122600000D02*
X165958000Y-122714285D01*
X165958000Y-122714285D02*
X166072285Y-122771428D01*
X166072285Y-122771428D02*
X167100857Y-122771428D01*
X166700857Y-122257143D02*
X165900857Y-121971429D01*
X166700857Y-121685714D02*
X165900857Y-121971429D01*
X165900857Y-121971429D02*
X165615142Y-122085714D01*
X165615142Y-122085714D02*
X165558000Y-122142857D01*
X165558000Y-122142857D02*
X165500857Y-122257143D01*
X166700857Y-121228571D02*
X165900857Y-121228571D01*
X166586571Y-121228571D02*
X166643714Y-121171428D01*
X166643714Y-121171428D02*
X166700857Y-121057143D01*
X166700857Y-121057143D02*
X166700857Y-120885714D01*
X166700857Y-120885714D02*
X166643714Y-120771428D01*
X166643714Y-120771428D02*
X166529428Y-120714286D01*
X166529428Y-120714286D02*
X165900857Y-120714286D01*
X165958000Y-120085714D02*
X165900857Y-120085714D01*
X165900857Y-120085714D02*
X165786571Y-120142857D01*
X165786571Y-120142857D02*
X165729428Y-120200000D01*
X165900857Y-118657142D02*
X167100857Y-118657142D01*
X167100857Y-118657142D02*
X165900857Y-117971428D01*
X165900857Y-117971428D02*
X167100857Y-117971428D01*
X166472285Y-117171428D02*
X165900857Y-117171428D01*
X167100857Y-117571428D02*
X166472285Y-117171428D01*
X166472285Y-117171428D02*
X167100857Y-116771428D01*
D11*
X169971428Y-82477571D02*
X170257142Y-82477571D01*
X170257142Y-82477571D02*
X170257142Y-81877571D01*
X169771428Y-82163285D02*
X169571428Y-82163285D01*
X169485714Y-82477571D02*
X169771428Y-82477571D01*
X169771428Y-82477571D02*
X169771428Y-81877571D01*
X169771428Y-81877571D02*
X169485714Y-81877571D01*
X169028571Y-82163285D02*
X169228571Y-82163285D01*
X169228571Y-82477571D02*
X169228571Y-81877571D01*
X169228571Y-81877571D02*
X168942857Y-81877571D01*
X168800000Y-81877571D02*
X168457143Y-81877571D01*
X168628571Y-82477571D02*
X168628571Y-81877571D01*
X170328570Y-75477571D02*
X170328570Y-74877571D01*
X170328570Y-74877571D02*
X170128570Y-75306142D01*
X170128570Y-75306142D02*
X169928570Y-74877571D01*
X169928570Y-74877571D02*
X169928570Y-75477571D01*
X169642856Y-75477571D02*
X169642856Y-74877571D01*
X169014285Y-75420428D02*
X169042857Y-75449000D01*
X169042857Y-75449000D02*
X169128571Y-75477571D01*
X169128571Y-75477571D02*
X169185714Y-75477571D01*
X169185714Y-75477571D02*
X169271428Y-75449000D01*
X169271428Y-75449000D02*
X169328571Y-75391857D01*
X169328571Y-75391857D02*
X169357142Y-75334714D01*
X169357142Y-75334714D02*
X169385714Y-75220428D01*
X169385714Y-75220428D02*
X169385714Y-75134714D01*
X169385714Y-75134714D02*
X169357142Y-75020428D01*
X169357142Y-75020428D02*
X169328571Y-74963285D01*
X169328571Y-74963285D02*
X169271428Y-74906142D01*
X169271428Y-74906142D02*
X169185714Y-74877571D01*
X169185714Y-74877571D02*
X169128571Y-74877571D01*
X169128571Y-74877571D02*
X169042857Y-74906142D01*
X169042857Y-74906142D02*
X169014285Y-74934714D01*
X168442857Y-75477571D02*
X168785714Y-75477571D01*
X168614285Y-75477571D02*
X168614285Y-74877571D01*
X168614285Y-74877571D02*
X168671428Y-74963285D01*
X168671428Y-74963285D02*
X168728571Y-75020428D01*
X168728571Y-75020428D02*
X168785714Y-75049000D01*
X138328570Y-75277571D02*
X138328570Y-74677571D01*
X138328570Y-74677571D02*
X138128570Y-75106142D01*
X138128570Y-75106142D02*
X137928570Y-74677571D01*
X137928570Y-74677571D02*
X137928570Y-75277571D01*
X137642856Y-75277571D02*
X137642856Y-74677571D01*
X137014285Y-75220428D02*
X137042857Y-75249000D01*
X137042857Y-75249000D02*
X137128571Y-75277571D01*
X137128571Y-75277571D02*
X137185714Y-75277571D01*
X137185714Y-75277571D02*
X137271428Y-75249000D01*
X137271428Y-75249000D02*
X137328571Y-75191857D01*
X137328571Y-75191857D02*
X137357142Y-75134714D01*
X137357142Y-75134714D02*
X137385714Y-75020428D01*
X137385714Y-75020428D02*
X137385714Y-74934714D01*
X137385714Y-74934714D02*
X137357142Y-74820428D01*
X137357142Y-74820428D02*
X137328571Y-74763285D01*
X137328571Y-74763285D02*
X137271428Y-74706142D01*
X137271428Y-74706142D02*
X137185714Y-74677571D01*
X137185714Y-74677571D02*
X137128571Y-74677571D01*
X137128571Y-74677571D02*
X137042857Y-74706142D01*
X137042857Y-74706142D02*
X137014285Y-74734714D01*
X136785714Y-74734714D02*
X136757142Y-74706142D01*
X136757142Y-74706142D02*
X136700000Y-74677571D01*
X136700000Y-74677571D02*
X136557142Y-74677571D01*
X136557142Y-74677571D02*
X136500000Y-74706142D01*
X136500000Y-74706142D02*
X136471428Y-74734714D01*
X136471428Y-74734714D02*
X136442857Y-74791857D01*
X136442857Y-74791857D02*
X136442857Y-74849000D01*
X136442857Y-74849000D02*
X136471428Y-74934714D01*
X136471428Y-74934714D02*
X136814285Y-75277571D01*
X136814285Y-75277571D02*
X136442857Y-75277571D01*
X143957142Y-72477571D02*
X143957142Y-72963285D01*
X143957142Y-72963285D02*
X143928571Y-73020428D01*
X143928571Y-73020428D02*
X143900000Y-73049000D01*
X143900000Y-73049000D02*
X143842857Y-73077571D01*
X143842857Y-73077571D02*
X143728571Y-73077571D01*
X143728571Y-73077571D02*
X143671428Y-73049000D01*
X143671428Y-73049000D02*
X143642857Y-73020428D01*
X143642857Y-73020428D02*
X143614285Y-72963285D01*
X143614285Y-72963285D02*
X143614285Y-72477571D01*
X143042857Y-72477571D02*
X143328571Y-72477571D01*
X143328571Y-72477571D02*
X143357143Y-72763285D01*
X143357143Y-72763285D02*
X143328571Y-72734714D01*
X143328571Y-72734714D02*
X143271429Y-72706142D01*
X143271429Y-72706142D02*
X143128571Y-72706142D01*
X143128571Y-72706142D02*
X143071429Y-72734714D01*
X143071429Y-72734714D02*
X143042857Y-72763285D01*
X143042857Y-72763285D02*
X143014286Y-72820428D01*
X143014286Y-72820428D02*
X143014286Y-72963285D01*
X143014286Y-72963285D02*
X143042857Y-73020428D01*
X143042857Y-73020428D02*
X143071429Y-73049000D01*
X143071429Y-73049000D02*
X143128571Y-73077571D01*
X143128571Y-73077571D02*
X143271429Y-73077571D01*
X143271429Y-73077571D02*
X143328571Y-73049000D01*
X143328571Y-73049000D02*
X143357143Y-73020428D01*
D10*
X154928333Y-105463833D02*
X154928333Y-104763833D01*
X154928333Y-104763833D02*
X154761666Y-104763833D01*
X154761666Y-104763833D02*
X154661666Y-104797166D01*
X154661666Y-104797166D02*
X154595000Y-104863833D01*
X154595000Y-104863833D02*
X154561666Y-104930500D01*
X154561666Y-104930500D02*
X154528333Y-105063833D01*
X154528333Y-105063833D02*
X154528333Y-105163833D01*
X154528333Y-105163833D02*
X154561666Y-105297166D01*
X154561666Y-105297166D02*
X154595000Y-105363833D01*
X154595000Y-105363833D02*
X154661666Y-105430500D01*
X154661666Y-105430500D02*
X154761666Y-105463833D01*
X154761666Y-105463833D02*
X154928333Y-105463833D01*
X154328333Y-104763833D02*
X154095000Y-105463833D01*
X154095000Y-105463833D02*
X153861666Y-104763833D01*
X153428333Y-104763833D02*
X153428333Y-105263833D01*
X153428333Y-105263833D02*
X153461666Y-105363833D01*
X153461666Y-105363833D02*
X153528333Y-105430500D01*
X153528333Y-105430500D02*
X153628333Y-105463833D01*
X153628333Y-105463833D02*
X153695000Y-105463833D01*
X152795000Y-104763833D02*
X152928333Y-104763833D01*
X152928333Y-104763833D02*
X152995000Y-104797166D01*
X152995000Y-104797166D02*
X153028333Y-104830500D01*
X153028333Y-104830500D02*
X153095000Y-104930500D01*
X153095000Y-104930500D02*
X153128333Y-105063833D01*
X153128333Y-105063833D02*
X153128333Y-105330500D01*
X153128333Y-105330500D02*
X153095000Y-105397166D01*
X153095000Y-105397166D02*
X153061667Y-105430500D01*
X153061667Y-105430500D02*
X152995000Y-105463833D01*
X152995000Y-105463833D02*
X152861667Y-105463833D01*
X152861667Y-105463833D02*
X152795000Y-105430500D01*
X152795000Y-105430500D02*
X152761667Y-105397166D01*
X152761667Y-105397166D02*
X152728333Y-105330500D01*
X152728333Y-105330500D02*
X152728333Y-105163833D01*
X152728333Y-105163833D02*
X152761667Y-105097166D01*
X152761667Y-105097166D02*
X152795000Y-105063833D01*
X152795000Y-105063833D02*
X152861667Y-105030500D01*
X152861667Y-105030500D02*
X152995000Y-105030500D01*
X152995000Y-105030500D02*
X153061667Y-105063833D01*
X153061667Y-105063833D02*
X153095000Y-105097166D01*
X153095000Y-105097166D02*
X153128333Y-105163833D01*
X152461666Y-105263833D02*
X152128333Y-105263833D01*
X152528333Y-105463833D02*
X152295000Y-104763833D01*
X152295000Y-104763833D02*
X152061666Y-105463833D01*
X153827619Y-75350952D02*
X152827619Y-75350952D01*
X152827619Y-75350952D02*
X153541904Y-75684285D01*
X153541904Y-75684285D02*
X152827619Y-76017618D01*
X152827619Y-76017618D02*
X153827619Y-76017618D01*
X153827619Y-76493809D02*
X153160952Y-76493809D01*
X152827619Y-76493809D02*
X152875238Y-76446190D01*
X152875238Y-76446190D02*
X152922857Y-76493809D01*
X152922857Y-76493809D02*
X152875238Y-76541428D01*
X152875238Y-76541428D02*
X152827619Y-76493809D01*
X152827619Y-76493809D02*
X152922857Y-76493809D01*
X153780000Y-77398570D02*
X153827619Y-77303332D01*
X153827619Y-77303332D02*
X153827619Y-77112856D01*
X153827619Y-77112856D02*
X153780000Y-77017618D01*
X153780000Y-77017618D02*
X153732380Y-76969999D01*
X153732380Y-76969999D02*
X153637142Y-76922380D01*
X153637142Y-76922380D02*
X153351428Y-76922380D01*
X153351428Y-76922380D02*
X153256190Y-76969999D01*
X153256190Y-76969999D02*
X153208571Y-77017618D01*
X153208571Y-77017618D02*
X153160952Y-77112856D01*
X153160952Y-77112856D02*
X153160952Y-77303332D01*
X153160952Y-77303332D02*
X153208571Y-77398570D01*
X153827619Y-77827142D02*
X153160952Y-77827142D01*
X153351428Y-77827142D02*
X153256190Y-77874761D01*
X153256190Y-77874761D02*
X153208571Y-77922380D01*
X153208571Y-77922380D02*
X153160952Y-78017618D01*
X153160952Y-78017618D02*
X153160952Y-78112856D01*
X153827619Y-78589047D02*
X153780000Y-78493809D01*
X153780000Y-78493809D02*
X153732380Y-78446190D01*
X153732380Y-78446190D02*
X153637142Y-78398571D01*
X153637142Y-78398571D02*
X153351428Y-78398571D01*
X153351428Y-78398571D02*
X153256190Y-78446190D01*
X153256190Y-78446190D02*
X153208571Y-78493809D01*
X153208571Y-78493809D02*
X153160952Y-78589047D01*
X153160952Y-78589047D02*
X153160952Y-78731904D01*
X153160952Y-78731904D02*
X153208571Y-78827142D01*
X153208571Y-78827142D02*
X153256190Y-78874761D01*
X153256190Y-78874761D02*
X153351428Y-78922380D01*
X153351428Y-78922380D02*
X153637142Y-78922380D01*
X153637142Y-78922380D02*
X153732380Y-78874761D01*
X153732380Y-78874761D02*
X153780000Y-78827142D01*
X153780000Y-78827142D02*
X153827619Y-78731904D01*
X153827619Y-78731904D02*
X153827619Y-78589047D01*
X153780000Y-80065238D02*
X153827619Y-80208095D01*
X153827619Y-80208095D02*
X153827619Y-80446190D01*
X153827619Y-80446190D02*
X153780000Y-80541428D01*
X153780000Y-80541428D02*
X153732380Y-80589047D01*
X153732380Y-80589047D02*
X153637142Y-80636666D01*
X153637142Y-80636666D02*
X153541904Y-80636666D01*
X153541904Y-80636666D02*
X153446666Y-80589047D01*
X153446666Y-80589047D02*
X153399047Y-80541428D01*
X153399047Y-80541428D02*
X153351428Y-80446190D01*
X153351428Y-80446190D02*
X153303809Y-80255714D01*
X153303809Y-80255714D02*
X153256190Y-80160476D01*
X153256190Y-80160476D02*
X153208571Y-80112857D01*
X153208571Y-80112857D02*
X153113333Y-80065238D01*
X153113333Y-80065238D02*
X153018095Y-80065238D01*
X153018095Y-80065238D02*
X152922857Y-80112857D01*
X152922857Y-80112857D02*
X152875238Y-80160476D01*
X152875238Y-80160476D02*
X152827619Y-80255714D01*
X152827619Y-80255714D02*
X152827619Y-80493809D01*
X152827619Y-80493809D02*
X152875238Y-80636666D01*
X153827619Y-81065238D02*
X152827619Y-81065238D01*
X152827619Y-81065238D02*
X152827619Y-81303333D01*
X152827619Y-81303333D02*
X152875238Y-81446190D01*
X152875238Y-81446190D02*
X152970476Y-81541428D01*
X152970476Y-81541428D02*
X153065714Y-81589047D01*
X153065714Y-81589047D02*
X153256190Y-81636666D01*
X153256190Y-81636666D02*
X153399047Y-81636666D01*
X153399047Y-81636666D02*
X153589523Y-81589047D01*
X153589523Y-81589047D02*
X153684761Y-81541428D01*
X153684761Y-81541428D02*
X153780000Y-81446190D01*
X153780000Y-81446190D02*
X153827619Y-81303333D01*
X153827619Y-81303333D02*
X153827619Y-81065238D01*
X154626904Y-128732619D02*
X154626904Y-129542142D01*
X154626904Y-129542142D02*
X154579285Y-129637380D01*
X154579285Y-129637380D02*
X154531666Y-129685000D01*
X154531666Y-129685000D02*
X154436428Y-129732619D01*
X154436428Y-129732619D02*
X154245952Y-129732619D01*
X154245952Y-129732619D02*
X154150714Y-129685000D01*
X154150714Y-129685000D02*
X154103095Y-129637380D01*
X154103095Y-129637380D02*
X154055476Y-129542142D01*
X154055476Y-129542142D02*
X154055476Y-128732619D01*
X153626904Y-129685000D02*
X153484047Y-129732619D01*
X153484047Y-129732619D02*
X153245952Y-129732619D01*
X153245952Y-129732619D02*
X153150714Y-129685000D01*
X153150714Y-129685000D02*
X153103095Y-129637380D01*
X153103095Y-129637380D02*
X153055476Y-129542142D01*
X153055476Y-129542142D02*
X153055476Y-129446904D01*
X153055476Y-129446904D02*
X153103095Y-129351666D01*
X153103095Y-129351666D02*
X153150714Y-129304047D01*
X153150714Y-129304047D02*
X153245952Y-129256428D01*
X153245952Y-129256428D02*
X153436428Y-129208809D01*
X153436428Y-129208809D02*
X153531666Y-129161190D01*
X153531666Y-129161190D02*
X153579285Y-129113571D01*
X153579285Y-129113571D02*
X153626904Y-129018333D01*
X153626904Y-129018333D02*
X153626904Y-128923095D01*
X153626904Y-128923095D02*
X153579285Y-128827857D01*
X153579285Y-128827857D02*
X153531666Y-128780238D01*
X153531666Y-128780238D02*
X153436428Y-128732619D01*
X153436428Y-128732619D02*
X153198333Y-128732619D01*
X153198333Y-128732619D02*
X153055476Y-128780238D01*
X152293571Y-129208809D02*
X152150714Y-129256428D01*
X152150714Y-129256428D02*
X152103095Y-129304047D01*
X152103095Y-129304047D02*
X152055476Y-129399285D01*
X152055476Y-129399285D02*
X152055476Y-129542142D01*
X152055476Y-129542142D02*
X152103095Y-129637380D01*
X152103095Y-129637380D02*
X152150714Y-129685000D01*
X152150714Y-129685000D02*
X152245952Y-129732619D01*
X152245952Y-129732619D02*
X152626904Y-129732619D01*
X152626904Y-129732619D02*
X152626904Y-128732619D01*
X152626904Y-128732619D02*
X152293571Y-128732619D01*
X152293571Y-128732619D02*
X152198333Y-128780238D01*
X152198333Y-128780238D02*
X152150714Y-128827857D01*
X152150714Y-128827857D02*
X152103095Y-128923095D01*
X152103095Y-128923095D02*
X152103095Y-129018333D01*
X152103095Y-129018333D02*
X152150714Y-129113571D01*
X152150714Y-129113571D02*
X152198333Y-129161190D01*
X152198333Y-129161190D02*
X152293571Y-129208809D01*
X152293571Y-129208809D02*
X152626904Y-129208809D01*
X156448333Y-104193833D02*
X156448333Y-103493833D01*
X156448333Y-103493833D02*
X156215000Y-103993833D01*
X156215000Y-103993833D02*
X155981666Y-103493833D01*
X155981666Y-103493833D02*
X155981666Y-104193833D01*
X155648333Y-104193833D02*
X155648333Y-103493833D01*
X155315000Y-104193833D02*
X155315000Y-103493833D01*
X155315000Y-103493833D02*
X155081667Y-103993833D01*
X155081667Y-103993833D02*
X154848333Y-103493833D01*
X154848333Y-103493833D02*
X154848333Y-104193833D01*
X154581667Y-103493833D02*
X154115000Y-104193833D01*
X154115000Y-103493833D02*
X154581667Y-104193833D01*
X153448333Y-104193833D02*
X153681666Y-103860500D01*
X153848333Y-104193833D02*
X153848333Y-103493833D01*
X153848333Y-103493833D02*
X153581666Y-103493833D01*
X153581666Y-103493833D02*
X153515000Y-103527166D01*
X153515000Y-103527166D02*
X153481666Y-103560500D01*
X153481666Y-103560500D02*
X153448333Y-103627166D01*
X153448333Y-103627166D02*
X153448333Y-103727166D01*
X153448333Y-103727166D02*
X153481666Y-103793833D01*
X153481666Y-103793833D02*
X153515000Y-103827166D01*
X153515000Y-103827166D02*
X153581666Y-103860500D01*
X153581666Y-103860500D02*
X153848333Y-103860500D01*
X153248333Y-103493833D02*
X152848333Y-103493833D01*
X153048333Y-104193833D02*
X153048333Y-103493833D01*
X152248333Y-104193833D02*
X152648333Y-104193833D01*
X152448333Y-104193833D02*
X152448333Y-103493833D01*
X152448333Y-103493833D02*
X152515000Y-103593833D01*
X152515000Y-103593833D02*
X152581667Y-103660500D01*
X152581667Y-103660500D02*
X152648333Y-103693833D01*
X151815000Y-103493833D02*
X151748333Y-103493833D01*
X151748333Y-103493833D02*
X151681666Y-103527166D01*
X151681666Y-103527166D02*
X151648333Y-103560500D01*
X151648333Y-103560500D02*
X151615000Y-103627166D01*
X151615000Y-103627166D02*
X151581666Y-103760500D01*
X151581666Y-103760500D02*
X151581666Y-103927166D01*
X151581666Y-103927166D02*
X151615000Y-104060500D01*
X151615000Y-104060500D02*
X151648333Y-104127166D01*
X151648333Y-104127166D02*
X151681666Y-104160500D01*
X151681666Y-104160500D02*
X151748333Y-104193833D01*
X151748333Y-104193833D02*
X151815000Y-104193833D01*
X151815000Y-104193833D02*
X151881666Y-104160500D01*
X151881666Y-104160500D02*
X151915000Y-104127166D01*
X151915000Y-104127166D02*
X151948333Y-104060500D01*
X151948333Y-104060500D02*
X151981666Y-103927166D01*
X151981666Y-103927166D02*
X151981666Y-103760500D01*
X151981666Y-103760500D02*
X151948333Y-103627166D01*
X151948333Y-103627166D02*
X151915000Y-103560500D01*
X151915000Y-103560500D02*
X151881666Y-103527166D01*
X151881666Y-103527166D02*
X151815000Y-103493833D01*
X150981666Y-103493833D02*
X151114999Y-103493833D01*
X151114999Y-103493833D02*
X151181666Y-103527166D01*
X151181666Y-103527166D02*
X151214999Y-103560500D01*
X151214999Y-103560500D02*
X151281666Y-103660500D01*
X151281666Y-103660500D02*
X151314999Y-103793833D01*
X151314999Y-103793833D02*
X151314999Y-104060500D01*
X151314999Y-104060500D02*
X151281666Y-104127166D01*
X151281666Y-104127166D02*
X151248333Y-104160500D01*
X151248333Y-104160500D02*
X151181666Y-104193833D01*
X151181666Y-104193833D02*
X151048333Y-104193833D01*
X151048333Y-104193833D02*
X150981666Y-104160500D01*
X150981666Y-104160500D02*
X150948333Y-104127166D01*
X150948333Y-104127166D02*
X150914999Y-104060500D01*
X150914999Y-104060500D02*
X150914999Y-103893833D01*
X150914999Y-103893833D02*
X150948333Y-103827166D01*
X150948333Y-103827166D02*
X150981666Y-103793833D01*
X150981666Y-103793833D02*
X151048333Y-103760500D01*
X151048333Y-103760500D02*
X151181666Y-103760500D01*
X151181666Y-103760500D02*
X151248333Y-103793833D01*
X151248333Y-103793833D02*
X151281666Y-103827166D01*
X151281666Y-103827166D02*
X151314999Y-103893833D01*
X150648332Y-103560500D02*
X150614999Y-103527166D01*
X150614999Y-103527166D02*
X150548332Y-103493833D01*
X150548332Y-103493833D02*
X150381666Y-103493833D01*
X150381666Y-103493833D02*
X150314999Y-103527166D01*
X150314999Y-103527166D02*
X150281666Y-103560500D01*
X150281666Y-103560500D02*
X150248332Y-103627166D01*
X150248332Y-103627166D02*
X150248332Y-103693833D01*
X150248332Y-103693833D02*
X150281666Y-103793833D01*
X150281666Y-103793833D02*
X150681666Y-104193833D01*
X150681666Y-104193833D02*
X150248332Y-104193833D01*
D11*
X164077571Y-109199999D02*
X164506142Y-109199999D01*
X164506142Y-109199999D02*
X164591857Y-109171428D01*
X164591857Y-109171428D02*
X164649000Y-109114285D01*
X164649000Y-109114285D02*
X164677571Y-109028571D01*
X164677571Y-109028571D02*
X164677571Y-108971428D01*
X164277571Y-109742857D02*
X164677571Y-109742857D01*
X164049000Y-109599999D02*
X164477571Y-109457142D01*
X164477571Y-109457142D02*
X164477571Y-109828571D01*
D10*
X133812619Y-106716666D02*
X134526904Y-106716666D01*
X134526904Y-106716666D02*
X134669761Y-106669047D01*
X134669761Y-106669047D02*
X134765000Y-106573809D01*
X134765000Y-106573809D02*
X134812619Y-106430952D01*
X134812619Y-106430952D02*
X134812619Y-106335714D01*
X133812619Y-107097619D02*
X133812619Y-107764285D01*
X133812619Y-107764285D02*
X134812619Y-107335714D01*
D13*
X167400000Y-76200000D02*
X167400000Y-80950000D01*
X167400000Y-80950000D02*
X171400000Y-80950000D01*
X171400000Y-76200000D02*
X167400000Y-76200000D01*
X171400000Y-80950000D02*
X171400000Y-76200000D01*
X135400000Y-76200000D02*
X135400000Y-80950000D01*
X135400000Y-80950000D02*
X139400000Y-80950000D01*
X139400000Y-76200000D02*
X135400000Y-76200000D01*
X139400000Y-80950000D02*
X139400000Y-76200000D01*
D10*
X149555000Y-134350000D02*
X157175000Y-134350000D01*
X157175000Y-134350000D02*
X157175000Y-133080000D01*
D14*
X159665000Y-133140000D02*
X162325000Y-133140000D01*
X159665000Y-133140000D02*
X159665000Y-132570000D01*
X162325000Y-133140000D02*
X162325000Y-130030000D01*
X144435000Y-133130000D02*
X147095000Y-133130000D01*
X144435000Y-133130000D02*
X144435000Y-132560000D01*
X147095000Y-133130000D02*
X147095000Y-130020000D01*
D10*
X144475000Y-133080000D02*
X162255000Y-133080000D01*
X149555000Y-133080000D02*
X149555000Y-134350000D01*
X162255000Y-133080000D02*
X162255000Y-72120000D01*
D14*
X159665000Y-132570000D02*
X158145000Y-132570000D01*
X144435000Y-132560000D02*
X142915000Y-132560000D01*
X159665000Y-131050000D02*
X159665000Y-127490000D01*
X144435000Y-131040000D02*
X144435000Y-127480000D01*
X162325000Y-128510000D02*
X162325000Y-124950000D01*
X147095000Y-128500000D02*
X147095000Y-124940000D01*
D10*
X149555000Y-128000000D02*
X149555000Y-133080000D01*
X149555000Y-128000000D02*
X157175000Y-128000000D01*
X157175000Y-128000000D02*
X157175000Y-133080000D01*
D14*
X159665000Y-125970000D02*
X159665000Y-122410000D01*
X144435000Y-125960000D02*
X144435000Y-122400000D01*
X162325000Y-123430000D02*
X162325000Y-119870000D01*
X147095000Y-123420000D02*
X147095000Y-119860000D01*
X159665000Y-120890000D02*
X159665000Y-117330000D01*
X144435000Y-120880000D02*
X144435000Y-117320000D01*
X162325000Y-118350000D02*
X162325000Y-114790000D01*
X147095000Y-118340000D02*
X147095000Y-114780000D01*
X159665000Y-115810000D02*
X159665000Y-112250000D01*
X144435000Y-115800000D02*
X144435000Y-112240000D01*
X162325000Y-113270000D02*
X162325000Y-109710000D01*
X147095000Y-113260000D02*
X147095000Y-109700000D01*
X159665000Y-110730000D02*
X159665000Y-107170000D01*
X144435000Y-110720000D02*
X144435000Y-107160000D01*
D10*
X147015000Y-110220000D02*
X147015000Y-97520000D01*
X159715000Y-110220000D02*
X147015000Y-110220000D01*
D14*
X162325000Y-108190000D02*
X162325000Y-104630000D01*
X147095000Y-108180000D02*
X147095000Y-104620000D01*
X159665000Y-105650000D02*
X159665000Y-102090000D01*
X144435000Y-105640000D02*
X144435000Y-102080000D01*
X162325000Y-103110000D02*
X162325000Y-99550000D01*
X147095000Y-103100000D02*
X147095000Y-99540000D01*
X159665000Y-100570000D02*
X159665000Y-97010000D01*
X144435000Y-100560000D02*
X144435000Y-97000000D01*
X162325000Y-98030000D02*
X162325000Y-94470000D01*
X147095000Y-98020000D02*
X147095000Y-94460000D01*
D10*
X147015000Y-97520000D02*
X159715000Y-97520000D01*
X159715000Y-97520000D02*
X159715000Y-110220000D01*
D14*
X159665000Y-95490000D02*
X159665000Y-91930000D01*
X144435000Y-95480000D02*
X144435000Y-91920000D01*
X162325000Y-92950000D02*
X162325000Y-89390000D01*
X147095000Y-92940000D02*
X147095000Y-89380000D01*
D10*
X152095000Y-92440000D02*
X154635000Y-92440000D01*
X154635000Y-92440000D02*
X154635000Y-88630000D01*
D14*
X159665000Y-90410000D02*
X159665000Y-86850000D01*
X144435000Y-90400000D02*
X144435000Y-86840000D01*
D10*
X152095000Y-88630000D02*
X152095000Y-92440000D01*
X154635000Y-88630000D02*
X152095000Y-88630000D01*
D14*
X162325000Y-87870000D02*
X162325000Y-84310000D01*
X147095000Y-87860000D02*
X147095000Y-84300000D01*
X159665000Y-85330000D02*
X159665000Y-81770000D01*
X144435000Y-85320000D02*
X144435000Y-81760000D01*
D10*
X147015000Y-84820000D02*
X147015000Y-72120000D01*
X159715000Y-84820000D02*
X147015000Y-84820000D01*
D14*
X162325000Y-82790000D02*
X162325000Y-79230000D01*
X147095000Y-82780000D02*
X147095000Y-79220000D01*
X159665000Y-80250000D02*
X159665000Y-76690000D01*
X144435000Y-80240000D02*
X144435000Y-76680000D01*
X162325000Y-77710000D02*
X162325000Y-74150000D01*
X147095000Y-77700000D02*
X147095000Y-74140000D01*
X159665000Y-75170000D02*
X159665000Y-72060000D01*
X144435000Y-75160000D02*
X144435000Y-72050000D01*
D10*
X148285000Y-73390000D02*
X148285000Y-72120000D01*
X158445000Y-73390000D02*
X148285000Y-73390000D01*
D14*
X162325000Y-72630000D02*
X162325000Y-72060000D01*
X147095000Y-72620000D02*
X147095000Y-72050000D01*
D10*
X144475000Y-72120000D02*
X144475000Y-133080000D01*
X158445000Y-72120000D02*
X158445000Y-73390000D01*
X159715000Y-72120000D02*
X159715000Y-84820000D01*
X162255000Y-72120000D02*
X144475000Y-72120000D01*
D14*
X159665000Y-72060000D02*
X162325000Y-72060000D01*
X144435000Y-72050000D02*
X147095000Y-72050000D01*
D10*
X154263026Y-90535000D02*
G75*
G03*
X154263026Y-90535000I-898026J0D01*
G01*
D13*
X154434000Y-101943000D02*
X154180000Y-102197000D01*
X153799000Y-101943000D01*
X154053000Y-101689000D01*
X154434000Y-101943000D01*
G36*
X154434000Y-101943000D02*
G01*
X154180000Y-102197000D01*
X153799000Y-101943000D01*
X154053000Y-101689000D01*
X154434000Y-101943000D01*
G37*
X153926000Y-101562000D02*
X153672000Y-101816000D01*
X153291000Y-101562000D01*
X153545000Y-101308000D01*
X153926000Y-101562000D01*
G36*
X153926000Y-101562000D02*
G01*
X153672000Y-101816000D01*
X153291000Y-101562000D01*
X153545000Y-101308000D01*
X153926000Y-101562000D01*
G37*
X153418000Y-101181000D02*
X153164000Y-101435000D01*
X152783000Y-101181000D01*
X153037000Y-100927000D01*
X153418000Y-101181000D01*
G36*
X153418000Y-101181000D02*
G01*
X153164000Y-101435000D01*
X152783000Y-101181000D01*
X153037000Y-100927000D01*
X153418000Y-101181000D01*
G37*
X154307000Y-101181000D02*
X154053000Y-101435000D01*
X153672000Y-101181000D01*
X153926000Y-100927000D01*
X154307000Y-101181000D01*
G36*
X154307000Y-101181000D02*
G01*
X154053000Y-101435000D01*
X153672000Y-101181000D01*
X153926000Y-100927000D01*
X154307000Y-101181000D01*
G37*
X153799000Y-100800000D02*
X153545000Y-101054000D01*
X153164000Y-100800000D01*
X153418000Y-100546000D01*
X153799000Y-100800000D01*
G36*
X153799000Y-100800000D02*
G01*
X153545000Y-101054000D01*
X153164000Y-100800000D01*
X153418000Y-100546000D01*
X153799000Y-100800000D01*
G37*
X153291000Y-100419000D02*
X153037000Y-100673000D01*
X152656000Y-100419000D01*
X152910000Y-100165000D01*
X153291000Y-100419000D01*
G36*
X153291000Y-100419000D02*
G01*
X153037000Y-100673000D01*
X152656000Y-100419000D01*
X152910000Y-100165000D01*
X153291000Y-100419000D01*
G37*
X153672000Y-100038000D02*
X153418000Y-100292000D01*
X153037000Y-100038000D01*
X153291000Y-99784000D01*
X153672000Y-100038000D01*
G36*
X153672000Y-100038000D02*
G01*
X153418000Y-100292000D01*
X153037000Y-100038000D01*
X153291000Y-99784000D01*
X153672000Y-100038000D01*
G37*
X154053000Y-99657000D02*
X153799000Y-99911000D01*
X153418000Y-99657000D01*
X153672000Y-99403000D01*
X154053000Y-99657000D01*
G36*
X154053000Y-99657000D02*
G01*
X153799000Y-99911000D01*
X153418000Y-99657000D01*
X153672000Y-99403000D01*
X154053000Y-99657000D01*
G37*
D15*
X153526934Y-64424695D02*
X153681932Y-64425607D01*
X153822767Y-64427597D01*
X153943805Y-64430503D01*
X154039413Y-64434160D01*
X154103957Y-64438405D01*
X154131802Y-64443075D01*
X154139228Y-64455424D01*
X154155898Y-64507300D01*
X154178242Y-64596568D01*
X154205648Y-64720544D01*
X154237501Y-64876542D01*
X154273189Y-65061876D01*
X154279238Y-65094029D01*
X154308360Y-65247353D01*
X154335327Y-65387012D01*
X154359027Y-65507414D01*
X154378348Y-65602967D01*
X154392181Y-65668078D01*
X154399413Y-65697157D01*
X154410216Y-65709404D01*
X154454286Y-65738369D01*
X154523061Y-65774002D01*
X154607276Y-65811220D01*
X154658816Y-65832333D01*
X154778537Y-65881596D01*
X154906812Y-65934599D01*
X155023481Y-65983022D01*
X155102059Y-66014572D01*
X155187356Y-66046039D01*
X155253785Y-66067438D01*
X155291382Y-66075333D01*
X155295115Y-66074693D01*
X155331189Y-66057881D01*
X155396005Y-66020510D01*
X155484745Y-65965612D01*
X155592591Y-65896221D01*
X155714725Y-65815367D01*
X155846330Y-65726083D01*
X155879427Y-65703404D01*
X156007900Y-65616149D01*
X156124713Y-65538015D01*
X156225246Y-65472009D01*
X156304877Y-65421139D01*
X156358985Y-65388411D01*
X156382951Y-65376833D01*
X156383836Y-65377001D01*
X156407541Y-65394317D01*
X156455729Y-65436895D01*
X156523810Y-65500192D01*
X156607193Y-65579665D01*
X156701289Y-65670771D01*
X156801506Y-65768968D01*
X156903254Y-65869714D01*
X157001943Y-65968464D01*
X157092983Y-66060678D01*
X157171782Y-66141811D01*
X157233750Y-66207321D01*
X157274298Y-66252665D01*
X157288834Y-66273301D01*
X157288053Y-66275621D01*
X157270821Y-66305118D01*
X157233257Y-66363754D01*
X157178355Y-66447017D01*
X157109112Y-66550393D01*
X157028523Y-66669371D01*
X156939584Y-66799438D01*
X156917633Y-66831464D01*
X156830206Y-66960462D01*
X156751904Y-67078248D01*
X156685746Y-67180122D01*
X156634752Y-67261381D01*
X156601942Y-67317324D01*
X156590334Y-67343251D01*
X156590341Y-67343631D01*
X156599043Y-67375091D01*
X156622108Y-67437854D01*
X156656517Y-67524871D01*
X156699252Y-67629095D01*
X156747294Y-67743476D01*
X156797624Y-67860966D01*
X156847224Y-67974517D01*
X156893074Y-68077078D01*
X156932157Y-68161602D01*
X156961454Y-68221040D01*
X156977946Y-68248344D01*
X156980464Y-68249985D01*
X157015609Y-68261565D01*
X157085719Y-68279173D01*
X157185322Y-68301613D01*
X157308942Y-68327684D01*
X157451104Y-68356188D01*
X157606334Y-68385927D01*
X158209584Y-68498917D01*
X158215196Y-69132538D01*
X158215618Y-69187719D01*
X158216047Y-69343647D01*
X158215333Y-69484117D01*
X158213575Y-69603753D01*
X158210873Y-69697183D01*
X158207328Y-69759033D01*
X158203039Y-69783928D01*
X158179089Y-69792194D01*
X158118925Y-69806960D01*
X158028262Y-69826934D01*
X157912730Y-69850917D01*
X157777959Y-69877709D01*
X157629578Y-69906110D01*
X157486064Y-69933244D01*
X157348049Y-69959679D01*
X157228032Y-69983017D01*
X157131917Y-70002100D01*
X157065612Y-70015767D01*
X157035021Y-70022858D01*
X157030755Y-70025057D01*
X157008460Y-70052205D01*
X156976481Y-70110542D01*
X156933775Y-70202271D01*
X156879302Y-70329597D01*
X156812019Y-70494722D01*
X156781728Y-70570914D01*
X156732299Y-70698022D01*
X156689930Y-70810497D01*
X156656865Y-70902203D01*
X156635350Y-70967005D01*
X156627630Y-70998766D01*
X156628618Y-71004219D01*
X156646562Y-71043343D01*
X156684305Y-71109491D01*
X156738260Y-71196806D01*
X156804839Y-71299433D01*
X156880457Y-71411516D01*
X156892843Y-71429538D01*
X156974015Y-71547676D01*
X157051513Y-71660512D01*
X157120259Y-71760650D01*
X157175175Y-71840695D01*
X157211186Y-71893250D01*
X157248410Y-71950203D01*
X157277637Y-72000373D01*
X157288834Y-72027376D01*
X157287981Y-72029515D01*
X157266847Y-72055647D01*
X157220167Y-72106584D01*
X157151709Y-72178412D01*
X157065238Y-72267214D01*
X156964521Y-72369077D01*
X156853325Y-72480084D01*
X156827431Y-72505709D01*
X156716261Y-72614234D01*
X156614277Y-72711460D01*
X156525597Y-72793628D01*
X156454334Y-72856975D01*
X156404605Y-72897742D01*
X156380525Y-72912167D01*
X156350215Y-72901089D01*
X156293271Y-72870035D01*
X156218256Y-72823831D01*
X156133409Y-72767307D01*
X156013235Y-72684436D01*
X155851079Y-72573078D01*
X155718656Y-72482886D01*
X155612977Y-72411912D01*
X155531052Y-72358211D01*
X155469892Y-72319833D01*
X155426508Y-72294831D01*
X155397910Y-72281258D01*
X155381110Y-72277167D01*
X155351677Y-72285461D01*
X155292454Y-72310349D01*
X155213350Y-72347842D01*
X155123278Y-72393904D01*
X155082209Y-72415446D01*
X154994597Y-72459099D01*
X154935674Y-72483686D01*
X154899941Y-72491257D01*
X154881895Y-72483862D01*
X154878965Y-72479562D01*
X154858589Y-72440501D01*
X154829261Y-72376260D01*
X154796286Y-72298334D01*
X154790950Y-72285277D01*
X154758093Y-72205260D01*
X154712253Y-72094037D01*
X154656097Y-71958044D01*
X154592290Y-71803716D01*
X154523497Y-71637491D01*
X154452384Y-71465803D01*
X154381616Y-71295088D01*
X154313860Y-71131783D01*
X154251779Y-70982323D01*
X154198041Y-70853145D01*
X154155310Y-70750683D01*
X154114790Y-70654220D01*
X154075199Y-70557525D01*
X154051231Y-70487937D01*
X154043246Y-70438379D01*
X154051607Y-70401771D01*
X154076676Y-70371033D01*
X154118813Y-70339087D01*
X154178380Y-70298853D01*
X154257526Y-70243636D01*
X154357350Y-70168000D01*
X154435972Y-70097895D01*
X154503138Y-70024314D01*
X154568595Y-69938250D01*
X154638013Y-69835558D01*
X154703474Y-69719370D01*
X154752079Y-69601886D01*
X154791742Y-69466371D01*
X154814078Y-69359463D01*
X154831527Y-69137402D01*
X154811293Y-68922584D01*
X154756476Y-68718163D01*
X154670176Y-68527291D01*
X154555493Y-68353120D01*
X154415528Y-68198805D01*
X154253382Y-68067498D01*
X154072153Y-67962351D01*
X153874943Y-67886517D01*
X153664853Y-67843149D01*
X153444981Y-67835399D01*
X153218429Y-67866422D01*
X153118938Y-67892843D01*
X152906048Y-67979077D01*
X152714625Y-68098487D01*
X152547933Y-68247273D01*
X152409234Y-68421633D01*
X152301791Y-68617767D01*
X152228866Y-68831875D01*
X152193722Y-69060156D01*
X152194928Y-69262179D01*
X152233228Y-69491573D01*
X152310398Y-69707125D01*
X152425254Y-69905669D01*
X152576612Y-70084039D01*
X152609335Y-70115492D01*
X152694332Y-70191178D01*
X152778825Y-70259486D01*
X152848587Y-70308667D01*
X152908099Y-70347990D01*
X152956665Y-70385104D01*
X152979457Y-70409227D01*
X152978318Y-70424569D01*
X152964174Y-70474860D01*
X152937495Y-70552010D01*
X152900782Y-70648917D01*
X152856535Y-70758477D01*
X152808796Y-70873483D01*
X152746618Y-71023534D01*
X152678768Y-71187480D01*
X152610676Y-71352203D01*
X152547770Y-71504584D01*
X152535212Y-71535024D01*
X152444574Y-71754401D01*
X152368332Y-71938058D01*
X152305079Y-72089087D01*
X152253409Y-72210577D01*
X152211918Y-72305621D01*
X152179199Y-72377310D01*
X152153846Y-72428734D01*
X152134453Y-72462984D01*
X152119616Y-72483152D01*
X152107927Y-72492329D01*
X152097982Y-72493606D01*
X152080131Y-72487449D01*
X152028884Y-72463879D01*
X151956762Y-72427313D01*
X151873333Y-72382481D01*
X151817294Y-72352580D01*
X151737795Y-72313704D01*
X151674631Y-72287056D01*
X151637931Y-72277167D01*
X151615053Y-72285791D01*
X151560586Y-72315820D01*
X151481130Y-72364262D01*
X151381844Y-72427870D01*
X151267889Y-72503401D01*
X151144422Y-72587608D01*
X151039449Y-72659424D01*
X150922598Y-72737498D01*
X150819193Y-72804591D01*
X150734517Y-72857347D01*
X150673858Y-72892407D01*
X150642500Y-72906416D01*
X150628413Y-72906275D01*
X150604723Y-72897687D01*
X150572261Y-72876734D01*
X150527594Y-72840398D01*
X150467284Y-72785660D01*
X150387898Y-72709502D01*
X150285998Y-72608906D01*
X150158152Y-72480853D01*
X150117116Y-72439500D01*
X149989685Y-72309706D01*
X149890531Y-72206075D01*
X149817665Y-72126377D01*
X149769096Y-72068384D01*
X149742836Y-72029863D01*
X149736896Y-72008586D01*
X149739018Y-72002946D01*
X149760576Y-71963662D01*
X149800510Y-71899544D01*
X149854039Y-71818099D01*
X149916381Y-71726834D01*
X149992834Y-71616780D01*
X150102287Y-71458493D01*
X150190505Y-71329681D01*
X150259534Y-71227187D01*
X150311421Y-71147856D01*
X150348214Y-71088532D01*
X150371960Y-71046059D01*
X150384707Y-71017281D01*
X150388500Y-70999043D01*
X150380871Y-70966209D01*
X150359324Y-70901219D01*
X150326709Y-70811436D01*
X150285877Y-70703971D01*
X150239677Y-70585932D01*
X150190962Y-70464429D01*
X150142583Y-70346571D01*
X150097389Y-70239467D01*
X150058232Y-70150227D01*
X150027964Y-70085960D01*
X150009434Y-70053775D01*
X149998693Y-70044799D01*
X149967272Y-70029946D01*
X149914434Y-70013244D01*
X149836105Y-69993709D01*
X149728212Y-69970355D01*
X149586679Y-69942197D01*
X149407433Y-69908251D01*
X149402332Y-69907300D01*
X149251766Y-69878523D01*
X149114277Y-69850955D01*
X148995585Y-69825846D01*
X148901407Y-69804443D01*
X148837464Y-69787995D01*
X148809474Y-69777749D01*
X148801841Y-69756507D01*
X148794124Y-69697873D01*
X148787823Y-69609148D01*
X148782953Y-69496914D01*
X148779531Y-69367752D01*
X148777575Y-69228243D01*
X148777100Y-69084969D01*
X148778123Y-68944510D01*
X148780661Y-68813448D01*
X148784730Y-68698364D01*
X148790348Y-68605840D01*
X148797529Y-68542457D01*
X148806292Y-68514795D01*
X148828336Y-68506855D01*
X148887496Y-68491946D01*
X148977338Y-68471964D01*
X149092017Y-68448157D01*
X149225687Y-68421771D01*
X149372500Y-68394052D01*
X149484134Y-68373405D01*
X149645555Y-68343223D01*
X149772429Y-68318640D01*
X149869245Y-68298386D01*
X149940490Y-68281191D01*
X149990649Y-68265786D01*
X150024212Y-68250902D01*
X150045664Y-68235269D01*
X150059492Y-68217618D01*
X150070184Y-68196680D01*
X150100055Y-68131343D01*
X150158639Y-67999983D01*
X150216966Y-67865498D01*
X150272600Y-67733851D01*
X150323107Y-67611011D01*
X150366051Y-67502942D01*
X150398997Y-67415610D01*
X150419510Y-67354982D01*
X150425155Y-67327023D01*
X150424890Y-67326204D01*
X150409094Y-67297775D01*
X150372585Y-67239797D01*
X150318561Y-67157117D01*
X150250222Y-67054579D01*
X150170767Y-66937031D01*
X150083394Y-66809316D01*
X150076487Y-66799276D01*
X149989489Y-66672270D01*
X149910463Y-66555948D01*
X149842634Y-66455134D01*
X149789230Y-66374652D01*
X149753477Y-66319324D01*
X149738603Y-66293972D01*
X149741969Y-66280096D01*
X149769825Y-66239704D01*
X149825559Y-66174340D01*
X149909998Y-66083091D01*
X150023970Y-65965043D01*
X150168301Y-65819281D01*
X150202320Y-65785309D01*
X150312836Y-65676012D01*
X150413306Y-65578238D01*
X150499795Y-65495709D01*
X150568365Y-65432149D01*
X150615081Y-65391283D01*
X150636007Y-65376834D01*
X150655594Y-65384469D01*
X150704444Y-65412187D01*
X150772863Y-65455413D01*
X150852628Y-65509125D01*
X150956250Y-65580820D01*
X151143008Y-65709478D01*
X151298835Y-65815913D01*
X151426120Y-65901689D01*
X151527249Y-65968366D01*
X151604610Y-66017507D01*
X151660589Y-66050674D01*
X151697575Y-66069429D01*
X151717953Y-66075333D01*
X151739194Y-66070912D01*
X151796261Y-66052739D01*
X151879489Y-66022972D01*
X151981508Y-65984271D01*
X152094944Y-65939297D01*
X152152284Y-65916087D01*
X152289815Y-65860301D01*
X152394597Y-65817443D01*
X152471436Y-65785365D01*
X152525143Y-65761915D01*
X152560527Y-65744947D01*
X152582397Y-65732309D01*
X152595561Y-65721854D01*
X152604830Y-65711431D01*
X152606303Y-65708820D01*
X152617205Y-65673136D01*
X152634130Y-65602495D01*
X152655910Y-65502405D01*
X152681377Y-65378371D01*
X152709363Y-65235901D01*
X152738698Y-65080500D01*
X152745249Y-65045251D01*
X152774297Y-64892338D01*
X152801635Y-64753638D01*
X152826113Y-64634642D01*
X152846577Y-64540842D01*
X152861875Y-64477728D01*
X152870854Y-64450792D01*
X152878938Y-64445501D01*
X152909147Y-64438415D01*
X152963703Y-64432973D01*
X153046201Y-64429026D01*
X153160236Y-64426425D01*
X153309404Y-64425019D01*
X153497301Y-64424658D01*
X153526934Y-64424695D01*
G36*
X153526934Y-64424695D02*
G01*
X153681932Y-64425607D01*
X153822767Y-64427597D01*
X153943805Y-64430503D01*
X154039413Y-64434160D01*
X154103957Y-64438405D01*
X154131802Y-64443075D01*
X154139228Y-64455424D01*
X154155898Y-64507300D01*
X154178242Y-64596568D01*
X154205648Y-64720544D01*
X154237501Y-64876542D01*
X154273189Y-65061876D01*
X154279238Y-65094029D01*
X154308360Y-65247353D01*
X154335327Y-65387012D01*
X154359027Y-65507414D01*
X154378348Y-65602967D01*
X154392181Y-65668078D01*
X154399413Y-65697157D01*
X154410216Y-65709404D01*
X154454286Y-65738369D01*
X154523061Y-65774002D01*
X154607276Y-65811220D01*
X154658816Y-65832333D01*
X154778537Y-65881596D01*
X154906812Y-65934599D01*
X155023481Y-65983022D01*
X155102059Y-66014572D01*
X155187356Y-66046039D01*
X155253785Y-66067438D01*
X155291382Y-66075333D01*
X155295115Y-66074693D01*
X155331189Y-66057881D01*
X155396005Y-66020510D01*
X155484745Y-65965612D01*
X155592591Y-65896221D01*
X155714725Y-65815367D01*
X155846330Y-65726083D01*
X155879427Y-65703404D01*
X156007900Y-65616149D01*
X156124713Y-65538015D01*
X156225246Y-65472009D01*
X156304877Y-65421139D01*
X156358985Y-65388411D01*
X156382951Y-65376833D01*
X156383836Y-65377001D01*
X156407541Y-65394317D01*
X156455729Y-65436895D01*
X156523810Y-65500192D01*
X156607193Y-65579665D01*
X156701289Y-65670771D01*
X156801506Y-65768968D01*
X156903254Y-65869714D01*
X157001943Y-65968464D01*
X157092983Y-66060678D01*
X157171782Y-66141811D01*
X157233750Y-66207321D01*
X157274298Y-66252665D01*
X157288834Y-66273301D01*
X157288053Y-66275621D01*
X157270821Y-66305118D01*
X157233257Y-66363754D01*
X157178355Y-66447017D01*
X157109112Y-66550393D01*
X157028523Y-66669371D01*
X156939584Y-66799438D01*
X156917633Y-66831464D01*
X156830206Y-66960462D01*
X156751904Y-67078248D01*
X156685746Y-67180122D01*
X156634752Y-67261381D01*
X156601942Y-67317324D01*
X156590334Y-67343251D01*
X156590341Y-67343631D01*
X156599043Y-67375091D01*
X156622108Y-67437854D01*
X156656517Y-67524871D01*
X156699252Y-67629095D01*
X156747294Y-67743476D01*
X156797624Y-67860966D01*
X156847224Y-67974517D01*
X156893074Y-68077078D01*
X156932157Y-68161602D01*
X156961454Y-68221040D01*
X156977946Y-68248344D01*
X156980464Y-68249985D01*
X157015609Y-68261565D01*
X157085719Y-68279173D01*
X157185322Y-68301613D01*
X157308942Y-68327684D01*
X157451104Y-68356188D01*
X157606334Y-68385927D01*
X158209584Y-68498917D01*
X158215196Y-69132538D01*
X158215618Y-69187719D01*
X158216047Y-69343647D01*
X158215333Y-69484117D01*
X158213575Y-69603753D01*
X158210873Y-69697183D01*
X158207328Y-69759033D01*
X158203039Y-69783928D01*
X158179089Y-69792194D01*
X158118925Y-69806960D01*
X158028262Y-69826934D01*
X157912730Y-69850917D01*
X157777959Y-69877709D01*
X157629578Y-69906110D01*
X157486064Y-69933244D01*
X157348049Y-69959679D01*
X157228032Y-69983017D01*
X157131917Y-70002100D01*
X157065612Y-70015767D01*
X157035021Y-70022858D01*
X157030755Y-70025057D01*
X157008460Y-70052205D01*
X156976481Y-70110542D01*
X156933775Y-70202271D01*
X156879302Y-70329597D01*
X156812019Y-70494722D01*
X156781728Y-70570914D01*
X156732299Y-70698022D01*
X156689930Y-70810497D01*
X156656865Y-70902203D01*
X156635350Y-70967005D01*
X156627630Y-70998766D01*
X156628618Y-71004219D01*
X156646562Y-71043343D01*
X156684305Y-71109491D01*
X156738260Y-71196806D01*
X156804839Y-71299433D01*
X156880457Y-71411516D01*
X156892843Y-71429538D01*
X156974015Y-71547676D01*
X157051513Y-71660512D01*
X157120259Y-71760650D01*
X157175175Y-71840695D01*
X157211186Y-71893250D01*
X157248410Y-71950203D01*
X157277637Y-72000373D01*
X157288834Y-72027376D01*
X157287981Y-72029515D01*
X157266847Y-72055647D01*
X157220167Y-72106584D01*
X157151709Y-72178412D01*
X157065238Y-72267214D01*
X156964521Y-72369077D01*
X156853325Y-72480084D01*
X156827431Y-72505709D01*
X156716261Y-72614234D01*
X156614277Y-72711460D01*
X156525597Y-72793628D01*
X156454334Y-72856975D01*
X156404605Y-72897742D01*
X156380525Y-72912167D01*
X156350215Y-72901089D01*
X156293271Y-72870035D01*
X156218256Y-72823831D01*
X156133409Y-72767307D01*
X156013235Y-72684436D01*
X155851079Y-72573078D01*
X155718656Y-72482886D01*
X155612977Y-72411912D01*
X155531052Y-72358211D01*
X155469892Y-72319833D01*
X155426508Y-72294831D01*
X155397910Y-72281258D01*
X155381110Y-72277167D01*
X155351677Y-72285461D01*
X155292454Y-72310349D01*
X155213350Y-72347842D01*
X155123278Y-72393904D01*
X155082209Y-72415446D01*
X154994597Y-72459099D01*
X154935674Y-72483686D01*
X154899941Y-72491257D01*
X154881895Y-72483862D01*
X154878965Y-72479562D01*
X154858589Y-72440501D01*
X154829261Y-72376260D01*
X154796286Y-72298334D01*
X154790950Y-72285277D01*
X154758093Y-72205260D01*
X154712253Y-72094037D01*
X154656097Y-71958044D01*
X154592290Y-71803716D01*
X154523497Y-71637491D01*
X154452384Y-71465803D01*
X154381616Y-71295088D01*
X154313860Y-71131783D01*
X154251779Y-70982323D01*
X154198041Y-70853145D01*
X154155310Y-70750683D01*
X154114790Y-70654220D01*
X154075199Y-70557525D01*
X154051231Y-70487937D01*
X154043246Y-70438379D01*
X154051607Y-70401771D01*
X154076676Y-70371033D01*
X154118813Y-70339087D01*
X154178380Y-70298853D01*
X154257526Y-70243636D01*
X154357350Y-70168000D01*
X154435972Y-70097895D01*
X154503138Y-70024314D01*
X154568595Y-69938250D01*
X154638013Y-69835558D01*
X154703474Y-69719370D01*
X154752079Y-69601886D01*
X154791742Y-69466371D01*
X154814078Y-69359463D01*
X154831527Y-69137402D01*
X154811293Y-68922584D01*
X154756476Y-68718163D01*
X154670176Y-68527291D01*
X154555493Y-68353120D01*
X154415528Y-68198805D01*
X154253382Y-68067498D01*
X154072153Y-67962351D01*
X153874943Y-67886517D01*
X153664853Y-67843149D01*
X153444981Y-67835399D01*
X153218429Y-67866422D01*
X153118938Y-67892843D01*
X152906048Y-67979077D01*
X152714625Y-68098487D01*
X152547933Y-68247273D01*
X152409234Y-68421633D01*
X152301791Y-68617767D01*
X152228866Y-68831875D01*
X152193722Y-69060156D01*
X152194928Y-69262179D01*
X152233228Y-69491573D01*
X152310398Y-69707125D01*
X152425254Y-69905669D01*
X152576612Y-70084039D01*
X152609335Y-70115492D01*
X152694332Y-70191178D01*
X152778825Y-70259486D01*
X152848587Y-70308667D01*
X152908099Y-70347990D01*
X152956665Y-70385104D01*
X152979457Y-70409227D01*
X152978318Y-70424569D01*
X152964174Y-70474860D01*
X152937495Y-70552010D01*
X152900782Y-70648917D01*
X152856535Y-70758477D01*
X152808796Y-70873483D01*
X152746618Y-71023534D01*
X152678768Y-71187480D01*
X152610676Y-71352203D01*
X152547770Y-71504584D01*
X152535212Y-71535024D01*
X152444574Y-71754401D01*
X152368332Y-71938058D01*
X152305079Y-72089087D01*
X152253409Y-72210577D01*
X152211918Y-72305621D01*
X152179199Y-72377310D01*
X152153846Y-72428734D01*
X152134453Y-72462984D01*
X152119616Y-72483152D01*
X152107927Y-72492329D01*
X152097982Y-72493606D01*
X152080131Y-72487449D01*
X152028884Y-72463879D01*
X151956762Y-72427313D01*
X151873333Y-72382481D01*
X151817294Y-72352580D01*
X151737795Y-72313704D01*
X151674631Y-72287056D01*
X151637931Y-72277167D01*
X151615053Y-72285791D01*
X151560586Y-72315820D01*
X151481130Y-72364262D01*
X151381844Y-72427870D01*
X151267889Y-72503401D01*
X151144422Y-72587608D01*
X151039449Y-72659424D01*
X150922598Y-72737498D01*
X150819193Y-72804591D01*
X150734517Y-72857347D01*
X150673858Y-72892407D01*
X150642500Y-72906416D01*
X150628413Y-72906275D01*
X150604723Y-72897687D01*
X150572261Y-72876734D01*
X150527594Y-72840398D01*
X150467284Y-72785660D01*
X150387898Y-72709502D01*
X150285998Y-72608906D01*
X150158152Y-72480853D01*
X150117116Y-72439500D01*
X149989685Y-72309706D01*
X149890531Y-72206075D01*
X149817665Y-72126377D01*
X149769096Y-72068384D01*
X149742836Y-72029863D01*
X149736896Y-72008586D01*
X149739018Y-72002946D01*
X149760576Y-71963662D01*
X149800510Y-71899544D01*
X149854039Y-71818099D01*
X149916381Y-71726834D01*
X149992834Y-71616780D01*
X150102287Y-71458493D01*
X150190505Y-71329681D01*
X150259534Y-71227187D01*
X150311421Y-71147856D01*
X150348214Y-71088532D01*
X150371960Y-71046059D01*
X150384707Y-71017281D01*
X150388500Y-70999043D01*
X150380871Y-70966209D01*
X150359324Y-70901219D01*
X150326709Y-70811436D01*
X150285877Y-70703971D01*
X150239677Y-70585932D01*
X150190962Y-70464429D01*
X150142583Y-70346571D01*
X150097389Y-70239467D01*
X150058232Y-70150227D01*
X150027964Y-70085960D01*
X150009434Y-70053775D01*
X149998693Y-70044799D01*
X149967272Y-70029946D01*
X149914434Y-70013244D01*
X149836105Y-69993709D01*
X149728212Y-69970355D01*
X149586679Y-69942197D01*
X149407433Y-69908251D01*
X149402332Y-69907300D01*
X149251766Y-69878523D01*
X149114277Y-69850955D01*
X148995585Y-69825846D01*
X148901407Y-69804443D01*
X148837464Y-69787995D01*
X148809474Y-69777749D01*
X148801841Y-69756507D01*
X148794124Y-69697873D01*
X148787823Y-69609148D01*
X148782953Y-69496914D01*
X148779531Y-69367752D01*
X148777575Y-69228243D01*
X148777100Y-69084969D01*
X148778123Y-68944510D01*
X148780661Y-68813448D01*
X148784730Y-68698364D01*
X148790348Y-68605840D01*
X148797529Y-68542457D01*
X148806292Y-68514795D01*
X148828336Y-68506855D01*
X148887496Y-68491946D01*
X148977338Y-68471964D01*
X149092017Y-68448157D01*
X149225687Y-68421771D01*
X149372500Y-68394052D01*
X149484134Y-68373405D01*
X149645555Y-68343223D01*
X149772429Y-68318640D01*
X149869245Y-68298386D01*
X149940490Y-68281191D01*
X149990649Y-68265786D01*
X150024212Y-68250902D01*
X150045664Y-68235269D01*
X150059492Y-68217618D01*
X150070184Y-68196680D01*
X150100055Y-68131343D01*
X150158639Y-67999983D01*
X150216966Y-67865498D01*
X150272600Y-67733851D01*
X150323107Y-67611011D01*
X150366051Y-67502942D01*
X150398997Y-67415610D01*
X150419510Y-67354982D01*
X150425155Y-67327023D01*
X150424890Y-67326204D01*
X150409094Y-67297775D01*
X150372585Y-67239797D01*
X150318561Y-67157117D01*
X150250222Y-67054579D01*
X150170767Y-66937031D01*
X150083394Y-66809316D01*
X150076487Y-66799276D01*
X149989489Y-66672270D01*
X149910463Y-66555948D01*
X149842634Y-66455134D01*
X149789230Y-66374652D01*
X149753477Y-66319324D01*
X149738603Y-66293972D01*
X149741969Y-66280096D01*
X149769825Y-66239704D01*
X149825559Y-66174340D01*
X149909998Y-66083091D01*
X150023970Y-65965043D01*
X150168301Y-65819281D01*
X150202320Y-65785309D01*
X150312836Y-65676012D01*
X150413306Y-65578238D01*
X150499795Y-65495709D01*
X150568365Y-65432149D01*
X150615081Y-65391283D01*
X150636007Y-65376834D01*
X150655594Y-65384469D01*
X150704444Y-65412187D01*
X150772863Y-65455413D01*
X150852628Y-65509125D01*
X150956250Y-65580820D01*
X151143008Y-65709478D01*
X151298835Y-65815913D01*
X151426120Y-65901689D01*
X151527249Y-65968366D01*
X151604610Y-66017507D01*
X151660589Y-66050674D01*
X151697575Y-66069429D01*
X151717953Y-66075333D01*
X151739194Y-66070912D01*
X151796261Y-66052739D01*
X151879489Y-66022972D01*
X151981508Y-65984271D01*
X152094944Y-65939297D01*
X152152284Y-65916087D01*
X152289815Y-65860301D01*
X152394597Y-65817443D01*
X152471436Y-65785365D01*
X152525143Y-65761915D01*
X152560527Y-65744947D01*
X152582397Y-65732309D01*
X152595561Y-65721854D01*
X152604830Y-65711431D01*
X152606303Y-65708820D01*
X152617205Y-65673136D01*
X152634130Y-65602495D01*
X152655910Y-65502405D01*
X152681377Y-65378371D01*
X152709363Y-65235901D01*
X152738698Y-65080500D01*
X152745249Y-65045251D01*
X152774297Y-64892338D01*
X152801635Y-64753638D01*
X152826113Y-64634642D01*
X152846577Y-64540842D01*
X152861875Y-64477728D01*
X152870854Y-64450792D01*
X152878938Y-64445501D01*
X152909147Y-64438415D01*
X152963703Y-64432973D01*
X153046201Y-64429026D01*
X153160236Y-64426425D01*
X153309404Y-64425019D01*
X153497301Y-64424658D01*
X153526934Y-64424695D01*
G37*
D14*
X169137500Y-107900000D02*
X166787500Y-107900000D01*
X167987500Y-107900000D02*
X167987500Y-107900000D01*
X167987500Y-107900000D02*
X167987500Y-108400000D01*
X167287500Y-107900000D02*
X167287500Y-107900000D01*
X167287500Y-107900000D02*
X167287500Y-108400000D01*
X166787500Y-107900000D02*
X166787500Y-108800000D01*
X167987500Y-108400000D02*
X167987500Y-107900000D01*
X167987500Y-108400000D02*
X167987500Y-108400000D01*
X167987500Y-108400000D02*
X167987500Y-108400000D01*
X167987500Y-108400000D02*
X166787500Y-108400000D01*
X167287500Y-108400000D02*
X167287500Y-107900000D01*
X167287500Y-108400000D02*
X167287500Y-108400000D01*
X166787500Y-108400000D02*
X167987500Y-108400000D01*
X166787500Y-108400000D02*
X166787500Y-108400000D01*
X171037500Y-109000000D02*
X171037500Y-112800000D01*
X167987500Y-113400000D02*
X167987500Y-113400000D01*
X167987500Y-113400000D02*
X167987500Y-113400000D01*
X167987500Y-113400000D02*
X166787500Y-113400000D01*
X167987500Y-113400000D02*
X167987500Y-113900000D01*
X167287500Y-113400000D02*
X167287500Y-113400000D01*
X167287500Y-113400000D02*
X167287500Y-113900000D01*
X166787500Y-113400000D02*
X167987500Y-113400000D01*
X166787500Y-113400000D02*
X166787500Y-113400000D01*
X169137500Y-113900000D02*
X166787500Y-113900000D01*
X167987500Y-113900000D02*
X167987500Y-113400000D01*
X167987500Y-113900000D02*
X167987500Y-113900000D01*
X167287500Y-113900000D02*
X167287500Y-113400000D01*
X167287500Y-113900000D02*
X167287500Y-113900000D01*
X166787500Y-113900000D02*
X166787500Y-113000000D01*
X166462500Y-108400000D02*
G75*
G03*
X166462500Y-108400000I-250000J0D01*
G01*
X136150000Y-114650000D02*
X137850000Y-114650000D01*
X137850000Y-114650000D02*
X137850000Y-99450000D01*
X135350000Y-113850000D02*
X136150000Y-114650000D01*
X135350000Y-99450000D02*
X135350000Y-113850000D01*
X137850000Y-99450000D02*
X135350000Y-99450000D01*
M02*
