%TF.GenerationSoftware,KiCad,Pcbnew,7.0.1-0*%
%TF.CreationDate,2024-02-14T11:54:31-05:00*%
%TF.ProjectId,Tympan_Rev_F,54796d70-616e-45f5-9265-765f462e6b69,rev?*%
%TF.SameCoordinates,Original*%
%TF.FileFunction,Legend,Top*%
%TF.FilePolarity,Positive*%
%FSLAX46Y46*%
G04 Gerber Fmt 4.6, Leading zero omitted, Abs format (unit mm)*
G04 Created by KiCad (PCBNEW 7.0.1-0) date 2024-02-14 11:54:31*
%MOMM*%
%LPD*%
G01*
G04 APERTURE LIST*
%ADD10C,0.125000*%
%ADD11C,0.150000*%
%ADD12C,0.200000*%
%ADD13C,0.240000*%
%ADD14C,0.100000*%
%ADD15C,0.300000*%
%ADD16C,0.120000*%
%ADD17C,0.010000*%
G04 APERTURE END LIST*
D10*
X136600000Y-78877571D02*
X136400000Y-78591857D01*
X136257143Y-78877571D02*
X136257143Y-78277571D01*
X136257143Y-78277571D02*
X136485714Y-78277571D01*
X136485714Y-78277571D02*
X136542857Y-78306142D01*
X136542857Y-78306142D02*
X136571428Y-78334714D01*
X136571428Y-78334714D02*
X136600000Y-78391857D01*
X136600000Y-78391857D02*
X136600000Y-78477571D01*
X136600000Y-78477571D02*
X136571428Y-78534714D01*
X136571428Y-78534714D02*
X136542857Y-78563285D01*
X136542857Y-78563285D02*
X136485714Y-78591857D01*
X136485714Y-78591857D02*
X136257143Y-78591857D01*
X136857143Y-78877571D02*
X136857143Y-78277571D01*
X137457142Y-78306142D02*
X137400000Y-78277571D01*
X137400000Y-78277571D02*
X137314285Y-78277571D01*
X137314285Y-78277571D02*
X137228571Y-78306142D01*
X137228571Y-78306142D02*
X137171428Y-78363285D01*
X137171428Y-78363285D02*
X137142857Y-78420428D01*
X137142857Y-78420428D02*
X137114285Y-78534714D01*
X137114285Y-78534714D02*
X137114285Y-78620428D01*
X137114285Y-78620428D02*
X137142857Y-78734714D01*
X137142857Y-78734714D02*
X137171428Y-78791857D01*
X137171428Y-78791857D02*
X137228571Y-78849000D01*
X137228571Y-78849000D02*
X137314285Y-78877571D01*
X137314285Y-78877571D02*
X137371428Y-78877571D01*
X137371428Y-78877571D02*
X137457142Y-78849000D01*
X137457142Y-78849000D02*
X137485714Y-78820428D01*
X137485714Y-78820428D02*
X137485714Y-78620428D01*
X137485714Y-78620428D02*
X137371428Y-78620428D01*
X137742857Y-78877571D02*
X137742857Y-78277571D01*
X137742857Y-78563285D02*
X138085714Y-78563285D01*
X138085714Y-78877571D02*
X138085714Y-78277571D01*
X138285713Y-78277571D02*
X138628571Y-78277571D01*
X138457142Y-78877571D02*
X138457142Y-78277571D01*
D11*
X159642857Y-76893928D02*
X159928571Y-76893928D01*
X159928571Y-76893928D02*
X160071428Y-76965357D01*
X160071428Y-76965357D02*
X160214285Y-77108214D01*
X160214285Y-77108214D02*
X160285714Y-77393928D01*
X160285714Y-77393928D02*
X160285714Y-77893928D01*
X160285714Y-77893928D02*
X160214285Y-78179642D01*
X160214285Y-78179642D02*
X160071428Y-78322500D01*
X160071428Y-78322500D02*
X159928571Y-78393928D01*
X159928571Y-78393928D02*
X159642857Y-78393928D01*
X159642857Y-78393928D02*
X159500000Y-78322500D01*
X159500000Y-78322500D02*
X159357142Y-78179642D01*
X159357142Y-78179642D02*
X159285714Y-77893928D01*
X159285714Y-77893928D02*
X159285714Y-77393928D01*
X159285714Y-77393928D02*
X159357142Y-77108214D01*
X159357142Y-77108214D02*
X159500000Y-76965357D01*
X159500000Y-76965357D02*
X159642857Y-76893928D01*
X160928571Y-76893928D02*
X160928571Y-78108214D01*
X160928571Y-78108214D02*
X161000000Y-78251071D01*
X161000000Y-78251071D02*
X161071429Y-78322500D01*
X161071429Y-78322500D02*
X161214286Y-78393928D01*
X161214286Y-78393928D02*
X161500000Y-78393928D01*
X161500000Y-78393928D02*
X161642857Y-78322500D01*
X161642857Y-78322500D02*
X161714286Y-78251071D01*
X161714286Y-78251071D02*
X161785714Y-78108214D01*
X161785714Y-78108214D02*
X161785714Y-76893928D01*
X162285715Y-76893928D02*
X163142858Y-76893928D01*
X162714286Y-78393928D02*
X162714286Y-76893928D01*
X163642857Y-78393928D02*
X163642857Y-76893928D01*
X163642857Y-76893928D02*
X164214286Y-76893928D01*
X164214286Y-76893928D02*
X164357143Y-76965357D01*
X164357143Y-76965357D02*
X164428572Y-77036785D01*
X164428572Y-77036785D02*
X164500000Y-77179642D01*
X164500000Y-77179642D02*
X164500000Y-77393928D01*
X164500000Y-77393928D02*
X164428572Y-77536785D01*
X164428572Y-77536785D02*
X164357143Y-77608214D01*
X164357143Y-77608214D02*
X164214286Y-77679642D01*
X164214286Y-77679642D02*
X163642857Y-77679642D01*
X165142857Y-76893928D02*
X165142857Y-78108214D01*
X165142857Y-78108214D02*
X165214286Y-78251071D01*
X165214286Y-78251071D02*
X165285715Y-78322500D01*
X165285715Y-78322500D02*
X165428572Y-78393928D01*
X165428572Y-78393928D02*
X165714286Y-78393928D01*
X165714286Y-78393928D02*
X165857143Y-78322500D01*
X165857143Y-78322500D02*
X165928572Y-78251071D01*
X165928572Y-78251071D02*
X166000000Y-78108214D01*
X166000000Y-78108214D02*
X166000000Y-76893928D01*
X166500001Y-76893928D02*
X167357144Y-76893928D01*
X166928572Y-78393928D02*
X166928572Y-76893928D01*
D12*
X143742857Y-117255142D02*
X144200000Y-117255142D01*
X143914286Y-116855142D02*
X143914286Y-117883714D01*
X143914286Y-117883714D02*
X143971429Y-117998000D01*
X143971429Y-117998000D02*
X144085714Y-118055142D01*
X144085714Y-118055142D02*
X144200000Y-118055142D01*
X144485714Y-117255142D02*
X144771428Y-118055142D01*
X145057143Y-117255142D02*
X144771428Y-118055142D01*
X144771428Y-118055142D02*
X144657143Y-118340857D01*
X144657143Y-118340857D02*
X144600000Y-118398000D01*
X144600000Y-118398000D02*
X144485714Y-118455142D01*
X145514286Y-118055142D02*
X145514286Y-117255142D01*
X145514286Y-117369428D02*
X145571429Y-117312285D01*
X145571429Y-117312285D02*
X145685714Y-117255142D01*
X145685714Y-117255142D02*
X145857143Y-117255142D01*
X145857143Y-117255142D02*
X145971429Y-117312285D01*
X145971429Y-117312285D02*
X146028572Y-117426571D01*
X146028572Y-117426571D02*
X146028572Y-118055142D01*
X146028572Y-117426571D02*
X146085714Y-117312285D01*
X146085714Y-117312285D02*
X146200000Y-117255142D01*
X146200000Y-117255142D02*
X146371429Y-117255142D01*
X146371429Y-117255142D02*
X146485714Y-117312285D01*
X146485714Y-117312285D02*
X146542857Y-117426571D01*
X146542857Y-117426571D02*
X146542857Y-118055142D01*
X147114286Y-117255142D02*
X147114286Y-118455142D01*
X147114286Y-117312285D02*
X147228572Y-117255142D01*
X147228572Y-117255142D02*
X147457143Y-117255142D01*
X147457143Y-117255142D02*
X147571429Y-117312285D01*
X147571429Y-117312285D02*
X147628572Y-117369428D01*
X147628572Y-117369428D02*
X147685714Y-117483714D01*
X147685714Y-117483714D02*
X147685714Y-117826571D01*
X147685714Y-117826571D02*
X147628572Y-117940857D01*
X147628572Y-117940857D02*
X147571429Y-117998000D01*
X147571429Y-117998000D02*
X147457143Y-118055142D01*
X147457143Y-118055142D02*
X147228572Y-118055142D01*
X147228572Y-118055142D02*
X147114286Y-117998000D01*
X148714286Y-118055142D02*
X148714286Y-117426571D01*
X148714286Y-117426571D02*
X148657143Y-117312285D01*
X148657143Y-117312285D02*
X148542857Y-117255142D01*
X148542857Y-117255142D02*
X148314286Y-117255142D01*
X148314286Y-117255142D02*
X148200000Y-117312285D01*
X148714286Y-117998000D02*
X148600000Y-118055142D01*
X148600000Y-118055142D02*
X148314286Y-118055142D01*
X148314286Y-118055142D02*
X148200000Y-117998000D01*
X148200000Y-117998000D02*
X148142857Y-117883714D01*
X148142857Y-117883714D02*
X148142857Y-117769428D01*
X148142857Y-117769428D02*
X148200000Y-117655142D01*
X148200000Y-117655142D02*
X148314286Y-117598000D01*
X148314286Y-117598000D02*
X148600000Y-117598000D01*
X148600000Y-117598000D02*
X148714286Y-117540857D01*
X149285714Y-117255142D02*
X149285714Y-118055142D01*
X149285714Y-117369428D02*
X149342857Y-117312285D01*
X149342857Y-117312285D02*
X149457142Y-117255142D01*
X149457142Y-117255142D02*
X149628571Y-117255142D01*
X149628571Y-117255142D02*
X149742857Y-117312285D01*
X149742857Y-117312285D02*
X149800000Y-117426571D01*
X149800000Y-117426571D02*
X149800000Y-118055142D01*
X150371428Y-117940857D02*
X150428571Y-117998000D01*
X150428571Y-117998000D02*
X150371428Y-118055142D01*
X150371428Y-118055142D02*
X150314285Y-117998000D01*
X150314285Y-117998000D02*
X150371428Y-117940857D01*
X150371428Y-117940857D02*
X150371428Y-118055142D01*
X151114285Y-118055142D02*
X151000000Y-117998000D01*
X151000000Y-117998000D02*
X150942857Y-117940857D01*
X150942857Y-117940857D02*
X150885714Y-117826571D01*
X150885714Y-117826571D02*
X150885714Y-117483714D01*
X150885714Y-117483714D02*
X150942857Y-117369428D01*
X150942857Y-117369428D02*
X151000000Y-117312285D01*
X151000000Y-117312285D02*
X151114285Y-117255142D01*
X151114285Y-117255142D02*
X151285714Y-117255142D01*
X151285714Y-117255142D02*
X151400000Y-117312285D01*
X151400000Y-117312285D02*
X151457143Y-117369428D01*
X151457143Y-117369428D02*
X151514285Y-117483714D01*
X151514285Y-117483714D02*
X151514285Y-117826571D01*
X151514285Y-117826571D02*
X151457143Y-117940857D01*
X151457143Y-117940857D02*
X151400000Y-117998000D01*
X151400000Y-117998000D02*
X151285714Y-118055142D01*
X151285714Y-118055142D02*
X151114285Y-118055142D01*
X152028571Y-118055142D02*
X152028571Y-117255142D01*
X152028571Y-117483714D02*
X152085714Y-117369428D01*
X152085714Y-117369428D02*
X152142857Y-117312285D01*
X152142857Y-117312285D02*
X152257142Y-117255142D01*
X152257142Y-117255142D02*
X152371428Y-117255142D01*
X153285714Y-117255142D02*
X153285714Y-118226571D01*
X153285714Y-118226571D02*
X153228571Y-118340857D01*
X153228571Y-118340857D02*
X153171428Y-118398000D01*
X153171428Y-118398000D02*
X153057142Y-118455142D01*
X153057142Y-118455142D02*
X152885714Y-118455142D01*
X152885714Y-118455142D02*
X152771428Y-118398000D01*
X153285714Y-117998000D02*
X153171428Y-118055142D01*
X153171428Y-118055142D02*
X152942856Y-118055142D01*
X152942856Y-118055142D02*
X152828571Y-117998000D01*
X152828571Y-117998000D02*
X152771428Y-117940857D01*
X152771428Y-117940857D02*
X152714285Y-117826571D01*
X152714285Y-117826571D02*
X152714285Y-117483714D01*
X152714285Y-117483714D02*
X152771428Y-117369428D01*
X152771428Y-117369428D02*
X152828571Y-117312285D01*
X152828571Y-117312285D02*
X152942856Y-117255142D01*
X152942856Y-117255142D02*
X153171428Y-117255142D01*
X153171428Y-117255142D02*
X153285714Y-117312285D01*
D11*
X150264286Y-66762619D02*
X150264286Y-65762619D01*
X150264286Y-65762619D02*
X150645238Y-65762619D01*
X150645238Y-65762619D02*
X150740476Y-65810238D01*
X150740476Y-65810238D02*
X150788095Y-65857857D01*
X150788095Y-65857857D02*
X150835714Y-65953095D01*
X150835714Y-65953095D02*
X150835714Y-66095952D01*
X150835714Y-66095952D02*
X150788095Y-66191190D01*
X150788095Y-66191190D02*
X150740476Y-66238809D01*
X150740476Y-66238809D02*
X150645238Y-66286428D01*
X150645238Y-66286428D02*
X150264286Y-66286428D01*
X151835714Y-66762619D02*
X151502381Y-66286428D01*
X151264286Y-66762619D02*
X151264286Y-65762619D01*
X151264286Y-65762619D02*
X151645238Y-65762619D01*
X151645238Y-65762619D02*
X151740476Y-65810238D01*
X151740476Y-65810238D02*
X151788095Y-65857857D01*
X151788095Y-65857857D02*
X151835714Y-65953095D01*
X151835714Y-65953095D02*
X151835714Y-66095952D01*
X151835714Y-66095952D02*
X151788095Y-66191190D01*
X151788095Y-66191190D02*
X151740476Y-66238809D01*
X151740476Y-66238809D02*
X151645238Y-66286428D01*
X151645238Y-66286428D02*
X151264286Y-66286428D01*
X152454762Y-65762619D02*
X152645238Y-65762619D01*
X152645238Y-65762619D02*
X152740476Y-65810238D01*
X152740476Y-65810238D02*
X152835714Y-65905476D01*
X152835714Y-65905476D02*
X152883333Y-66095952D01*
X152883333Y-66095952D02*
X152883333Y-66429285D01*
X152883333Y-66429285D02*
X152835714Y-66619761D01*
X152835714Y-66619761D02*
X152740476Y-66715000D01*
X152740476Y-66715000D02*
X152645238Y-66762619D01*
X152645238Y-66762619D02*
X152454762Y-66762619D01*
X152454762Y-66762619D02*
X152359524Y-66715000D01*
X152359524Y-66715000D02*
X152264286Y-66619761D01*
X152264286Y-66619761D02*
X152216667Y-66429285D01*
X152216667Y-66429285D02*
X152216667Y-66095952D01*
X152216667Y-66095952D02*
X152264286Y-65905476D01*
X152264286Y-65905476D02*
X152359524Y-65810238D01*
X152359524Y-65810238D02*
X152454762Y-65762619D01*
X153835714Y-65810238D02*
X153740476Y-65762619D01*
X153740476Y-65762619D02*
X153597619Y-65762619D01*
X153597619Y-65762619D02*
X153454762Y-65810238D01*
X153454762Y-65810238D02*
X153359524Y-65905476D01*
X153359524Y-65905476D02*
X153311905Y-66000714D01*
X153311905Y-66000714D02*
X153264286Y-66191190D01*
X153264286Y-66191190D02*
X153264286Y-66334047D01*
X153264286Y-66334047D02*
X153311905Y-66524523D01*
X153311905Y-66524523D02*
X153359524Y-66619761D01*
X153359524Y-66619761D02*
X153454762Y-66715000D01*
X153454762Y-66715000D02*
X153597619Y-66762619D01*
X153597619Y-66762619D02*
X153692857Y-66762619D01*
X153692857Y-66762619D02*
X153835714Y-66715000D01*
X153835714Y-66715000D02*
X153883333Y-66667380D01*
X153883333Y-66667380D02*
X153883333Y-66334047D01*
X153883333Y-66334047D02*
X153692857Y-66334047D01*
X154883333Y-66762619D02*
X154550000Y-66286428D01*
X154311905Y-66762619D02*
X154311905Y-65762619D01*
X154311905Y-65762619D02*
X154692857Y-65762619D01*
X154692857Y-65762619D02*
X154788095Y-65810238D01*
X154788095Y-65810238D02*
X154835714Y-65857857D01*
X154835714Y-65857857D02*
X154883333Y-65953095D01*
X154883333Y-65953095D02*
X154883333Y-66095952D01*
X154883333Y-66095952D02*
X154835714Y-66191190D01*
X154835714Y-66191190D02*
X154788095Y-66238809D01*
X154788095Y-66238809D02*
X154692857Y-66286428D01*
X154692857Y-66286428D02*
X154311905Y-66286428D01*
X155264286Y-66476904D02*
X155740476Y-66476904D01*
X155169048Y-66762619D02*
X155502381Y-65762619D01*
X155502381Y-65762619D02*
X155835714Y-66762619D01*
X156169048Y-66762619D02*
X156169048Y-65762619D01*
X156169048Y-65762619D02*
X156502381Y-66476904D01*
X156502381Y-66476904D02*
X156835714Y-65762619D01*
X156835714Y-65762619D02*
X156835714Y-66762619D01*
D10*
X168828571Y-78877571D02*
X168542857Y-78877571D01*
X168542857Y-78877571D02*
X168542857Y-78277571D01*
X169028571Y-78563285D02*
X169228571Y-78563285D01*
X169314285Y-78877571D02*
X169028571Y-78877571D01*
X169028571Y-78877571D02*
X169028571Y-78277571D01*
X169028571Y-78277571D02*
X169314285Y-78277571D01*
X169771428Y-78563285D02*
X169571428Y-78563285D01*
X169571428Y-78877571D02*
X169571428Y-78277571D01*
X169571428Y-78277571D02*
X169857142Y-78277571D01*
X169999999Y-78277571D02*
X170342857Y-78277571D01*
X170171428Y-78877571D02*
X170171428Y-78277571D01*
D13*
X145221428Y-113083142D02*
X145907143Y-113083142D01*
X145564285Y-114283142D02*
X145564285Y-113083142D01*
X146192857Y-113483142D02*
X146478571Y-114283142D01*
X146764286Y-113483142D02*
X146478571Y-114283142D01*
X146478571Y-114283142D02*
X146364286Y-114568857D01*
X146364286Y-114568857D02*
X146307143Y-114626000D01*
X146307143Y-114626000D02*
X146192857Y-114683142D01*
X147221429Y-114283142D02*
X147221429Y-113483142D01*
X147221429Y-113597428D02*
X147278572Y-113540285D01*
X147278572Y-113540285D02*
X147392857Y-113483142D01*
X147392857Y-113483142D02*
X147564286Y-113483142D01*
X147564286Y-113483142D02*
X147678572Y-113540285D01*
X147678572Y-113540285D02*
X147735715Y-113654571D01*
X147735715Y-113654571D02*
X147735715Y-114283142D01*
X147735715Y-113654571D02*
X147792857Y-113540285D01*
X147792857Y-113540285D02*
X147907143Y-113483142D01*
X147907143Y-113483142D02*
X148078572Y-113483142D01*
X148078572Y-113483142D02*
X148192857Y-113540285D01*
X148192857Y-113540285D02*
X148250000Y-113654571D01*
X148250000Y-113654571D02*
X148250000Y-114283142D01*
X148821429Y-113483142D02*
X148821429Y-114683142D01*
X148821429Y-113540285D02*
X148935715Y-113483142D01*
X148935715Y-113483142D02*
X149164286Y-113483142D01*
X149164286Y-113483142D02*
X149278572Y-113540285D01*
X149278572Y-113540285D02*
X149335715Y-113597428D01*
X149335715Y-113597428D02*
X149392857Y-113711714D01*
X149392857Y-113711714D02*
X149392857Y-114054571D01*
X149392857Y-114054571D02*
X149335715Y-114168857D01*
X149335715Y-114168857D02*
X149278572Y-114226000D01*
X149278572Y-114226000D02*
X149164286Y-114283142D01*
X149164286Y-114283142D02*
X148935715Y-114283142D01*
X148935715Y-114283142D02*
X148821429Y-114226000D01*
X150421429Y-114283142D02*
X150421429Y-113654571D01*
X150421429Y-113654571D02*
X150364286Y-113540285D01*
X150364286Y-113540285D02*
X150250000Y-113483142D01*
X150250000Y-113483142D02*
X150021429Y-113483142D01*
X150021429Y-113483142D02*
X149907143Y-113540285D01*
X150421429Y-114226000D02*
X150307143Y-114283142D01*
X150307143Y-114283142D02*
X150021429Y-114283142D01*
X150021429Y-114283142D02*
X149907143Y-114226000D01*
X149907143Y-114226000D02*
X149850000Y-114111714D01*
X149850000Y-114111714D02*
X149850000Y-113997428D01*
X149850000Y-113997428D02*
X149907143Y-113883142D01*
X149907143Y-113883142D02*
X150021429Y-113826000D01*
X150021429Y-113826000D02*
X150307143Y-113826000D01*
X150307143Y-113826000D02*
X150421429Y-113768857D01*
X150992857Y-113483142D02*
X150992857Y-114283142D01*
X150992857Y-113597428D02*
X151050000Y-113540285D01*
X151050000Y-113540285D02*
X151164285Y-113483142D01*
X151164285Y-113483142D02*
X151335714Y-113483142D01*
X151335714Y-113483142D02*
X151450000Y-113540285D01*
X151450000Y-113540285D02*
X151507143Y-113654571D01*
X151507143Y-113654571D02*
X151507143Y-114283142D01*
X146878571Y-116227142D02*
X146478571Y-115655714D01*
X146192857Y-116227142D02*
X146192857Y-115027142D01*
X146192857Y-115027142D02*
X146650000Y-115027142D01*
X146650000Y-115027142D02*
X146764285Y-115084285D01*
X146764285Y-115084285D02*
X146821428Y-115141428D01*
X146821428Y-115141428D02*
X146878571Y-115255714D01*
X146878571Y-115255714D02*
X146878571Y-115427142D01*
X146878571Y-115427142D02*
X146821428Y-115541428D01*
X146821428Y-115541428D02*
X146764285Y-115598571D01*
X146764285Y-115598571D02*
X146650000Y-115655714D01*
X146650000Y-115655714D02*
X146192857Y-115655714D01*
X147850000Y-116170000D02*
X147735714Y-116227142D01*
X147735714Y-116227142D02*
X147507143Y-116227142D01*
X147507143Y-116227142D02*
X147392857Y-116170000D01*
X147392857Y-116170000D02*
X147335714Y-116055714D01*
X147335714Y-116055714D02*
X147335714Y-115598571D01*
X147335714Y-115598571D02*
X147392857Y-115484285D01*
X147392857Y-115484285D02*
X147507143Y-115427142D01*
X147507143Y-115427142D02*
X147735714Y-115427142D01*
X147735714Y-115427142D02*
X147850000Y-115484285D01*
X147850000Y-115484285D02*
X147907143Y-115598571D01*
X147907143Y-115598571D02*
X147907143Y-115712857D01*
X147907143Y-115712857D02*
X147335714Y-115827142D01*
X148307142Y-115427142D02*
X148592856Y-116227142D01*
X148592856Y-116227142D02*
X148878571Y-115427142D01*
X150650000Y-115598571D02*
X150250000Y-115598571D01*
X150250000Y-116227142D02*
X150250000Y-115027142D01*
X150250000Y-115027142D02*
X150821428Y-115027142D01*
D11*
X140507142Y-78393928D02*
X140507142Y-76893928D01*
X141221428Y-78393928D02*
X141221428Y-76893928D01*
X141221428Y-76893928D02*
X142078571Y-78393928D01*
X142078571Y-78393928D02*
X142078571Y-76893928D01*
X142792857Y-78393928D02*
X142792857Y-76893928D01*
X142792857Y-76893928D02*
X143364286Y-76893928D01*
X143364286Y-76893928D02*
X143507143Y-76965357D01*
X143507143Y-76965357D02*
X143578572Y-77036785D01*
X143578572Y-77036785D02*
X143650000Y-77179642D01*
X143650000Y-77179642D02*
X143650000Y-77393928D01*
X143650000Y-77393928D02*
X143578572Y-77536785D01*
X143578572Y-77536785D02*
X143507143Y-77608214D01*
X143507143Y-77608214D02*
X143364286Y-77679642D01*
X143364286Y-77679642D02*
X142792857Y-77679642D01*
X144292857Y-76893928D02*
X144292857Y-78108214D01*
X144292857Y-78108214D02*
X144364286Y-78251071D01*
X144364286Y-78251071D02*
X144435715Y-78322500D01*
X144435715Y-78322500D02*
X144578572Y-78393928D01*
X144578572Y-78393928D02*
X144864286Y-78393928D01*
X144864286Y-78393928D02*
X145007143Y-78322500D01*
X145007143Y-78322500D02*
X145078572Y-78251071D01*
X145078572Y-78251071D02*
X145150000Y-78108214D01*
X145150000Y-78108214D02*
X145150000Y-76893928D01*
X145650001Y-76893928D02*
X146507144Y-76893928D01*
X146078572Y-78393928D02*
X146078572Y-76893928D01*
D10*
X163128571Y-99163285D02*
X163214285Y-99191857D01*
X163214285Y-99191857D02*
X163242856Y-99220428D01*
X163242856Y-99220428D02*
X163271428Y-99277571D01*
X163271428Y-99277571D02*
X163271428Y-99363285D01*
X163271428Y-99363285D02*
X163242856Y-99420428D01*
X163242856Y-99420428D02*
X163214285Y-99449000D01*
X163214285Y-99449000D02*
X163157142Y-99477571D01*
X163157142Y-99477571D02*
X162928571Y-99477571D01*
X162928571Y-99477571D02*
X162928571Y-98877571D01*
X162928571Y-98877571D02*
X163128571Y-98877571D01*
X163128571Y-98877571D02*
X163185714Y-98906142D01*
X163185714Y-98906142D02*
X163214285Y-98934714D01*
X163214285Y-98934714D02*
X163242856Y-98991857D01*
X163242856Y-98991857D02*
X163242856Y-99049000D01*
X163242856Y-99049000D02*
X163214285Y-99106142D01*
X163214285Y-99106142D02*
X163185714Y-99134714D01*
X163185714Y-99134714D02*
X163128571Y-99163285D01*
X163128571Y-99163285D02*
X162928571Y-99163285D01*
X163442856Y-98877571D02*
X163785714Y-98877571D01*
X163614285Y-99477571D02*
X163614285Y-98877571D01*
X163957142Y-98934714D02*
X163985714Y-98906142D01*
X163985714Y-98906142D02*
X164042857Y-98877571D01*
X164042857Y-98877571D02*
X164185714Y-98877571D01*
X164185714Y-98877571D02*
X164242857Y-98906142D01*
X164242857Y-98906142D02*
X164271428Y-98934714D01*
X164271428Y-98934714D02*
X164299999Y-98991857D01*
X164299999Y-98991857D02*
X164299999Y-99049000D01*
X164299999Y-99049000D02*
X164271428Y-99134714D01*
X164271428Y-99134714D02*
X163928571Y-99477571D01*
X163928571Y-99477571D02*
X164299999Y-99477571D01*
D12*
X158022500Y-106321428D02*
X158022500Y-105178571D01*
X158593928Y-105749999D02*
X157451071Y-105749999D01*
X158022500Y-103321428D02*
X158022500Y-102178571D01*
D10*
X167999999Y-60677571D02*
X167999999Y-61106142D01*
X167999999Y-61106142D02*
X167971428Y-61191857D01*
X167971428Y-61191857D02*
X167914285Y-61249000D01*
X167914285Y-61249000D02*
X167828571Y-61277571D01*
X167828571Y-61277571D02*
X167771428Y-61277571D01*
X168599999Y-61277571D02*
X168257142Y-61277571D01*
X168428571Y-61277571D02*
X168428571Y-60677571D01*
X168428571Y-60677571D02*
X168371428Y-60763285D01*
X168371428Y-60763285D02*
X168314285Y-60820428D01*
X168314285Y-60820428D02*
X168257142Y-60849000D01*
X138399999Y-63677571D02*
X138399999Y-64106142D01*
X138399999Y-64106142D02*
X138371428Y-64191857D01*
X138371428Y-64191857D02*
X138314285Y-64249000D01*
X138314285Y-64249000D02*
X138228571Y-64277571D01*
X138228571Y-64277571D02*
X138171428Y-64277571D01*
X138657142Y-63734714D02*
X138685714Y-63706142D01*
X138685714Y-63706142D02*
X138742857Y-63677571D01*
X138742857Y-63677571D02*
X138885714Y-63677571D01*
X138885714Y-63677571D02*
X138942857Y-63706142D01*
X138942857Y-63706142D02*
X138971428Y-63734714D01*
X138971428Y-63734714D02*
X138999999Y-63791857D01*
X138999999Y-63791857D02*
X138999999Y-63849000D01*
X138999999Y-63849000D02*
X138971428Y-63934714D01*
X138971428Y-63934714D02*
X138628571Y-64277571D01*
X138628571Y-64277571D02*
X138999999Y-64277571D01*
X136099999Y-109949000D02*
X136185714Y-109977571D01*
X136185714Y-109977571D02*
X136328571Y-109977571D01*
X136328571Y-109977571D02*
X136385714Y-109949000D01*
X136385714Y-109949000D02*
X136414285Y-109920428D01*
X136414285Y-109920428D02*
X136442856Y-109863285D01*
X136442856Y-109863285D02*
X136442856Y-109806142D01*
X136442856Y-109806142D02*
X136414285Y-109749000D01*
X136414285Y-109749000D02*
X136385714Y-109720428D01*
X136385714Y-109720428D02*
X136328571Y-109691857D01*
X136328571Y-109691857D02*
X136214285Y-109663285D01*
X136214285Y-109663285D02*
X136157142Y-109634714D01*
X136157142Y-109634714D02*
X136128571Y-109606142D01*
X136128571Y-109606142D02*
X136099999Y-109549000D01*
X136099999Y-109549000D02*
X136099999Y-109491857D01*
X136099999Y-109491857D02*
X136128571Y-109434714D01*
X136128571Y-109434714D02*
X136157142Y-109406142D01*
X136157142Y-109406142D02*
X136214285Y-109377571D01*
X136214285Y-109377571D02*
X136357142Y-109377571D01*
X136357142Y-109377571D02*
X136442856Y-109406142D01*
X136642857Y-109377571D02*
X136785714Y-109977571D01*
X136785714Y-109977571D02*
X136900000Y-109549000D01*
X136900000Y-109549000D02*
X137014285Y-109977571D01*
X137014285Y-109977571D02*
X137157143Y-109377571D01*
X137699999Y-109977571D02*
X137357142Y-109977571D01*
X137528571Y-109977571D02*
X137528571Y-109377571D01*
X137528571Y-109377571D02*
X137471428Y-109463285D01*
X137471428Y-109463285D02*
X137414285Y-109520428D01*
X137414285Y-109520428D02*
X137357142Y-109549000D01*
X143050000Y-88620428D02*
X143021428Y-88649000D01*
X143021428Y-88649000D02*
X142935714Y-88677571D01*
X142935714Y-88677571D02*
X142878571Y-88677571D01*
X142878571Y-88677571D02*
X142792857Y-88649000D01*
X142792857Y-88649000D02*
X142735714Y-88591857D01*
X142735714Y-88591857D02*
X142707143Y-88534714D01*
X142707143Y-88534714D02*
X142678571Y-88420428D01*
X142678571Y-88420428D02*
X142678571Y-88334714D01*
X142678571Y-88334714D02*
X142707143Y-88220428D01*
X142707143Y-88220428D02*
X142735714Y-88163285D01*
X142735714Y-88163285D02*
X142792857Y-88106142D01*
X142792857Y-88106142D02*
X142878571Y-88077571D01*
X142878571Y-88077571D02*
X142935714Y-88077571D01*
X142935714Y-88077571D02*
X143021428Y-88106142D01*
X143021428Y-88106142D02*
X143050000Y-88134714D01*
X143621428Y-88677571D02*
X143278571Y-88677571D01*
X143450000Y-88677571D02*
X143450000Y-88077571D01*
X143450000Y-88077571D02*
X143392857Y-88163285D01*
X143392857Y-88163285D02*
X143335714Y-88220428D01*
X143335714Y-88220428D02*
X143278571Y-88249000D01*
X143050000Y-91070428D02*
X143021428Y-91099000D01*
X143021428Y-91099000D02*
X142935714Y-91127571D01*
X142935714Y-91127571D02*
X142878571Y-91127571D01*
X142878571Y-91127571D02*
X142792857Y-91099000D01*
X142792857Y-91099000D02*
X142735714Y-91041857D01*
X142735714Y-91041857D02*
X142707143Y-90984714D01*
X142707143Y-90984714D02*
X142678571Y-90870428D01*
X142678571Y-90870428D02*
X142678571Y-90784714D01*
X142678571Y-90784714D02*
X142707143Y-90670428D01*
X142707143Y-90670428D02*
X142735714Y-90613285D01*
X142735714Y-90613285D02*
X142792857Y-90556142D01*
X142792857Y-90556142D02*
X142878571Y-90527571D01*
X142878571Y-90527571D02*
X142935714Y-90527571D01*
X142935714Y-90527571D02*
X143021428Y-90556142D01*
X143021428Y-90556142D02*
X143050000Y-90584714D01*
X143278571Y-90584714D02*
X143307143Y-90556142D01*
X143307143Y-90556142D02*
X143364286Y-90527571D01*
X143364286Y-90527571D02*
X143507143Y-90527571D01*
X143507143Y-90527571D02*
X143564286Y-90556142D01*
X143564286Y-90556142D02*
X143592857Y-90584714D01*
X143592857Y-90584714D02*
X143621428Y-90641857D01*
X143621428Y-90641857D02*
X143621428Y-90699000D01*
X143621428Y-90699000D02*
X143592857Y-90784714D01*
X143592857Y-90784714D02*
X143250000Y-91127571D01*
X143250000Y-91127571D02*
X143621428Y-91127571D01*
X143100000Y-93670428D02*
X143071428Y-93699000D01*
X143071428Y-93699000D02*
X142985714Y-93727571D01*
X142985714Y-93727571D02*
X142928571Y-93727571D01*
X142928571Y-93727571D02*
X142842857Y-93699000D01*
X142842857Y-93699000D02*
X142785714Y-93641857D01*
X142785714Y-93641857D02*
X142757143Y-93584714D01*
X142757143Y-93584714D02*
X142728571Y-93470428D01*
X142728571Y-93470428D02*
X142728571Y-93384714D01*
X142728571Y-93384714D02*
X142757143Y-93270428D01*
X142757143Y-93270428D02*
X142785714Y-93213285D01*
X142785714Y-93213285D02*
X142842857Y-93156142D01*
X142842857Y-93156142D02*
X142928571Y-93127571D01*
X142928571Y-93127571D02*
X142985714Y-93127571D01*
X142985714Y-93127571D02*
X143071428Y-93156142D01*
X143071428Y-93156142D02*
X143100000Y-93184714D01*
X143300000Y-93127571D02*
X143671428Y-93127571D01*
X143671428Y-93127571D02*
X143471428Y-93356142D01*
X143471428Y-93356142D02*
X143557143Y-93356142D01*
X143557143Y-93356142D02*
X143614286Y-93384714D01*
X143614286Y-93384714D02*
X143642857Y-93413285D01*
X143642857Y-93413285D02*
X143671428Y-93470428D01*
X143671428Y-93470428D02*
X143671428Y-93613285D01*
X143671428Y-93613285D02*
X143642857Y-93670428D01*
X143642857Y-93670428D02*
X143614286Y-93699000D01*
X143614286Y-93699000D02*
X143557143Y-93727571D01*
X143557143Y-93727571D02*
X143385714Y-93727571D01*
X143385714Y-93727571D02*
X143328571Y-93699000D01*
X143328571Y-93699000D02*
X143300000Y-93670428D01*
X170114285Y-82570428D02*
X170085713Y-82599000D01*
X170085713Y-82599000D02*
X169999999Y-82627571D01*
X169999999Y-82627571D02*
X169942856Y-82627571D01*
X169942856Y-82627571D02*
X169857142Y-82599000D01*
X169857142Y-82599000D02*
X169799999Y-82541857D01*
X169799999Y-82541857D02*
X169771428Y-82484714D01*
X169771428Y-82484714D02*
X169742856Y-82370428D01*
X169742856Y-82370428D02*
X169742856Y-82284714D01*
X169742856Y-82284714D02*
X169771428Y-82170428D01*
X169771428Y-82170428D02*
X169799999Y-82113285D01*
X169799999Y-82113285D02*
X169857142Y-82056142D01*
X169857142Y-82056142D02*
X169942856Y-82027571D01*
X169942856Y-82027571D02*
X169999999Y-82027571D01*
X169999999Y-82027571D02*
X170085713Y-82056142D01*
X170085713Y-82056142D02*
X170114285Y-82084714D01*
X170685713Y-82627571D02*
X170342856Y-82627571D01*
X170514285Y-82627571D02*
X170514285Y-82027571D01*
X170514285Y-82027571D02*
X170457142Y-82113285D01*
X170457142Y-82113285D02*
X170399999Y-82170428D01*
X170399999Y-82170428D02*
X170342856Y-82199000D01*
X170885714Y-82027571D02*
X171285714Y-82027571D01*
X171285714Y-82027571D02*
X171028571Y-82627571D01*
X138164285Y-82320428D02*
X138135713Y-82349000D01*
X138135713Y-82349000D02*
X138049999Y-82377571D01*
X138049999Y-82377571D02*
X137992856Y-82377571D01*
X137992856Y-82377571D02*
X137907142Y-82349000D01*
X137907142Y-82349000D02*
X137849999Y-82291857D01*
X137849999Y-82291857D02*
X137821428Y-82234714D01*
X137821428Y-82234714D02*
X137792856Y-82120428D01*
X137792856Y-82120428D02*
X137792856Y-82034714D01*
X137792856Y-82034714D02*
X137821428Y-81920428D01*
X137821428Y-81920428D02*
X137849999Y-81863285D01*
X137849999Y-81863285D02*
X137907142Y-81806142D01*
X137907142Y-81806142D02*
X137992856Y-81777571D01*
X137992856Y-81777571D02*
X138049999Y-81777571D01*
X138049999Y-81777571D02*
X138135713Y-81806142D01*
X138135713Y-81806142D02*
X138164285Y-81834714D01*
X138735713Y-82377571D02*
X138392856Y-82377571D01*
X138564285Y-82377571D02*
X138564285Y-81777571D01*
X138564285Y-81777571D02*
X138507142Y-81863285D01*
X138507142Y-81863285D02*
X138449999Y-81920428D01*
X138449999Y-81920428D02*
X138392856Y-81949000D01*
X139078571Y-82034714D02*
X139021428Y-82006142D01*
X139021428Y-82006142D02*
X138992857Y-81977571D01*
X138992857Y-81977571D02*
X138964285Y-81920428D01*
X138964285Y-81920428D02*
X138964285Y-81891857D01*
X138964285Y-81891857D02*
X138992857Y-81834714D01*
X138992857Y-81834714D02*
X139021428Y-81806142D01*
X139021428Y-81806142D02*
X139078571Y-81777571D01*
X139078571Y-81777571D02*
X139192857Y-81777571D01*
X139192857Y-81777571D02*
X139250000Y-81806142D01*
X139250000Y-81806142D02*
X139278571Y-81834714D01*
X139278571Y-81834714D02*
X139307142Y-81891857D01*
X139307142Y-81891857D02*
X139307142Y-81920428D01*
X139307142Y-81920428D02*
X139278571Y-81977571D01*
X139278571Y-81977571D02*
X139250000Y-82006142D01*
X139250000Y-82006142D02*
X139192857Y-82034714D01*
X139192857Y-82034714D02*
X139078571Y-82034714D01*
X139078571Y-82034714D02*
X139021428Y-82063285D01*
X139021428Y-82063285D02*
X138992857Y-82091857D01*
X138992857Y-82091857D02*
X138964285Y-82149000D01*
X138964285Y-82149000D02*
X138964285Y-82263285D01*
X138964285Y-82263285D02*
X138992857Y-82320428D01*
X138992857Y-82320428D02*
X139021428Y-82349000D01*
X139021428Y-82349000D02*
X139078571Y-82377571D01*
X139078571Y-82377571D02*
X139192857Y-82377571D01*
X139192857Y-82377571D02*
X139250000Y-82349000D01*
X139250000Y-82349000D02*
X139278571Y-82320428D01*
X139278571Y-82320428D02*
X139307142Y-82263285D01*
X139307142Y-82263285D02*
X139307142Y-82149000D01*
X139307142Y-82149000D02*
X139278571Y-82091857D01*
X139278571Y-82091857D02*
X139250000Y-82063285D01*
X139250000Y-82063285D02*
X139192857Y-82034714D01*
X141420428Y-81485714D02*
X141449000Y-81514286D01*
X141449000Y-81514286D02*
X141477571Y-81600000D01*
X141477571Y-81600000D02*
X141477571Y-81657143D01*
X141477571Y-81657143D02*
X141449000Y-81742857D01*
X141449000Y-81742857D02*
X141391857Y-81800000D01*
X141391857Y-81800000D02*
X141334714Y-81828571D01*
X141334714Y-81828571D02*
X141220428Y-81857143D01*
X141220428Y-81857143D02*
X141134714Y-81857143D01*
X141134714Y-81857143D02*
X141020428Y-81828571D01*
X141020428Y-81828571D02*
X140963285Y-81800000D01*
X140963285Y-81800000D02*
X140906142Y-81742857D01*
X140906142Y-81742857D02*
X140877571Y-81657143D01*
X140877571Y-81657143D02*
X140877571Y-81600000D01*
X140877571Y-81600000D02*
X140906142Y-81514286D01*
X140906142Y-81514286D02*
X140934714Y-81485714D01*
X141477571Y-80914286D02*
X141477571Y-81257143D01*
X141477571Y-81085714D02*
X140877571Y-81085714D01*
X140877571Y-81085714D02*
X140963285Y-81142857D01*
X140963285Y-81142857D02*
X141020428Y-81200000D01*
X141020428Y-81200000D02*
X141049000Y-81257143D01*
X141477571Y-80628571D02*
X141477571Y-80514285D01*
X141477571Y-80514285D02*
X141449000Y-80457142D01*
X141449000Y-80457142D02*
X141420428Y-80428571D01*
X141420428Y-80428571D02*
X141334714Y-80371428D01*
X141334714Y-80371428D02*
X141220428Y-80342857D01*
X141220428Y-80342857D02*
X140991857Y-80342857D01*
X140991857Y-80342857D02*
X140934714Y-80371428D01*
X140934714Y-80371428D02*
X140906142Y-80400000D01*
X140906142Y-80400000D02*
X140877571Y-80457142D01*
X140877571Y-80457142D02*
X140877571Y-80571428D01*
X140877571Y-80571428D02*
X140906142Y-80628571D01*
X140906142Y-80628571D02*
X140934714Y-80657142D01*
X140934714Y-80657142D02*
X140991857Y-80685714D01*
X140991857Y-80685714D02*
X141134714Y-80685714D01*
X141134714Y-80685714D02*
X141191857Y-80657142D01*
X141191857Y-80657142D02*
X141220428Y-80628571D01*
X141220428Y-80628571D02*
X141249000Y-80571428D01*
X141249000Y-80571428D02*
X141249000Y-80457142D01*
X141249000Y-80457142D02*
X141220428Y-80400000D01*
X141220428Y-80400000D02*
X141191857Y-80371428D01*
X141191857Y-80371428D02*
X141134714Y-80342857D01*
X167964285Y-82620428D02*
X167935713Y-82649000D01*
X167935713Y-82649000D02*
X167849999Y-82677571D01*
X167849999Y-82677571D02*
X167792856Y-82677571D01*
X167792856Y-82677571D02*
X167707142Y-82649000D01*
X167707142Y-82649000D02*
X167649999Y-82591857D01*
X167649999Y-82591857D02*
X167621428Y-82534714D01*
X167621428Y-82534714D02*
X167592856Y-82420428D01*
X167592856Y-82420428D02*
X167592856Y-82334714D01*
X167592856Y-82334714D02*
X167621428Y-82220428D01*
X167621428Y-82220428D02*
X167649999Y-82163285D01*
X167649999Y-82163285D02*
X167707142Y-82106142D01*
X167707142Y-82106142D02*
X167792856Y-82077571D01*
X167792856Y-82077571D02*
X167849999Y-82077571D01*
X167849999Y-82077571D02*
X167935713Y-82106142D01*
X167935713Y-82106142D02*
X167964285Y-82134714D01*
X168192856Y-82134714D02*
X168221428Y-82106142D01*
X168221428Y-82106142D02*
X168278571Y-82077571D01*
X168278571Y-82077571D02*
X168421428Y-82077571D01*
X168421428Y-82077571D02*
X168478571Y-82106142D01*
X168478571Y-82106142D02*
X168507142Y-82134714D01*
X168507142Y-82134714D02*
X168535713Y-82191857D01*
X168535713Y-82191857D02*
X168535713Y-82249000D01*
X168535713Y-82249000D02*
X168507142Y-82334714D01*
X168507142Y-82334714D02*
X168164285Y-82677571D01*
X168164285Y-82677571D02*
X168535713Y-82677571D01*
X168907142Y-82077571D02*
X168964285Y-82077571D01*
X168964285Y-82077571D02*
X169021428Y-82106142D01*
X169021428Y-82106142D02*
X169050000Y-82134714D01*
X169050000Y-82134714D02*
X169078571Y-82191857D01*
X169078571Y-82191857D02*
X169107142Y-82306142D01*
X169107142Y-82306142D02*
X169107142Y-82449000D01*
X169107142Y-82449000D02*
X169078571Y-82563285D01*
X169078571Y-82563285D02*
X169050000Y-82620428D01*
X169050000Y-82620428D02*
X169021428Y-82649000D01*
X169021428Y-82649000D02*
X168964285Y-82677571D01*
X168964285Y-82677571D02*
X168907142Y-82677571D01*
X168907142Y-82677571D02*
X168850000Y-82649000D01*
X168850000Y-82649000D02*
X168821428Y-82620428D01*
X168821428Y-82620428D02*
X168792857Y-82563285D01*
X168792857Y-82563285D02*
X168764285Y-82449000D01*
X168764285Y-82449000D02*
X168764285Y-82306142D01*
X168764285Y-82306142D02*
X168792857Y-82191857D01*
X168792857Y-82191857D02*
X168821428Y-82134714D01*
X168821428Y-82134714D02*
X168850000Y-82106142D01*
X168850000Y-82106142D02*
X168907142Y-82077571D01*
X135914285Y-82320428D02*
X135885713Y-82349000D01*
X135885713Y-82349000D02*
X135799999Y-82377571D01*
X135799999Y-82377571D02*
X135742856Y-82377571D01*
X135742856Y-82377571D02*
X135657142Y-82349000D01*
X135657142Y-82349000D02*
X135599999Y-82291857D01*
X135599999Y-82291857D02*
X135571428Y-82234714D01*
X135571428Y-82234714D02*
X135542856Y-82120428D01*
X135542856Y-82120428D02*
X135542856Y-82034714D01*
X135542856Y-82034714D02*
X135571428Y-81920428D01*
X135571428Y-81920428D02*
X135599999Y-81863285D01*
X135599999Y-81863285D02*
X135657142Y-81806142D01*
X135657142Y-81806142D02*
X135742856Y-81777571D01*
X135742856Y-81777571D02*
X135799999Y-81777571D01*
X135799999Y-81777571D02*
X135885713Y-81806142D01*
X135885713Y-81806142D02*
X135914285Y-81834714D01*
X136142856Y-81834714D02*
X136171428Y-81806142D01*
X136171428Y-81806142D02*
X136228571Y-81777571D01*
X136228571Y-81777571D02*
X136371428Y-81777571D01*
X136371428Y-81777571D02*
X136428571Y-81806142D01*
X136428571Y-81806142D02*
X136457142Y-81834714D01*
X136457142Y-81834714D02*
X136485713Y-81891857D01*
X136485713Y-81891857D02*
X136485713Y-81949000D01*
X136485713Y-81949000D02*
X136457142Y-82034714D01*
X136457142Y-82034714D02*
X136114285Y-82377571D01*
X136114285Y-82377571D02*
X136485713Y-82377571D01*
X137057142Y-82377571D02*
X136714285Y-82377571D01*
X136885714Y-82377571D02*
X136885714Y-81777571D01*
X136885714Y-81777571D02*
X136828571Y-81863285D01*
X136828571Y-81863285D02*
X136771428Y-81920428D01*
X136771428Y-81920428D02*
X136714285Y-81949000D01*
X148420428Y-81485714D02*
X148449000Y-81514286D01*
X148449000Y-81514286D02*
X148477571Y-81600000D01*
X148477571Y-81600000D02*
X148477571Y-81657143D01*
X148477571Y-81657143D02*
X148449000Y-81742857D01*
X148449000Y-81742857D02*
X148391857Y-81800000D01*
X148391857Y-81800000D02*
X148334714Y-81828571D01*
X148334714Y-81828571D02*
X148220428Y-81857143D01*
X148220428Y-81857143D02*
X148134714Y-81857143D01*
X148134714Y-81857143D02*
X148020428Y-81828571D01*
X148020428Y-81828571D02*
X147963285Y-81800000D01*
X147963285Y-81800000D02*
X147906142Y-81742857D01*
X147906142Y-81742857D02*
X147877571Y-81657143D01*
X147877571Y-81657143D02*
X147877571Y-81600000D01*
X147877571Y-81600000D02*
X147906142Y-81514286D01*
X147906142Y-81514286D02*
X147934714Y-81485714D01*
X147934714Y-81257143D02*
X147906142Y-81228571D01*
X147906142Y-81228571D02*
X147877571Y-81171429D01*
X147877571Y-81171429D02*
X147877571Y-81028571D01*
X147877571Y-81028571D02*
X147906142Y-80971429D01*
X147906142Y-80971429D02*
X147934714Y-80942857D01*
X147934714Y-80942857D02*
X147991857Y-80914286D01*
X147991857Y-80914286D02*
X148049000Y-80914286D01*
X148049000Y-80914286D02*
X148134714Y-80942857D01*
X148134714Y-80942857D02*
X148477571Y-81285714D01*
X148477571Y-81285714D02*
X148477571Y-80914286D01*
X147934714Y-80685714D02*
X147906142Y-80657142D01*
X147906142Y-80657142D02*
X147877571Y-80600000D01*
X147877571Y-80600000D02*
X147877571Y-80457142D01*
X147877571Y-80457142D02*
X147906142Y-80400000D01*
X147906142Y-80400000D02*
X147934714Y-80371428D01*
X147934714Y-80371428D02*
X147991857Y-80342857D01*
X147991857Y-80342857D02*
X148049000Y-80342857D01*
X148049000Y-80342857D02*
X148134714Y-80371428D01*
X148134714Y-80371428D02*
X148477571Y-80714285D01*
X148477571Y-80714285D02*
X148477571Y-80342857D01*
X142770428Y-101285714D02*
X142799000Y-101314286D01*
X142799000Y-101314286D02*
X142827571Y-101400000D01*
X142827571Y-101400000D02*
X142827571Y-101457143D01*
X142827571Y-101457143D02*
X142799000Y-101542857D01*
X142799000Y-101542857D02*
X142741857Y-101600000D01*
X142741857Y-101600000D02*
X142684714Y-101628571D01*
X142684714Y-101628571D02*
X142570428Y-101657143D01*
X142570428Y-101657143D02*
X142484714Y-101657143D01*
X142484714Y-101657143D02*
X142370428Y-101628571D01*
X142370428Y-101628571D02*
X142313285Y-101600000D01*
X142313285Y-101600000D02*
X142256142Y-101542857D01*
X142256142Y-101542857D02*
X142227571Y-101457143D01*
X142227571Y-101457143D02*
X142227571Y-101400000D01*
X142227571Y-101400000D02*
X142256142Y-101314286D01*
X142256142Y-101314286D02*
X142284714Y-101285714D01*
X142284714Y-101057143D02*
X142256142Y-101028571D01*
X142256142Y-101028571D02*
X142227571Y-100971429D01*
X142227571Y-100971429D02*
X142227571Y-100828571D01*
X142227571Y-100828571D02*
X142256142Y-100771429D01*
X142256142Y-100771429D02*
X142284714Y-100742857D01*
X142284714Y-100742857D02*
X142341857Y-100714286D01*
X142341857Y-100714286D02*
X142399000Y-100714286D01*
X142399000Y-100714286D02*
X142484714Y-100742857D01*
X142484714Y-100742857D02*
X142827571Y-101085714D01*
X142827571Y-101085714D02*
X142827571Y-100714286D01*
X142227571Y-100171428D02*
X142227571Y-100457142D01*
X142227571Y-100457142D02*
X142513285Y-100485714D01*
X142513285Y-100485714D02*
X142484714Y-100457142D01*
X142484714Y-100457142D02*
X142456142Y-100400000D01*
X142456142Y-100400000D02*
X142456142Y-100257142D01*
X142456142Y-100257142D02*
X142484714Y-100200000D01*
X142484714Y-100200000D02*
X142513285Y-100171428D01*
X142513285Y-100171428D02*
X142570428Y-100142857D01*
X142570428Y-100142857D02*
X142713285Y-100142857D01*
X142713285Y-100142857D02*
X142770428Y-100171428D01*
X142770428Y-100171428D02*
X142799000Y-100200000D01*
X142799000Y-100200000D02*
X142827571Y-100257142D01*
X142827571Y-100257142D02*
X142827571Y-100400000D01*
X142827571Y-100400000D02*
X142799000Y-100457142D01*
X142799000Y-100457142D02*
X142770428Y-100485714D01*
X146657143Y-98977571D02*
X146657143Y-98377571D01*
X146657143Y-98377571D02*
X146800000Y-98377571D01*
X146800000Y-98377571D02*
X146885714Y-98406142D01*
X146885714Y-98406142D02*
X146942857Y-98463285D01*
X146942857Y-98463285D02*
X146971428Y-98520428D01*
X146971428Y-98520428D02*
X147000000Y-98634714D01*
X147000000Y-98634714D02*
X147000000Y-98720428D01*
X147000000Y-98720428D02*
X146971428Y-98834714D01*
X146971428Y-98834714D02*
X146942857Y-98891857D01*
X146942857Y-98891857D02*
X146885714Y-98949000D01*
X146885714Y-98949000D02*
X146800000Y-98977571D01*
X146800000Y-98977571D02*
X146657143Y-98977571D01*
X147228571Y-98434714D02*
X147257143Y-98406142D01*
X147257143Y-98406142D02*
X147314286Y-98377571D01*
X147314286Y-98377571D02*
X147457143Y-98377571D01*
X147457143Y-98377571D02*
X147514286Y-98406142D01*
X147514286Y-98406142D02*
X147542857Y-98434714D01*
X147542857Y-98434714D02*
X147571428Y-98491857D01*
X147571428Y-98491857D02*
X147571428Y-98549000D01*
X147571428Y-98549000D02*
X147542857Y-98634714D01*
X147542857Y-98634714D02*
X147200000Y-98977571D01*
X147200000Y-98977571D02*
X147571428Y-98977571D01*
X156557144Y-98977571D02*
X156557144Y-98377571D01*
X156557144Y-98377571D02*
X156700001Y-98377571D01*
X156700001Y-98377571D02*
X156785715Y-98406142D01*
X156785715Y-98406142D02*
X156842858Y-98463285D01*
X156842858Y-98463285D02*
X156871429Y-98520428D01*
X156871429Y-98520428D02*
X156900001Y-98634714D01*
X156900001Y-98634714D02*
X156900001Y-98720428D01*
X156900001Y-98720428D02*
X156871429Y-98834714D01*
X156871429Y-98834714D02*
X156842858Y-98891857D01*
X156842858Y-98891857D02*
X156785715Y-98949000D01*
X156785715Y-98949000D02*
X156700001Y-98977571D01*
X156700001Y-98977571D02*
X156557144Y-98977571D01*
X157100001Y-98377571D02*
X157471429Y-98377571D01*
X157471429Y-98377571D02*
X157271429Y-98606142D01*
X157271429Y-98606142D02*
X157357144Y-98606142D01*
X157357144Y-98606142D02*
X157414287Y-98634714D01*
X157414287Y-98634714D02*
X157442858Y-98663285D01*
X157442858Y-98663285D02*
X157471429Y-98720428D01*
X157471429Y-98720428D02*
X157471429Y-98863285D01*
X157471429Y-98863285D02*
X157442858Y-98920428D01*
X157442858Y-98920428D02*
X157414287Y-98949000D01*
X157414287Y-98949000D02*
X157357144Y-98977571D01*
X157357144Y-98977571D02*
X157185715Y-98977571D01*
X157185715Y-98977571D02*
X157128572Y-98949000D01*
X157128572Y-98949000D02*
X157100001Y-98920428D01*
X140163285Y-113599999D02*
X140163285Y-113799999D01*
X140477571Y-113799999D02*
X139877571Y-113799999D01*
X139877571Y-113799999D02*
X139877571Y-113514285D01*
X140477571Y-112971428D02*
X140477571Y-113314285D01*
X140477571Y-113142856D02*
X139877571Y-113142856D01*
X139877571Y-113142856D02*
X139963285Y-113199999D01*
X139963285Y-113199999D02*
X140020428Y-113257142D01*
X140020428Y-113257142D02*
X140049000Y-113314285D01*
X135957143Y-99277571D02*
X135957143Y-98677571D01*
X135957143Y-98677571D02*
X136185714Y-98677571D01*
X136185714Y-98677571D02*
X136242857Y-98706142D01*
X136242857Y-98706142D02*
X136271428Y-98734714D01*
X136271428Y-98734714D02*
X136300000Y-98791857D01*
X136300000Y-98791857D02*
X136300000Y-98877571D01*
X136300000Y-98877571D02*
X136271428Y-98934714D01*
X136271428Y-98934714D02*
X136242857Y-98963285D01*
X136242857Y-98963285D02*
X136185714Y-98991857D01*
X136185714Y-98991857D02*
X135957143Y-98991857D01*
X136871428Y-99277571D02*
X136528571Y-99277571D01*
X136700000Y-99277571D02*
X136700000Y-98677571D01*
X136700000Y-98677571D02*
X136642857Y-98763285D01*
X136642857Y-98763285D02*
X136585714Y-98820428D01*
X136585714Y-98820428D02*
X136528571Y-98849000D01*
X167557143Y-99477571D02*
X167557143Y-98877571D01*
X167557143Y-98877571D02*
X167785714Y-98877571D01*
X167785714Y-98877571D02*
X167842857Y-98906142D01*
X167842857Y-98906142D02*
X167871428Y-98934714D01*
X167871428Y-98934714D02*
X167900000Y-98991857D01*
X167900000Y-98991857D02*
X167900000Y-99077571D01*
X167900000Y-99077571D02*
X167871428Y-99134714D01*
X167871428Y-99134714D02*
X167842857Y-99163285D01*
X167842857Y-99163285D02*
X167785714Y-99191857D01*
X167785714Y-99191857D02*
X167557143Y-99191857D01*
X168100000Y-98877571D02*
X168471428Y-98877571D01*
X168471428Y-98877571D02*
X168271428Y-99106142D01*
X168271428Y-99106142D02*
X168357143Y-99106142D01*
X168357143Y-99106142D02*
X168414286Y-99134714D01*
X168414286Y-99134714D02*
X168442857Y-99163285D01*
X168442857Y-99163285D02*
X168471428Y-99220428D01*
X168471428Y-99220428D02*
X168471428Y-99363285D01*
X168471428Y-99363285D02*
X168442857Y-99420428D01*
X168442857Y-99420428D02*
X168414286Y-99449000D01*
X168414286Y-99449000D02*
X168357143Y-99477571D01*
X168357143Y-99477571D02*
X168185714Y-99477571D01*
X168185714Y-99477571D02*
X168128571Y-99449000D01*
X168128571Y-99449000D02*
X168100000Y-99420428D01*
X170157143Y-99477571D02*
X170157143Y-98877571D01*
X170157143Y-98877571D02*
X170385714Y-98877571D01*
X170385714Y-98877571D02*
X170442857Y-98906142D01*
X170442857Y-98906142D02*
X170471428Y-98934714D01*
X170471428Y-98934714D02*
X170500000Y-98991857D01*
X170500000Y-98991857D02*
X170500000Y-99077571D01*
X170500000Y-99077571D02*
X170471428Y-99134714D01*
X170471428Y-99134714D02*
X170442857Y-99163285D01*
X170442857Y-99163285D02*
X170385714Y-99191857D01*
X170385714Y-99191857D02*
X170157143Y-99191857D01*
X171014286Y-99077571D02*
X171014286Y-99477571D01*
X170871428Y-98849000D02*
X170728571Y-99277571D01*
X170728571Y-99277571D02*
X171100000Y-99277571D01*
X155214285Y-74127571D02*
X155014285Y-73841857D01*
X154871428Y-74127571D02*
X154871428Y-73527571D01*
X154871428Y-73527571D02*
X155099999Y-73527571D01*
X155099999Y-73527571D02*
X155157142Y-73556142D01*
X155157142Y-73556142D02*
X155185713Y-73584714D01*
X155185713Y-73584714D02*
X155214285Y-73641857D01*
X155214285Y-73641857D02*
X155214285Y-73727571D01*
X155214285Y-73727571D02*
X155185713Y-73784714D01*
X155185713Y-73784714D02*
X155157142Y-73813285D01*
X155157142Y-73813285D02*
X155099999Y-73841857D01*
X155099999Y-73841857D02*
X154871428Y-73841857D01*
X155785713Y-74127571D02*
X155442856Y-74127571D01*
X155614285Y-74127571D02*
X155614285Y-73527571D01*
X155614285Y-73527571D02*
X155557142Y-73613285D01*
X155557142Y-73613285D02*
X155499999Y-73670428D01*
X155499999Y-73670428D02*
X155442856Y-73699000D01*
X155985714Y-73527571D02*
X156357142Y-73527571D01*
X156357142Y-73527571D02*
X156157142Y-73756142D01*
X156157142Y-73756142D02*
X156242857Y-73756142D01*
X156242857Y-73756142D02*
X156300000Y-73784714D01*
X156300000Y-73784714D02*
X156328571Y-73813285D01*
X156328571Y-73813285D02*
X156357142Y-73870428D01*
X156357142Y-73870428D02*
X156357142Y-74013285D01*
X156357142Y-74013285D02*
X156328571Y-74070428D01*
X156328571Y-74070428D02*
X156300000Y-74099000D01*
X156300000Y-74099000D02*
X156242857Y-74127571D01*
X156242857Y-74127571D02*
X156071428Y-74127571D01*
X156071428Y-74127571D02*
X156014285Y-74099000D01*
X156014285Y-74099000D02*
X155985714Y-74070428D01*
X155214285Y-72577571D02*
X155014285Y-72291857D01*
X154871428Y-72577571D02*
X154871428Y-71977571D01*
X154871428Y-71977571D02*
X155099999Y-71977571D01*
X155099999Y-71977571D02*
X155157142Y-72006142D01*
X155157142Y-72006142D02*
X155185713Y-72034714D01*
X155185713Y-72034714D02*
X155214285Y-72091857D01*
X155214285Y-72091857D02*
X155214285Y-72177571D01*
X155214285Y-72177571D02*
X155185713Y-72234714D01*
X155185713Y-72234714D02*
X155157142Y-72263285D01*
X155157142Y-72263285D02*
X155099999Y-72291857D01*
X155099999Y-72291857D02*
X154871428Y-72291857D01*
X155785713Y-72577571D02*
X155442856Y-72577571D01*
X155614285Y-72577571D02*
X155614285Y-71977571D01*
X155614285Y-71977571D02*
X155557142Y-72063285D01*
X155557142Y-72063285D02*
X155499999Y-72120428D01*
X155499999Y-72120428D02*
X155442856Y-72149000D01*
X156300000Y-72177571D02*
X156300000Y-72577571D01*
X156157142Y-71949000D02*
X156014285Y-72377571D01*
X156014285Y-72377571D02*
X156385714Y-72377571D01*
X155314285Y-75627571D02*
X155114285Y-75341857D01*
X154971428Y-75627571D02*
X154971428Y-75027571D01*
X154971428Y-75027571D02*
X155199999Y-75027571D01*
X155199999Y-75027571D02*
X155257142Y-75056142D01*
X155257142Y-75056142D02*
X155285713Y-75084714D01*
X155285713Y-75084714D02*
X155314285Y-75141857D01*
X155314285Y-75141857D02*
X155314285Y-75227571D01*
X155314285Y-75227571D02*
X155285713Y-75284714D01*
X155285713Y-75284714D02*
X155257142Y-75313285D01*
X155257142Y-75313285D02*
X155199999Y-75341857D01*
X155199999Y-75341857D02*
X154971428Y-75341857D01*
X155885713Y-75627571D02*
X155542856Y-75627571D01*
X155714285Y-75627571D02*
X155714285Y-75027571D01*
X155714285Y-75027571D02*
X155657142Y-75113285D01*
X155657142Y-75113285D02*
X155599999Y-75170428D01*
X155599999Y-75170428D02*
X155542856Y-75199000D01*
X156400000Y-75027571D02*
X156285714Y-75027571D01*
X156285714Y-75027571D02*
X156228571Y-75056142D01*
X156228571Y-75056142D02*
X156200000Y-75084714D01*
X156200000Y-75084714D02*
X156142857Y-75170428D01*
X156142857Y-75170428D02*
X156114285Y-75284714D01*
X156114285Y-75284714D02*
X156114285Y-75513285D01*
X156114285Y-75513285D02*
X156142857Y-75570428D01*
X156142857Y-75570428D02*
X156171428Y-75599000D01*
X156171428Y-75599000D02*
X156228571Y-75627571D01*
X156228571Y-75627571D02*
X156342857Y-75627571D01*
X156342857Y-75627571D02*
X156400000Y-75599000D01*
X156400000Y-75599000D02*
X156428571Y-75570428D01*
X156428571Y-75570428D02*
X156457142Y-75513285D01*
X156457142Y-75513285D02*
X156457142Y-75370428D01*
X156457142Y-75370428D02*
X156428571Y-75313285D01*
X156428571Y-75313285D02*
X156400000Y-75284714D01*
X156400000Y-75284714D02*
X156342857Y-75256142D01*
X156342857Y-75256142D02*
X156228571Y-75256142D01*
X156228571Y-75256142D02*
X156171428Y-75284714D01*
X156171428Y-75284714D02*
X156142857Y-75313285D01*
X156142857Y-75313285D02*
X156114285Y-75370428D01*
X155214285Y-70977571D02*
X155014285Y-70691857D01*
X154871428Y-70977571D02*
X154871428Y-70377571D01*
X154871428Y-70377571D02*
X155099999Y-70377571D01*
X155099999Y-70377571D02*
X155157142Y-70406142D01*
X155157142Y-70406142D02*
X155185713Y-70434714D01*
X155185713Y-70434714D02*
X155214285Y-70491857D01*
X155214285Y-70491857D02*
X155214285Y-70577571D01*
X155214285Y-70577571D02*
X155185713Y-70634714D01*
X155185713Y-70634714D02*
X155157142Y-70663285D01*
X155157142Y-70663285D02*
X155099999Y-70691857D01*
X155099999Y-70691857D02*
X154871428Y-70691857D01*
X155785713Y-70977571D02*
X155442856Y-70977571D01*
X155614285Y-70977571D02*
X155614285Y-70377571D01*
X155614285Y-70377571D02*
X155557142Y-70463285D01*
X155557142Y-70463285D02*
X155499999Y-70520428D01*
X155499999Y-70520428D02*
X155442856Y-70549000D01*
X155985714Y-70377571D02*
X156385714Y-70377571D01*
X156385714Y-70377571D02*
X156128571Y-70977571D01*
X151127571Y-100585714D02*
X150841857Y-100785714D01*
X151127571Y-100928571D02*
X150527571Y-100928571D01*
X150527571Y-100928571D02*
X150527571Y-100700000D01*
X150527571Y-100700000D02*
X150556142Y-100642857D01*
X150556142Y-100642857D02*
X150584714Y-100614286D01*
X150584714Y-100614286D02*
X150641857Y-100585714D01*
X150641857Y-100585714D02*
X150727571Y-100585714D01*
X150727571Y-100585714D02*
X150784714Y-100614286D01*
X150784714Y-100614286D02*
X150813285Y-100642857D01*
X150813285Y-100642857D02*
X150841857Y-100700000D01*
X150841857Y-100700000D02*
X150841857Y-100928571D01*
X151127571Y-100014286D02*
X151127571Y-100357143D01*
X151127571Y-100185714D02*
X150527571Y-100185714D01*
X150527571Y-100185714D02*
X150613285Y-100242857D01*
X150613285Y-100242857D02*
X150670428Y-100300000D01*
X150670428Y-100300000D02*
X150699000Y-100357143D01*
X151127571Y-99728571D02*
X151127571Y-99614285D01*
X151127571Y-99614285D02*
X151099000Y-99557142D01*
X151099000Y-99557142D02*
X151070428Y-99528571D01*
X151070428Y-99528571D02*
X150984714Y-99471428D01*
X150984714Y-99471428D02*
X150870428Y-99442857D01*
X150870428Y-99442857D02*
X150641857Y-99442857D01*
X150641857Y-99442857D02*
X150584714Y-99471428D01*
X150584714Y-99471428D02*
X150556142Y-99500000D01*
X150556142Y-99500000D02*
X150527571Y-99557142D01*
X150527571Y-99557142D02*
X150527571Y-99671428D01*
X150527571Y-99671428D02*
X150556142Y-99728571D01*
X150556142Y-99728571D02*
X150584714Y-99757142D01*
X150584714Y-99757142D02*
X150641857Y-99785714D01*
X150641857Y-99785714D02*
X150784714Y-99785714D01*
X150784714Y-99785714D02*
X150841857Y-99757142D01*
X150841857Y-99757142D02*
X150870428Y-99728571D01*
X150870428Y-99728571D02*
X150899000Y-99671428D01*
X150899000Y-99671428D02*
X150899000Y-99557142D01*
X150899000Y-99557142D02*
X150870428Y-99500000D01*
X150870428Y-99500000D02*
X150841857Y-99471428D01*
X150841857Y-99471428D02*
X150784714Y-99442857D01*
X153577571Y-100620714D02*
X153291857Y-100820714D01*
X153577571Y-100963571D02*
X152977571Y-100963571D01*
X152977571Y-100963571D02*
X152977571Y-100735000D01*
X152977571Y-100735000D02*
X153006142Y-100677857D01*
X153006142Y-100677857D02*
X153034714Y-100649286D01*
X153034714Y-100649286D02*
X153091857Y-100620714D01*
X153091857Y-100620714D02*
X153177571Y-100620714D01*
X153177571Y-100620714D02*
X153234714Y-100649286D01*
X153234714Y-100649286D02*
X153263285Y-100677857D01*
X153263285Y-100677857D02*
X153291857Y-100735000D01*
X153291857Y-100735000D02*
X153291857Y-100963571D01*
X153034714Y-100392143D02*
X153006142Y-100363571D01*
X153006142Y-100363571D02*
X152977571Y-100306429D01*
X152977571Y-100306429D02*
X152977571Y-100163571D01*
X152977571Y-100163571D02*
X153006142Y-100106429D01*
X153006142Y-100106429D02*
X153034714Y-100077857D01*
X153034714Y-100077857D02*
X153091857Y-100049286D01*
X153091857Y-100049286D02*
X153149000Y-100049286D01*
X153149000Y-100049286D02*
X153234714Y-100077857D01*
X153234714Y-100077857D02*
X153577571Y-100420714D01*
X153577571Y-100420714D02*
X153577571Y-100049286D01*
X152977571Y-99677857D02*
X152977571Y-99620714D01*
X152977571Y-99620714D02*
X153006142Y-99563571D01*
X153006142Y-99563571D02*
X153034714Y-99535000D01*
X153034714Y-99535000D02*
X153091857Y-99506428D01*
X153091857Y-99506428D02*
X153206142Y-99477857D01*
X153206142Y-99477857D02*
X153349000Y-99477857D01*
X153349000Y-99477857D02*
X153463285Y-99506428D01*
X153463285Y-99506428D02*
X153520428Y-99535000D01*
X153520428Y-99535000D02*
X153549000Y-99563571D01*
X153549000Y-99563571D02*
X153577571Y-99620714D01*
X153577571Y-99620714D02*
X153577571Y-99677857D01*
X153577571Y-99677857D02*
X153549000Y-99735000D01*
X153549000Y-99735000D02*
X153520428Y-99763571D01*
X153520428Y-99763571D02*
X153463285Y-99792142D01*
X153463285Y-99792142D02*
X153349000Y-99820714D01*
X153349000Y-99820714D02*
X153206142Y-99820714D01*
X153206142Y-99820714D02*
X153091857Y-99792142D01*
X153091857Y-99792142D02*
X153034714Y-99763571D01*
X153034714Y-99763571D02*
X153006142Y-99735000D01*
X153006142Y-99735000D02*
X152977571Y-99677857D01*
X156777571Y-129385714D02*
X156491857Y-129585714D01*
X156777571Y-129728571D02*
X156177571Y-129728571D01*
X156177571Y-129728571D02*
X156177571Y-129500000D01*
X156177571Y-129500000D02*
X156206142Y-129442857D01*
X156206142Y-129442857D02*
X156234714Y-129414286D01*
X156234714Y-129414286D02*
X156291857Y-129385714D01*
X156291857Y-129385714D02*
X156377571Y-129385714D01*
X156377571Y-129385714D02*
X156434714Y-129414286D01*
X156434714Y-129414286D02*
X156463285Y-129442857D01*
X156463285Y-129442857D02*
X156491857Y-129500000D01*
X156491857Y-129500000D02*
X156491857Y-129728571D01*
X156234714Y-129157143D02*
X156206142Y-129128571D01*
X156206142Y-129128571D02*
X156177571Y-129071429D01*
X156177571Y-129071429D02*
X156177571Y-128928571D01*
X156177571Y-128928571D02*
X156206142Y-128871429D01*
X156206142Y-128871429D02*
X156234714Y-128842857D01*
X156234714Y-128842857D02*
X156291857Y-128814286D01*
X156291857Y-128814286D02*
X156349000Y-128814286D01*
X156349000Y-128814286D02*
X156434714Y-128842857D01*
X156434714Y-128842857D02*
X156777571Y-129185714D01*
X156777571Y-129185714D02*
X156777571Y-128814286D01*
X156177571Y-128300000D02*
X156177571Y-128414285D01*
X156177571Y-128414285D02*
X156206142Y-128471428D01*
X156206142Y-128471428D02*
X156234714Y-128500000D01*
X156234714Y-128500000D02*
X156320428Y-128557142D01*
X156320428Y-128557142D02*
X156434714Y-128585714D01*
X156434714Y-128585714D02*
X156663285Y-128585714D01*
X156663285Y-128585714D02*
X156720428Y-128557142D01*
X156720428Y-128557142D02*
X156749000Y-128528571D01*
X156749000Y-128528571D02*
X156777571Y-128471428D01*
X156777571Y-128471428D02*
X156777571Y-128357142D01*
X156777571Y-128357142D02*
X156749000Y-128300000D01*
X156749000Y-128300000D02*
X156720428Y-128271428D01*
X156720428Y-128271428D02*
X156663285Y-128242857D01*
X156663285Y-128242857D02*
X156520428Y-128242857D01*
X156520428Y-128242857D02*
X156463285Y-128271428D01*
X156463285Y-128271428D02*
X156434714Y-128300000D01*
X156434714Y-128300000D02*
X156406142Y-128357142D01*
X156406142Y-128357142D02*
X156406142Y-128471428D01*
X156406142Y-128471428D02*
X156434714Y-128528571D01*
X156434714Y-128528571D02*
X156463285Y-128557142D01*
X156463285Y-128557142D02*
X156520428Y-128585714D01*
X158227571Y-131650714D02*
X157941857Y-131850714D01*
X158227571Y-131993571D02*
X157627571Y-131993571D01*
X157627571Y-131993571D02*
X157627571Y-131765000D01*
X157627571Y-131765000D02*
X157656142Y-131707857D01*
X157656142Y-131707857D02*
X157684714Y-131679286D01*
X157684714Y-131679286D02*
X157741857Y-131650714D01*
X157741857Y-131650714D02*
X157827571Y-131650714D01*
X157827571Y-131650714D02*
X157884714Y-131679286D01*
X157884714Y-131679286D02*
X157913285Y-131707857D01*
X157913285Y-131707857D02*
X157941857Y-131765000D01*
X157941857Y-131765000D02*
X157941857Y-131993571D01*
X157684714Y-131422143D02*
X157656142Y-131393571D01*
X157656142Y-131393571D02*
X157627571Y-131336429D01*
X157627571Y-131336429D02*
X157627571Y-131193571D01*
X157627571Y-131193571D02*
X157656142Y-131136429D01*
X157656142Y-131136429D02*
X157684714Y-131107857D01*
X157684714Y-131107857D02*
X157741857Y-131079286D01*
X157741857Y-131079286D02*
X157799000Y-131079286D01*
X157799000Y-131079286D02*
X157884714Y-131107857D01*
X157884714Y-131107857D02*
X158227571Y-131450714D01*
X158227571Y-131450714D02*
X158227571Y-131079286D01*
X157627571Y-130879285D02*
X157627571Y-130479285D01*
X157627571Y-130479285D02*
X158227571Y-130736428D01*
X152327571Y-129485714D02*
X152041857Y-129685714D01*
X152327571Y-129828571D02*
X151727571Y-129828571D01*
X151727571Y-129828571D02*
X151727571Y-129600000D01*
X151727571Y-129600000D02*
X151756142Y-129542857D01*
X151756142Y-129542857D02*
X151784714Y-129514286D01*
X151784714Y-129514286D02*
X151841857Y-129485714D01*
X151841857Y-129485714D02*
X151927571Y-129485714D01*
X151927571Y-129485714D02*
X151984714Y-129514286D01*
X151984714Y-129514286D02*
X152013285Y-129542857D01*
X152013285Y-129542857D02*
X152041857Y-129600000D01*
X152041857Y-129600000D02*
X152041857Y-129828571D01*
X151784714Y-129257143D02*
X151756142Y-129228571D01*
X151756142Y-129228571D02*
X151727571Y-129171429D01*
X151727571Y-129171429D02*
X151727571Y-129028571D01*
X151727571Y-129028571D02*
X151756142Y-128971429D01*
X151756142Y-128971429D02*
X151784714Y-128942857D01*
X151784714Y-128942857D02*
X151841857Y-128914286D01*
X151841857Y-128914286D02*
X151899000Y-128914286D01*
X151899000Y-128914286D02*
X151984714Y-128942857D01*
X151984714Y-128942857D02*
X152327571Y-129285714D01*
X152327571Y-129285714D02*
X152327571Y-128914286D01*
X151984714Y-128571428D02*
X151956142Y-128628571D01*
X151956142Y-128628571D02*
X151927571Y-128657142D01*
X151927571Y-128657142D02*
X151870428Y-128685714D01*
X151870428Y-128685714D02*
X151841857Y-128685714D01*
X151841857Y-128685714D02*
X151784714Y-128657142D01*
X151784714Y-128657142D02*
X151756142Y-128628571D01*
X151756142Y-128628571D02*
X151727571Y-128571428D01*
X151727571Y-128571428D02*
X151727571Y-128457142D01*
X151727571Y-128457142D02*
X151756142Y-128400000D01*
X151756142Y-128400000D02*
X151784714Y-128371428D01*
X151784714Y-128371428D02*
X151841857Y-128342857D01*
X151841857Y-128342857D02*
X151870428Y-128342857D01*
X151870428Y-128342857D02*
X151927571Y-128371428D01*
X151927571Y-128371428D02*
X151956142Y-128400000D01*
X151956142Y-128400000D02*
X151984714Y-128457142D01*
X151984714Y-128457142D02*
X151984714Y-128571428D01*
X151984714Y-128571428D02*
X152013285Y-128628571D01*
X152013285Y-128628571D02*
X152041857Y-128657142D01*
X152041857Y-128657142D02*
X152099000Y-128685714D01*
X152099000Y-128685714D02*
X152213285Y-128685714D01*
X152213285Y-128685714D02*
X152270428Y-128657142D01*
X152270428Y-128657142D02*
X152299000Y-128628571D01*
X152299000Y-128628571D02*
X152327571Y-128571428D01*
X152327571Y-128571428D02*
X152327571Y-128457142D01*
X152327571Y-128457142D02*
X152299000Y-128400000D01*
X152299000Y-128400000D02*
X152270428Y-128371428D01*
X152270428Y-128371428D02*
X152213285Y-128342857D01*
X152213285Y-128342857D02*
X152099000Y-128342857D01*
X152099000Y-128342857D02*
X152041857Y-128371428D01*
X152041857Y-128371428D02*
X152013285Y-128400000D01*
X152013285Y-128400000D02*
X151984714Y-128457142D01*
X140342857Y-100477571D02*
X140142857Y-100191857D01*
X140000000Y-100477571D02*
X140000000Y-99877571D01*
X140000000Y-99877571D02*
X140228571Y-99877571D01*
X140228571Y-99877571D02*
X140285714Y-99906142D01*
X140285714Y-99906142D02*
X140314285Y-99934714D01*
X140314285Y-99934714D02*
X140342857Y-99991857D01*
X140342857Y-99991857D02*
X140342857Y-100077571D01*
X140342857Y-100077571D02*
X140314285Y-100134714D01*
X140314285Y-100134714D02*
X140285714Y-100163285D01*
X140285714Y-100163285D02*
X140228571Y-100191857D01*
X140228571Y-100191857D02*
X140000000Y-100191857D01*
X140514285Y-99877571D02*
X140714285Y-100477571D01*
X140714285Y-100477571D02*
X140914285Y-99877571D01*
X141428571Y-100477571D02*
X141085714Y-100477571D01*
X141257143Y-100477571D02*
X141257143Y-99877571D01*
X141257143Y-99877571D02*
X141200000Y-99963285D01*
X141200000Y-99963285D02*
X141142857Y-100020428D01*
X141142857Y-100020428D02*
X141085714Y-100049000D01*
X143142857Y-78977571D02*
X143142857Y-79463285D01*
X143142857Y-79463285D02*
X143171428Y-79520428D01*
X143171428Y-79520428D02*
X143200000Y-79549000D01*
X143200000Y-79549000D02*
X143257142Y-79577571D01*
X143257142Y-79577571D02*
X143371428Y-79577571D01*
X143371428Y-79577571D02*
X143428571Y-79549000D01*
X143428571Y-79549000D02*
X143457142Y-79520428D01*
X143457142Y-79520428D02*
X143485714Y-79463285D01*
X143485714Y-79463285D02*
X143485714Y-78977571D01*
X144028571Y-79177571D02*
X144028571Y-79577571D01*
X143885713Y-78949000D02*
X143742856Y-79377571D01*
X143742856Y-79377571D02*
X144114285Y-79377571D01*
X138357143Y-99277571D02*
X138357143Y-98677571D01*
X138357143Y-98677571D02*
X138585714Y-98677571D01*
X138585714Y-98677571D02*
X138642857Y-98706142D01*
X138642857Y-98706142D02*
X138671428Y-98734714D01*
X138671428Y-98734714D02*
X138700000Y-98791857D01*
X138700000Y-98791857D02*
X138700000Y-98877571D01*
X138700000Y-98877571D02*
X138671428Y-98934714D01*
X138671428Y-98934714D02*
X138642857Y-98963285D01*
X138642857Y-98963285D02*
X138585714Y-98991857D01*
X138585714Y-98991857D02*
X138357143Y-98991857D01*
X138928571Y-98734714D02*
X138957143Y-98706142D01*
X138957143Y-98706142D02*
X139014286Y-98677571D01*
X139014286Y-98677571D02*
X139157143Y-98677571D01*
X139157143Y-98677571D02*
X139214286Y-98706142D01*
X139214286Y-98706142D02*
X139242857Y-98734714D01*
X139242857Y-98734714D02*
X139271428Y-98791857D01*
X139271428Y-98791857D02*
X139271428Y-98849000D01*
X139271428Y-98849000D02*
X139242857Y-98934714D01*
X139242857Y-98934714D02*
X138900000Y-99277571D01*
X138900000Y-99277571D02*
X139271428Y-99277571D01*
X158042857Y-82727571D02*
X158042857Y-83213285D01*
X158042857Y-83213285D02*
X158071428Y-83270428D01*
X158071428Y-83270428D02*
X158100000Y-83299000D01*
X158100000Y-83299000D02*
X158157142Y-83327571D01*
X158157142Y-83327571D02*
X158271428Y-83327571D01*
X158271428Y-83327571D02*
X158328571Y-83299000D01*
X158328571Y-83299000D02*
X158357142Y-83270428D01*
X158357142Y-83270428D02*
X158385714Y-83213285D01*
X158385714Y-83213285D02*
X158385714Y-82727571D01*
X158614285Y-82727571D02*
X158985713Y-82727571D01*
X158985713Y-82727571D02*
X158785713Y-82956142D01*
X158785713Y-82956142D02*
X158871428Y-82956142D01*
X158871428Y-82956142D02*
X158928571Y-82984714D01*
X158928571Y-82984714D02*
X158957142Y-83013285D01*
X158957142Y-83013285D02*
X158985713Y-83070428D01*
X158985713Y-83070428D02*
X158985713Y-83213285D01*
X158985713Y-83213285D02*
X158957142Y-83270428D01*
X158957142Y-83270428D02*
X158928571Y-83299000D01*
X158928571Y-83299000D02*
X158871428Y-83327571D01*
X158871428Y-83327571D02*
X158699999Y-83327571D01*
X158699999Y-83327571D02*
X158642856Y-83299000D01*
X158642856Y-83299000D02*
X158614285Y-83270428D01*
X150227571Y-94057142D02*
X150713285Y-94057142D01*
X150713285Y-94057142D02*
X150770428Y-94028571D01*
X150770428Y-94028571D02*
X150799000Y-94000000D01*
X150799000Y-94000000D02*
X150827571Y-93942857D01*
X150827571Y-93942857D02*
X150827571Y-93828571D01*
X150827571Y-93828571D02*
X150799000Y-93771428D01*
X150799000Y-93771428D02*
X150770428Y-93742857D01*
X150770428Y-93742857D02*
X150713285Y-93714285D01*
X150713285Y-93714285D02*
X150227571Y-93714285D01*
X150284714Y-93457143D02*
X150256142Y-93428571D01*
X150256142Y-93428571D02*
X150227571Y-93371429D01*
X150227571Y-93371429D02*
X150227571Y-93228571D01*
X150227571Y-93228571D02*
X150256142Y-93171429D01*
X150256142Y-93171429D02*
X150284714Y-93142857D01*
X150284714Y-93142857D02*
X150341857Y-93114286D01*
X150341857Y-93114286D02*
X150399000Y-93114286D01*
X150399000Y-93114286D02*
X150484714Y-93142857D01*
X150484714Y-93142857D02*
X150827571Y-93485714D01*
X150827571Y-93485714D02*
X150827571Y-93114286D01*
X160677571Y-90450714D02*
X160391857Y-90650714D01*
X160677571Y-90793571D02*
X160077571Y-90793571D01*
X160077571Y-90793571D02*
X160077571Y-90565000D01*
X160077571Y-90565000D02*
X160106142Y-90507857D01*
X160106142Y-90507857D02*
X160134714Y-90479286D01*
X160134714Y-90479286D02*
X160191857Y-90450714D01*
X160191857Y-90450714D02*
X160277571Y-90450714D01*
X160277571Y-90450714D02*
X160334714Y-90479286D01*
X160334714Y-90479286D02*
X160363285Y-90507857D01*
X160363285Y-90507857D02*
X160391857Y-90565000D01*
X160391857Y-90565000D02*
X160391857Y-90793571D01*
X160077571Y-90250714D02*
X160077571Y-89879286D01*
X160077571Y-89879286D02*
X160306142Y-90079286D01*
X160306142Y-90079286D02*
X160306142Y-89993571D01*
X160306142Y-89993571D02*
X160334714Y-89936429D01*
X160334714Y-89936429D02*
X160363285Y-89907857D01*
X160363285Y-89907857D02*
X160420428Y-89879286D01*
X160420428Y-89879286D02*
X160563285Y-89879286D01*
X160563285Y-89879286D02*
X160620428Y-89907857D01*
X160620428Y-89907857D02*
X160649000Y-89936429D01*
X160649000Y-89936429D02*
X160677571Y-89993571D01*
X160677571Y-89993571D02*
X160677571Y-90165000D01*
X160677571Y-90165000D02*
X160649000Y-90222143D01*
X160649000Y-90222143D02*
X160620428Y-90250714D01*
X160077571Y-89507857D02*
X160077571Y-89450714D01*
X160077571Y-89450714D02*
X160106142Y-89393571D01*
X160106142Y-89393571D02*
X160134714Y-89365000D01*
X160134714Y-89365000D02*
X160191857Y-89336428D01*
X160191857Y-89336428D02*
X160306142Y-89307857D01*
X160306142Y-89307857D02*
X160449000Y-89307857D01*
X160449000Y-89307857D02*
X160563285Y-89336428D01*
X160563285Y-89336428D02*
X160620428Y-89365000D01*
X160620428Y-89365000D02*
X160649000Y-89393571D01*
X160649000Y-89393571D02*
X160677571Y-89450714D01*
X160677571Y-89450714D02*
X160677571Y-89507857D01*
X160677571Y-89507857D02*
X160649000Y-89565000D01*
X160649000Y-89565000D02*
X160620428Y-89593571D01*
X160620428Y-89593571D02*
X160563285Y-89622142D01*
X160563285Y-89622142D02*
X160449000Y-89650714D01*
X160449000Y-89650714D02*
X160306142Y-89650714D01*
X160306142Y-89650714D02*
X160191857Y-89622142D01*
X160191857Y-89622142D02*
X160134714Y-89593571D01*
X160134714Y-89593571D02*
X160106142Y-89565000D01*
X160106142Y-89565000D02*
X160077571Y-89507857D01*
X160677571Y-92420714D02*
X160391857Y-92620714D01*
X160677571Y-92763571D02*
X160077571Y-92763571D01*
X160077571Y-92763571D02*
X160077571Y-92535000D01*
X160077571Y-92535000D02*
X160106142Y-92477857D01*
X160106142Y-92477857D02*
X160134714Y-92449286D01*
X160134714Y-92449286D02*
X160191857Y-92420714D01*
X160191857Y-92420714D02*
X160277571Y-92420714D01*
X160277571Y-92420714D02*
X160334714Y-92449286D01*
X160334714Y-92449286D02*
X160363285Y-92477857D01*
X160363285Y-92477857D02*
X160391857Y-92535000D01*
X160391857Y-92535000D02*
X160391857Y-92763571D01*
X160134714Y-92192143D02*
X160106142Y-92163571D01*
X160106142Y-92163571D02*
X160077571Y-92106429D01*
X160077571Y-92106429D02*
X160077571Y-91963571D01*
X160077571Y-91963571D02*
X160106142Y-91906429D01*
X160106142Y-91906429D02*
X160134714Y-91877857D01*
X160134714Y-91877857D02*
X160191857Y-91849286D01*
X160191857Y-91849286D02*
X160249000Y-91849286D01*
X160249000Y-91849286D02*
X160334714Y-91877857D01*
X160334714Y-91877857D02*
X160677571Y-92220714D01*
X160677571Y-92220714D02*
X160677571Y-91849286D01*
X160677571Y-91563571D02*
X160677571Y-91449285D01*
X160677571Y-91449285D02*
X160649000Y-91392142D01*
X160649000Y-91392142D02*
X160620428Y-91363571D01*
X160620428Y-91363571D02*
X160534714Y-91306428D01*
X160534714Y-91306428D02*
X160420428Y-91277857D01*
X160420428Y-91277857D02*
X160191857Y-91277857D01*
X160191857Y-91277857D02*
X160134714Y-91306428D01*
X160134714Y-91306428D02*
X160106142Y-91335000D01*
X160106142Y-91335000D02*
X160077571Y-91392142D01*
X160077571Y-91392142D02*
X160077571Y-91506428D01*
X160077571Y-91506428D02*
X160106142Y-91563571D01*
X160106142Y-91563571D02*
X160134714Y-91592142D01*
X160134714Y-91592142D02*
X160191857Y-91620714D01*
X160191857Y-91620714D02*
X160334714Y-91620714D01*
X160334714Y-91620714D02*
X160391857Y-91592142D01*
X160391857Y-91592142D02*
X160420428Y-91563571D01*
X160420428Y-91563571D02*
X160449000Y-91506428D01*
X160449000Y-91506428D02*
X160449000Y-91392142D01*
X160449000Y-91392142D02*
X160420428Y-91335000D01*
X160420428Y-91335000D02*
X160391857Y-91306428D01*
X160391857Y-91306428D02*
X160334714Y-91277857D01*
X151127571Y-81885714D02*
X150841857Y-82085714D01*
X151127571Y-82228571D02*
X150527571Y-82228571D01*
X150527571Y-82228571D02*
X150527571Y-82000000D01*
X150527571Y-82000000D02*
X150556142Y-81942857D01*
X150556142Y-81942857D02*
X150584714Y-81914286D01*
X150584714Y-81914286D02*
X150641857Y-81885714D01*
X150641857Y-81885714D02*
X150727571Y-81885714D01*
X150727571Y-81885714D02*
X150784714Y-81914286D01*
X150784714Y-81914286D02*
X150813285Y-81942857D01*
X150813285Y-81942857D02*
X150841857Y-82000000D01*
X150841857Y-82000000D02*
X150841857Y-82228571D01*
X151127571Y-81314286D02*
X151127571Y-81657143D01*
X151127571Y-81485714D02*
X150527571Y-81485714D01*
X150527571Y-81485714D02*
X150613285Y-81542857D01*
X150613285Y-81542857D02*
X150670428Y-81600000D01*
X150670428Y-81600000D02*
X150699000Y-81657143D01*
X150784714Y-80971428D02*
X150756142Y-81028571D01*
X150756142Y-81028571D02*
X150727571Y-81057142D01*
X150727571Y-81057142D02*
X150670428Y-81085714D01*
X150670428Y-81085714D02*
X150641857Y-81085714D01*
X150641857Y-81085714D02*
X150584714Y-81057142D01*
X150584714Y-81057142D02*
X150556142Y-81028571D01*
X150556142Y-81028571D02*
X150527571Y-80971428D01*
X150527571Y-80971428D02*
X150527571Y-80857142D01*
X150527571Y-80857142D02*
X150556142Y-80800000D01*
X150556142Y-80800000D02*
X150584714Y-80771428D01*
X150584714Y-80771428D02*
X150641857Y-80742857D01*
X150641857Y-80742857D02*
X150670428Y-80742857D01*
X150670428Y-80742857D02*
X150727571Y-80771428D01*
X150727571Y-80771428D02*
X150756142Y-80800000D01*
X150756142Y-80800000D02*
X150784714Y-80857142D01*
X150784714Y-80857142D02*
X150784714Y-80971428D01*
X150784714Y-80971428D02*
X150813285Y-81028571D01*
X150813285Y-81028571D02*
X150841857Y-81057142D01*
X150841857Y-81057142D02*
X150899000Y-81085714D01*
X150899000Y-81085714D02*
X151013285Y-81085714D01*
X151013285Y-81085714D02*
X151070428Y-81057142D01*
X151070428Y-81057142D02*
X151099000Y-81028571D01*
X151099000Y-81028571D02*
X151127571Y-80971428D01*
X151127571Y-80971428D02*
X151127571Y-80857142D01*
X151127571Y-80857142D02*
X151099000Y-80800000D01*
X151099000Y-80800000D02*
X151070428Y-80771428D01*
X151070428Y-80771428D02*
X151013285Y-80742857D01*
X151013285Y-80742857D02*
X150899000Y-80742857D01*
X150899000Y-80742857D02*
X150841857Y-80771428D01*
X150841857Y-80771428D02*
X150813285Y-80800000D01*
X150813285Y-80800000D02*
X150784714Y-80857142D01*
X157027571Y-82085714D02*
X156741857Y-82285714D01*
X157027571Y-82428571D02*
X156427571Y-82428571D01*
X156427571Y-82428571D02*
X156427571Y-82200000D01*
X156427571Y-82200000D02*
X156456142Y-82142857D01*
X156456142Y-82142857D02*
X156484714Y-82114286D01*
X156484714Y-82114286D02*
X156541857Y-82085714D01*
X156541857Y-82085714D02*
X156627571Y-82085714D01*
X156627571Y-82085714D02*
X156684714Y-82114286D01*
X156684714Y-82114286D02*
X156713285Y-82142857D01*
X156713285Y-82142857D02*
X156741857Y-82200000D01*
X156741857Y-82200000D02*
X156741857Y-82428571D01*
X157027571Y-81514286D02*
X157027571Y-81857143D01*
X157027571Y-81685714D02*
X156427571Y-81685714D01*
X156427571Y-81685714D02*
X156513285Y-81742857D01*
X156513285Y-81742857D02*
X156570428Y-81800000D01*
X156570428Y-81800000D02*
X156599000Y-81857143D01*
X156427571Y-80971428D02*
X156427571Y-81257142D01*
X156427571Y-81257142D02*
X156713285Y-81285714D01*
X156713285Y-81285714D02*
X156684714Y-81257142D01*
X156684714Y-81257142D02*
X156656142Y-81200000D01*
X156656142Y-81200000D02*
X156656142Y-81057142D01*
X156656142Y-81057142D02*
X156684714Y-81000000D01*
X156684714Y-81000000D02*
X156713285Y-80971428D01*
X156713285Y-80971428D02*
X156770428Y-80942857D01*
X156770428Y-80942857D02*
X156913285Y-80942857D01*
X156913285Y-80942857D02*
X156970428Y-80971428D01*
X156970428Y-80971428D02*
X156999000Y-81000000D01*
X156999000Y-81000000D02*
X157027571Y-81057142D01*
X157027571Y-81057142D02*
X157027571Y-81200000D01*
X157027571Y-81200000D02*
X156999000Y-81257142D01*
X156999000Y-81257142D02*
X156970428Y-81285714D01*
X157664285Y-92777571D02*
X157464285Y-92491857D01*
X157321428Y-92777571D02*
X157321428Y-92177571D01*
X157321428Y-92177571D02*
X157549999Y-92177571D01*
X157549999Y-92177571D02*
X157607142Y-92206142D01*
X157607142Y-92206142D02*
X157635713Y-92234714D01*
X157635713Y-92234714D02*
X157664285Y-92291857D01*
X157664285Y-92291857D02*
X157664285Y-92377571D01*
X157664285Y-92377571D02*
X157635713Y-92434714D01*
X157635713Y-92434714D02*
X157607142Y-92463285D01*
X157607142Y-92463285D02*
X157549999Y-92491857D01*
X157549999Y-92491857D02*
X157321428Y-92491857D01*
X158235713Y-92777571D02*
X157892856Y-92777571D01*
X158064285Y-92777571D02*
X158064285Y-92177571D01*
X158064285Y-92177571D02*
X158007142Y-92263285D01*
X158007142Y-92263285D02*
X157949999Y-92320428D01*
X157949999Y-92320428D02*
X157892856Y-92349000D01*
X158607142Y-92177571D02*
X158664285Y-92177571D01*
X158664285Y-92177571D02*
X158721428Y-92206142D01*
X158721428Y-92206142D02*
X158750000Y-92234714D01*
X158750000Y-92234714D02*
X158778571Y-92291857D01*
X158778571Y-92291857D02*
X158807142Y-92406142D01*
X158807142Y-92406142D02*
X158807142Y-92549000D01*
X158807142Y-92549000D02*
X158778571Y-92663285D01*
X158778571Y-92663285D02*
X158750000Y-92720428D01*
X158750000Y-92720428D02*
X158721428Y-92749000D01*
X158721428Y-92749000D02*
X158664285Y-92777571D01*
X158664285Y-92777571D02*
X158607142Y-92777571D01*
X158607142Y-92777571D02*
X158550000Y-92749000D01*
X158550000Y-92749000D02*
X158521428Y-92720428D01*
X158521428Y-92720428D02*
X158492857Y-92663285D01*
X158492857Y-92663285D02*
X158464285Y-92549000D01*
X158464285Y-92549000D02*
X158464285Y-92406142D01*
X158464285Y-92406142D02*
X158492857Y-92291857D01*
X158492857Y-92291857D02*
X158521428Y-92234714D01*
X158521428Y-92234714D02*
X158550000Y-92206142D01*
X158550000Y-92206142D02*
X158607142Y-92177571D01*
X157900000Y-89927571D02*
X157700000Y-89641857D01*
X157557143Y-89927571D02*
X157557143Y-89327571D01*
X157557143Y-89327571D02*
X157785714Y-89327571D01*
X157785714Y-89327571D02*
X157842857Y-89356142D01*
X157842857Y-89356142D02*
X157871428Y-89384714D01*
X157871428Y-89384714D02*
X157900000Y-89441857D01*
X157900000Y-89441857D02*
X157900000Y-89527571D01*
X157900000Y-89527571D02*
X157871428Y-89584714D01*
X157871428Y-89584714D02*
X157842857Y-89613285D01*
X157842857Y-89613285D02*
X157785714Y-89641857D01*
X157785714Y-89641857D02*
X157557143Y-89641857D01*
X158185714Y-89927571D02*
X158300000Y-89927571D01*
X158300000Y-89927571D02*
X158357143Y-89899000D01*
X158357143Y-89899000D02*
X158385714Y-89870428D01*
X158385714Y-89870428D02*
X158442857Y-89784714D01*
X158442857Y-89784714D02*
X158471428Y-89670428D01*
X158471428Y-89670428D02*
X158471428Y-89441857D01*
X158471428Y-89441857D02*
X158442857Y-89384714D01*
X158442857Y-89384714D02*
X158414286Y-89356142D01*
X158414286Y-89356142D02*
X158357143Y-89327571D01*
X158357143Y-89327571D02*
X158242857Y-89327571D01*
X158242857Y-89327571D02*
X158185714Y-89356142D01*
X158185714Y-89356142D02*
X158157143Y-89384714D01*
X158157143Y-89384714D02*
X158128571Y-89441857D01*
X158128571Y-89441857D02*
X158128571Y-89584714D01*
X158128571Y-89584714D02*
X158157143Y-89641857D01*
X158157143Y-89641857D02*
X158185714Y-89670428D01*
X158185714Y-89670428D02*
X158242857Y-89699000D01*
X158242857Y-89699000D02*
X158357143Y-89699000D01*
X158357143Y-89699000D02*
X158414286Y-89670428D01*
X158414286Y-89670428D02*
X158442857Y-89641857D01*
X158442857Y-89641857D02*
X158471428Y-89584714D01*
X152077571Y-96899999D02*
X151791857Y-97099999D01*
X152077571Y-97242856D02*
X151477571Y-97242856D01*
X151477571Y-97242856D02*
X151477571Y-97014285D01*
X151477571Y-97014285D02*
X151506142Y-96957142D01*
X151506142Y-96957142D02*
X151534714Y-96928571D01*
X151534714Y-96928571D02*
X151591857Y-96899999D01*
X151591857Y-96899999D02*
X151677571Y-96899999D01*
X151677571Y-96899999D02*
X151734714Y-96928571D01*
X151734714Y-96928571D02*
X151763285Y-96957142D01*
X151763285Y-96957142D02*
X151791857Y-97014285D01*
X151791857Y-97014285D02*
X151791857Y-97242856D01*
X151734714Y-96557142D02*
X151706142Y-96614285D01*
X151706142Y-96614285D02*
X151677571Y-96642856D01*
X151677571Y-96642856D02*
X151620428Y-96671428D01*
X151620428Y-96671428D02*
X151591857Y-96671428D01*
X151591857Y-96671428D02*
X151534714Y-96642856D01*
X151534714Y-96642856D02*
X151506142Y-96614285D01*
X151506142Y-96614285D02*
X151477571Y-96557142D01*
X151477571Y-96557142D02*
X151477571Y-96442856D01*
X151477571Y-96442856D02*
X151506142Y-96385714D01*
X151506142Y-96385714D02*
X151534714Y-96357142D01*
X151534714Y-96357142D02*
X151591857Y-96328571D01*
X151591857Y-96328571D02*
X151620428Y-96328571D01*
X151620428Y-96328571D02*
X151677571Y-96357142D01*
X151677571Y-96357142D02*
X151706142Y-96385714D01*
X151706142Y-96385714D02*
X151734714Y-96442856D01*
X151734714Y-96442856D02*
X151734714Y-96557142D01*
X151734714Y-96557142D02*
X151763285Y-96614285D01*
X151763285Y-96614285D02*
X151791857Y-96642856D01*
X151791857Y-96642856D02*
X151849000Y-96671428D01*
X151849000Y-96671428D02*
X151963285Y-96671428D01*
X151963285Y-96671428D02*
X152020428Y-96642856D01*
X152020428Y-96642856D02*
X152049000Y-96614285D01*
X152049000Y-96614285D02*
X152077571Y-96557142D01*
X152077571Y-96557142D02*
X152077571Y-96442856D01*
X152077571Y-96442856D02*
X152049000Y-96385714D01*
X152049000Y-96385714D02*
X152020428Y-96357142D01*
X152020428Y-96357142D02*
X151963285Y-96328571D01*
X151963285Y-96328571D02*
X151849000Y-96328571D01*
X151849000Y-96328571D02*
X151791857Y-96357142D01*
X151791857Y-96357142D02*
X151763285Y-96385714D01*
X151763285Y-96385714D02*
X151734714Y-96442856D01*
X156327571Y-96899999D02*
X156041857Y-97099999D01*
X156327571Y-97242856D02*
X155727571Y-97242856D01*
X155727571Y-97242856D02*
X155727571Y-97014285D01*
X155727571Y-97014285D02*
X155756142Y-96957142D01*
X155756142Y-96957142D02*
X155784714Y-96928571D01*
X155784714Y-96928571D02*
X155841857Y-96899999D01*
X155841857Y-96899999D02*
X155927571Y-96899999D01*
X155927571Y-96899999D02*
X155984714Y-96928571D01*
X155984714Y-96928571D02*
X156013285Y-96957142D01*
X156013285Y-96957142D02*
X156041857Y-97014285D01*
X156041857Y-97014285D02*
X156041857Y-97242856D01*
X155727571Y-96699999D02*
X155727571Y-96299999D01*
X155727571Y-96299999D02*
X156327571Y-96557142D01*
X155277571Y-96899999D02*
X154991857Y-97099999D01*
X155277571Y-97242856D02*
X154677571Y-97242856D01*
X154677571Y-97242856D02*
X154677571Y-97014285D01*
X154677571Y-97014285D02*
X154706142Y-96957142D01*
X154706142Y-96957142D02*
X154734714Y-96928571D01*
X154734714Y-96928571D02*
X154791857Y-96899999D01*
X154791857Y-96899999D02*
X154877571Y-96899999D01*
X154877571Y-96899999D02*
X154934714Y-96928571D01*
X154934714Y-96928571D02*
X154963285Y-96957142D01*
X154963285Y-96957142D02*
X154991857Y-97014285D01*
X154991857Y-97014285D02*
X154991857Y-97242856D01*
X154677571Y-96385714D02*
X154677571Y-96499999D01*
X154677571Y-96499999D02*
X154706142Y-96557142D01*
X154706142Y-96557142D02*
X154734714Y-96585714D01*
X154734714Y-96585714D02*
X154820428Y-96642856D01*
X154820428Y-96642856D02*
X154934714Y-96671428D01*
X154934714Y-96671428D02*
X155163285Y-96671428D01*
X155163285Y-96671428D02*
X155220428Y-96642856D01*
X155220428Y-96642856D02*
X155249000Y-96614285D01*
X155249000Y-96614285D02*
X155277571Y-96557142D01*
X155277571Y-96557142D02*
X155277571Y-96442856D01*
X155277571Y-96442856D02*
X155249000Y-96385714D01*
X155249000Y-96385714D02*
X155220428Y-96357142D01*
X155220428Y-96357142D02*
X155163285Y-96328571D01*
X155163285Y-96328571D02*
X155020428Y-96328571D01*
X155020428Y-96328571D02*
X154963285Y-96357142D01*
X154963285Y-96357142D02*
X154934714Y-96385714D01*
X154934714Y-96385714D02*
X154906142Y-96442856D01*
X154906142Y-96442856D02*
X154906142Y-96557142D01*
X154906142Y-96557142D02*
X154934714Y-96614285D01*
X154934714Y-96614285D02*
X154963285Y-96642856D01*
X154963285Y-96642856D02*
X155020428Y-96671428D01*
X154177571Y-96899999D02*
X153891857Y-97099999D01*
X154177571Y-97242856D02*
X153577571Y-97242856D01*
X153577571Y-97242856D02*
X153577571Y-97014285D01*
X153577571Y-97014285D02*
X153606142Y-96957142D01*
X153606142Y-96957142D02*
X153634714Y-96928571D01*
X153634714Y-96928571D02*
X153691857Y-96899999D01*
X153691857Y-96899999D02*
X153777571Y-96899999D01*
X153777571Y-96899999D02*
X153834714Y-96928571D01*
X153834714Y-96928571D02*
X153863285Y-96957142D01*
X153863285Y-96957142D02*
X153891857Y-97014285D01*
X153891857Y-97014285D02*
X153891857Y-97242856D01*
X153577571Y-96357142D02*
X153577571Y-96642856D01*
X153577571Y-96642856D02*
X153863285Y-96671428D01*
X153863285Y-96671428D02*
X153834714Y-96642856D01*
X153834714Y-96642856D02*
X153806142Y-96585714D01*
X153806142Y-96585714D02*
X153806142Y-96442856D01*
X153806142Y-96442856D02*
X153834714Y-96385714D01*
X153834714Y-96385714D02*
X153863285Y-96357142D01*
X153863285Y-96357142D02*
X153920428Y-96328571D01*
X153920428Y-96328571D02*
X154063285Y-96328571D01*
X154063285Y-96328571D02*
X154120428Y-96357142D01*
X154120428Y-96357142D02*
X154149000Y-96385714D01*
X154149000Y-96385714D02*
X154177571Y-96442856D01*
X154177571Y-96442856D02*
X154177571Y-96585714D01*
X154177571Y-96585714D02*
X154149000Y-96642856D01*
X154149000Y-96642856D02*
X154120428Y-96671428D01*
X153127571Y-96899999D02*
X152841857Y-97099999D01*
X153127571Y-97242856D02*
X152527571Y-97242856D01*
X152527571Y-97242856D02*
X152527571Y-97014285D01*
X152527571Y-97014285D02*
X152556142Y-96957142D01*
X152556142Y-96957142D02*
X152584714Y-96928571D01*
X152584714Y-96928571D02*
X152641857Y-96899999D01*
X152641857Y-96899999D02*
X152727571Y-96899999D01*
X152727571Y-96899999D02*
X152784714Y-96928571D01*
X152784714Y-96928571D02*
X152813285Y-96957142D01*
X152813285Y-96957142D02*
X152841857Y-97014285D01*
X152841857Y-97014285D02*
X152841857Y-97242856D01*
X152727571Y-96385714D02*
X153127571Y-96385714D01*
X152499000Y-96528571D02*
X152927571Y-96671428D01*
X152927571Y-96671428D02*
X152927571Y-96299999D01*
X151077571Y-96899999D02*
X150791857Y-97099999D01*
X151077571Y-97242856D02*
X150477571Y-97242856D01*
X150477571Y-97242856D02*
X150477571Y-97014285D01*
X150477571Y-97014285D02*
X150506142Y-96957142D01*
X150506142Y-96957142D02*
X150534714Y-96928571D01*
X150534714Y-96928571D02*
X150591857Y-96899999D01*
X150591857Y-96899999D02*
X150677571Y-96899999D01*
X150677571Y-96899999D02*
X150734714Y-96928571D01*
X150734714Y-96928571D02*
X150763285Y-96957142D01*
X150763285Y-96957142D02*
X150791857Y-97014285D01*
X150791857Y-97014285D02*
X150791857Y-97242856D01*
X150477571Y-96699999D02*
X150477571Y-96328571D01*
X150477571Y-96328571D02*
X150706142Y-96528571D01*
X150706142Y-96528571D02*
X150706142Y-96442856D01*
X150706142Y-96442856D02*
X150734714Y-96385714D01*
X150734714Y-96385714D02*
X150763285Y-96357142D01*
X150763285Y-96357142D02*
X150820428Y-96328571D01*
X150820428Y-96328571D02*
X150963285Y-96328571D01*
X150963285Y-96328571D02*
X151020428Y-96357142D01*
X151020428Y-96357142D02*
X151049000Y-96385714D01*
X151049000Y-96385714D02*
X151077571Y-96442856D01*
X151077571Y-96442856D02*
X151077571Y-96614285D01*
X151077571Y-96614285D02*
X151049000Y-96671428D01*
X151049000Y-96671428D02*
X151020428Y-96699999D01*
X153570428Y-80935714D02*
X153599000Y-80964286D01*
X153599000Y-80964286D02*
X153627571Y-81050000D01*
X153627571Y-81050000D02*
X153627571Y-81107143D01*
X153627571Y-81107143D02*
X153599000Y-81192857D01*
X153599000Y-81192857D02*
X153541857Y-81250000D01*
X153541857Y-81250000D02*
X153484714Y-81278571D01*
X153484714Y-81278571D02*
X153370428Y-81307143D01*
X153370428Y-81307143D02*
X153284714Y-81307143D01*
X153284714Y-81307143D02*
X153170428Y-81278571D01*
X153170428Y-81278571D02*
X153113285Y-81250000D01*
X153113285Y-81250000D02*
X153056142Y-81192857D01*
X153056142Y-81192857D02*
X153027571Y-81107143D01*
X153027571Y-81107143D02*
X153027571Y-81050000D01*
X153027571Y-81050000D02*
X153056142Y-80964286D01*
X153056142Y-80964286D02*
X153084714Y-80935714D01*
X153627571Y-80364286D02*
X153627571Y-80707143D01*
X153627571Y-80535714D02*
X153027571Y-80535714D01*
X153027571Y-80535714D02*
X153113285Y-80592857D01*
X153113285Y-80592857D02*
X153170428Y-80650000D01*
X153170428Y-80650000D02*
X153199000Y-80707143D01*
X153027571Y-79850000D02*
X153027571Y-79964285D01*
X153027571Y-79964285D02*
X153056142Y-80021428D01*
X153056142Y-80021428D02*
X153084714Y-80050000D01*
X153084714Y-80050000D02*
X153170428Y-80107142D01*
X153170428Y-80107142D02*
X153284714Y-80135714D01*
X153284714Y-80135714D02*
X153513285Y-80135714D01*
X153513285Y-80135714D02*
X153570428Y-80107142D01*
X153570428Y-80107142D02*
X153599000Y-80078571D01*
X153599000Y-80078571D02*
X153627571Y-80021428D01*
X153627571Y-80021428D02*
X153627571Y-79907142D01*
X153627571Y-79907142D02*
X153599000Y-79850000D01*
X153599000Y-79850000D02*
X153570428Y-79821428D01*
X153570428Y-79821428D02*
X153513285Y-79792857D01*
X153513285Y-79792857D02*
X153370428Y-79792857D01*
X153370428Y-79792857D02*
X153313285Y-79821428D01*
X153313285Y-79821428D02*
X153284714Y-79850000D01*
X153284714Y-79850000D02*
X153256142Y-79907142D01*
X153256142Y-79907142D02*
X153256142Y-80021428D01*
X153256142Y-80021428D02*
X153284714Y-80078571D01*
X153284714Y-80078571D02*
X153313285Y-80107142D01*
X153313285Y-80107142D02*
X153370428Y-80135714D01*
X154520428Y-80935714D02*
X154549000Y-80964286D01*
X154549000Y-80964286D02*
X154577571Y-81050000D01*
X154577571Y-81050000D02*
X154577571Y-81107143D01*
X154577571Y-81107143D02*
X154549000Y-81192857D01*
X154549000Y-81192857D02*
X154491857Y-81250000D01*
X154491857Y-81250000D02*
X154434714Y-81278571D01*
X154434714Y-81278571D02*
X154320428Y-81307143D01*
X154320428Y-81307143D02*
X154234714Y-81307143D01*
X154234714Y-81307143D02*
X154120428Y-81278571D01*
X154120428Y-81278571D02*
X154063285Y-81250000D01*
X154063285Y-81250000D02*
X154006142Y-81192857D01*
X154006142Y-81192857D02*
X153977571Y-81107143D01*
X153977571Y-81107143D02*
X153977571Y-81050000D01*
X153977571Y-81050000D02*
X154006142Y-80964286D01*
X154006142Y-80964286D02*
X154034714Y-80935714D01*
X154577571Y-80364286D02*
X154577571Y-80707143D01*
X154577571Y-80535714D02*
X153977571Y-80535714D01*
X153977571Y-80535714D02*
X154063285Y-80592857D01*
X154063285Y-80592857D02*
X154120428Y-80650000D01*
X154120428Y-80650000D02*
X154149000Y-80707143D01*
X153977571Y-79821428D02*
X153977571Y-80107142D01*
X153977571Y-80107142D02*
X154263285Y-80135714D01*
X154263285Y-80135714D02*
X154234714Y-80107142D01*
X154234714Y-80107142D02*
X154206142Y-80050000D01*
X154206142Y-80050000D02*
X154206142Y-79907142D01*
X154206142Y-79907142D02*
X154234714Y-79850000D01*
X154234714Y-79850000D02*
X154263285Y-79821428D01*
X154263285Y-79821428D02*
X154320428Y-79792857D01*
X154320428Y-79792857D02*
X154463285Y-79792857D01*
X154463285Y-79792857D02*
X154520428Y-79821428D01*
X154520428Y-79821428D02*
X154549000Y-79850000D01*
X154549000Y-79850000D02*
X154577571Y-79907142D01*
X154577571Y-79907142D02*
X154577571Y-80050000D01*
X154577571Y-80050000D02*
X154549000Y-80107142D01*
X154549000Y-80107142D02*
X154520428Y-80135714D01*
X153714285Y-84370428D02*
X153685713Y-84399000D01*
X153685713Y-84399000D02*
X153599999Y-84427571D01*
X153599999Y-84427571D02*
X153542856Y-84427571D01*
X153542856Y-84427571D02*
X153457142Y-84399000D01*
X153457142Y-84399000D02*
X153399999Y-84341857D01*
X153399999Y-84341857D02*
X153371428Y-84284714D01*
X153371428Y-84284714D02*
X153342856Y-84170428D01*
X153342856Y-84170428D02*
X153342856Y-84084714D01*
X153342856Y-84084714D02*
X153371428Y-83970428D01*
X153371428Y-83970428D02*
X153399999Y-83913285D01*
X153399999Y-83913285D02*
X153457142Y-83856142D01*
X153457142Y-83856142D02*
X153542856Y-83827571D01*
X153542856Y-83827571D02*
X153599999Y-83827571D01*
X153599999Y-83827571D02*
X153685713Y-83856142D01*
X153685713Y-83856142D02*
X153714285Y-83884714D01*
X154285713Y-84427571D02*
X153942856Y-84427571D01*
X154114285Y-84427571D02*
X154114285Y-83827571D01*
X154114285Y-83827571D02*
X154057142Y-83913285D01*
X154057142Y-83913285D02*
X153999999Y-83970428D01*
X153999999Y-83970428D02*
X153942856Y-83999000D01*
X154800000Y-84027571D02*
X154800000Y-84427571D01*
X154657142Y-83799000D02*
X154514285Y-84227571D01*
X154514285Y-84227571D02*
X154885714Y-84227571D01*
X152170428Y-84935714D02*
X152199000Y-84964286D01*
X152199000Y-84964286D02*
X152227571Y-85050000D01*
X152227571Y-85050000D02*
X152227571Y-85107143D01*
X152227571Y-85107143D02*
X152199000Y-85192857D01*
X152199000Y-85192857D02*
X152141857Y-85250000D01*
X152141857Y-85250000D02*
X152084714Y-85278571D01*
X152084714Y-85278571D02*
X151970428Y-85307143D01*
X151970428Y-85307143D02*
X151884714Y-85307143D01*
X151884714Y-85307143D02*
X151770428Y-85278571D01*
X151770428Y-85278571D02*
X151713285Y-85250000D01*
X151713285Y-85250000D02*
X151656142Y-85192857D01*
X151656142Y-85192857D02*
X151627571Y-85107143D01*
X151627571Y-85107143D02*
X151627571Y-85050000D01*
X151627571Y-85050000D02*
X151656142Y-84964286D01*
X151656142Y-84964286D02*
X151684714Y-84935714D01*
X152227571Y-84364286D02*
X152227571Y-84707143D01*
X152227571Y-84535714D02*
X151627571Y-84535714D01*
X151627571Y-84535714D02*
X151713285Y-84592857D01*
X151713285Y-84592857D02*
X151770428Y-84650000D01*
X151770428Y-84650000D02*
X151799000Y-84707143D01*
X151627571Y-84164285D02*
X151627571Y-83792857D01*
X151627571Y-83792857D02*
X151856142Y-83992857D01*
X151856142Y-83992857D02*
X151856142Y-83907142D01*
X151856142Y-83907142D02*
X151884714Y-83850000D01*
X151884714Y-83850000D02*
X151913285Y-83821428D01*
X151913285Y-83821428D02*
X151970428Y-83792857D01*
X151970428Y-83792857D02*
X152113285Y-83792857D01*
X152113285Y-83792857D02*
X152170428Y-83821428D01*
X152170428Y-83821428D02*
X152199000Y-83850000D01*
X152199000Y-83850000D02*
X152227571Y-83907142D01*
X152227571Y-83907142D02*
X152227571Y-84078571D01*
X152227571Y-84078571D02*
X152199000Y-84135714D01*
X152199000Y-84135714D02*
X152170428Y-84164285D01*
X145764285Y-88020428D02*
X145735713Y-88049000D01*
X145735713Y-88049000D02*
X145649999Y-88077571D01*
X145649999Y-88077571D02*
X145592856Y-88077571D01*
X145592856Y-88077571D02*
X145507142Y-88049000D01*
X145507142Y-88049000D02*
X145449999Y-87991857D01*
X145449999Y-87991857D02*
X145421428Y-87934714D01*
X145421428Y-87934714D02*
X145392856Y-87820428D01*
X145392856Y-87820428D02*
X145392856Y-87734714D01*
X145392856Y-87734714D02*
X145421428Y-87620428D01*
X145421428Y-87620428D02*
X145449999Y-87563285D01*
X145449999Y-87563285D02*
X145507142Y-87506142D01*
X145507142Y-87506142D02*
X145592856Y-87477571D01*
X145592856Y-87477571D02*
X145649999Y-87477571D01*
X145649999Y-87477571D02*
X145735713Y-87506142D01*
X145735713Y-87506142D02*
X145764285Y-87534714D01*
X146335713Y-88077571D02*
X145992856Y-88077571D01*
X146164285Y-88077571D02*
X146164285Y-87477571D01*
X146164285Y-87477571D02*
X146107142Y-87563285D01*
X146107142Y-87563285D02*
X146049999Y-87620428D01*
X146049999Y-87620428D02*
X145992856Y-87649000D01*
X146564285Y-87534714D02*
X146592857Y-87506142D01*
X146592857Y-87506142D02*
X146650000Y-87477571D01*
X146650000Y-87477571D02*
X146792857Y-87477571D01*
X146792857Y-87477571D02*
X146850000Y-87506142D01*
X146850000Y-87506142D02*
X146878571Y-87534714D01*
X146878571Y-87534714D02*
X146907142Y-87591857D01*
X146907142Y-87591857D02*
X146907142Y-87649000D01*
X146907142Y-87649000D02*
X146878571Y-87734714D01*
X146878571Y-87734714D02*
X146535714Y-88077571D01*
X146535714Y-88077571D02*
X146907142Y-88077571D01*
X148570428Y-89785714D02*
X148599000Y-89814286D01*
X148599000Y-89814286D02*
X148627571Y-89900000D01*
X148627571Y-89900000D02*
X148627571Y-89957143D01*
X148627571Y-89957143D02*
X148599000Y-90042857D01*
X148599000Y-90042857D02*
X148541857Y-90100000D01*
X148541857Y-90100000D02*
X148484714Y-90128571D01*
X148484714Y-90128571D02*
X148370428Y-90157143D01*
X148370428Y-90157143D02*
X148284714Y-90157143D01*
X148284714Y-90157143D02*
X148170428Y-90128571D01*
X148170428Y-90128571D02*
X148113285Y-90100000D01*
X148113285Y-90100000D02*
X148056142Y-90042857D01*
X148056142Y-90042857D02*
X148027571Y-89957143D01*
X148027571Y-89957143D02*
X148027571Y-89900000D01*
X148027571Y-89900000D02*
X148056142Y-89814286D01*
X148056142Y-89814286D02*
X148084714Y-89785714D01*
X148627571Y-89214286D02*
X148627571Y-89557143D01*
X148627571Y-89385714D02*
X148027571Y-89385714D01*
X148027571Y-89385714D02*
X148113285Y-89442857D01*
X148113285Y-89442857D02*
X148170428Y-89500000D01*
X148170428Y-89500000D02*
X148199000Y-89557143D01*
X148627571Y-88642857D02*
X148627571Y-88985714D01*
X148627571Y-88814285D02*
X148027571Y-88814285D01*
X148027571Y-88814285D02*
X148113285Y-88871428D01*
X148113285Y-88871428D02*
X148170428Y-88928571D01*
X148170428Y-88928571D02*
X148199000Y-88985714D01*
X146564285Y-93020428D02*
X146535713Y-93049000D01*
X146535713Y-93049000D02*
X146449999Y-93077571D01*
X146449999Y-93077571D02*
X146392856Y-93077571D01*
X146392856Y-93077571D02*
X146307142Y-93049000D01*
X146307142Y-93049000D02*
X146249999Y-92991857D01*
X146249999Y-92991857D02*
X146221428Y-92934714D01*
X146221428Y-92934714D02*
X146192856Y-92820428D01*
X146192856Y-92820428D02*
X146192856Y-92734714D01*
X146192856Y-92734714D02*
X146221428Y-92620428D01*
X146221428Y-92620428D02*
X146249999Y-92563285D01*
X146249999Y-92563285D02*
X146307142Y-92506142D01*
X146307142Y-92506142D02*
X146392856Y-92477571D01*
X146392856Y-92477571D02*
X146449999Y-92477571D01*
X146449999Y-92477571D02*
X146535713Y-92506142D01*
X146535713Y-92506142D02*
X146564285Y-92534714D01*
X147135713Y-93077571D02*
X146792856Y-93077571D01*
X146964285Y-93077571D02*
X146964285Y-92477571D01*
X146964285Y-92477571D02*
X146907142Y-92563285D01*
X146907142Y-92563285D02*
X146849999Y-92620428D01*
X146849999Y-92620428D02*
X146792856Y-92649000D01*
X147507142Y-92477571D02*
X147564285Y-92477571D01*
X147564285Y-92477571D02*
X147621428Y-92506142D01*
X147621428Y-92506142D02*
X147650000Y-92534714D01*
X147650000Y-92534714D02*
X147678571Y-92591857D01*
X147678571Y-92591857D02*
X147707142Y-92706142D01*
X147707142Y-92706142D02*
X147707142Y-92849000D01*
X147707142Y-92849000D02*
X147678571Y-92963285D01*
X147678571Y-92963285D02*
X147650000Y-93020428D01*
X147650000Y-93020428D02*
X147621428Y-93049000D01*
X147621428Y-93049000D02*
X147564285Y-93077571D01*
X147564285Y-93077571D02*
X147507142Y-93077571D01*
X147507142Y-93077571D02*
X147450000Y-93049000D01*
X147450000Y-93049000D02*
X147421428Y-93020428D01*
X147421428Y-93020428D02*
X147392857Y-92963285D01*
X147392857Y-92963285D02*
X147364285Y-92849000D01*
X147364285Y-92849000D02*
X147364285Y-92706142D01*
X147364285Y-92706142D02*
X147392857Y-92591857D01*
X147392857Y-92591857D02*
X147421428Y-92534714D01*
X147421428Y-92534714D02*
X147450000Y-92506142D01*
X147450000Y-92506142D02*
X147507142Y-92477571D01*
X147100000Y-94070428D02*
X147071428Y-94099000D01*
X147071428Y-94099000D02*
X146985714Y-94127571D01*
X146985714Y-94127571D02*
X146928571Y-94127571D01*
X146928571Y-94127571D02*
X146842857Y-94099000D01*
X146842857Y-94099000D02*
X146785714Y-94041857D01*
X146785714Y-94041857D02*
X146757143Y-93984714D01*
X146757143Y-93984714D02*
X146728571Y-93870428D01*
X146728571Y-93870428D02*
X146728571Y-93784714D01*
X146728571Y-93784714D02*
X146757143Y-93670428D01*
X146757143Y-93670428D02*
X146785714Y-93613285D01*
X146785714Y-93613285D02*
X146842857Y-93556142D01*
X146842857Y-93556142D02*
X146928571Y-93527571D01*
X146928571Y-93527571D02*
X146985714Y-93527571D01*
X146985714Y-93527571D02*
X147071428Y-93556142D01*
X147071428Y-93556142D02*
X147100000Y-93584714D01*
X147385714Y-94127571D02*
X147500000Y-94127571D01*
X147500000Y-94127571D02*
X147557143Y-94099000D01*
X147557143Y-94099000D02*
X147585714Y-94070428D01*
X147585714Y-94070428D02*
X147642857Y-93984714D01*
X147642857Y-93984714D02*
X147671428Y-93870428D01*
X147671428Y-93870428D02*
X147671428Y-93641857D01*
X147671428Y-93641857D02*
X147642857Y-93584714D01*
X147642857Y-93584714D02*
X147614286Y-93556142D01*
X147614286Y-93556142D02*
X147557143Y-93527571D01*
X147557143Y-93527571D02*
X147442857Y-93527571D01*
X147442857Y-93527571D02*
X147385714Y-93556142D01*
X147385714Y-93556142D02*
X147357143Y-93584714D01*
X147357143Y-93584714D02*
X147328571Y-93641857D01*
X147328571Y-93641857D02*
X147328571Y-93784714D01*
X147328571Y-93784714D02*
X147357143Y-93841857D01*
X147357143Y-93841857D02*
X147385714Y-93870428D01*
X147385714Y-93870428D02*
X147442857Y-93899000D01*
X147442857Y-93899000D02*
X147557143Y-93899000D01*
X147557143Y-93899000D02*
X147614286Y-93870428D01*
X147614286Y-93870428D02*
X147642857Y-93841857D01*
X147642857Y-93841857D02*
X147671428Y-93784714D01*
X157320428Y-95799999D02*
X157349000Y-95828571D01*
X157349000Y-95828571D02*
X157377571Y-95914285D01*
X157377571Y-95914285D02*
X157377571Y-95971428D01*
X157377571Y-95971428D02*
X157349000Y-96057142D01*
X157349000Y-96057142D02*
X157291857Y-96114285D01*
X157291857Y-96114285D02*
X157234714Y-96142856D01*
X157234714Y-96142856D02*
X157120428Y-96171428D01*
X157120428Y-96171428D02*
X157034714Y-96171428D01*
X157034714Y-96171428D02*
X156920428Y-96142856D01*
X156920428Y-96142856D02*
X156863285Y-96114285D01*
X156863285Y-96114285D02*
X156806142Y-96057142D01*
X156806142Y-96057142D02*
X156777571Y-95971428D01*
X156777571Y-95971428D02*
X156777571Y-95914285D01*
X156777571Y-95914285D02*
X156806142Y-95828571D01*
X156806142Y-95828571D02*
X156834714Y-95799999D01*
X157034714Y-95457142D02*
X157006142Y-95514285D01*
X157006142Y-95514285D02*
X156977571Y-95542856D01*
X156977571Y-95542856D02*
X156920428Y-95571428D01*
X156920428Y-95571428D02*
X156891857Y-95571428D01*
X156891857Y-95571428D02*
X156834714Y-95542856D01*
X156834714Y-95542856D02*
X156806142Y-95514285D01*
X156806142Y-95514285D02*
X156777571Y-95457142D01*
X156777571Y-95457142D02*
X156777571Y-95342856D01*
X156777571Y-95342856D02*
X156806142Y-95285714D01*
X156806142Y-95285714D02*
X156834714Y-95257142D01*
X156834714Y-95257142D02*
X156891857Y-95228571D01*
X156891857Y-95228571D02*
X156920428Y-95228571D01*
X156920428Y-95228571D02*
X156977571Y-95257142D01*
X156977571Y-95257142D02*
X157006142Y-95285714D01*
X157006142Y-95285714D02*
X157034714Y-95342856D01*
X157034714Y-95342856D02*
X157034714Y-95457142D01*
X157034714Y-95457142D02*
X157063285Y-95514285D01*
X157063285Y-95514285D02*
X157091857Y-95542856D01*
X157091857Y-95542856D02*
X157149000Y-95571428D01*
X157149000Y-95571428D02*
X157263285Y-95571428D01*
X157263285Y-95571428D02*
X157320428Y-95542856D01*
X157320428Y-95542856D02*
X157349000Y-95514285D01*
X157349000Y-95514285D02*
X157377571Y-95457142D01*
X157377571Y-95457142D02*
X157377571Y-95342856D01*
X157377571Y-95342856D02*
X157349000Y-95285714D01*
X157349000Y-95285714D02*
X157320428Y-95257142D01*
X157320428Y-95257142D02*
X157263285Y-95228571D01*
X157263285Y-95228571D02*
X157149000Y-95228571D01*
X157149000Y-95228571D02*
X157091857Y-95257142D01*
X157091857Y-95257142D02*
X157063285Y-95285714D01*
X157063285Y-95285714D02*
X157034714Y-95342856D01*
X158270428Y-95799999D02*
X158299000Y-95828571D01*
X158299000Y-95828571D02*
X158327571Y-95914285D01*
X158327571Y-95914285D02*
X158327571Y-95971428D01*
X158327571Y-95971428D02*
X158299000Y-96057142D01*
X158299000Y-96057142D02*
X158241857Y-96114285D01*
X158241857Y-96114285D02*
X158184714Y-96142856D01*
X158184714Y-96142856D02*
X158070428Y-96171428D01*
X158070428Y-96171428D02*
X157984714Y-96171428D01*
X157984714Y-96171428D02*
X157870428Y-96142856D01*
X157870428Y-96142856D02*
X157813285Y-96114285D01*
X157813285Y-96114285D02*
X157756142Y-96057142D01*
X157756142Y-96057142D02*
X157727571Y-95971428D01*
X157727571Y-95971428D02*
X157727571Y-95914285D01*
X157727571Y-95914285D02*
X157756142Y-95828571D01*
X157756142Y-95828571D02*
X157784714Y-95799999D01*
X157727571Y-95599999D02*
X157727571Y-95199999D01*
X157727571Y-95199999D02*
X158327571Y-95457142D01*
X149070428Y-84764999D02*
X149099000Y-84793571D01*
X149099000Y-84793571D02*
X149127571Y-84879285D01*
X149127571Y-84879285D02*
X149127571Y-84936428D01*
X149127571Y-84936428D02*
X149099000Y-85022142D01*
X149099000Y-85022142D02*
X149041857Y-85079285D01*
X149041857Y-85079285D02*
X148984714Y-85107856D01*
X148984714Y-85107856D02*
X148870428Y-85136428D01*
X148870428Y-85136428D02*
X148784714Y-85136428D01*
X148784714Y-85136428D02*
X148670428Y-85107856D01*
X148670428Y-85107856D02*
X148613285Y-85079285D01*
X148613285Y-85079285D02*
X148556142Y-85022142D01*
X148556142Y-85022142D02*
X148527571Y-84936428D01*
X148527571Y-84936428D02*
X148527571Y-84879285D01*
X148527571Y-84879285D02*
X148556142Y-84793571D01*
X148556142Y-84793571D02*
X148584714Y-84764999D01*
X148527571Y-84250714D02*
X148527571Y-84364999D01*
X148527571Y-84364999D02*
X148556142Y-84422142D01*
X148556142Y-84422142D02*
X148584714Y-84450714D01*
X148584714Y-84450714D02*
X148670428Y-84507856D01*
X148670428Y-84507856D02*
X148784714Y-84536428D01*
X148784714Y-84536428D02*
X149013285Y-84536428D01*
X149013285Y-84536428D02*
X149070428Y-84507856D01*
X149070428Y-84507856D02*
X149099000Y-84479285D01*
X149099000Y-84479285D02*
X149127571Y-84422142D01*
X149127571Y-84422142D02*
X149127571Y-84307856D01*
X149127571Y-84307856D02*
X149099000Y-84250714D01*
X149099000Y-84250714D02*
X149070428Y-84222142D01*
X149070428Y-84222142D02*
X149013285Y-84193571D01*
X149013285Y-84193571D02*
X148870428Y-84193571D01*
X148870428Y-84193571D02*
X148813285Y-84222142D01*
X148813285Y-84222142D02*
X148784714Y-84250714D01*
X148784714Y-84250714D02*
X148756142Y-84307856D01*
X148756142Y-84307856D02*
X148756142Y-84422142D01*
X148756142Y-84422142D02*
X148784714Y-84479285D01*
X148784714Y-84479285D02*
X148813285Y-84507856D01*
X148813285Y-84507856D02*
X148870428Y-84536428D01*
X149620428Y-89799999D02*
X149649000Y-89828571D01*
X149649000Y-89828571D02*
X149677571Y-89914285D01*
X149677571Y-89914285D02*
X149677571Y-89971428D01*
X149677571Y-89971428D02*
X149649000Y-90057142D01*
X149649000Y-90057142D02*
X149591857Y-90114285D01*
X149591857Y-90114285D02*
X149534714Y-90142856D01*
X149534714Y-90142856D02*
X149420428Y-90171428D01*
X149420428Y-90171428D02*
X149334714Y-90171428D01*
X149334714Y-90171428D02*
X149220428Y-90142856D01*
X149220428Y-90142856D02*
X149163285Y-90114285D01*
X149163285Y-90114285D02*
X149106142Y-90057142D01*
X149106142Y-90057142D02*
X149077571Y-89971428D01*
X149077571Y-89971428D02*
X149077571Y-89914285D01*
X149077571Y-89914285D02*
X149106142Y-89828571D01*
X149106142Y-89828571D02*
X149134714Y-89799999D01*
X149077571Y-89257142D02*
X149077571Y-89542856D01*
X149077571Y-89542856D02*
X149363285Y-89571428D01*
X149363285Y-89571428D02*
X149334714Y-89542856D01*
X149334714Y-89542856D02*
X149306142Y-89485714D01*
X149306142Y-89485714D02*
X149306142Y-89342856D01*
X149306142Y-89342856D02*
X149334714Y-89285714D01*
X149334714Y-89285714D02*
X149363285Y-89257142D01*
X149363285Y-89257142D02*
X149420428Y-89228571D01*
X149420428Y-89228571D02*
X149563285Y-89228571D01*
X149563285Y-89228571D02*
X149620428Y-89257142D01*
X149620428Y-89257142D02*
X149649000Y-89285714D01*
X149649000Y-89285714D02*
X149677571Y-89342856D01*
X149677571Y-89342856D02*
X149677571Y-89485714D01*
X149677571Y-89485714D02*
X149649000Y-89542856D01*
X149649000Y-89542856D02*
X149620428Y-89571428D01*
X162892857Y-109277571D02*
X162892857Y-109763285D01*
X162892857Y-109763285D02*
X162921428Y-109820428D01*
X162921428Y-109820428D02*
X162950000Y-109849000D01*
X162950000Y-109849000D02*
X163007142Y-109877571D01*
X163007142Y-109877571D02*
X163121428Y-109877571D01*
X163121428Y-109877571D02*
X163178571Y-109849000D01*
X163178571Y-109849000D02*
X163207142Y-109820428D01*
X163207142Y-109820428D02*
X163235714Y-109763285D01*
X163235714Y-109763285D02*
X163235714Y-109277571D01*
X163835713Y-109877571D02*
X163492856Y-109877571D01*
X163664285Y-109877571D02*
X163664285Y-109277571D01*
X163664285Y-109277571D02*
X163607142Y-109363285D01*
X163607142Y-109363285D02*
X163549999Y-109420428D01*
X163549999Y-109420428D02*
X163492856Y-109449000D01*
X168664285Y-110227571D02*
X168464285Y-109941857D01*
X168321428Y-110227571D02*
X168321428Y-109627571D01*
X168321428Y-109627571D02*
X168549999Y-109627571D01*
X168549999Y-109627571D02*
X168607142Y-109656142D01*
X168607142Y-109656142D02*
X168635713Y-109684714D01*
X168635713Y-109684714D02*
X168664285Y-109741857D01*
X168664285Y-109741857D02*
X168664285Y-109827571D01*
X168664285Y-109827571D02*
X168635713Y-109884714D01*
X168635713Y-109884714D02*
X168607142Y-109913285D01*
X168607142Y-109913285D02*
X168549999Y-109941857D01*
X168549999Y-109941857D02*
X168321428Y-109941857D01*
X169235713Y-110227571D02*
X168892856Y-110227571D01*
X169064285Y-110227571D02*
X169064285Y-109627571D01*
X169064285Y-109627571D02*
X169007142Y-109713285D01*
X169007142Y-109713285D02*
X168949999Y-109770428D01*
X168949999Y-109770428D02*
X168892856Y-109799000D01*
X169464285Y-109684714D02*
X169492857Y-109656142D01*
X169492857Y-109656142D02*
X169550000Y-109627571D01*
X169550000Y-109627571D02*
X169692857Y-109627571D01*
X169692857Y-109627571D02*
X169750000Y-109656142D01*
X169750000Y-109656142D02*
X169778571Y-109684714D01*
X169778571Y-109684714D02*
X169807142Y-109741857D01*
X169807142Y-109741857D02*
X169807142Y-109799000D01*
X169807142Y-109799000D02*
X169778571Y-109884714D01*
X169778571Y-109884714D02*
X169435714Y-110227571D01*
X169435714Y-110227571D02*
X169807142Y-110227571D01*
X166514285Y-108877571D02*
X166314285Y-108591857D01*
X166171428Y-108877571D02*
X166171428Y-108277571D01*
X166171428Y-108277571D02*
X166399999Y-108277571D01*
X166399999Y-108277571D02*
X166457142Y-108306142D01*
X166457142Y-108306142D02*
X166485713Y-108334714D01*
X166485713Y-108334714D02*
X166514285Y-108391857D01*
X166514285Y-108391857D02*
X166514285Y-108477571D01*
X166514285Y-108477571D02*
X166485713Y-108534714D01*
X166485713Y-108534714D02*
X166457142Y-108563285D01*
X166457142Y-108563285D02*
X166399999Y-108591857D01*
X166399999Y-108591857D02*
X166171428Y-108591857D01*
X167085713Y-108877571D02*
X166742856Y-108877571D01*
X166914285Y-108877571D02*
X166914285Y-108277571D01*
X166914285Y-108277571D02*
X166857142Y-108363285D01*
X166857142Y-108363285D02*
X166799999Y-108420428D01*
X166799999Y-108420428D02*
X166742856Y-108449000D01*
X167657142Y-108877571D02*
X167314285Y-108877571D01*
X167485714Y-108877571D02*
X167485714Y-108277571D01*
X167485714Y-108277571D02*
X167428571Y-108363285D01*
X167428571Y-108363285D02*
X167371428Y-108420428D01*
X167371428Y-108420428D02*
X167314285Y-108449000D01*
X164950000Y-108877571D02*
X164750000Y-108591857D01*
X164607143Y-108877571D02*
X164607143Y-108277571D01*
X164607143Y-108277571D02*
X164835714Y-108277571D01*
X164835714Y-108277571D02*
X164892857Y-108306142D01*
X164892857Y-108306142D02*
X164921428Y-108334714D01*
X164921428Y-108334714D02*
X164950000Y-108391857D01*
X164950000Y-108391857D02*
X164950000Y-108477571D01*
X164950000Y-108477571D02*
X164921428Y-108534714D01*
X164921428Y-108534714D02*
X164892857Y-108563285D01*
X164892857Y-108563285D02*
X164835714Y-108591857D01*
X164835714Y-108591857D02*
X164607143Y-108591857D01*
X165521428Y-108877571D02*
X165178571Y-108877571D01*
X165350000Y-108877571D02*
X165350000Y-108277571D01*
X165350000Y-108277571D02*
X165292857Y-108363285D01*
X165292857Y-108363285D02*
X165235714Y-108420428D01*
X165235714Y-108420428D02*
X165178571Y-108449000D01*
X170307143Y-112827571D02*
X170307143Y-112227571D01*
X170307143Y-112227571D02*
X170450000Y-112227571D01*
X170450000Y-112227571D02*
X170535714Y-112256142D01*
X170535714Y-112256142D02*
X170592857Y-112313285D01*
X170592857Y-112313285D02*
X170621428Y-112370428D01*
X170621428Y-112370428D02*
X170650000Y-112484714D01*
X170650000Y-112484714D02*
X170650000Y-112570428D01*
X170650000Y-112570428D02*
X170621428Y-112684714D01*
X170621428Y-112684714D02*
X170592857Y-112741857D01*
X170592857Y-112741857D02*
X170535714Y-112799000D01*
X170535714Y-112799000D02*
X170450000Y-112827571D01*
X170450000Y-112827571D02*
X170307143Y-112827571D01*
X171221428Y-112827571D02*
X170878571Y-112827571D01*
X171050000Y-112827571D02*
X171050000Y-112227571D01*
X171050000Y-112227571D02*
X170992857Y-112313285D01*
X170992857Y-112313285D02*
X170935714Y-112370428D01*
X170935714Y-112370428D02*
X170878571Y-112399000D01*
X142777571Y-108785714D02*
X142491857Y-108985714D01*
X142777571Y-109128571D02*
X142177571Y-109128571D01*
X142177571Y-109128571D02*
X142177571Y-108900000D01*
X142177571Y-108900000D02*
X142206142Y-108842857D01*
X142206142Y-108842857D02*
X142234714Y-108814286D01*
X142234714Y-108814286D02*
X142291857Y-108785714D01*
X142291857Y-108785714D02*
X142377571Y-108785714D01*
X142377571Y-108785714D02*
X142434714Y-108814286D01*
X142434714Y-108814286D02*
X142463285Y-108842857D01*
X142463285Y-108842857D02*
X142491857Y-108900000D01*
X142491857Y-108900000D02*
X142491857Y-109128571D01*
X142177571Y-108585714D02*
X142177571Y-108214286D01*
X142177571Y-108214286D02*
X142406142Y-108414286D01*
X142406142Y-108414286D02*
X142406142Y-108328571D01*
X142406142Y-108328571D02*
X142434714Y-108271429D01*
X142434714Y-108271429D02*
X142463285Y-108242857D01*
X142463285Y-108242857D02*
X142520428Y-108214286D01*
X142520428Y-108214286D02*
X142663285Y-108214286D01*
X142663285Y-108214286D02*
X142720428Y-108242857D01*
X142720428Y-108242857D02*
X142749000Y-108271429D01*
X142749000Y-108271429D02*
X142777571Y-108328571D01*
X142777571Y-108328571D02*
X142777571Y-108500000D01*
X142777571Y-108500000D02*
X142749000Y-108557143D01*
X142749000Y-108557143D02*
X142720428Y-108585714D01*
X142777571Y-107642857D02*
X142777571Y-107985714D01*
X142777571Y-107814285D02*
X142177571Y-107814285D01*
X142177571Y-107814285D02*
X142263285Y-107871428D01*
X142263285Y-107871428D02*
X142320428Y-107928571D01*
X142320428Y-107928571D02*
X142349000Y-107985714D01*
X160014285Y-98920428D02*
X159985713Y-98949000D01*
X159985713Y-98949000D02*
X159899999Y-98977571D01*
X159899999Y-98977571D02*
X159842856Y-98977571D01*
X159842856Y-98977571D02*
X159757142Y-98949000D01*
X159757142Y-98949000D02*
X159699999Y-98891857D01*
X159699999Y-98891857D02*
X159671428Y-98834714D01*
X159671428Y-98834714D02*
X159642856Y-98720428D01*
X159642856Y-98720428D02*
X159642856Y-98634714D01*
X159642856Y-98634714D02*
X159671428Y-98520428D01*
X159671428Y-98520428D02*
X159699999Y-98463285D01*
X159699999Y-98463285D02*
X159757142Y-98406142D01*
X159757142Y-98406142D02*
X159842856Y-98377571D01*
X159842856Y-98377571D02*
X159899999Y-98377571D01*
X159899999Y-98377571D02*
X159985713Y-98406142D01*
X159985713Y-98406142D02*
X160014285Y-98434714D01*
X160242856Y-98434714D02*
X160271428Y-98406142D01*
X160271428Y-98406142D02*
X160328571Y-98377571D01*
X160328571Y-98377571D02*
X160471428Y-98377571D01*
X160471428Y-98377571D02*
X160528571Y-98406142D01*
X160528571Y-98406142D02*
X160557142Y-98434714D01*
X160557142Y-98434714D02*
X160585713Y-98491857D01*
X160585713Y-98491857D02*
X160585713Y-98549000D01*
X160585713Y-98549000D02*
X160557142Y-98634714D01*
X160557142Y-98634714D02*
X160214285Y-98977571D01*
X160214285Y-98977571D02*
X160585713Y-98977571D01*
X161100000Y-98377571D02*
X160985714Y-98377571D01*
X160985714Y-98377571D02*
X160928571Y-98406142D01*
X160928571Y-98406142D02*
X160900000Y-98434714D01*
X160900000Y-98434714D02*
X160842857Y-98520428D01*
X160842857Y-98520428D02*
X160814285Y-98634714D01*
X160814285Y-98634714D02*
X160814285Y-98863285D01*
X160814285Y-98863285D02*
X160842857Y-98920428D01*
X160842857Y-98920428D02*
X160871428Y-98949000D01*
X160871428Y-98949000D02*
X160928571Y-98977571D01*
X160928571Y-98977571D02*
X161042857Y-98977571D01*
X161042857Y-98977571D02*
X161100000Y-98949000D01*
X161100000Y-98949000D02*
X161128571Y-98920428D01*
X161128571Y-98920428D02*
X161157142Y-98863285D01*
X161157142Y-98863285D02*
X161157142Y-98720428D01*
X161157142Y-98720428D02*
X161128571Y-98663285D01*
X161128571Y-98663285D02*
X161100000Y-98634714D01*
X161100000Y-98634714D02*
X161042857Y-98606142D01*
X161042857Y-98606142D02*
X160928571Y-98606142D01*
X160928571Y-98606142D02*
X160871428Y-98634714D01*
X160871428Y-98634714D02*
X160842857Y-98663285D01*
X160842857Y-98663285D02*
X160814285Y-98720428D01*
X164827571Y-89385714D02*
X164541857Y-89585714D01*
X164827571Y-89728571D02*
X164227571Y-89728571D01*
X164227571Y-89728571D02*
X164227571Y-89500000D01*
X164227571Y-89500000D02*
X164256142Y-89442857D01*
X164256142Y-89442857D02*
X164284714Y-89414286D01*
X164284714Y-89414286D02*
X164341857Y-89385714D01*
X164341857Y-89385714D02*
X164427571Y-89385714D01*
X164427571Y-89385714D02*
X164484714Y-89414286D01*
X164484714Y-89414286D02*
X164513285Y-89442857D01*
X164513285Y-89442857D02*
X164541857Y-89500000D01*
X164541857Y-89500000D02*
X164541857Y-89728571D01*
X164227571Y-89185714D02*
X164227571Y-88814286D01*
X164227571Y-88814286D02*
X164456142Y-89014286D01*
X164456142Y-89014286D02*
X164456142Y-88928571D01*
X164456142Y-88928571D02*
X164484714Y-88871429D01*
X164484714Y-88871429D02*
X164513285Y-88842857D01*
X164513285Y-88842857D02*
X164570428Y-88814286D01*
X164570428Y-88814286D02*
X164713285Y-88814286D01*
X164713285Y-88814286D02*
X164770428Y-88842857D01*
X164770428Y-88842857D02*
X164799000Y-88871429D01*
X164799000Y-88871429D02*
X164827571Y-88928571D01*
X164827571Y-88928571D02*
X164827571Y-89100000D01*
X164827571Y-89100000D02*
X164799000Y-89157143D01*
X164799000Y-89157143D02*
X164770428Y-89185714D01*
X164284714Y-88585714D02*
X164256142Y-88557142D01*
X164256142Y-88557142D02*
X164227571Y-88500000D01*
X164227571Y-88500000D02*
X164227571Y-88357142D01*
X164227571Y-88357142D02*
X164256142Y-88300000D01*
X164256142Y-88300000D02*
X164284714Y-88271428D01*
X164284714Y-88271428D02*
X164341857Y-88242857D01*
X164341857Y-88242857D02*
X164399000Y-88242857D01*
X164399000Y-88242857D02*
X164484714Y-88271428D01*
X164484714Y-88271428D02*
X164827571Y-88614285D01*
X164827571Y-88614285D02*
X164827571Y-88242857D01*
X165927571Y-89385714D02*
X165641857Y-89585714D01*
X165927571Y-89728571D02*
X165327571Y-89728571D01*
X165327571Y-89728571D02*
X165327571Y-89500000D01*
X165327571Y-89500000D02*
X165356142Y-89442857D01*
X165356142Y-89442857D02*
X165384714Y-89414286D01*
X165384714Y-89414286D02*
X165441857Y-89385714D01*
X165441857Y-89385714D02*
X165527571Y-89385714D01*
X165527571Y-89385714D02*
X165584714Y-89414286D01*
X165584714Y-89414286D02*
X165613285Y-89442857D01*
X165613285Y-89442857D02*
X165641857Y-89500000D01*
X165641857Y-89500000D02*
X165641857Y-89728571D01*
X165327571Y-89185714D02*
X165327571Y-88814286D01*
X165327571Y-88814286D02*
X165556142Y-89014286D01*
X165556142Y-89014286D02*
X165556142Y-88928571D01*
X165556142Y-88928571D02*
X165584714Y-88871429D01*
X165584714Y-88871429D02*
X165613285Y-88842857D01*
X165613285Y-88842857D02*
X165670428Y-88814286D01*
X165670428Y-88814286D02*
X165813285Y-88814286D01*
X165813285Y-88814286D02*
X165870428Y-88842857D01*
X165870428Y-88842857D02*
X165899000Y-88871429D01*
X165899000Y-88871429D02*
X165927571Y-88928571D01*
X165927571Y-88928571D02*
X165927571Y-89100000D01*
X165927571Y-89100000D02*
X165899000Y-89157143D01*
X165899000Y-89157143D02*
X165870428Y-89185714D01*
X165327571Y-88614285D02*
X165327571Y-88242857D01*
X165327571Y-88242857D02*
X165556142Y-88442857D01*
X165556142Y-88442857D02*
X165556142Y-88357142D01*
X165556142Y-88357142D02*
X165584714Y-88300000D01*
X165584714Y-88300000D02*
X165613285Y-88271428D01*
X165613285Y-88271428D02*
X165670428Y-88242857D01*
X165670428Y-88242857D02*
X165813285Y-88242857D01*
X165813285Y-88242857D02*
X165870428Y-88271428D01*
X165870428Y-88271428D02*
X165899000Y-88300000D01*
X165899000Y-88300000D02*
X165927571Y-88357142D01*
X165927571Y-88357142D02*
X165927571Y-88528571D01*
X165927571Y-88528571D02*
X165899000Y-88585714D01*
X165899000Y-88585714D02*
X165870428Y-88614285D01*
X160477571Y-96657142D02*
X160963285Y-96657142D01*
X160963285Y-96657142D02*
X161020428Y-96628571D01*
X161020428Y-96628571D02*
X161049000Y-96600000D01*
X161049000Y-96600000D02*
X161077571Y-96542857D01*
X161077571Y-96542857D02*
X161077571Y-96428571D01*
X161077571Y-96428571D02*
X161049000Y-96371428D01*
X161049000Y-96371428D02*
X161020428Y-96342857D01*
X161020428Y-96342857D02*
X160963285Y-96314285D01*
X160963285Y-96314285D02*
X160477571Y-96314285D01*
X160477571Y-95771429D02*
X160477571Y-95885714D01*
X160477571Y-95885714D02*
X160506142Y-95942857D01*
X160506142Y-95942857D02*
X160534714Y-95971429D01*
X160534714Y-95971429D02*
X160620428Y-96028571D01*
X160620428Y-96028571D02*
X160734714Y-96057143D01*
X160734714Y-96057143D02*
X160963285Y-96057143D01*
X160963285Y-96057143D02*
X161020428Y-96028571D01*
X161020428Y-96028571D02*
X161049000Y-96000000D01*
X161049000Y-96000000D02*
X161077571Y-95942857D01*
X161077571Y-95942857D02*
X161077571Y-95828571D01*
X161077571Y-95828571D02*
X161049000Y-95771429D01*
X161049000Y-95771429D02*
X161020428Y-95742857D01*
X161020428Y-95742857D02*
X160963285Y-95714286D01*
X160963285Y-95714286D02*
X160820428Y-95714286D01*
X160820428Y-95714286D02*
X160763285Y-95742857D01*
X160763285Y-95742857D02*
X160734714Y-95771429D01*
X160734714Y-95771429D02*
X160706142Y-95828571D01*
X160706142Y-95828571D02*
X160706142Y-95942857D01*
X160706142Y-95942857D02*
X160734714Y-96000000D01*
X160734714Y-96000000D02*
X160763285Y-96028571D01*
X160763285Y-96028571D02*
X160820428Y-96057143D01*
X153957143Y-129877571D02*
X153957143Y-129277571D01*
X153957143Y-129277571D02*
X154100000Y-129277571D01*
X154100000Y-129277571D02*
X154185714Y-129306142D01*
X154185714Y-129306142D02*
X154242857Y-129363285D01*
X154242857Y-129363285D02*
X154271428Y-129420428D01*
X154271428Y-129420428D02*
X154300000Y-129534714D01*
X154300000Y-129534714D02*
X154300000Y-129620428D01*
X154300000Y-129620428D02*
X154271428Y-129734714D01*
X154271428Y-129734714D02*
X154242857Y-129791857D01*
X154242857Y-129791857D02*
X154185714Y-129849000D01*
X154185714Y-129849000D02*
X154100000Y-129877571D01*
X154100000Y-129877571D02*
X153957143Y-129877571D01*
X154814286Y-129477571D02*
X154814286Y-129877571D01*
X154671428Y-129249000D02*
X154528571Y-129677571D01*
X154528571Y-129677571D02*
X154900000Y-129677571D01*
X143085000Y-96320428D02*
X143056428Y-96349000D01*
X143056428Y-96349000D02*
X142970714Y-96377571D01*
X142970714Y-96377571D02*
X142913571Y-96377571D01*
X142913571Y-96377571D02*
X142827857Y-96349000D01*
X142827857Y-96349000D02*
X142770714Y-96291857D01*
X142770714Y-96291857D02*
X142742143Y-96234714D01*
X142742143Y-96234714D02*
X142713571Y-96120428D01*
X142713571Y-96120428D02*
X142713571Y-96034714D01*
X142713571Y-96034714D02*
X142742143Y-95920428D01*
X142742143Y-95920428D02*
X142770714Y-95863285D01*
X142770714Y-95863285D02*
X142827857Y-95806142D01*
X142827857Y-95806142D02*
X142913571Y-95777571D01*
X142913571Y-95777571D02*
X142970714Y-95777571D01*
X142970714Y-95777571D02*
X143056428Y-95806142D01*
X143056428Y-95806142D02*
X143085000Y-95834714D01*
X143599286Y-95977571D02*
X143599286Y-96377571D01*
X143456428Y-95749000D02*
X143313571Y-96177571D01*
X143313571Y-96177571D02*
X143685000Y-96177571D01*
X144078571Y-131163285D02*
X144164285Y-131191857D01*
X144164285Y-131191857D02*
X144192856Y-131220428D01*
X144192856Y-131220428D02*
X144221428Y-131277571D01*
X144221428Y-131277571D02*
X144221428Y-131363285D01*
X144221428Y-131363285D02*
X144192856Y-131420428D01*
X144192856Y-131420428D02*
X144164285Y-131449000D01*
X144164285Y-131449000D02*
X144107142Y-131477571D01*
X144107142Y-131477571D02*
X143878571Y-131477571D01*
X143878571Y-131477571D02*
X143878571Y-130877571D01*
X143878571Y-130877571D02*
X144078571Y-130877571D01*
X144078571Y-130877571D02*
X144135714Y-130906142D01*
X144135714Y-130906142D02*
X144164285Y-130934714D01*
X144164285Y-130934714D02*
X144192856Y-130991857D01*
X144192856Y-130991857D02*
X144192856Y-131049000D01*
X144192856Y-131049000D02*
X144164285Y-131106142D01*
X144164285Y-131106142D02*
X144135714Y-131134714D01*
X144135714Y-131134714D02*
X144078571Y-131163285D01*
X144078571Y-131163285D02*
X143878571Y-131163285D01*
X144392856Y-130877571D02*
X144735714Y-130877571D01*
X144564285Y-131477571D02*
X144564285Y-130877571D01*
X145249999Y-131477571D02*
X144907142Y-131477571D01*
X145078571Y-131477571D02*
X145078571Y-130877571D01*
X145078571Y-130877571D02*
X145021428Y-130963285D01*
X145021428Y-130963285D02*
X144964285Y-131020428D01*
X144964285Y-131020428D02*
X144907142Y-131049000D01*
X135199999Y-132027571D02*
X135199999Y-132456142D01*
X135199999Y-132456142D02*
X135171428Y-132541857D01*
X135171428Y-132541857D02*
X135114285Y-132599000D01*
X135114285Y-132599000D02*
X135028571Y-132627571D01*
X135028571Y-132627571D02*
X134971428Y-132627571D01*
X135428571Y-132027571D02*
X135799999Y-132027571D01*
X135799999Y-132027571D02*
X135599999Y-132256142D01*
X135599999Y-132256142D02*
X135685714Y-132256142D01*
X135685714Y-132256142D02*
X135742857Y-132284714D01*
X135742857Y-132284714D02*
X135771428Y-132313285D01*
X135771428Y-132313285D02*
X135799999Y-132370428D01*
X135799999Y-132370428D02*
X135799999Y-132513285D01*
X135799999Y-132513285D02*
X135771428Y-132570428D01*
X135771428Y-132570428D02*
X135742857Y-132599000D01*
X135742857Y-132599000D02*
X135685714Y-132627571D01*
X135685714Y-132627571D02*
X135514285Y-132627571D01*
X135514285Y-132627571D02*
X135457142Y-132599000D01*
X135457142Y-132599000D02*
X135428571Y-132570428D01*
X147999999Y-60249000D02*
X148085714Y-60277571D01*
X148085714Y-60277571D02*
X148228571Y-60277571D01*
X148228571Y-60277571D02*
X148285714Y-60249000D01*
X148285714Y-60249000D02*
X148314285Y-60220428D01*
X148314285Y-60220428D02*
X148342856Y-60163285D01*
X148342856Y-60163285D02*
X148342856Y-60106142D01*
X148342856Y-60106142D02*
X148314285Y-60049000D01*
X148314285Y-60049000D02*
X148285714Y-60020428D01*
X148285714Y-60020428D02*
X148228571Y-59991857D01*
X148228571Y-59991857D02*
X148114285Y-59963285D01*
X148114285Y-59963285D02*
X148057142Y-59934714D01*
X148057142Y-59934714D02*
X148028571Y-59906142D01*
X148028571Y-59906142D02*
X147999999Y-59849000D01*
X147999999Y-59849000D02*
X147999999Y-59791857D01*
X147999999Y-59791857D02*
X148028571Y-59734714D01*
X148028571Y-59734714D02*
X148057142Y-59706142D01*
X148057142Y-59706142D02*
X148114285Y-59677571D01*
X148114285Y-59677571D02*
X148257142Y-59677571D01*
X148257142Y-59677571D02*
X148342856Y-59706142D01*
X148542857Y-59677571D02*
X148685714Y-60277571D01*
X148685714Y-60277571D02*
X148800000Y-59849000D01*
X148800000Y-59849000D02*
X148914285Y-60277571D01*
X148914285Y-60277571D02*
X149057143Y-59677571D01*
X149257142Y-59734714D02*
X149285714Y-59706142D01*
X149285714Y-59706142D02*
X149342857Y-59677571D01*
X149342857Y-59677571D02*
X149485714Y-59677571D01*
X149485714Y-59677571D02*
X149542857Y-59706142D01*
X149542857Y-59706142D02*
X149571428Y-59734714D01*
X149571428Y-59734714D02*
X149599999Y-59791857D01*
X149599999Y-59791857D02*
X149599999Y-59849000D01*
X149599999Y-59849000D02*
X149571428Y-59934714D01*
X149571428Y-59934714D02*
X149228571Y-60277571D01*
X149228571Y-60277571D02*
X149599999Y-60277571D01*
X153320428Y-114985714D02*
X153349000Y-115014286D01*
X153349000Y-115014286D02*
X153377571Y-115100000D01*
X153377571Y-115100000D02*
X153377571Y-115157143D01*
X153377571Y-115157143D02*
X153349000Y-115242857D01*
X153349000Y-115242857D02*
X153291857Y-115300000D01*
X153291857Y-115300000D02*
X153234714Y-115328571D01*
X153234714Y-115328571D02*
X153120428Y-115357143D01*
X153120428Y-115357143D02*
X153034714Y-115357143D01*
X153034714Y-115357143D02*
X152920428Y-115328571D01*
X152920428Y-115328571D02*
X152863285Y-115300000D01*
X152863285Y-115300000D02*
X152806142Y-115242857D01*
X152806142Y-115242857D02*
X152777571Y-115157143D01*
X152777571Y-115157143D02*
X152777571Y-115100000D01*
X152777571Y-115100000D02*
X152806142Y-115014286D01*
X152806142Y-115014286D02*
X152834714Y-114985714D01*
X152834714Y-114757143D02*
X152806142Y-114728571D01*
X152806142Y-114728571D02*
X152777571Y-114671429D01*
X152777571Y-114671429D02*
X152777571Y-114528571D01*
X152777571Y-114528571D02*
X152806142Y-114471429D01*
X152806142Y-114471429D02*
X152834714Y-114442857D01*
X152834714Y-114442857D02*
X152891857Y-114414286D01*
X152891857Y-114414286D02*
X152949000Y-114414286D01*
X152949000Y-114414286D02*
X153034714Y-114442857D01*
X153034714Y-114442857D02*
X153377571Y-114785714D01*
X153377571Y-114785714D02*
X153377571Y-114414286D01*
X152977571Y-113900000D02*
X153377571Y-113900000D01*
X152749000Y-114042857D02*
X153177571Y-114185714D01*
X153177571Y-114185714D02*
X153177571Y-113814285D01*
X159020428Y-111085714D02*
X159049000Y-111114286D01*
X159049000Y-111114286D02*
X159077571Y-111200000D01*
X159077571Y-111200000D02*
X159077571Y-111257143D01*
X159077571Y-111257143D02*
X159049000Y-111342857D01*
X159049000Y-111342857D02*
X158991857Y-111400000D01*
X158991857Y-111400000D02*
X158934714Y-111428571D01*
X158934714Y-111428571D02*
X158820428Y-111457143D01*
X158820428Y-111457143D02*
X158734714Y-111457143D01*
X158734714Y-111457143D02*
X158620428Y-111428571D01*
X158620428Y-111428571D02*
X158563285Y-111400000D01*
X158563285Y-111400000D02*
X158506142Y-111342857D01*
X158506142Y-111342857D02*
X158477571Y-111257143D01*
X158477571Y-111257143D02*
X158477571Y-111200000D01*
X158477571Y-111200000D02*
X158506142Y-111114286D01*
X158506142Y-111114286D02*
X158534714Y-111085714D01*
X158534714Y-110857143D02*
X158506142Y-110828571D01*
X158506142Y-110828571D02*
X158477571Y-110771429D01*
X158477571Y-110771429D02*
X158477571Y-110628571D01*
X158477571Y-110628571D02*
X158506142Y-110571429D01*
X158506142Y-110571429D02*
X158534714Y-110542857D01*
X158534714Y-110542857D02*
X158591857Y-110514286D01*
X158591857Y-110514286D02*
X158649000Y-110514286D01*
X158649000Y-110514286D02*
X158734714Y-110542857D01*
X158734714Y-110542857D02*
X159077571Y-110885714D01*
X159077571Y-110885714D02*
X159077571Y-110514286D01*
X158477571Y-110314285D02*
X158477571Y-109942857D01*
X158477571Y-109942857D02*
X158706142Y-110142857D01*
X158706142Y-110142857D02*
X158706142Y-110057142D01*
X158706142Y-110057142D02*
X158734714Y-110000000D01*
X158734714Y-110000000D02*
X158763285Y-109971428D01*
X158763285Y-109971428D02*
X158820428Y-109942857D01*
X158820428Y-109942857D02*
X158963285Y-109942857D01*
X158963285Y-109942857D02*
X159020428Y-109971428D01*
X159020428Y-109971428D02*
X159049000Y-110000000D01*
X159049000Y-110000000D02*
X159077571Y-110057142D01*
X159077571Y-110057142D02*
X159077571Y-110228571D01*
X159077571Y-110228571D02*
X159049000Y-110285714D01*
X159049000Y-110285714D02*
X159020428Y-110314285D01*
X152320428Y-121685714D02*
X152349000Y-121714286D01*
X152349000Y-121714286D02*
X152377571Y-121800000D01*
X152377571Y-121800000D02*
X152377571Y-121857143D01*
X152377571Y-121857143D02*
X152349000Y-121942857D01*
X152349000Y-121942857D02*
X152291857Y-122000000D01*
X152291857Y-122000000D02*
X152234714Y-122028571D01*
X152234714Y-122028571D02*
X152120428Y-122057143D01*
X152120428Y-122057143D02*
X152034714Y-122057143D01*
X152034714Y-122057143D02*
X151920428Y-122028571D01*
X151920428Y-122028571D02*
X151863285Y-122000000D01*
X151863285Y-122000000D02*
X151806142Y-121942857D01*
X151806142Y-121942857D02*
X151777571Y-121857143D01*
X151777571Y-121857143D02*
X151777571Y-121800000D01*
X151777571Y-121800000D02*
X151806142Y-121714286D01*
X151806142Y-121714286D02*
X151834714Y-121685714D01*
X151834714Y-121457143D02*
X151806142Y-121428571D01*
X151806142Y-121428571D02*
X151777571Y-121371429D01*
X151777571Y-121371429D02*
X151777571Y-121228571D01*
X151777571Y-121228571D02*
X151806142Y-121171429D01*
X151806142Y-121171429D02*
X151834714Y-121142857D01*
X151834714Y-121142857D02*
X151891857Y-121114286D01*
X151891857Y-121114286D02*
X151949000Y-121114286D01*
X151949000Y-121114286D02*
X152034714Y-121142857D01*
X152034714Y-121142857D02*
X152377571Y-121485714D01*
X152377571Y-121485714D02*
X152377571Y-121114286D01*
X151777571Y-120914285D02*
X151777571Y-120514285D01*
X151777571Y-120514285D02*
X152377571Y-120771428D01*
X161472571Y-128074999D02*
X161186857Y-128274999D01*
X161472571Y-128417856D02*
X160872571Y-128417856D01*
X160872571Y-128417856D02*
X160872571Y-128189285D01*
X160872571Y-128189285D02*
X160901142Y-128132142D01*
X160901142Y-128132142D02*
X160929714Y-128103571D01*
X160929714Y-128103571D02*
X160986857Y-128074999D01*
X160986857Y-128074999D02*
X161072571Y-128074999D01*
X161072571Y-128074999D02*
X161129714Y-128103571D01*
X161129714Y-128103571D02*
X161158285Y-128132142D01*
X161158285Y-128132142D02*
X161186857Y-128189285D01*
X161186857Y-128189285D02*
X161186857Y-128417856D01*
X160929714Y-127846428D02*
X160901142Y-127817856D01*
X160901142Y-127817856D02*
X160872571Y-127760714D01*
X160872571Y-127760714D02*
X160872571Y-127617856D01*
X160872571Y-127617856D02*
X160901142Y-127560714D01*
X160901142Y-127560714D02*
X160929714Y-127532142D01*
X160929714Y-127532142D02*
X160986857Y-127503571D01*
X160986857Y-127503571D02*
X161044000Y-127503571D01*
X161044000Y-127503571D02*
X161129714Y-127532142D01*
X161129714Y-127532142D02*
X161472571Y-127874999D01*
X161472571Y-127874999D02*
X161472571Y-127503571D01*
X163342857Y-114277571D02*
X163342857Y-114763285D01*
X163342857Y-114763285D02*
X163371428Y-114820428D01*
X163371428Y-114820428D02*
X163400000Y-114849000D01*
X163400000Y-114849000D02*
X163457142Y-114877571D01*
X163457142Y-114877571D02*
X163571428Y-114877571D01*
X163571428Y-114877571D02*
X163628571Y-114849000D01*
X163628571Y-114849000D02*
X163657142Y-114820428D01*
X163657142Y-114820428D02*
X163685714Y-114763285D01*
X163685714Y-114763285D02*
X163685714Y-114277571D01*
X163914285Y-114277571D02*
X164314285Y-114277571D01*
X164314285Y-114277571D02*
X164057142Y-114877571D01*
X152977571Y-123999999D02*
X152977571Y-124285713D01*
X152977571Y-124285713D02*
X152377571Y-124285713D01*
X152977571Y-123485714D02*
X152977571Y-123828571D01*
X152977571Y-123657142D02*
X152377571Y-123657142D01*
X152377571Y-123657142D02*
X152463285Y-123714285D01*
X152463285Y-123714285D02*
X152520428Y-123771428D01*
X152520428Y-123771428D02*
X152549000Y-123828571D01*
X155814285Y-110991857D02*
X155814285Y-111277571D01*
X155614285Y-110677571D02*
X155814285Y-110991857D01*
X155814285Y-110991857D02*
X156014285Y-110677571D01*
X156528571Y-111277571D02*
X156185714Y-111277571D01*
X156357143Y-111277571D02*
X156357143Y-110677571D01*
X156357143Y-110677571D02*
X156300000Y-110763285D01*
X156300000Y-110763285D02*
X156242857Y-110820428D01*
X156242857Y-110820428D02*
X156185714Y-110849000D01*
X155420428Y-121585714D02*
X155449000Y-121614286D01*
X155449000Y-121614286D02*
X155477571Y-121700000D01*
X155477571Y-121700000D02*
X155477571Y-121757143D01*
X155477571Y-121757143D02*
X155449000Y-121842857D01*
X155449000Y-121842857D02*
X155391857Y-121900000D01*
X155391857Y-121900000D02*
X155334714Y-121928571D01*
X155334714Y-121928571D02*
X155220428Y-121957143D01*
X155220428Y-121957143D02*
X155134714Y-121957143D01*
X155134714Y-121957143D02*
X155020428Y-121928571D01*
X155020428Y-121928571D02*
X154963285Y-121900000D01*
X154963285Y-121900000D02*
X154906142Y-121842857D01*
X154906142Y-121842857D02*
X154877571Y-121757143D01*
X154877571Y-121757143D02*
X154877571Y-121700000D01*
X154877571Y-121700000D02*
X154906142Y-121614286D01*
X154906142Y-121614286D02*
X154934714Y-121585714D01*
X154934714Y-121357143D02*
X154906142Y-121328571D01*
X154906142Y-121328571D02*
X154877571Y-121271429D01*
X154877571Y-121271429D02*
X154877571Y-121128571D01*
X154877571Y-121128571D02*
X154906142Y-121071429D01*
X154906142Y-121071429D02*
X154934714Y-121042857D01*
X154934714Y-121042857D02*
X154991857Y-121014286D01*
X154991857Y-121014286D02*
X155049000Y-121014286D01*
X155049000Y-121014286D02*
X155134714Y-121042857D01*
X155134714Y-121042857D02*
X155477571Y-121385714D01*
X155477571Y-121385714D02*
X155477571Y-121014286D01*
X155134714Y-120671428D02*
X155106142Y-120728571D01*
X155106142Y-120728571D02*
X155077571Y-120757142D01*
X155077571Y-120757142D02*
X155020428Y-120785714D01*
X155020428Y-120785714D02*
X154991857Y-120785714D01*
X154991857Y-120785714D02*
X154934714Y-120757142D01*
X154934714Y-120757142D02*
X154906142Y-120728571D01*
X154906142Y-120728571D02*
X154877571Y-120671428D01*
X154877571Y-120671428D02*
X154877571Y-120557142D01*
X154877571Y-120557142D02*
X154906142Y-120500000D01*
X154906142Y-120500000D02*
X154934714Y-120471428D01*
X154934714Y-120471428D02*
X154991857Y-120442857D01*
X154991857Y-120442857D02*
X155020428Y-120442857D01*
X155020428Y-120442857D02*
X155077571Y-120471428D01*
X155077571Y-120471428D02*
X155106142Y-120500000D01*
X155106142Y-120500000D02*
X155134714Y-120557142D01*
X155134714Y-120557142D02*
X155134714Y-120671428D01*
X155134714Y-120671428D02*
X155163285Y-120728571D01*
X155163285Y-120728571D02*
X155191857Y-120757142D01*
X155191857Y-120757142D02*
X155249000Y-120785714D01*
X155249000Y-120785714D02*
X155363285Y-120785714D01*
X155363285Y-120785714D02*
X155420428Y-120757142D01*
X155420428Y-120757142D02*
X155449000Y-120728571D01*
X155449000Y-120728571D02*
X155477571Y-120671428D01*
X155477571Y-120671428D02*
X155477571Y-120557142D01*
X155477571Y-120557142D02*
X155449000Y-120500000D01*
X155449000Y-120500000D02*
X155420428Y-120471428D01*
X155420428Y-120471428D02*
X155363285Y-120442857D01*
X155363285Y-120442857D02*
X155249000Y-120442857D01*
X155249000Y-120442857D02*
X155191857Y-120471428D01*
X155191857Y-120471428D02*
X155163285Y-120500000D01*
X155163285Y-120500000D02*
X155134714Y-120557142D01*
D14*
X160450000Y-107800000D02*
X160450000Y-99800000D01*
X167450000Y-107800000D02*
X160450000Y-107800000D01*
X160450000Y-99800000D02*
X167450000Y-99800000D01*
X167450000Y-99800000D02*
X167450000Y-107800000D01*
D15*
X167300000Y-56600000D02*
X160300000Y-56600000D01*
X160300000Y-56600000D02*
X160300000Y-62600000D01*
X167300000Y-59100000D02*
X160300000Y-59100000D01*
X167300000Y-62600000D02*
X167300000Y-56600000D01*
X167300000Y-62600000D02*
X167300000Y-73600000D01*
X167300000Y-73600000D02*
X160300000Y-73600000D01*
X160300000Y-73600000D02*
X160300000Y-62600000D01*
X146500000Y-56600000D02*
X139500000Y-56600000D01*
X139500000Y-56600000D02*
X139500000Y-62600000D01*
X146500000Y-59100000D02*
X139500000Y-59100000D01*
X146500000Y-62600000D02*
X146500000Y-56600000D01*
X146500000Y-62600000D02*
X146500000Y-73600000D01*
X146500000Y-73600000D02*
X139500000Y-73600000D01*
X139500000Y-73600000D02*
X139500000Y-62600000D01*
X138825000Y-110550000D02*
X138825000Y-119050000D01*
X135325000Y-110550000D02*
X138825000Y-110550000D01*
X133325000Y-113050000D02*
X135325000Y-113050000D01*
X135325000Y-114550000D02*
X133325000Y-114550000D01*
X133325000Y-114550000D02*
X133325000Y-113050000D01*
X138825000Y-119050000D02*
X135325000Y-119050000D01*
X135325000Y-119050000D02*
X135325000Y-110550000D01*
D16*
X146497936Y-99290000D02*
X147702064Y-99290000D01*
X146497936Y-101110000D02*
X147702064Y-101110000D01*
X157602065Y-101110000D02*
X156397937Y-101110000D01*
X157602065Y-99290000D02*
X156397937Y-99290000D01*
X140690000Y-114202064D02*
X140690000Y-112997936D01*
X142510000Y-114202064D02*
X142510000Y-112997936D01*
X134845000Y-83170000D02*
X136175000Y-83170000D01*
X134845000Y-84500000D02*
X134845000Y-83170000D01*
X134845000Y-85770000D02*
X134845000Y-98530000D01*
X134845000Y-85770000D02*
X137505000Y-85770000D01*
X134845000Y-98530000D02*
X137505000Y-98530000D01*
X137505000Y-85770000D02*
X137505000Y-98530000D01*
X166570000Y-83170000D02*
X167900000Y-83170000D01*
X166570000Y-84500000D02*
X166570000Y-83170000D01*
X166570000Y-85770000D02*
X166570000Y-98530000D01*
X166570000Y-85770000D02*
X169230000Y-85770000D01*
X166570000Y-98530000D02*
X169230000Y-98530000D01*
X169230000Y-85770000D02*
X169230000Y-98530000D01*
X169270000Y-83170000D02*
X170600000Y-83170000D01*
X169270000Y-84500000D02*
X169270000Y-83170000D01*
X169270000Y-85770000D02*
X169270000Y-98530000D01*
X169270000Y-85770000D02*
X171930000Y-85770000D01*
X169270000Y-98530000D02*
X171930000Y-98530000D01*
X171930000Y-85770000D02*
X171930000Y-98530000D01*
X153037221Y-73290000D02*
X153362779Y-73290000D01*
X153037221Y-74310000D02*
X153362779Y-74310000D01*
X153037221Y-71740000D02*
X153362779Y-71740000D01*
X153037221Y-72760000D02*
X153362779Y-72760000D01*
X153362779Y-75860000D02*
X153037221Y-75860000D01*
X153362779Y-74840000D02*
X153037221Y-74840000D01*
X153362779Y-71210000D02*
X153037221Y-71210000D01*
X153362779Y-70190000D02*
X153037221Y-70190000D01*
X138370000Y-100430000D02*
X139700000Y-100430000D01*
X138370000Y-101760000D02*
X138370000Y-100430000D01*
X138370000Y-103030000D02*
X138370000Y-108170000D01*
X138370000Y-103030000D02*
X141030000Y-103030000D01*
X138370000Y-108170000D02*
X141030000Y-108170000D01*
X141030000Y-103030000D02*
X141030000Y-108170000D01*
X143800000Y-83160000D02*
X145600000Y-83160000D01*
X145600000Y-79940000D02*
X143150000Y-79940000D01*
X137420000Y-83170000D02*
X138750000Y-83170000D01*
X137420000Y-84500000D02*
X137420000Y-83170000D01*
X137420000Y-85770000D02*
X137420000Y-98530000D01*
X137420000Y-85770000D02*
X140080000Y-85770000D01*
X137420000Y-98530000D02*
X140080000Y-98530000D01*
X140080000Y-85770000D02*
X140080000Y-98530000D01*
X158500000Y-86010000D02*
X159900000Y-86010000D01*
X159900000Y-83690000D02*
X158000000Y-83690000D01*
X156010000Y-92810000D02*
X155560000Y-92810000D01*
X150790000Y-92360000D02*
X150790000Y-92810000D01*
X156010000Y-92360000D02*
X156010000Y-92810000D01*
X150790000Y-88040000D02*
X150790000Y-87590000D01*
X156010000Y-88040000D02*
X156010000Y-87590000D01*
X150790000Y-87590000D02*
X151240000Y-87590000D01*
X156010000Y-87590000D02*
X155560000Y-87590000D01*
X152510000Y-81624721D02*
X152510000Y-81950279D01*
X151490000Y-81624721D02*
X151490000Y-81950279D01*
X155140000Y-81950279D02*
X155140000Y-81624721D01*
X156160000Y-81950279D02*
X156160000Y-81624721D01*
X165050000Y-113510000D02*
X166850000Y-113510000D01*
X166850000Y-110290000D02*
X164400000Y-110290000D01*
D14*
X168250000Y-112100000D02*
X169850000Y-112100000D01*
X168250000Y-112900000D02*
X168250000Y-112100000D01*
X169850000Y-112100000D02*
X169850000Y-112900000D01*
X169850000Y-112900000D02*
X168250000Y-112900000D01*
D16*
X161300000Y-93700000D02*
X161300000Y-97700000D01*
X164300000Y-93700000D02*
X164300000Y-97700000D01*
D14*
X155850000Y-132400000D02*
X153850000Y-132400000D01*
X153650000Y-132200000D02*
X153650000Y-130200000D01*
X156050000Y-130200000D02*
X156050000Y-132200000D01*
X153850000Y-130000000D02*
X155850000Y-130000000D01*
X153850000Y-130000000D02*
G75*
G03*
X153850000Y-130000000I-200000J0D01*
G01*
D17*
X144005274Y-108233754D02*
X144235333Y-108233754D01*
X144314455Y-109026794D01*
X144545502Y-109755654D01*
X144918991Y-110407363D01*
X145425443Y-110968948D01*
X146055376Y-111427440D01*
X146799311Y-111769867D01*
X146826859Y-111779440D01*
X147251679Y-111908576D01*
X147530524Y-111953388D01*
X147664246Y-111913904D01*
X147662151Y-111808500D01*
X147627619Y-111656425D01*
X147592824Y-111387724D01*
X147564286Y-111054965D01*
X147559764Y-110983000D01*
X147556108Y-110856000D01*
X147833898Y-110856000D01*
X147841101Y-111341207D01*
X147878922Y-111679021D01*
X147972167Y-111891282D01*
X148145641Y-111999828D01*
X148424149Y-112026500D01*
X148832496Y-111993138D01*
X149089239Y-111961269D01*
X149384759Y-111917970D01*
X149607887Y-111875535D01*
X149711175Y-111843016D01*
X149711698Y-111842524D01*
X149718048Y-111731483D01*
X149661750Y-111512048D01*
X149558681Y-111225850D01*
X149424715Y-110914521D01*
X149275730Y-110619692D01*
X149190186Y-110475000D01*
X148977243Y-110180994D01*
X148732330Y-109904121D01*
X148489821Y-109677503D01*
X148284092Y-109534260D01*
X148179659Y-109501333D01*
X148045905Y-109582395D01*
X147941350Y-109814906D01*
X147870081Y-110182856D01*
X147836185Y-110670231D01*
X147833898Y-110856000D01*
X147556108Y-110856000D01*
X147548006Y-110574638D01*
X147574466Y-110263317D01*
X147647215Y-109979447D01*
X147689880Y-109861142D01*
X147769934Y-109611479D01*
X147799555Y-109430204D01*
X147783208Y-109369312D01*
X147744505Y-109304969D01*
X148385629Y-109304969D01*
X148714112Y-109568945D01*
X149032194Y-109885324D01*
X149352752Y-110306799D01*
X149636684Y-110774316D01*
X149844886Y-111228821D01*
X149878694Y-111327669D01*
X149971832Y-111576822D01*
X150062051Y-111743325D01*
X150113962Y-111786299D01*
X150229359Y-111753762D01*
X150456061Y-111668213D01*
X150750980Y-111546191D01*
X150841723Y-111506952D01*
X151662486Y-111090895D01*
X152378818Y-110595058D01*
X153040995Y-109982444D01*
X153301682Y-109696737D01*
X153731032Y-109141316D01*
X154077576Y-108561442D01*
X154334433Y-107980689D01*
X154494722Y-107422635D01*
X154551561Y-106910854D01*
X154498070Y-106468922D01*
X154340511Y-106137553D01*
X154116567Y-105877014D01*
X153880172Y-105706100D01*
X153585113Y-105604140D01*
X153185176Y-105550461D01*
X153001799Y-105538720D01*
X152616628Y-105506449D01*
X152398966Y-105464186D01*
X152348746Y-105419911D01*
X152465903Y-105381608D01*
X152750371Y-105357258D01*
X153003330Y-105352667D01*
X153343687Y-105339855D01*
X153558841Y-105305144D01*
X153636557Y-105254118D01*
X153564604Y-105192361D01*
X153442833Y-105152031D01*
X152998232Y-105101717D01*
X152521914Y-105159540D01*
X152276867Y-105236265D01*
X152063753Y-105313031D01*
X151929035Y-105345494D01*
X151908857Y-105342098D01*
X151645426Y-104880949D01*
X151530287Y-104404903D01*
X151563401Y-103941163D01*
X151744729Y-103516929D01*
X151911839Y-103305873D01*
X152052505Y-103152327D01*
X152080887Y-103084292D01*
X152003988Y-103067096D01*
X151960149Y-103066667D01*
X151745574Y-103145365D01*
X151548386Y-103357705D01*
X151390444Y-103668056D01*
X151293603Y-104040783D01*
X151278266Y-104178306D01*
X151266802Y-104461382D01*
X151294167Y-104674479D01*
X151379039Y-104885853D01*
X151540098Y-105163762D01*
X151554194Y-105186638D01*
X151759207Y-105554760D01*
X151844128Y-105828926D01*
X151802126Y-106041057D01*
X151626370Y-106223078D01*
X151310030Y-106406910D01*
X151291054Y-106416397D01*
X150592237Y-106832961D01*
X149915511Y-107364079D01*
X149303598Y-107970181D01*
X148799220Y-108611700D01*
X148630838Y-108880250D01*
X148385629Y-109304969D01*
X147744505Y-109304969D01*
X147704436Y-109238358D01*
X147775658Y-109040624D01*
X147993834Y-108781821D01*
X148191837Y-108601451D01*
X148686813Y-108154288D01*
X149161994Y-107675970D01*
X149600559Y-107187952D01*
X149985685Y-106711689D01*
X150300552Y-106268635D01*
X150434339Y-106040518D01*
X150839768Y-106040518D01*
X150895778Y-106142889D01*
X151011619Y-106197820D01*
X151079873Y-106098112D01*
X151093333Y-105955700D01*
X151135092Y-105740834D01*
X151220333Y-105606667D01*
X151332414Y-105470373D01*
X151322622Y-105374037D01*
X151248167Y-105352667D01*
X151072806Y-105425367D01*
X150928621Y-105603856D01*
X150842109Y-105828713D01*
X150839768Y-106040518D01*
X150434339Y-106040518D01*
X150528337Y-105880246D01*
X150652221Y-105567976D01*
X150670000Y-105440706D01*
X150597716Y-105244132D01*
X150400832Y-105005394D01*
X150109296Y-104751527D01*
X149753058Y-104509562D01*
X149466968Y-104354823D01*
X149142171Y-104215023D01*
X148718269Y-104055953D01*
X148260005Y-103901093D01*
X147977806Y-103814807D01*
X147048523Y-103544817D01*
X146482825Y-103994956D01*
X145798807Y-104627811D01*
X145222277Y-105342927D01*
X144766083Y-106116073D01*
X144443073Y-106923020D01*
X144266094Y-107739535D01*
X144235333Y-108233754D01*
X144005274Y-108233754D01*
X143997939Y-108028820D01*
X144109729Y-107224563D01*
X144358602Y-106423938D01*
X144741698Y-105648189D01*
X145226431Y-104954757D01*
X145602825Y-104527983D01*
X146045809Y-104079705D01*
X146490676Y-103673729D01*
X146700853Y-103500847D01*
X146946782Y-103340250D01*
X147300644Y-103148580D01*
X147710524Y-102950648D01*
X148124510Y-102771264D01*
X148490687Y-102635240D01*
X148553333Y-102615507D01*
X149471786Y-102415521D01*
X150407088Y-102358341D01*
X151326558Y-102441944D01*
X152197512Y-102664304D01*
X152702000Y-102872505D01*
X153181583Y-103172338D01*
X153658578Y-103591495D01*
X154089460Y-104084988D01*
X154430704Y-104607831D01*
X154487158Y-104717667D01*
X154605456Y-104966137D01*
X154686009Y-105167691D01*
X154735965Y-105364588D01*
X154762473Y-105599086D01*
X154772681Y-105913445D01*
X154773737Y-106349923D01*
X154773591Y-106411000D01*
X154769025Y-106884874D01*
X154754063Y-107233818D01*
X154722694Y-107502177D01*
X154668905Y-107734298D01*
X154586685Y-107974527D01*
X154548216Y-108073433D01*
X154103204Y-108973055D01*
X153509905Y-109796653D01*
X152992182Y-110342836D01*
X152373525Y-110887549D01*
X151772542Y-111316367D01*
X151133243Y-111662669D01*
X150399638Y-111959835D01*
X150119667Y-112055318D01*
X149677125Y-112160231D01*
X149127581Y-112230809D01*
X148530337Y-112264598D01*
X147944695Y-112259142D01*
X147429959Y-112211985D01*
X147230377Y-112174942D01*
X146452461Y-111917179D01*
X145738331Y-111523282D01*
X145115487Y-111012727D01*
X144611430Y-110404991D01*
X144513655Y-110250956D01*
X144197043Y-109563260D01*
X144026091Y-108815466D01*
X144005274Y-108233754D01*
G36*
X144005274Y-108233754D02*
G01*
X144235333Y-108233754D01*
X144314455Y-109026794D01*
X144545502Y-109755654D01*
X144918991Y-110407363D01*
X145425443Y-110968948D01*
X146055376Y-111427440D01*
X146799311Y-111769867D01*
X146826859Y-111779440D01*
X147251679Y-111908576D01*
X147530524Y-111953388D01*
X147664246Y-111913904D01*
X147662151Y-111808500D01*
X147627619Y-111656425D01*
X147592824Y-111387724D01*
X147564286Y-111054965D01*
X147559764Y-110983000D01*
X147556108Y-110856000D01*
X147833898Y-110856000D01*
X147841101Y-111341207D01*
X147878922Y-111679021D01*
X147972167Y-111891282D01*
X148145641Y-111999828D01*
X148424149Y-112026500D01*
X148832496Y-111993138D01*
X149089239Y-111961269D01*
X149384759Y-111917970D01*
X149607887Y-111875535D01*
X149711175Y-111843016D01*
X149711698Y-111842524D01*
X149718048Y-111731483D01*
X149661750Y-111512048D01*
X149558681Y-111225850D01*
X149424715Y-110914521D01*
X149275730Y-110619692D01*
X149190186Y-110475000D01*
X148977243Y-110180994D01*
X148732330Y-109904121D01*
X148489821Y-109677503D01*
X148284092Y-109534260D01*
X148179659Y-109501333D01*
X148045905Y-109582395D01*
X147941350Y-109814906D01*
X147870081Y-110182856D01*
X147836185Y-110670231D01*
X147833898Y-110856000D01*
X147556108Y-110856000D01*
X147548006Y-110574638D01*
X147574466Y-110263317D01*
X147647215Y-109979447D01*
X147689880Y-109861142D01*
X147769934Y-109611479D01*
X147799555Y-109430204D01*
X147783208Y-109369312D01*
X147744505Y-109304969D01*
X148385629Y-109304969D01*
X148714112Y-109568945D01*
X149032194Y-109885324D01*
X149352752Y-110306799D01*
X149636684Y-110774316D01*
X149844886Y-111228821D01*
X149878694Y-111327669D01*
X149971832Y-111576822D01*
X150062051Y-111743325D01*
X150113962Y-111786299D01*
X150229359Y-111753762D01*
X150456061Y-111668213D01*
X150750980Y-111546191D01*
X150841723Y-111506952D01*
X151662486Y-111090895D01*
X152378818Y-110595058D01*
X153040995Y-109982444D01*
X153301682Y-109696737D01*
X153731032Y-109141316D01*
X154077576Y-108561442D01*
X154334433Y-107980689D01*
X154494722Y-107422635D01*
X154551561Y-106910854D01*
X154498070Y-106468922D01*
X154340511Y-106137553D01*
X154116567Y-105877014D01*
X153880172Y-105706100D01*
X153585113Y-105604140D01*
X153185176Y-105550461D01*
X153001799Y-105538720D01*
X152616628Y-105506449D01*
X152398966Y-105464186D01*
X152348746Y-105419911D01*
X152465903Y-105381608D01*
X152750371Y-105357258D01*
X153003330Y-105352667D01*
X153343687Y-105339855D01*
X153558841Y-105305144D01*
X153636557Y-105254118D01*
X153564604Y-105192361D01*
X153442833Y-105152031D01*
X152998232Y-105101717D01*
X152521914Y-105159540D01*
X152276867Y-105236265D01*
X152063753Y-105313031D01*
X151929035Y-105345494D01*
X151908857Y-105342098D01*
X151645426Y-104880949D01*
X151530287Y-104404903D01*
X151563401Y-103941163D01*
X151744729Y-103516929D01*
X151911839Y-103305873D01*
X152052505Y-103152327D01*
X152080887Y-103084292D01*
X152003988Y-103067096D01*
X151960149Y-103066667D01*
X151745574Y-103145365D01*
X151548386Y-103357705D01*
X151390444Y-103668056D01*
X151293603Y-104040783D01*
X151278266Y-104178306D01*
X151266802Y-104461382D01*
X151294167Y-104674479D01*
X151379039Y-104885853D01*
X151540098Y-105163762D01*
X151554194Y-105186638D01*
X151759207Y-105554760D01*
X151844128Y-105828926D01*
X151802126Y-106041057D01*
X151626370Y-106223078D01*
X151310030Y-106406910D01*
X151291054Y-106416397D01*
X150592237Y-106832961D01*
X149915511Y-107364079D01*
X149303598Y-107970181D01*
X148799220Y-108611700D01*
X148630838Y-108880250D01*
X148385629Y-109304969D01*
X147744505Y-109304969D01*
X147704436Y-109238358D01*
X147775658Y-109040624D01*
X147993834Y-108781821D01*
X148191837Y-108601451D01*
X148686813Y-108154288D01*
X149161994Y-107675970D01*
X149600559Y-107187952D01*
X149985685Y-106711689D01*
X150300552Y-106268635D01*
X150434339Y-106040518D01*
X150839768Y-106040518D01*
X150895778Y-106142889D01*
X151011619Y-106197820D01*
X151079873Y-106098112D01*
X151093333Y-105955700D01*
X151135092Y-105740834D01*
X151220333Y-105606667D01*
X151332414Y-105470373D01*
X151322622Y-105374037D01*
X151248167Y-105352667D01*
X151072806Y-105425367D01*
X150928621Y-105603856D01*
X150842109Y-105828713D01*
X150839768Y-106040518D01*
X150434339Y-106040518D01*
X150528337Y-105880246D01*
X150652221Y-105567976D01*
X150670000Y-105440706D01*
X150597716Y-105244132D01*
X150400832Y-105005394D01*
X150109296Y-104751527D01*
X149753058Y-104509562D01*
X149466968Y-104354823D01*
X149142171Y-104215023D01*
X148718269Y-104055953D01*
X148260005Y-103901093D01*
X147977806Y-103814807D01*
X147048523Y-103544817D01*
X146482825Y-103994956D01*
X145798807Y-104627811D01*
X145222277Y-105342927D01*
X144766083Y-106116073D01*
X144443073Y-106923020D01*
X144266094Y-107739535D01*
X144235333Y-108233754D01*
X144005274Y-108233754D01*
X143997939Y-108028820D01*
X144109729Y-107224563D01*
X144358602Y-106423938D01*
X144741698Y-105648189D01*
X145226431Y-104954757D01*
X145602825Y-104527983D01*
X146045809Y-104079705D01*
X146490676Y-103673729D01*
X146700853Y-103500847D01*
X146946782Y-103340250D01*
X147300644Y-103148580D01*
X147710524Y-102950648D01*
X148124510Y-102771264D01*
X148490687Y-102635240D01*
X148553333Y-102615507D01*
X149471786Y-102415521D01*
X150407088Y-102358341D01*
X151326558Y-102441944D01*
X152197512Y-102664304D01*
X152702000Y-102872505D01*
X153181583Y-103172338D01*
X153658578Y-103591495D01*
X154089460Y-104084988D01*
X154430704Y-104607831D01*
X154487158Y-104717667D01*
X154605456Y-104966137D01*
X154686009Y-105167691D01*
X154735965Y-105364588D01*
X154762473Y-105599086D01*
X154772681Y-105913445D01*
X154773737Y-106349923D01*
X154773591Y-106411000D01*
X154769025Y-106884874D01*
X154754063Y-107233818D01*
X154722694Y-107502177D01*
X154668905Y-107734298D01*
X154586685Y-107974527D01*
X154548216Y-108073433D01*
X154103204Y-108973055D01*
X153509905Y-109796653D01*
X152992182Y-110342836D01*
X152373525Y-110887549D01*
X151772542Y-111316367D01*
X151133243Y-111662669D01*
X150399638Y-111959835D01*
X150119667Y-112055318D01*
X149677125Y-112160231D01*
X149127581Y-112230809D01*
X148530337Y-112264598D01*
X147944695Y-112259142D01*
X147429959Y-112211985D01*
X147230377Y-112174942D01*
X146452461Y-111917179D01*
X145738331Y-111523282D01*
X145115487Y-111012727D01*
X144611430Y-110404991D01*
X144513655Y-110250956D01*
X144197043Y-109563260D01*
X144026091Y-108815466D01*
X144005274Y-108233754D01*
G37*
D16*
X137700000Y-123250000D02*
X140300000Y-120650000D01*
X137700000Y-124900000D02*
X137700000Y-123250000D01*
X137700000Y-128500000D02*
X137700000Y-130800000D01*
X140300000Y-119850000D02*
X148600000Y-119850000D01*
X140300000Y-120650000D02*
X140300000Y-119850000D01*
X148600000Y-119850000D02*
X148600000Y-120650000D01*
X148600000Y-120650000D02*
X151200000Y-123250000D01*
X151200000Y-123250000D02*
X151200000Y-124900000D01*
X151200000Y-128500000D02*
X151200000Y-130800000D01*
X137700000Y-130750000D02*
G75*
G03*
X139150000Y-132300000I1499999J-50001D01*
G01*
X139035385Y-132284159D02*
G75*
G03*
X139949999Y-131900000I124615J984160D01*
G01*
X148940661Y-131888671D02*
G75*
G03*
X139950001Y-131900000I-4490661J-3711329D01*
G01*
X148950000Y-131900000D02*
G75*
G03*
X149864615Y-132284160I790000J600000D01*
G01*
X149750000Y-132300000D02*
G75*
G03*
X151200000Y-130750000I-50000J1500000D01*
G01*
X136460000Y-131760000D02*
X135400000Y-131760000D01*
X136460000Y-130700000D02*
X136460000Y-131760000D01*
X136460000Y-129700000D02*
X136460000Y-119640000D01*
X136460000Y-129700000D02*
X134340000Y-129700000D01*
X136460000Y-119640000D02*
X134340000Y-119640000D01*
X134340000Y-129700000D02*
X134340000Y-119640000D01*
D14*
X156900000Y-59450000D02*
X156900000Y-62950000D01*
X153400000Y-65200000D02*
X156900000Y-65200000D01*
X153400000Y-65200000D02*
X149900000Y-65200000D01*
X153400000Y-59450000D02*
X156900000Y-59450000D01*
X153400000Y-59450000D02*
X149900000Y-59450000D01*
X149900000Y-59450000D02*
X149900000Y-62950000D01*
D16*
X152840000Y-112807836D02*
X152840000Y-112592164D01*
X153560000Y-112807836D02*
X153560000Y-112592164D01*
X158440000Y-112807836D02*
X158440000Y-112592164D01*
X159160000Y-112807836D02*
X159160000Y-112592164D01*
X153460000Y-121192164D02*
X153460000Y-121407836D01*
X152740000Y-121192164D02*
X152740000Y-121407836D01*
X160577500Y-130337258D02*
X160577500Y-129862742D01*
X161622500Y-130337258D02*
X161622500Y-129862742D01*
X168100000Y-115000000D02*
X167000000Y-115000000D01*
X171650000Y-115250000D02*
X167000000Y-115250000D01*
X157050000Y-115250000D02*
X155950000Y-115250000D01*
X155950000Y-115250000D02*
X155950000Y-116350000D01*
X171650000Y-116350000D02*
X171650000Y-115250000D01*
X171650000Y-124850000D02*
X171650000Y-125950000D01*
X171650000Y-125950000D02*
X170550000Y-125950000D01*
X157050000Y-125950000D02*
X155950000Y-125950000D01*
X155950000Y-125950000D02*
X155950000Y-124850000D01*
X153390000Y-124140580D02*
X153390000Y-123859420D01*
X154410000Y-124140580D02*
X154410000Y-123859420D01*
X158275000Y-111500000D02*
X158275000Y-114300000D01*
X153730000Y-111500000D02*
X158275000Y-111500000D01*
X158275000Y-114300000D02*
X153725000Y-114300000D01*
X153725000Y-114300000D02*
X153730000Y-111500000D01*
X154560000Y-121192164D02*
X154560000Y-121407836D01*
X153840000Y-121192164D02*
X153840000Y-121407836D01*
M02*
