%TF.GenerationSoftware,KiCad,Pcbnew,7.0.1-0*%
%TF.CreationDate,2024-02-14T11:54:31-05:00*%
%TF.ProjectId,Tympan_Rev_F,54796d70-616e-45f5-9265-765f462e6b69,rev?*%
%TF.SameCoordinates,Original*%
%TF.FileFunction,Copper,L3,Inr*%
%TF.FilePolarity,Positive*%
%FSLAX46Y46*%
G04 Gerber Fmt 4.6, Leading zero omitted, Abs format (unit mm)*
G04 Created by KiCad (PCBNEW 7.0.1-0) date 2024-02-14 11:54:31*
%MOMM*%
%LPD*%
G01*
G04 APERTURE LIST*
%TA.AperFunction,ComponentPad*%
%ADD10R,1.700000X1.700000*%
%TD*%
%TA.AperFunction,ComponentPad*%
%ADD11O,1.700000X1.700000*%
%TD*%
%TA.AperFunction,ComponentPad*%
%ADD12C,3.000000*%
%TD*%
%TA.AperFunction,ComponentPad*%
%ADD13R,1.350000X1.350000*%
%TD*%
%TA.AperFunction,ComponentPad*%
%ADD14O,1.350000X1.350000*%
%TD*%
%TA.AperFunction,ComponentPad*%
%ADD15C,1.700000*%
%TD*%
%TA.AperFunction,ComponentPad*%
%ADD16C,2.000000*%
%TD*%
%TA.AperFunction,ComponentPad*%
%ADD17C,1.600000*%
%TD*%
%TA.AperFunction,ViaPad*%
%ADD18C,0.800000*%
%TD*%
%TA.AperFunction,Conductor*%
%ADD19C,0.250000*%
%TD*%
%TA.AperFunction,Conductor*%
%ADD20C,0.500000*%
%TD*%
%TA.AperFunction,Conductor*%
%ADD21C,1.000000*%
%TD*%
G04 APERTURE END LIST*
D10*
X136175000Y-84500000D03*
D11*
X136175000Y-87040000D03*
X136175000Y-89580000D03*
X136175000Y-92120000D03*
X136175000Y-94660000D03*
X136175000Y-97200000D03*
D10*
X167900000Y-84500000D03*
D11*
X167900000Y-87040000D03*
X167900000Y-89580000D03*
X167900000Y-92120000D03*
X167900000Y-94660000D03*
X167900000Y-97200000D03*
D10*
X170600000Y-84500000D03*
D11*
X170600000Y-87040000D03*
X170600000Y-89580000D03*
X170600000Y-92120000D03*
X170600000Y-94660000D03*
X170600000Y-97200000D03*
D10*
X139700000Y-101760000D03*
D11*
X139700000Y-104300000D03*
X139700000Y-106840000D03*
D10*
X138750000Y-84500000D03*
D11*
X138750000Y-87040000D03*
X138750000Y-89580000D03*
X138750000Y-92120000D03*
X138750000Y-94660000D03*
X138750000Y-97200000D03*
D12*
X137850000Y-126700000D03*
X151050000Y-126700000D03*
D13*
X135400000Y-130700000D03*
D14*
X135400000Y-128700000D03*
X135400000Y-126700000D03*
X135400000Y-124700000D03*
X135400000Y-122700000D03*
X135400000Y-120700000D03*
D15*
X155900000Y-61700000D03*
X150900000Y-61700000D03*
D16*
X156900000Y-64200000D03*
X149900000Y-64200000D03*
D17*
X158445000Y-129270000D03*
X148285000Y-86090000D03*
X155865000Y-86100000D03*
D18*
X161850000Y-112100000D03*
X163650000Y-105400000D03*
X137000000Y-117500000D03*
X168424991Y-109048755D03*
X144150000Y-130400000D03*
X166950000Y-105150000D03*
X165150000Y-102300000D03*
X160600000Y-120500000D03*
X152000000Y-86150000D03*
X138299987Y-76050013D03*
X160550000Y-97500000D03*
X164350000Y-128450000D03*
X169000000Y-76200000D03*
X159600000Y-63450000D03*
X153400000Y-90200000D03*
X162600000Y-130900000D03*
X167100000Y-114050000D03*
X145550000Y-97800000D03*
X145600000Y-84750000D03*
X152450000Y-84900000D03*
X145500000Y-83500000D03*
X152856143Y-83986177D03*
X144800000Y-94500000D03*
X170650000Y-81450000D03*
X153000000Y-130700000D03*
X160800000Y-89600000D03*
X164800000Y-85700000D03*
X155200000Y-122900000D03*
X149750000Y-85800000D03*
X157300000Y-127300000D03*
X161250000Y-85000000D03*
X137900000Y-81500000D03*
X160500000Y-92500000D03*
X153900000Y-128600000D03*
X154100000Y-119400000D03*
X155600000Y-121100000D03*
X155650000Y-127550000D03*
X156700000Y-129500000D03*
X158600000Y-119324500D03*
X147300000Y-127750000D03*
X149650000Y-114800000D03*
X155600000Y-114750000D03*
X143624500Y-120100000D03*
X142400000Y-84700000D03*
X164200000Y-126400000D03*
X165400000Y-123200000D03*
X144092500Y-83692500D03*
X162950000Y-126400000D03*
X144550000Y-123400000D03*
X148500000Y-127800000D03*
X149500000Y-118900000D03*
X160525500Y-118200000D03*
X141450000Y-130900000D03*
X142600000Y-104700000D03*
X161804108Y-123067811D03*
X151800000Y-132100000D03*
X145849998Y-74750000D03*
X146350000Y-89770016D03*
X140250000Y-81950000D03*
X152500000Y-79550000D03*
X140550000Y-72750000D03*
X147200000Y-65450000D03*
X150600000Y-80050000D03*
X168150000Y-81450000D03*
X136150000Y-81450000D03*
X142600000Y-79500000D03*
X141600000Y-116300000D03*
X163100000Y-132300000D03*
X140250000Y-87050000D03*
X151400000Y-124000000D03*
X151800000Y-96850000D03*
X152700000Y-119475500D03*
X152850000Y-97650000D03*
X140250000Y-89600000D03*
X140700000Y-97800000D03*
X153850000Y-96850000D03*
X155500000Y-117000000D03*
X162975500Y-91700000D03*
X162400000Y-110400000D03*
X162800000Y-90000000D03*
X161300000Y-110375500D03*
X157200000Y-107600000D03*
X150000000Y-106450000D03*
X149400000Y-113300000D03*
X168625001Y-113874999D03*
X155100000Y-110800000D03*
X154950000Y-97450000D03*
X155950000Y-109000000D03*
X156000000Y-96750000D03*
X147100000Y-101550000D03*
X169200000Y-98700006D03*
X160050000Y-82550000D03*
X147455000Y-74650000D03*
X147450000Y-92150000D03*
X142350000Y-76950000D03*
X166650000Y-98750000D03*
X147100000Y-100150000D03*
X147000000Y-94900000D03*
X165100000Y-105050000D03*
X164800000Y-95400004D03*
X148994500Y-96375500D03*
X166800000Y-104000000D03*
X144100011Y-92500000D03*
X165925000Y-93850000D03*
X143300000Y-87800000D03*
X158900000Y-87474500D03*
X165625000Y-119725000D03*
X140250000Y-120650000D03*
X165350000Y-126400000D03*
X141100000Y-119650000D03*
X165675000Y-118225000D03*
X166351944Y-126351944D03*
X158235621Y-88535621D03*
X143300000Y-89000000D03*
X166400000Y-117100000D03*
X141600000Y-118450000D03*
X150800000Y-85800000D03*
X149500000Y-87100000D03*
X149400000Y-94824990D03*
X145200000Y-79600000D03*
X167600000Y-103000000D03*
X149300000Y-103150000D03*
X167050000Y-79550000D03*
X162300000Y-86500000D03*
X162300000Y-80000000D03*
X135950000Y-78650000D03*
X156850000Y-87150000D03*
X156600000Y-78800000D03*
X165925010Y-92400000D03*
X157050000Y-92550000D03*
X157800000Y-89550000D03*
X150500000Y-82825500D03*
X157382098Y-83744515D03*
X154425000Y-104100000D03*
X146500000Y-121500000D03*
X146600000Y-115119502D03*
X160700000Y-114000000D03*
X159200000Y-120200000D03*
X151300000Y-74000004D03*
X150450000Y-87600000D03*
X149400000Y-88900000D03*
X151300000Y-72699998D03*
X158224500Y-114850000D03*
X147595500Y-96325500D03*
X158600000Y-122800000D03*
X147600000Y-121525500D03*
X145565498Y-129400000D03*
X160834678Y-127779505D03*
X146324500Y-92200000D03*
X157400000Y-79800000D03*
X159500000Y-115000000D03*
X159387701Y-88587701D03*
X159700500Y-122750215D03*
X164700000Y-97500000D03*
X158900000Y-127879500D03*
X160400000Y-87800000D03*
X139700000Y-110800000D03*
X162300000Y-122200000D03*
X140500000Y-122200000D03*
X160950000Y-77300000D03*
X164100000Y-122500000D03*
X141350000Y-123050000D03*
X165000000Y-78450000D03*
X159500000Y-117800500D03*
D19*
X145600000Y-84750000D02*
X145600000Y-97750000D01*
X145600000Y-97750000D02*
X145550000Y-97800000D01*
X144825012Y-94474988D02*
X144825012Y-84140697D01*
X144800000Y-94500000D02*
X144825012Y-94474988D01*
X145465709Y-83500000D02*
X145500000Y-83500000D01*
X144825012Y-84140697D02*
X145465709Y-83500000D01*
X153800000Y-119700000D02*
X153800000Y-128500000D01*
X153800000Y-128500000D02*
X153900000Y-128600000D01*
X154100000Y-119400000D02*
X153800000Y-119700000D01*
X156000000Y-127200000D02*
X156000000Y-121500000D01*
X156000000Y-121500000D02*
X155600000Y-121100000D01*
X155650000Y-127550000D02*
X156000000Y-127200000D01*
X158600000Y-119324500D02*
X156575000Y-121349500D01*
X156575000Y-129375000D02*
X156700000Y-129500000D01*
X156575000Y-121349500D02*
X156575000Y-129375000D01*
X148500000Y-126550000D02*
X148500000Y-115950000D01*
X147300000Y-127750000D02*
X148500000Y-126550000D01*
X148500000Y-115950000D02*
X149650000Y-114800000D01*
X165400000Y-125200000D02*
X164200000Y-126400000D01*
X143375011Y-119850511D02*
X143375011Y-104075011D01*
X143624500Y-120100000D02*
X143375011Y-119850511D01*
X165400000Y-123200000D02*
X165400000Y-125200000D01*
X143375011Y-104075011D02*
X142400000Y-103100000D01*
X142400000Y-103100000D02*
X142400000Y-84700000D01*
X144800000Y-123150000D02*
X144800000Y-95600000D01*
X143375011Y-94175011D02*
X143375011Y-91974989D01*
X144300000Y-83900000D02*
X144092500Y-83692500D01*
X144550000Y-123400000D02*
X144800000Y-123150000D01*
X143375011Y-91974989D02*
X144300000Y-91050000D01*
X144300000Y-91050000D02*
X144300000Y-83900000D01*
X144800000Y-95600000D02*
X143375011Y-94175011D01*
X149000000Y-119400000D02*
X149500000Y-118900000D01*
X148500000Y-127800000D02*
X149000000Y-127300000D01*
X149000000Y-127300000D02*
X149000000Y-119400000D01*
X158200000Y-132100000D02*
X159800000Y-130500000D01*
X151800000Y-132100000D02*
X158200000Y-132100000D01*
X159800000Y-125071919D02*
X161804108Y-123067811D01*
X159800000Y-130500000D02*
X159800000Y-125071919D01*
X142400000Y-129950000D02*
X141450000Y-130900000D01*
X142600000Y-104700000D02*
X142400000Y-104900000D01*
X142400000Y-104900000D02*
X142400000Y-129950000D01*
X146500000Y-75400002D02*
X146500000Y-89620016D01*
X145849998Y-74750000D02*
X146500000Y-75400002D01*
X146500000Y-89620016D02*
X146350000Y-89770016D01*
X140550000Y-81650000D02*
X140550000Y-72750000D01*
X140250000Y-81950000D02*
X140550000Y-81650000D01*
X150600000Y-75750000D02*
X147200000Y-72350000D01*
X150600000Y-80050000D02*
X150600000Y-75750000D01*
X147200000Y-72350000D02*
X147200000Y-65450000D01*
D20*
X142400000Y-82800000D02*
X141600000Y-83600000D01*
X142400000Y-79700000D02*
X142400000Y-82800000D01*
X142600000Y-79500000D02*
X142400000Y-79700000D01*
X141600000Y-83600000D02*
X141600000Y-116300000D01*
D19*
X151400000Y-124000000D02*
X151324999Y-123924999D01*
X151324999Y-123924999D02*
X151324999Y-97325001D01*
X140250000Y-87050000D02*
X140240000Y-87040000D01*
X140240000Y-87040000D02*
X138750000Y-87040000D01*
X151324999Y-97325001D02*
X151800000Y-96850000D01*
X152800000Y-119375500D02*
X152800000Y-97700000D01*
X140250000Y-89600000D02*
X138770000Y-89600000D01*
X152800000Y-97700000D02*
X152850000Y-97650000D01*
X138770000Y-89600000D02*
X138750000Y-89580000D01*
X152700000Y-119475500D02*
X152800000Y-119375500D01*
X139570000Y-92120000D02*
X138750000Y-92120000D01*
X140750000Y-93300000D02*
X139570000Y-92120000D01*
X140700000Y-97800000D02*
X140750000Y-97750000D01*
X140750000Y-97750000D02*
X140750000Y-93300000D01*
X153650000Y-115150000D02*
X153650000Y-97050000D01*
X153650000Y-97050000D02*
X153850000Y-96850000D01*
X155500000Y-117000000D02*
X153650000Y-115150000D01*
X162600000Y-92075500D02*
X162975500Y-91700000D01*
X162600000Y-98200000D02*
X162600000Y-92075500D01*
X161900000Y-109900000D02*
X161900000Y-98900000D01*
X162400000Y-110400000D02*
X161900000Y-109900000D01*
X161900000Y-98900000D02*
X162600000Y-98200000D01*
X161300000Y-98700000D02*
X162200000Y-97800000D01*
X162200000Y-97800000D02*
X162200000Y-90600000D01*
X162200000Y-90600000D02*
X162800000Y-90000000D01*
X161300000Y-110375500D02*
X161300000Y-98700000D01*
X169300000Y-102300000D02*
X171950000Y-99650000D01*
X171950000Y-99650000D02*
X171950000Y-88390000D01*
X171950000Y-88390000D02*
X170600000Y-87040000D01*
X169300000Y-113200000D02*
X169300000Y-102300000D01*
X168625001Y-113874999D02*
X169300000Y-113200000D01*
X154950000Y-97450000D02*
X155150000Y-97650000D01*
X155150000Y-110750000D02*
X155100000Y-110800000D01*
X155150000Y-97650000D02*
X155150000Y-110750000D01*
X156000000Y-96750000D02*
X156000000Y-108950000D01*
X156000000Y-108950000D02*
X155950000Y-109000000D01*
X169200000Y-98134321D02*
X169200000Y-98700006D01*
X169200000Y-93420000D02*
X169200000Y-98134321D01*
X167900000Y-92120000D02*
X169200000Y-93420000D01*
X146950000Y-90124611D02*
X146950000Y-91650000D01*
X146950000Y-89415421D02*
X147025000Y-89490421D01*
X147455000Y-74650000D02*
X146950000Y-75155000D01*
X147025000Y-89490421D02*
X147025000Y-90049611D01*
X147025000Y-90049611D02*
X146950000Y-90124611D01*
X146950000Y-75155000D02*
X146950000Y-89415421D01*
X146950000Y-91650000D02*
X147450000Y-92150000D01*
X141650000Y-82400000D02*
X140900000Y-83150000D01*
X141650000Y-77650000D02*
X141650000Y-82400000D01*
X142350000Y-76950000D02*
X141650000Y-77650000D01*
X137550000Y-83450000D02*
X137550000Y-93460000D01*
X137850000Y-83150000D02*
X137550000Y-83450000D01*
X140900000Y-83150000D02*
X137850000Y-83150000D01*
X137550000Y-93460000D02*
X138750000Y-94660000D01*
X166650000Y-98184315D02*
X166650000Y-98750000D01*
X167900000Y-89580000D02*
X166650011Y-90829989D01*
X166650000Y-92748012D02*
X166650000Y-98184315D01*
X166650011Y-92748001D02*
X166650000Y-92748012D01*
X166650011Y-90829989D02*
X166650011Y-92748001D01*
X165899999Y-101699999D02*
X165899999Y-104250001D01*
X165425001Y-101225001D02*
X165899999Y-101699999D01*
X165899999Y-104250001D02*
X165100000Y-105050000D01*
X164800000Y-95400004D02*
X165425001Y-96025005D01*
X165425001Y-96025005D02*
X165425001Y-101225001D01*
X165925000Y-101088590D02*
X166800000Y-101963590D01*
X165925000Y-93850000D02*
X165925000Y-101088590D01*
X166800000Y-101963590D02*
X166800000Y-104000000D01*
X150550000Y-108300000D02*
X148320000Y-106070000D01*
X150550000Y-126700000D02*
X150550000Y-108300000D01*
X148320000Y-106070000D02*
X148320000Y-86140000D01*
X166200000Y-120350000D02*
X165625000Y-119775000D01*
X166200000Y-125550000D02*
X166200000Y-120350000D01*
X165625000Y-119775000D02*
X165625000Y-119725000D01*
X165350000Y-126400000D02*
X166200000Y-125550000D01*
X166351944Y-126351944D02*
X166700000Y-126003888D01*
X166700000Y-119250000D02*
X165675000Y-118225000D01*
X166700000Y-126003888D02*
X166700000Y-119250000D01*
X167900000Y-97200000D02*
X167900000Y-102700000D01*
X167900000Y-102700000D02*
X167600000Y-103000000D01*
X162300000Y-80565685D02*
X162300000Y-80000000D01*
X162300000Y-86500000D02*
X162300000Y-80565685D01*
X165925010Y-91834315D02*
X165925010Y-92400000D01*
X167900000Y-87040000D02*
X165925010Y-89014990D01*
X165925010Y-89014990D02*
X165925010Y-91834315D01*
X146600000Y-121400000D02*
X146500000Y-121500000D01*
X146600000Y-115119502D02*
X146600000Y-121400000D01*
X153750000Y-76450004D02*
X151699999Y-74400003D01*
X151699999Y-74400003D02*
X151300000Y-74000004D01*
X150150000Y-87600000D02*
X152000000Y-87600000D01*
X152000000Y-87600000D02*
X153750000Y-85850000D01*
X153750000Y-85850000D02*
X153750000Y-76450004D01*
X154300000Y-75699998D02*
X151699999Y-73099997D01*
X151699999Y-73099997D02*
X151300000Y-72699998D01*
X149400000Y-88900000D02*
X151500000Y-88900000D01*
X151500000Y-88900000D02*
X154300000Y-86100000D01*
X154300000Y-86100000D02*
X154300000Y-75699998D01*
X147600000Y-121525500D02*
X147825000Y-121300500D01*
X147825000Y-96555000D02*
X147595500Y-96325500D01*
X147825000Y-121300500D02*
X147825000Y-96555000D01*
X145300000Y-99250000D02*
X146275000Y-98275000D01*
X146275000Y-92249500D02*
X146324500Y-92200000D01*
X145565498Y-129400000D02*
X145300000Y-129134502D01*
X146275000Y-98275000D02*
X146275000Y-92249500D01*
X145300000Y-129134502D02*
X145300000Y-99250000D01*
X158124990Y-92524990D02*
X157075000Y-91475000D01*
X157075000Y-88272335D02*
X158107098Y-87240237D01*
X157075000Y-91475000D02*
X157075000Y-88272335D01*
X158107098Y-87240237D02*
X158107098Y-80507098D01*
X159500000Y-115000000D02*
X158124990Y-113624990D01*
X158107098Y-80507098D02*
X157400000Y-79800000D01*
X158124990Y-113624990D02*
X158124990Y-92524990D01*
X159000000Y-113400000D02*
X159000000Y-88975402D01*
X159000000Y-88975402D02*
X159387701Y-88587701D01*
X159700500Y-122750215D02*
X159700500Y-122599500D01*
X161400000Y-120900000D02*
X161400000Y-115800000D01*
X161400000Y-115800000D02*
X159000000Y-113400000D01*
X159700500Y-122599500D02*
X161400000Y-120900000D01*
X160425000Y-123475000D02*
X158900000Y-125000000D01*
X159700000Y-111974695D02*
X162000000Y-114274695D01*
X162000000Y-114274695D02*
X162000000Y-121100000D01*
X160400000Y-88974695D02*
X159700000Y-89674695D01*
X159700000Y-89674695D02*
X159700000Y-111974695D01*
X160425000Y-122675000D02*
X160425000Y-123475000D01*
X160400000Y-87800000D02*
X160400000Y-88974695D01*
X162000000Y-121100000D02*
X160425000Y-122675000D01*
X158900000Y-125000000D02*
X158900000Y-127879500D01*
D21*
X138750000Y-111750000D02*
X138750000Y-122300000D01*
X136350000Y-124700000D02*
X135600000Y-124700000D01*
X138750000Y-122300000D02*
X136350000Y-124700000D01*
X139700000Y-110800000D02*
X138750000Y-111750000D01*
D19*
X140500000Y-122200000D02*
X140500000Y-127300000D01*
X140500000Y-127300000D02*
X138500000Y-129300000D01*
X161700000Y-87200000D02*
X160524999Y-86024999D01*
X160524999Y-83938500D02*
X160950000Y-83513499D01*
X160950000Y-83513499D02*
X160950000Y-77300000D01*
X162450000Y-122050000D02*
X162450000Y-113950000D01*
X162300000Y-122200000D02*
X162450000Y-122050000D01*
X136000000Y-129300000D02*
X135450000Y-128750000D01*
X138500000Y-129300000D02*
X136000000Y-129300000D01*
X160300000Y-98775305D02*
X161700000Y-97375305D01*
X161700000Y-97375305D02*
X161700000Y-87200000D01*
X160524999Y-86024999D02*
X160524999Y-83938500D01*
X162450000Y-113950000D02*
X160300000Y-111800000D01*
X160300000Y-111800000D02*
X160300000Y-98775305D01*
X163650500Y-91979595D02*
X163650500Y-79799500D01*
X164100000Y-122500000D02*
X163100000Y-121500000D01*
X163650500Y-79799500D02*
X165000000Y-78450000D01*
X162450000Y-109200000D02*
X162450000Y-99200000D01*
X141350000Y-127650000D02*
X138850000Y-130150000D01*
X138850000Y-130150000D02*
X135950000Y-130150000D01*
X163100000Y-109850000D02*
X162450000Y-109200000D01*
X163100000Y-121500000D02*
X163100000Y-109850000D01*
X163150000Y-92480095D02*
X163650500Y-91979595D01*
X162450000Y-99200000D02*
X163150000Y-98500000D01*
X163150000Y-98500000D02*
X163150000Y-92480095D01*
X141350000Y-123050000D02*
X141350000Y-127650000D01*
X135950000Y-130150000D02*
X135400000Y-130700000D01*
%TA.AperFunction,Conductor*%
G36*
X154849831Y-85768528D02*
G01*
X154885911Y-85817178D01*
X154886902Y-85877739D01*
X154878974Y-85903870D01*
X154859658Y-86099999D01*
X154878975Y-86296130D01*
X154936185Y-86484727D01*
X155029088Y-86658536D01*
X155067109Y-86704864D01*
X155154117Y-86810883D01*
X155283298Y-86916900D01*
X155306463Y-86935911D01*
X155480272Y-87028814D01*
X155537646Y-87046218D01*
X155668868Y-87086024D01*
X155720427Y-87091102D01*
X155864999Y-87105341D01*
X155864999Y-87105340D01*
X155865000Y-87105341D01*
X155901349Y-87101761D01*
X156061128Y-87086025D01*
X156061130Y-87086024D01*
X156061132Y-87086024D01*
X156117522Y-87068917D01*
X156173964Y-87068610D01*
X156221401Y-87099195D01*
X156244414Y-87150733D01*
X156264955Y-87306761D01*
X156325464Y-87452841D01*
X156421717Y-87578282D01*
X156517970Y-87652139D01*
X156547159Y-87674536D01*
X156693238Y-87735044D01*
X156850000Y-87755682D01*
X156884830Y-87751096D01*
X156944417Y-87761938D01*
X156986540Y-87805462D01*
X156995428Y-87865375D01*
X156967754Y-87919253D01*
X156857940Y-88029067D01*
X156851574Y-88034900D01*
X156821804Y-88059880D01*
X156802371Y-88093539D01*
X156797734Y-88100819D01*
X156775444Y-88132653D01*
X156775053Y-88134115D01*
X156765168Y-88157980D01*
X156764410Y-88159291D01*
X156757662Y-88197558D01*
X156755794Y-88205984D01*
X156745735Y-88243526D01*
X156749123Y-88282239D01*
X156749500Y-88290869D01*
X156749500Y-91456466D01*
X156749123Y-91465096D01*
X156745735Y-91503807D01*
X156755795Y-91541350D01*
X156757663Y-91549778D01*
X156764411Y-91588042D01*
X156764412Y-91588045D01*
X156765166Y-91589352D01*
X156775055Y-91613225D01*
X156775446Y-91614685D01*
X156797732Y-91646514D01*
X156802370Y-91653794D01*
X156821803Y-91687452D01*
X156821805Y-91687454D01*
X156821806Y-91687455D01*
X156851583Y-91712441D01*
X156857938Y-91718264D01*
X156938083Y-91798409D01*
X156964486Y-91845904D01*
X156961844Y-91900180D01*
X156930951Y-91944886D01*
X156903903Y-91956644D01*
X156905280Y-91959968D01*
X156747158Y-92025464D01*
X156621717Y-92121717D01*
X156525464Y-92247158D01*
X156464955Y-92393238D01*
X156444318Y-92549999D01*
X156464955Y-92706761D01*
X156525464Y-92852841D01*
X156621717Y-92978282D01*
X156692593Y-93032666D01*
X156747159Y-93074536D01*
X156893238Y-93135044D01*
X157050000Y-93155682D01*
X157206762Y-93135044D01*
X157352841Y-93074536D01*
X157478282Y-92978282D01*
X157574536Y-92852841D01*
X157609026Y-92769572D01*
X157642299Y-92727367D01*
X157692723Y-92708765D01*
X157745435Y-92719250D01*
X157784901Y-92755733D01*
X157799490Y-92807460D01*
X157799490Y-107103195D01*
X157780962Y-107160860D01*
X157732314Y-107196940D01*
X157671754Y-107197933D01*
X157640952Y-107176616D01*
X157638623Y-107179652D01*
X157502841Y-107075464D01*
X157356761Y-107014955D01*
X157200000Y-106994318D01*
X157043238Y-107014955D01*
X156897158Y-107075464D01*
X156771717Y-107171717D01*
X156675464Y-107297158D01*
X156614955Y-107443238D01*
X156594318Y-107599999D01*
X156614955Y-107756761D01*
X156675464Y-107902841D01*
X156771717Y-108028282D01*
X156848951Y-108087545D01*
X156897159Y-108124536D01*
X157043238Y-108185044D01*
X157200000Y-108205682D01*
X157356762Y-108185044D01*
X157502841Y-108124536D01*
X157614132Y-108039140D01*
X157638623Y-108020348D01*
X157640952Y-108023383D01*
X157671754Y-108002067D01*
X157732314Y-108003060D01*
X157780962Y-108039140D01*
X157799490Y-108096805D01*
X157799490Y-113606456D01*
X157799113Y-113615086D01*
X157795725Y-113653797D01*
X157805785Y-113691340D01*
X157807653Y-113699768D01*
X157812682Y-113728282D01*
X157814402Y-113738035D01*
X157815156Y-113739342D01*
X157825045Y-113763215D01*
X157825436Y-113764675D01*
X157847722Y-113796504D01*
X157852360Y-113803784D01*
X157871793Y-113837442D01*
X157871795Y-113837444D01*
X157871796Y-113837445D01*
X157901573Y-113862431D01*
X157907928Y-113868254D01*
X158135117Y-114095443D01*
X158161527Y-114142966D01*
X158158859Y-114197269D01*
X158127918Y-114241975D01*
X158078036Y-114263600D01*
X158067738Y-114264955D01*
X157921658Y-114325464D01*
X157796217Y-114421717D01*
X157699964Y-114547158D01*
X157639455Y-114693238D01*
X157618818Y-114849999D01*
X157639455Y-115006761D01*
X157699964Y-115152841D01*
X157796217Y-115278282D01*
X157870192Y-115335044D01*
X157921659Y-115374536D01*
X158067738Y-115435044D01*
X158224500Y-115455682D01*
X158381262Y-115435044D01*
X158527341Y-115374536D01*
X158652782Y-115278282D01*
X158749036Y-115152841D01*
X158749038Y-115152836D01*
X158751347Y-115149827D01*
X158792004Y-115118630D01*
X158842812Y-115111941D01*
X158890157Y-115131552D01*
X158921354Y-115172208D01*
X158975464Y-115302841D01*
X159071717Y-115428282D01*
X159167971Y-115502139D01*
X159197159Y-115524536D01*
X159343238Y-115585044D01*
X159500000Y-115605682D01*
X159656762Y-115585044D01*
X159802841Y-115524536D01*
X159928282Y-115428282D01*
X160024536Y-115302841D01*
X160085044Y-115156762D01*
X160085044Y-115156761D01*
X160090032Y-115144720D01*
X160093362Y-115146099D01*
X160105037Y-115119141D01*
X160149742Y-115088181D01*
X160204056Y-115085504D01*
X160251590Y-115111916D01*
X161045504Y-115905830D01*
X161066964Y-115937948D01*
X161074500Y-115975834D01*
X161074500Y-117663596D01*
X161059571Y-117715875D01*
X161019287Y-117752386D01*
X160965797Y-117762119D01*
X160915233Y-117742138D01*
X160828341Y-117675464D01*
X160682261Y-117614955D01*
X160525500Y-117594318D01*
X160368738Y-117614955D01*
X160259425Y-117660234D01*
X160222659Y-117675464D01*
X160222658Y-117675464D01*
X160210618Y-117680452D01*
X160209253Y-117677158D01*
X160174594Y-117689763D01*
X160117095Y-117674346D01*
X160078832Y-117628742D01*
X160073121Y-117614955D01*
X160024536Y-117497659D01*
X160024535Y-117497658D01*
X160024535Y-117497657D01*
X159928282Y-117372217D01*
X159802841Y-117275964D01*
X159656761Y-117215455D01*
X159500000Y-117194818D01*
X159343238Y-117215455D01*
X159197158Y-117275964D01*
X159071717Y-117372217D01*
X158975464Y-117497658D01*
X158914955Y-117643738D01*
X158894318Y-117800500D01*
X158914955Y-117957261D01*
X158975464Y-118103341D01*
X159071717Y-118228782D01*
X159155719Y-118293238D01*
X159197159Y-118325036D01*
X159343238Y-118385544D01*
X159500000Y-118406182D01*
X159656762Y-118385544D01*
X159802841Y-118325036D01*
X159802842Y-118325035D01*
X159814882Y-118320048D01*
X159816248Y-118323345D01*
X159850875Y-118310738D01*
X159908391Y-118326145D01*
X159946667Y-118371757D01*
X160000964Y-118502841D01*
X160097217Y-118628282D01*
X160169994Y-118684125D01*
X160222659Y-118724536D01*
X160368738Y-118785044D01*
X160525500Y-118805682D01*
X160682262Y-118785044D01*
X160828341Y-118724536D01*
X160898868Y-118670419D01*
X160915233Y-118657862D01*
X160965797Y-118637881D01*
X161019287Y-118647614D01*
X161059571Y-118684125D01*
X161074500Y-118736404D01*
X161074500Y-120724166D01*
X161066964Y-120762052D01*
X161045504Y-120794170D01*
X159718090Y-122121582D01*
X159691873Y-122140368D01*
X159661009Y-122149731D01*
X159543738Y-122165170D01*
X159397658Y-122225679D01*
X159272219Y-122321931D01*
X159209691Y-122403419D01*
X159160919Y-122437569D01*
X159101379Y-122437569D01*
X159052607Y-122403418D01*
X159028282Y-122371717D01*
X158902841Y-122275464D01*
X158756761Y-122214955D01*
X158600000Y-122194318D01*
X158443238Y-122214955D01*
X158297158Y-122275464D01*
X158171717Y-122371717D01*
X158075464Y-122497158D01*
X158014955Y-122643238D01*
X157994318Y-122800000D01*
X158014955Y-122956761D01*
X158075464Y-123102841D01*
X158171717Y-123228282D01*
X158267970Y-123302139D01*
X158297159Y-123324536D01*
X158443238Y-123385044D01*
X158600000Y-123405682D01*
X158756762Y-123385044D01*
X158902841Y-123324536D01*
X159028282Y-123228282D01*
X159090809Y-123146794D01*
X159139580Y-123112645D01*
X159199120Y-123112645D01*
X159247892Y-123146796D01*
X159272217Y-123178497D01*
X159356590Y-123243238D01*
X159397659Y-123274751D01*
X159543738Y-123335259D01*
X159700500Y-123355897D01*
X159852735Y-123335855D01*
X159912325Y-123346698D01*
X159954447Y-123390222D01*
X159963335Y-123450135D01*
X159935661Y-123504012D01*
X158682940Y-124756732D01*
X158676574Y-124762565D01*
X158646804Y-124787545D01*
X158627371Y-124821204D01*
X158622734Y-124828484D01*
X158600444Y-124860318D01*
X158600053Y-124861780D01*
X158590168Y-124885645D01*
X158589410Y-124886956D01*
X158582662Y-124925223D01*
X158580794Y-124933649D01*
X158570735Y-124971191D01*
X158574123Y-125009904D01*
X158574500Y-125018534D01*
X158574500Y-127323529D01*
X158564290Y-127367316D01*
X158535767Y-127402071D01*
X158471717Y-127451217D01*
X158375464Y-127576658D01*
X158314955Y-127722738D01*
X158294318Y-127879500D01*
X158314955Y-128036261D01*
X158341348Y-128099979D01*
X158355175Y-128133360D01*
X158359867Y-128144686D01*
X158364817Y-128205052D01*
X158333679Y-128257004D01*
X158278108Y-128281095D01*
X158248868Y-128283975D01*
X158060272Y-128341185D01*
X157886463Y-128434088D01*
X157734117Y-128559117D01*
X157609088Y-128711463D01*
X157516185Y-128885272D01*
X157458975Y-129073868D01*
X157442868Y-129237409D01*
X157424438Y-129285896D01*
X157384019Y-129318408D01*
X157332709Y-129326019D01*
X157284593Y-129306640D01*
X157252882Y-129265592D01*
X157224536Y-129197159D01*
X157224535Y-129197158D01*
X157224535Y-129197157D01*
X157128282Y-129071717D01*
X157002842Y-128975465D01*
X157002841Y-128975464D01*
X156961612Y-128958386D01*
X156917184Y-128921924D01*
X156900500Y-128866923D01*
X156900500Y-127932662D01*
X156912190Y-127885994D01*
X156944499Y-127850346D01*
X156989797Y-127834139D01*
X157037383Y-127841197D01*
X157143238Y-127885044D01*
X157300000Y-127905682D01*
X157456762Y-127885044D01*
X157602841Y-127824536D01*
X157728282Y-127728282D01*
X157824536Y-127602841D01*
X157885044Y-127456762D01*
X157905682Y-127300000D01*
X157885044Y-127143238D01*
X157824536Y-126997159D01*
X157799825Y-126964955D01*
X157728282Y-126871717D01*
X157602841Y-126775464D01*
X157456761Y-126714955D01*
X157300000Y-126694318D01*
X157143238Y-126714955D01*
X157076901Y-126742433D01*
X157037383Y-126758802D01*
X156989797Y-126765861D01*
X156944499Y-126749654D01*
X156912190Y-126714006D01*
X156900500Y-126667338D01*
X156900500Y-121525334D01*
X156908036Y-121487448D01*
X156929496Y-121455330D01*
X157302736Y-121082090D01*
X158437034Y-119947790D01*
X158475217Y-119924049D01*
X158519961Y-119919644D01*
X158530115Y-119920981D01*
X158531185Y-119921122D01*
X158578527Y-119940735D01*
X158609721Y-119981390D01*
X158616409Y-120032196D01*
X158594318Y-120199999D01*
X158614955Y-120356761D01*
X158675464Y-120502841D01*
X158771717Y-120628282D01*
X158845692Y-120685044D01*
X158897159Y-120724536D01*
X159043238Y-120785044D01*
X159200000Y-120805682D01*
X159356762Y-120785044D01*
X159502841Y-120724536D01*
X159628282Y-120628282D01*
X159724536Y-120502841D01*
X159785044Y-120356762D01*
X159805682Y-120200000D01*
X159785044Y-120043238D01*
X159724536Y-119897159D01*
X159694941Y-119858590D01*
X159628282Y-119771717D01*
X159502841Y-119675464D01*
X159356761Y-119614955D01*
X159268821Y-119603378D01*
X159221476Y-119583767D01*
X159190279Y-119543111D01*
X159183590Y-119492303D01*
X159185044Y-119481262D01*
X159205682Y-119324500D01*
X159185044Y-119167738D01*
X159124536Y-119021659D01*
X159081081Y-118965027D01*
X159028282Y-118896217D01*
X158902841Y-118799964D01*
X158756761Y-118739455D01*
X158600000Y-118718818D01*
X158443238Y-118739455D01*
X158297158Y-118799964D01*
X158171717Y-118896217D01*
X158075464Y-119021658D01*
X158014955Y-119167738D01*
X157994318Y-119324500D01*
X158004855Y-119404541D01*
X158000448Y-119449285D01*
X157976706Y-119487466D01*
X156366073Y-121098099D01*
X156318549Y-121124509D01*
X156264246Y-121121841D01*
X156219541Y-121090899D01*
X156197916Y-121041018D01*
X156185044Y-120943238D01*
X156124536Y-120797159D01*
X156068527Y-120724166D01*
X156028282Y-120671717D01*
X155902841Y-120575464D01*
X155756761Y-120514955D01*
X155600000Y-120494318D01*
X155443238Y-120514955D01*
X155297158Y-120575464D01*
X155171717Y-120671717D01*
X155075464Y-120797158D01*
X155014955Y-120943238D01*
X154994318Y-121099999D01*
X155014955Y-121256761D01*
X155075464Y-121402841D01*
X155171717Y-121528282D01*
X155182765Y-121536759D01*
X155297159Y-121624536D01*
X155419120Y-121675054D01*
X155443238Y-121685044D01*
X155588422Y-121704158D01*
X155632284Y-121721215D01*
X155663314Y-121756598D01*
X155674500Y-121802311D01*
X155674500Y-122306431D01*
X155659571Y-122358710D01*
X155619286Y-122395221D01*
X155565796Y-122404954D01*
X155515234Y-122384974D01*
X155502841Y-122375464D01*
X155502839Y-122375463D01*
X155356761Y-122314955D01*
X155200000Y-122294318D01*
X155043238Y-122314955D01*
X154897158Y-122375464D01*
X154771717Y-122471717D01*
X154675464Y-122597158D01*
X154614955Y-122743238D01*
X154594318Y-122899999D01*
X154614955Y-123056761D01*
X154675464Y-123202841D01*
X154771717Y-123328282D01*
X154823207Y-123367791D01*
X154897159Y-123424536D01*
X155043238Y-123485044D01*
X155200000Y-123505682D01*
X155356762Y-123485044D01*
X155502841Y-123424536D01*
X155515234Y-123415025D01*
X155565796Y-123395046D01*
X155619286Y-123404779D01*
X155659571Y-123441290D01*
X155674500Y-123493569D01*
X155674500Y-126854272D01*
X155663314Y-126899985D01*
X155632284Y-126935368D01*
X155588422Y-126952424D01*
X155576349Y-126954014D01*
X155493238Y-126964955D01*
X155347158Y-127025464D01*
X155221717Y-127121717D01*
X155125464Y-127247158D01*
X155064955Y-127393238D01*
X155044318Y-127550000D01*
X155064955Y-127706761D01*
X155125464Y-127852841D01*
X155221717Y-127978282D01*
X155303171Y-128040783D01*
X155347159Y-128074536D01*
X155493238Y-128135044D01*
X155650000Y-128155682D01*
X155806762Y-128135044D01*
X155952841Y-128074536D01*
X156024059Y-128019888D01*
X156088623Y-127970348D01*
X156090949Y-127973379D01*
X156121765Y-127952054D01*
X156182325Y-127953047D01*
X156230972Y-127989128D01*
X156249500Y-128046792D01*
X156249500Y-129067068D01*
X156244246Y-129098891D01*
X156229042Y-129127335D01*
X156175464Y-129197158D01*
X156114955Y-129343238D01*
X156094318Y-129500000D01*
X156114955Y-129656761D01*
X156175464Y-129802841D01*
X156271717Y-129928282D01*
X156340268Y-129980882D01*
X156397159Y-130024536D01*
X156543238Y-130085044D01*
X156700000Y-130105682D01*
X156856762Y-130085044D01*
X157002841Y-130024536D01*
X157128282Y-129928282D01*
X157224536Y-129802841D01*
X157285044Y-129656762D01*
X157295355Y-129578436D01*
X157316164Y-129529562D01*
X157359242Y-129498478D01*
X157412185Y-129494137D01*
X157459752Y-129517787D01*
X157488245Y-129562620D01*
X157516186Y-129654729D01*
X157609088Y-129828536D01*
X157647109Y-129874864D01*
X157734117Y-129980883D01*
X157861037Y-130085044D01*
X157886463Y-130105911D01*
X158060272Y-130198814D01*
X158154570Y-130227418D01*
X158248868Y-130256024D01*
X158445000Y-130275341D01*
X158641132Y-130256024D01*
X158829727Y-130198814D01*
X159003538Y-130105910D01*
X159155883Y-129980883D01*
X159280910Y-129828538D01*
X159281047Y-129828282D01*
X159288190Y-129814919D01*
X159323773Y-129777176D01*
X159373557Y-129762607D01*
X159423874Y-129775211D01*
X159460911Y-129811528D01*
X159474500Y-129861588D01*
X159474500Y-130324166D01*
X159466964Y-130362052D01*
X159445504Y-130394170D01*
X158094170Y-131745504D01*
X158062052Y-131766964D01*
X158024166Y-131774500D01*
X152355971Y-131774500D01*
X152312184Y-131764290D01*
X152277429Y-131735767D01*
X152228282Y-131671717D01*
X152102841Y-131575464D01*
X151956761Y-131514955D01*
X151800000Y-131494318D01*
X151643238Y-131514955D01*
X151497158Y-131575464D01*
X151371717Y-131671717D01*
X151275464Y-131797158D01*
X151214955Y-131943238D01*
X151194318Y-132099999D01*
X151214955Y-132256761D01*
X151275464Y-132402841D01*
X151371717Y-132528282D01*
X151467971Y-132602139D01*
X151497159Y-132624536D01*
X151643238Y-132685044D01*
X151800000Y-132705682D01*
X151956762Y-132685044D01*
X152102841Y-132624536D01*
X152228282Y-132528282D01*
X152228281Y-132528282D01*
X152277429Y-132464233D01*
X152312184Y-132435710D01*
X152355971Y-132425500D01*
X158181466Y-132425500D01*
X158190093Y-132425876D01*
X158203357Y-132427037D01*
X158228805Y-132429264D01*
X158228805Y-132429263D01*
X158228807Y-132429264D01*
X158266359Y-132419201D01*
X158274777Y-132417335D01*
X158313045Y-132410588D01*
X158314346Y-132409836D01*
X158338232Y-132399942D01*
X158339684Y-132399554D01*
X158371529Y-132377254D01*
X158378785Y-132372632D01*
X158412455Y-132353194D01*
X158437442Y-132323414D01*
X158443254Y-132317070D01*
X160017066Y-130743258D01*
X160023410Y-130737444D01*
X160053194Y-130712455D01*
X160072632Y-130678785D01*
X160077254Y-130671529D01*
X160099554Y-130639684D01*
X160099942Y-130638232D01*
X160109838Y-130614343D01*
X160110588Y-130613045D01*
X160117335Y-130574777D01*
X160119204Y-130566348D01*
X160129264Y-130528806D01*
X160125877Y-130490092D01*
X160125500Y-130481463D01*
X160125500Y-128133360D01*
X160144028Y-128075695D01*
X160192678Y-128039614D01*
X160253239Y-128038623D01*
X160303042Y-128073093D01*
X160406395Y-128207787D01*
X160470537Y-128257004D01*
X160531837Y-128304041D01*
X160677916Y-128364549D01*
X160834678Y-128385187D01*
X160991440Y-128364549D01*
X161137519Y-128304041D01*
X161262960Y-128207787D01*
X161359214Y-128082346D01*
X161419722Y-127936267D01*
X161439245Y-127787971D01*
X161443698Y-127778287D01*
X161438806Y-127767702D01*
X161419722Y-127622743D01*
X161359214Y-127476664D01*
X161312324Y-127415555D01*
X161262960Y-127351222D01*
X161137519Y-127254969D01*
X160991439Y-127194460D01*
X160834678Y-127173823D01*
X160677916Y-127194460D01*
X160531836Y-127254969D01*
X160406395Y-127351222D01*
X160303042Y-127485917D01*
X160253239Y-127520387D01*
X160192678Y-127519396D01*
X160144028Y-127483315D01*
X160125500Y-127425650D01*
X160125500Y-125247753D01*
X160133036Y-125209867D01*
X160154496Y-125177749D01*
X160472781Y-124859464D01*
X161430924Y-123901319D01*
X161481381Y-123874274D01*
X161538376Y-123879682D01*
X161582847Y-123915737D01*
X161599922Y-123970382D01*
X161623061Y-126399998D01*
X161623061Y-126399999D01*
X161623080Y-126401956D01*
X161635954Y-127753836D01*
X161629013Y-127776882D01*
X161636394Y-127799951D01*
X161641326Y-128317796D01*
X161642585Y-128449999D01*
X161642604Y-128451956D01*
X161663410Y-130636635D01*
X161663467Y-130642572D01*
X161679251Y-132299999D01*
X161679270Y-132301957D01*
X161686628Y-133074559D01*
X161673682Y-133124455D01*
X161637405Y-133161079D01*
X161587633Y-133174500D01*
X134524500Y-133174500D01*
X134475000Y-133161237D01*
X134438763Y-133125000D01*
X134425500Y-133075500D01*
X134425500Y-131601235D01*
X134439585Y-131550339D01*
X134477832Y-131513925D01*
X134529358Y-131502354D01*
X134579502Y-131518920D01*
X134580448Y-131519552D01*
X134646769Y-131563867D01*
X134705252Y-131575500D01*
X136094747Y-131575500D01*
X136094748Y-131575500D01*
X136153231Y-131563867D01*
X136219552Y-131519552D01*
X136263867Y-131453231D01*
X136275500Y-131394748D01*
X136275500Y-130574500D01*
X136288763Y-130525000D01*
X136325000Y-130488763D01*
X136374500Y-130475500D01*
X138831466Y-130475500D01*
X138840093Y-130475876D01*
X138853357Y-130477037D01*
X138878805Y-130479264D01*
X138878805Y-130479263D01*
X138878807Y-130479264D01*
X138916359Y-130469201D01*
X138924777Y-130467335D01*
X138963045Y-130460588D01*
X138964346Y-130459836D01*
X138988232Y-130449942D01*
X138989684Y-130449554D01*
X139021529Y-130427254D01*
X139028785Y-130422632D01*
X139062455Y-130403194D01*
X139087442Y-130373414D01*
X139093254Y-130367070D01*
X141567066Y-127893258D01*
X141573410Y-127887444D01*
X141603194Y-127862455D01*
X141622632Y-127828785D01*
X141627254Y-127821529D01*
X141649554Y-127789684D01*
X141649942Y-127788232D01*
X141659838Y-127764343D01*
X141660588Y-127763045D01*
X141667335Y-127724777D01*
X141669201Y-127716359D01*
X141679264Y-127678807D01*
X141678629Y-127671554D01*
X141675877Y-127640096D01*
X141675500Y-127631466D01*
X141675500Y-123605971D01*
X141685710Y-123562184D01*
X141714233Y-123527429D01*
X141778282Y-123478282D01*
X141833990Y-123405682D01*
X141874536Y-123352841D01*
X141884036Y-123329903D01*
X141917309Y-123287698D01*
X141967733Y-123269096D01*
X142020445Y-123279581D01*
X142059911Y-123316064D01*
X142074500Y-123367791D01*
X142074500Y-129774166D01*
X142066964Y-129812052D01*
X142045503Y-129844170D01*
X141612965Y-130276706D01*
X141574785Y-130300448D01*
X141530041Y-130304855D01*
X141450000Y-130294318D01*
X141293238Y-130314955D01*
X141147158Y-130375464D01*
X141021717Y-130471717D01*
X140925464Y-130597158D01*
X140864955Y-130743238D01*
X140844318Y-130900000D01*
X140864955Y-131056761D01*
X140925464Y-131202841D01*
X141021717Y-131328282D01*
X141108337Y-131394747D01*
X141147159Y-131424536D01*
X141293238Y-131485044D01*
X141450000Y-131505682D01*
X141606762Y-131485044D01*
X141752841Y-131424536D01*
X141878282Y-131328282D01*
X141974536Y-131202841D01*
X142035044Y-131056762D01*
X142055682Y-130900000D01*
X142045143Y-130819954D01*
X142049550Y-130775214D01*
X142073290Y-130737034D01*
X142110324Y-130700000D01*
X152394318Y-130700000D01*
X152414955Y-130856761D01*
X152475464Y-131002841D01*
X152571717Y-131128282D01*
X152667971Y-131202139D01*
X152697159Y-131224536D01*
X152843238Y-131285044D01*
X153000000Y-131305682D01*
X153156762Y-131285044D01*
X153302841Y-131224536D01*
X153428282Y-131128282D01*
X153524536Y-131002841D01*
X153585044Y-130856762D01*
X153605682Y-130700000D01*
X153585044Y-130543238D01*
X153524536Y-130397159D01*
X153453709Y-130304855D01*
X153428282Y-130271717D01*
X153302841Y-130175464D01*
X153156761Y-130114955D01*
X153020636Y-130097034D01*
X153000000Y-130094318D01*
X152999999Y-130094318D01*
X152843238Y-130114955D01*
X152697158Y-130175464D01*
X152571717Y-130271717D01*
X152475464Y-130397158D01*
X152414955Y-130543238D01*
X152394318Y-130700000D01*
X142110324Y-130700000D01*
X142617066Y-130193258D01*
X142623410Y-130187444D01*
X142653194Y-130162455D01*
X142672632Y-130128785D01*
X142677254Y-130121529D01*
X142699554Y-130089684D01*
X142699942Y-130088232D01*
X142709838Y-130064343D01*
X142710588Y-130063045D01*
X142717335Y-130024777D01*
X142719204Y-130016348D01*
X142722063Y-130005681D01*
X142729264Y-129978807D01*
X142725876Y-129940090D01*
X142725500Y-129931463D01*
X142725500Y-105364143D01*
X142742184Y-105309142D01*
X142786614Y-105272679D01*
X142857690Y-105243238D01*
X142902841Y-105224536D01*
X142902841Y-105224535D01*
X142912625Y-105220483D01*
X142960214Y-105213424D01*
X143005512Y-105229631D01*
X143037821Y-105265279D01*
X143049511Y-105311947D01*
X143049511Y-119831976D01*
X143049134Y-119840606D01*
X143045518Y-119881930D01*
X143048139Y-119908543D01*
X143040817Y-119939951D01*
X143039456Y-119943236D01*
X143018818Y-120100000D01*
X143039455Y-120256761D01*
X143099964Y-120402841D01*
X143196217Y-120528282D01*
X143257707Y-120575464D01*
X143321659Y-120624536D01*
X143467738Y-120685044D01*
X143624500Y-120705682D01*
X143781262Y-120685044D01*
X143927341Y-120624536D01*
X144052782Y-120528282D01*
X144149036Y-120402841D01*
X144209544Y-120256762D01*
X144230182Y-120100000D01*
X144209544Y-119943238D01*
X144149036Y-119797159D01*
X144088705Y-119718534D01*
X144052782Y-119671717D01*
X143927341Y-119575464D01*
X143769220Y-119509968D01*
X143769599Y-119509050D01*
X143742726Y-119498600D01*
X143711697Y-119463217D01*
X143700511Y-119417504D01*
X143700511Y-104093545D01*
X143700888Y-104084915D01*
X143701829Y-104074166D01*
X143704275Y-104046204D01*
X143694214Y-104008658D01*
X143692346Y-104000231D01*
X143691002Y-103992607D01*
X143685599Y-103961966D01*
X143684845Y-103960661D01*
X143674954Y-103936779D01*
X143674953Y-103936776D01*
X143674565Y-103935327D01*
X143652271Y-103903488D01*
X143647644Y-103896226D01*
X143628205Y-103862556D01*
X143598439Y-103837579D01*
X143592071Y-103831745D01*
X142754496Y-102994170D01*
X142733036Y-102962052D01*
X142725500Y-102924166D01*
X142725500Y-89516838D01*
X142740429Y-89464559D01*
X142780713Y-89428048D01*
X142834203Y-89418315D01*
X142884767Y-89438296D01*
X142997157Y-89524535D01*
X142997158Y-89524535D01*
X142997159Y-89524536D01*
X143143238Y-89585044D01*
X143300000Y-89605682D01*
X143456762Y-89585044D01*
X143602841Y-89524536D01*
X143728282Y-89428282D01*
X143750713Y-89399049D01*
X143796958Y-89338782D01*
X143846762Y-89304312D01*
X143907322Y-89305303D01*
X143955972Y-89341384D01*
X143974500Y-89399049D01*
X143974500Y-90874166D01*
X143966964Y-90912052D01*
X143945503Y-90944170D01*
X143157950Y-91731721D01*
X143151585Y-91737554D01*
X143121815Y-91762534D01*
X143102382Y-91796193D01*
X143097745Y-91803473D01*
X143075455Y-91835307D01*
X143075064Y-91836769D01*
X143065179Y-91860634D01*
X143064421Y-91861945D01*
X143057673Y-91900212D01*
X143055805Y-91908638D01*
X143045746Y-91946180D01*
X143049134Y-91984893D01*
X143049511Y-91993523D01*
X143049511Y-94156477D01*
X143049134Y-94165107D01*
X143045746Y-94203818D01*
X143055806Y-94241361D01*
X143057674Y-94249789D01*
X143062699Y-94278282D01*
X143064423Y-94288056D01*
X143065177Y-94289363D01*
X143075066Y-94313236D01*
X143075457Y-94314696D01*
X143097743Y-94346525D01*
X143102381Y-94353805D01*
X143121814Y-94387463D01*
X143121816Y-94387465D01*
X143121817Y-94387466D01*
X143151594Y-94412452D01*
X143157949Y-94418275D01*
X144445504Y-95705830D01*
X144466964Y-95737948D01*
X144474500Y-95775834D01*
X144474500Y-122717437D01*
X144463314Y-122763151D01*
X144432283Y-122798534D01*
X144404946Y-122809163D01*
X144405280Y-122809968D01*
X144247158Y-122875464D01*
X144121717Y-122971717D01*
X144025464Y-123097158D01*
X143964955Y-123243238D01*
X143944318Y-123400000D01*
X143964955Y-123556761D01*
X144025464Y-123702841D01*
X144121717Y-123828282D01*
X144166657Y-123862765D01*
X144247159Y-123924536D01*
X144393238Y-123985044D01*
X144550000Y-124005682D01*
X144706762Y-123985044D01*
X144837614Y-123930842D01*
X144885204Y-123923784D01*
X144930501Y-123939991D01*
X144962810Y-123975639D01*
X144974500Y-124022307D01*
X144974500Y-129115968D01*
X144974123Y-129124598D01*
X144970735Y-129163310D01*
X144979211Y-129194943D01*
X144981737Y-129233485D01*
X144959816Y-129399999D01*
X144980453Y-129556761D01*
X145040962Y-129702841D01*
X145137215Y-129828282D01*
X145227613Y-129897646D01*
X145262657Y-129924536D01*
X145408736Y-129985044D01*
X145565498Y-130005682D01*
X145722260Y-129985044D01*
X145868339Y-129924536D01*
X145993780Y-129828282D01*
X146090034Y-129702841D01*
X146150542Y-129556762D01*
X146171180Y-129400000D01*
X146150542Y-129243238D01*
X146090034Y-129097159D01*
X146051432Y-129046852D01*
X145993780Y-128971717D01*
X145868339Y-128875464D01*
X145722259Y-128814955D01*
X145711576Y-128813549D01*
X145667715Y-128796491D01*
X145636686Y-128761109D01*
X145625500Y-128715396D01*
X145625500Y-99425834D01*
X145633036Y-99387948D01*
X145654496Y-99355830D01*
X146059188Y-98951138D01*
X146492072Y-98518253D01*
X146498430Y-98512429D01*
X146528194Y-98487455D01*
X146547624Y-98453799D01*
X146552252Y-98446532D01*
X146574554Y-98414684D01*
X146574943Y-98413229D01*
X146584837Y-98389345D01*
X146585588Y-98388045D01*
X146592340Y-98349748D01*
X146594197Y-98341371D01*
X146604263Y-98303807D01*
X146600876Y-98265102D01*
X146600500Y-98256475D01*
X146600500Y-95532662D01*
X146612190Y-95485994D01*
X146644499Y-95450346D01*
X146689797Y-95434139D01*
X146737383Y-95441197D01*
X146843238Y-95485044D01*
X147000000Y-95505682D01*
X147156762Y-95485044D01*
X147302841Y-95424536D01*
X147428282Y-95328282D01*
X147524536Y-95202841D01*
X147585044Y-95056762D01*
X147605682Y-94900000D01*
X147585044Y-94743238D01*
X147524536Y-94597159D01*
X147502139Y-94567971D01*
X147428282Y-94471717D01*
X147302841Y-94375464D01*
X147156761Y-94314955D01*
X147000000Y-94294318D01*
X146843238Y-94314955D01*
X146776901Y-94342433D01*
X146737383Y-94358802D01*
X146689797Y-94365861D01*
X146644499Y-94349654D01*
X146612190Y-94314006D01*
X146600500Y-94267338D01*
X146600500Y-92793953D01*
X146610710Y-92750166D01*
X146639233Y-92715411D01*
X146752781Y-92628283D01*
X146765801Y-92611315D01*
X146827891Y-92530397D01*
X146876661Y-92496247D01*
X146936201Y-92496247D01*
X146984974Y-92530397D01*
X147021718Y-92578283D01*
X147098994Y-92637578D01*
X147147159Y-92674536D01*
X147293238Y-92735044D01*
X147450000Y-92755682D01*
X147606762Y-92735044D01*
X147752841Y-92674536D01*
X147813121Y-92628282D01*
X147835233Y-92611315D01*
X147885797Y-92591334D01*
X147939287Y-92601067D01*
X147979571Y-92637578D01*
X147994500Y-92689857D01*
X147994500Y-95692631D01*
X147982810Y-95739299D01*
X147950501Y-95774947D01*
X147905203Y-95791154D01*
X147857616Y-95784095D01*
X147800153Y-95760293D01*
X147752261Y-95740455D01*
X147595500Y-95719818D01*
X147438738Y-95740455D01*
X147292658Y-95800964D01*
X147167217Y-95897217D01*
X147070964Y-96022658D01*
X147010455Y-96168738D01*
X146989818Y-96325500D01*
X147010455Y-96482261D01*
X147070964Y-96628341D01*
X147167217Y-96753782D01*
X147292657Y-96850035D01*
X147292658Y-96850035D01*
X147292659Y-96850036D01*
X147429607Y-96906762D01*
X147438386Y-96910398D01*
X147482816Y-96946861D01*
X147499500Y-97001862D01*
X147499500Y-99517338D01*
X147487810Y-99564006D01*
X147455501Y-99599654D01*
X147410203Y-99615861D01*
X147362616Y-99608802D01*
X147309243Y-99586694D01*
X147256761Y-99564955D01*
X147100000Y-99544318D01*
X146943238Y-99564955D01*
X146797158Y-99625464D01*
X146671717Y-99721717D01*
X146575464Y-99847158D01*
X146514955Y-99993238D01*
X146494318Y-100149999D01*
X146514955Y-100306761D01*
X146575464Y-100452841D01*
X146671717Y-100578282D01*
X146767971Y-100652139D01*
X146797159Y-100674536D01*
X146910791Y-100721604D01*
X146943238Y-100735044D01*
X147070870Y-100751847D01*
X147099999Y-100764816D01*
X147129128Y-100751847D01*
X147256762Y-100735044D01*
X147362616Y-100691197D01*
X147410203Y-100684139D01*
X147455501Y-100700346D01*
X147487810Y-100735994D01*
X147499500Y-100782662D01*
X147499500Y-100917338D01*
X147487810Y-100964006D01*
X147455501Y-100999654D01*
X147410203Y-101015861D01*
X147362616Y-101008802D01*
X147299745Y-100982760D01*
X147256761Y-100964955D01*
X147144011Y-100950112D01*
X147129128Y-100948152D01*
X147099999Y-100935183D01*
X147070870Y-100948153D01*
X146943238Y-100964955D01*
X146797158Y-101025464D01*
X146671717Y-101121717D01*
X146575464Y-101247158D01*
X146514955Y-101393238D01*
X146494318Y-101549999D01*
X146514955Y-101706761D01*
X146575464Y-101852841D01*
X146671717Y-101978282D01*
X146743578Y-102033422D01*
X146797159Y-102074536D01*
X146943238Y-102135044D01*
X147100000Y-102155682D01*
X147256762Y-102135044D01*
X147362616Y-102091197D01*
X147410203Y-102084139D01*
X147455501Y-102100346D01*
X147487810Y-102135994D01*
X147499500Y-102182662D01*
X147499500Y-120851002D01*
X147482816Y-120906003D01*
X147438386Y-120942465D01*
X147413338Y-120952841D01*
X147297157Y-121000964D01*
X147171719Y-121097216D01*
X147138325Y-121140736D01*
X147089553Y-121174886D01*
X147030013Y-121174886D01*
X146981241Y-121140735D01*
X146945958Y-121094753D01*
X146930754Y-121066308D01*
X146925500Y-121034486D01*
X146925500Y-115675473D01*
X146935710Y-115631686D01*
X146964233Y-115596931D01*
X147028282Y-115547784D01*
X147046121Y-115524536D01*
X147124536Y-115422343D01*
X147185044Y-115276264D01*
X147205682Y-115119502D01*
X147185044Y-114962740D01*
X147124536Y-114816661D01*
X147097547Y-114781488D01*
X147028282Y-114691219D01*
X146902841Y-114594966D01*
X146756761Y-114534457D01*
X146600000Y-114513820D01*
X146443238Y-114534457D01*
X146297158Y-114594966D01*
X146171717Y-114691219D01*
X146075464Y-114816660D01*
X146014955Y-114962740D01*
X145994318Y-115119502D01*
X146014955Y-115276263D01*
X146075464Y-115422343D01*
X146171717Y-115547784D01*
X146235767Y-115596931D01*
X146264290Y-115631686D01*
X146274500Y-115675473D01*
X146274500Y-120877279D01*
X146257816Y-120932280D01*
X146213387Y-120968741D01*
X146207214Y-120971298D01*
X146197157Y-120975464D01*
X146071717Y-121071717D01*
X145975464Y-121197158D01*
X145914955Y-121343238D01*
X145894318Y-121500000D01*
X145914955Y-121656761D01*
X145975464Y-121802841D01*
X146071717Y-121928282D01*
X146157261Y-121993921D01*
X146197159Y-122024536D01*
X146343238Y-122085044D01*
X146500000Y-122105682D01*
X146656762Y-122085044D01*
X146802841Y-122024536D01*
X146928282Y-121928282D01*
X146961674Y-121884763D01*
X147010445Y-121850613D01*
X147069985Y-121850613D01*
X147118758Y-121884764D01*
X147171717Y-121953782D01*
X147260094Y-122021595D01*
X147297159Y-122050036D01*
X147443238Y-122110544D01*
X147600000Y-122131182D01*
X147756762Y-122110544D01*
X147902841Y-122050036D01*
X147921383Y-122035807D01*
X148015233Y-121963796D01*
X148065797Y-121943815D01*
X148119287Y-121953548D01*
X148159571Y-121990059D01*
X148174500Y-122042338D01*
X148174500Y-126374165D01*
X148166964Y-126412051D01*
X148145504Y-126444169D01*
X147462966Y-127126706D01*
X147424785Y-127150448D01*
X147380041Y-127154855D01*
X147300000Y-127144318D01*
X147143238Y-127164955D01*
X146997158Y-127225464D01*
X146871717Y-127321717D01*
X146775464Y-127447158D01*
X146714955Y-127593238D01*
X146694318Y-127750000D01*
X146714955Y-127906761D01*
X146775464Y-128052841D01*
X146871717Y-128178282D01*
X146966216Y-128250793D01*
X146997159Y-128274536D01*
X147143238Y-128335044D01*
X147300000Y-128355682D01*
X147456762Y-128335044D01*
X147602841Y-128274536D01*
X147727839Y-128178622D01*
X147728281Y-128178283D01*
X147729416Y-128176804D01*
X147804719Y-128078666D01*
X147845370Y-128047473D01*
X147896178Y-128040783D01*
X147943523Y-128060392D01*
X147974721Y-128101047D01*
X147975464Y-128102841D01*
X148071717Y-128228282D01*
X148162335Y-128297815D01*
X148197159Y-128324536D01*
X148343238Y-128385044D01*
X148500000Y-128405682D01*
X148656762Y-128385044D01*
X148802841Y-128324536D01*
X148928282Y-128228282D01*
X149024536Y-128102841D01*
X149085044Y-127956762D01*
X149105682Y-127800000D01*
X149095143Y-127719954D01*
X149099550Y-127675214D01*
X149123290Y-127637034D01*
X149217066Y-127543258D01*
X149223410Y-127537444D01*
X149253194Y-127512455D01*
X149272632Y-127478785D01*
X149277254Y-127471529D01*
X149299554Y-127439684D01*
X149299942Y-127438232D01*
X149309838Y-127414343D01*
X149319320Y-127397923D01*
X149319794Y-127398197D01*
X149330493Y-127375100D01*
X149371861Y-127345666D01*
X149422379Y-127340609D01*
X149468761Y-127361258D01*
X149498808Y-127402182D01*
X149513605Y-127439885D01*
X149641044Y-127660617D01*
X149799944Y-127859871D01*
X149799948Y-127859875D01*
X149799950Y-127859877D01*
X149986783Y-128033232D01*
X150058820Y-128082346D01*
X150197364Y-128176804D01*
X150197365Y-128176804D01*
X150197366Y-128176805D01*
X150426996Y-128287389D01*
X150670542Y-128362513D01*
X150820972Y-128385187D01*
X150922564Y-128400500D01*
X150922565Y-128400500D01*
X151177435Y-128400500D01*
X151177436Y-128400500D01*
X151227839Y-128392902D01*
X151429458Y-128362513D01*
X151673004Y-128287389D01*
X151902634Y-128176805D01*
X152113217Y-128033232D01*
X152300050Y-127859877D01*
X152320576Y-127834139D01*
X152458955Y-127660617D01*
X152458954Y-127660617D01*
X152458959Y-127660612D01*
X152586393Y-127439888D01*
X152679508Y-127202637D01*
X152736222Y-126954157D01*
X152755268Y-126700000D01*
X152736222Y-126445843D01*
X152679508Y-126197363D01*
X152608112Y-126015450D01*
X152586395Y-125960116D01*
X152586393Y-125960112D01*
X152458959Y-125739388D01*
X152458957Y-125739385D01*
X152458955Y-125739382D01*
X152300055Y-125540128D01*
X152300050Y-125540123D01*
X152113217Y-125366768D01*
X152033855Y-125312660D01*
X151902635Y-125223195D01*
X151673006Y-125112612D01*
X151673004Y-125112611D01*
X151429458Y-125037487D01*
X151429456Y-125037486D01*
X151429454Y-125037486D01*
X151177436Y-124999500D01*
X151177435Y-124999500D01*
X150974500Y-124999500D01*
X150925000Y-124986237D01*
X150888763Y-124950000D01*
X150875500Y-124900500D01*
X150875500Y-124555203D01*
X150890429Y-124502924D01*
X150930713Y-124466413D01*
X150984204Y-124456680D01*
X151034766Y-124476660D01*
X151097159Y-124524536D01*
X151243238Y-124585044D01*
X151400000Y-124605682D01*
X151556762Y-124585044D01*
X151702841Y-124524536D01*
X151828282Y-124428282D01*
X151924536Y-124302841D01*
X151985044Y-124156762D01*
X152005682Y-124000000D01*
X151985044Y-123843238D01*
X151924536Y-123697159D01*
X151861251Y-123614684D01*
X151828282Y-123571717D01*
X151706513Y-123478282D01*
X151702841Y-123475464D01*
X151702840Y-123475463D01*
X151692501Y-123467530D01*
X151694439Y-123465003D01*
X151667184Y-123442636D01*
X151650499Y-123387634D01*
X151650499Y-97548887D01*
X151666003Y-97495694D01*
X151707660Y-97459162D01*
X151762420Y-97450734D01*
X151800000Y-97455682D01*
X151956762Y-97435044D01*
X152102841Y-97374536D01*
X152119444Y-97361795D01*
X152166786Y-97342185D01*
X152217594Y-97348873D01*
X152258251Y-97380069D01*
X152277863Y-97427413D01*
X152271175Y-97478221D01*
X152264956Y-97493236D01*
X152244318Y-97650000D01*
X152264955Y-97806761D01*
X152325464Y-97952841D01*
X152421717Y-98078282D01*
X152435767Y-98089063D01*
X152464290Y-98123818D01*
X152474500Y-98167605D01*
X152474500Y-118852779D01*
X152457816Y-118907780D01*
X152413387Y-118944241D01*
X152407214Y-118946798D01*
X152397157Y-118950964D01*
X152271717Y-119047217D01*
X152175464Y-119172658D01*
X152114955Y-119318738D01*
X152094318Y-119475500D01*
X152114955Y-119632261D01*
X152175464Y-119778341D01*
X152271717Y-119903782D01*
X152335653Y-119952841D01*
X152397159Y-120000036D01*
X152543238Y-120060544D01*
X152700000Y-120081182D01*
X152856762Y-120060544D01*
X153002841Y-120000036D01*
X153128282Y-119903782D01*
X153224536Y-119778341D01*
X153280717Y-119642707D01*
X153312600Y-119601530D01*
X153360972Y-119582231D01*
X153412446Y-119590153D01*
X153452777Y-119623104D01*
X153470803Y-119671965D01*
X153474123Y-119709904D01*
X153474500Y-119718534D01*
X153474500Y-128134486D01*
X153469246Y-128166308D01*
X153454042Y-128194753D01*
X153375464Y-128297158D01*
X153314955Y-128443238D01*
X153294318Y-128600000D01*
X153314955Y-128756761D01*
X153375464Y-128902841D01*
X153471717Y-129028282D01*
X153563738Y-129098891D01*
X153597159Y-129124536D01*
X153743238Y-129185044D01*
X153900000Y-129205682D01*
X154056762Y-129185044D01*
X154202841Y-129124536D01*
X154328282Y-129028282D01*
X154424536Y-128902841D01*
X154485044Y-128756762D01*
X154505682Y-128600000D01*
X154485044Y-128443238D01*
X154424536Y-128297159D01*
X154381026Y-128240455D01*
X154328282Y-128171717D01*
X154202842Y-128075464D01*
X154195555Y-128072446D01*
X154186612Y-128068741D01*
X154142184Y-128032280D01*
X154125500Y-127977279D01*
X154125500Y-120089146D01*
X154136686Y-120043433D01*
X154167716Y-120008050D01*
X154211578Y-119990993D01*
X154245640Y-119986508D01*
X154256762Y-119985044D01*
X154402841Y-119924536D01*
X154528282Y-119828282D01*
X154624536Y-119702841D01*
X154685044Y-119556762D01*
X154705682Y-119400000D01*
X154685044Y-119243238D01*
X154624536Y-119097159D01*
X154566603Y-119021659D01*
X154528282Y-118971717D01*
X154402841Y-118875464D01*
X154256761Y-118814955D01*
X154100000Y-118794318D01*
X153943238Y-118814955D01*
X153797158Y-118875464D01*
X153671717Y-118971717D01*
X153575464Y-119097158D01*
X153514955Y-119243238D01*
X153493183Y-119408620D01*
X153470310Y-119459993D01*
X153423147Y-119490621D01*
X153366912Y-119490621D01*
X153319750Y-119459993D01*
X153296877Y-119408620D01*
X153285044Y-119318738D01*
X153274573Y-119293460D01*
X153224536Y-119172659D01*
X153166603Y-119097159D01*
X153145958Y-119070253D01*
X153130754Y-119041808D01*
X153125500Y-119009986D01*
X153125500Y-115202157D01*
X153134551Y-115171601D01*
X153125500Y-115142894D01*
X153125500Y-98244337D01*
X153135700Y-98200569D01*
X153164199Y-98165821D01*
X153164607Y-98165507D01*
X153165200Y-98165052D01*
X153215765Y-98145049D01*
X153269268Y-98154769D01*
X153309565Y-98191281D01*
X153324500Y-98243569D01*
X153324500Y-115131466D01*
X153324123Y-115140096D01*
X153323123Y-115151524D01*
X153315733Y-115169364D01*
X153320127Y-115176535D01*
X153330795Y-115216350D01*
X153332663Y-115224778D01*
X153339411Y-115263042D01*
X153339412Y-115263045D01*
X153340166Y-115264352D01*
X153350055Y-115288225D01*
X153350446Y-115289685D01*
X153372732Y-115321514D01*
X153377370Y-115328794D01*
X153396803Y-115362452D01*
X153396805Y-115362454D01*
X153396806Y-115362455D01*
X153426583Y-115387441D01*
X153432938Y-115393264D01*
X154876706Y-116837032D01*
X154900448Y-116875213D01*
X154904855Y-116919957D01*
X154894318Y-116999999D01*
X154914955Y-117156761D01*
X154975464Y-117302841D01*
X155071717Y-117428282D01*
X155162131Y-117497658D01*
X155197159Y-117524536D01*
X155343238Y-117585044D01*
X155500000Y-117605682D01*
X155656762Y-117585044D01*
X155802841Y-117524536D01*
X155928282Y-117428282D01*
X156024536Y-117302841D01*
X156085044Y-117156762D01*
X156105682Y-117000000D01*
X156085044Y-116843238D01*
X156024536Y-116697159D01*
X156002139Y-116667970D01*
X155928282Y-116571717D01*
X155802841Y-116475464D01*
X155656761Y-116414955D01*
X155520637Y-116397034D01*
X155500000Y-116394318D01*
X155499999Y-116394318D01*
X155419957Y-116404855D01*
X155375213Y-116400448D01*
X155337032Y-116376706D01*
X154004496Y-115044170D01*
X153983036Y-115012052D01*
X153975500Y-114974166D01*
X153975500Y-114750000D01*
X154994318Y-114750000D01*
X155014955Y-114906761D01*
X155075464Y-115052841D01*
X155171717Y-115178282D01*
X155221329Y-115216350D01*
X155297159Y-115274536D01*
X155443238Y-115335044D01*
X155600000Y-115355682D01*
X155756762Y-115335044D01*
X155902841Y-115274536D01*
X156028282Y-115178282D01*
X156124536Y-115052841D01*
X156185044Y-114906762D01*
X156205682Y-114750000D01*
X156185044Y-114593238D01*
X156124536Y-114447159D01*
X156066828Y-114371952D01*
X156028282Y-114321717D01*
X155902841Y-114225464D01*
X155756761Y-114164955D01*
X155600000Y-114144318D01*
X155443238Y-114164955D01*
X155297158Y-114225464D01*
X155171717Y-114321717D01*
X155075464Y-114447158D01*
X155014955Y-114593238D01*
X154994318Y-114750000D01*
X153975500Y-114750000D01*
X153975500Y-104711951D01*
X153987190Y-104665283D01*
X154019499Y-104629635D01*
X154064797Y-104613428D01*
X154112386Y-104620487D01*
X154122156Y-104624534D01*
X154122159Y-104624536D01*
X154268238Y-104685044D01*
X154425000Y-104705682D01*
X154581762Y-104685044D01*
X154687616Y-104641197D01*
X154735203Y-104634139D01*
X154780501Y-104650346D01*
X154812810Y-104685994D01*
X154824500Y-104732662D01*
X154824500Y-110205663D01*
X154814290Y-110249450D01*
X154785767Y-110284205D01*
X154671717Y-110371717D01*
X154575464Y-110497158D01*
X154514955Y-110643238D01*
X154494318Y-110800000D01*
X154514955Y-110956761D01*
X154575464Y-111102841D01*
X154671717Y-111228282D01*
X154720048Y-111265367D01*
X154797159Y-111324536D01*
X154943238Y-111385044D01*
X155100000Y-111405682D01*
X155256762Y-111385044D01*
X155402841Y-111324536D01*
X155528282Y-111228282D01*
X155624536Y-111102841D01*
X155685044Y-110956762D01*
X155705682Y-110800000D01*
X155685044Y-110643238D01*
X155624536Y-110497159D01*
X155602139Y-110467970D01*
X155528282Y-110371717D01*
X155514233Y-110360937D01*
X155485710Y-110326182D01*
X155475500Y-110282395D01*
X155475500Y-109593569D01*
X155490429Y-109541290D01*
X155530714Y-109504779D01*
X155584204Y-109495046D01*
X155634765Y-109515025D01*
X155647159Y-109524536D01*
X155793238Y-109585044D01*
X155950000Y-109605682D01*
X156106762Y-109585044D01*
X156252841Y-109524536D01*
X156378282Y-109428282D01*
X156474536Y-109302841D01*
X156535044Y-109156762D01*
X156555682Y-109000000D01*
X156535044Y-108843238D01*
X156474536Y-108697159D01*
X156452139Y-108667970D01*
X156378282Y-108571717D01*
X156364233Y-108560937D01*
X156335710Y-108526182D01*
X156325500Y-108482395D01*
X156325500Y-97305971D01*
X156335710Y-97262184D01*
X156364233Y-97227429D01*
X156428282Y-97178282D01*
X156428282Y-97178281D01*
X156524536Y-97052841D01*
X156585044Y-96906762D01*
X156605682Y-96750000D01*
X156585044Y-96593238D01*
X156524536Y-96447159D01*
X156502139Y-96417970D01*
X156428282Y-96321717D01*
X156302841Y-96225464D01*
X156156761Y-96164955D01*
X156000000Y-96144318D01*
X155843238Y-96164955D01*
X155697158Y-96225464D01*
X155571717Y-96321717D01*
X155475464Y-96447158D01*
X155414955Y-96593238D01*
X155394318Y-96750000D01*
X155404715Y-96828978D01*
X155395353Y-96885685D01*
X155356063Y-96927635D01*
X155300090Y-96940687D01*
X155265962Y-96927843D01*
X155264882Y-96930452D01*
X155252842Y-96925464D01*
X155252841Y-96925464D01*
X155196489Y-96902122D01*
X155106761Y-96864955D01*
X154950000Y-96844318D01*
X154793238Y-96864955D01*
X154647157Y-96925464D01*
X154612729Y-96951882D01*
X154558936Y-96972127D01*
X154502961Y-96959075D01*
X154463672Y-96917124D01*
X154454310Y-96860417D01*
X154455682Y-96850000D01*
X154435044Y-96693238D01*
X154374536Y-96547159D01*
X154347433Y-96511837D01*
X154278282Y-96421717D01*
X154152841Y-96325464D01*
X154006761Y-96264955D01*
X153850000Y-96244318D01*
X153693238Y-96264955D01*
X153547158Y-96325464D01*
X153421717Y-96421717D01*
X153325464Y-96547158D01*
X153264955Y-96693238D01*
X153244318Y-96850000D01*
X153265569Y-97011422D01*
X153258880Y-97062230D01*
X153227683Y-97102886D01*
X153180338Y-97122497D01*
X153129530Y-97115808D01*
X153006761Y-97064955D01*
X152850000Y-97044318D01*
X152693238Y-97064955D01*
X152547158Y-97125464D01*
X152530554Y-97138205D01*
X152483209Y-97157814D01*
X152432401Y-97151124D01*
X152391746Y-97119927D01*
X152372136Y-97072581D01*
X152378824Y-97021776D01*
X152385044Y-97006762D01*
X152405682Y-96850000D01*
X152385044Y-96693238D01*
X152324536Y-96547159D01*
X152297433Y-96511837D01*
X152228282Y-96421717D01*
X152102841Y-96325464D01*
X151956761Y-96264955D01*
X151800000Y-96244318D01*
X151643238Y-96264955D01*
X151497158Y-96325464D01*
X151371717Y-96421717D01*
X151275464Y-96547158D01*
X151214955Y-96693238D01*
X151194318Y-96850000D01*
X151204855Y-96930041D01*
X151200448Y-96974785D01*
X151176706Y-97012966D01*
X151107939Y-97081733D01*
X151101573Y-97087566D01*
X151071803Y-97112546D01*
X151052370Y-97146205D01*
X151047733Y-97153485D01*
X151025443Y-97185319D01*
X151025052Y-97186781D01*
X151015167Y-97210646D01*
X151014409Y-97211957D01*
X151007661Y-97250224D01*
X151005793Y-97258650D01*
X150995734Y-97296192D01*
X150999122Y-97334905D01*
X150999499Y-97343535D01*
X150999499Y-108058082D01*
X150986235Y-108107582D01*
X150949999Y-108143819D01*
X150900499Y-108157082D01*
X150850999Y-108143818D01*
X150814762Y-108107582D01*
X150803193Y-108087543D01*
X150773434Y-108062573D01*
X150767066Y-108056739D01*
X150357360Y-107647033D01*
X149935182Y-107224856D01*
X149908773Y-107177334D01*
X149911441Y-107123030D01*
X149942382Y-107078325D01*
X149992265Y-107056700D01*
X149999998Y-107055681D01*
X150000000Y-107055682D01*
X150156762Y-107035044D01*
X150302841Y-106974536D01*
X150428282Y-106878282D01*
X150524536Y-106752841D01*
X150585044Y-106606762D01*
X150605682Y-106450000D01*
X150585044Y-106293238D01*
X150524536Y-106147159D01*
X150483431Y-106093590D01*
X150428282Y-106021717D01*
X150302841Y-105925464D01*
X150156761Y-105864955D01*
X150000000Y-105844318D01*
X149843238Y-105864955D01*
X149697158Y-105925464D01*
X149571717Y-106021717D01*
X149475464Y-106147158D01*
X149414955Y-106293238D01*
X149393299Y-106457734D01*
X149371674Y-106507617D01*
X149326968Y-106538558D01*
X149272665Y-106541226D01*
X149225143Y-106514816D01*
X148674495Y-105964169D01*
X148653036Y-105932052D01*
X148645500Y-105894166D01*
X148645500Y-103575114D01*
X148664028Y-103517449D01*
X148712678Y-103481368D01*
X148773238Y-103480377D01*
X148823042Y-103514847D01*
X148871717Y-103578282D01*
X148964705Y-103649633D01*
X148997159Y-103674536D01*
X149143238Y-103735044D01*
X149300000Y-103755682D01*
X149456762Y-103735044D01*
X149602841Y-103674536D01*
X149728282Y-103578282D01*
X149824536Y-103452841D01*
X149885044Y-103306762D01*
X149905682Y-103150000D01*
X149885044Y-102993238D01*
X149824536Y-102847159D01*
X149799355Y-102814343D01*
X149728282Y-102721717D01*
X149602841Y-102625464D01*
X149456761Y-102564955D01*
X149300000Y-102544318D01*
X149143238Y-102564955D01*
X148997158Y-102625464D01*
X148871717Y-102721717D01*
X148823042Y-102785153D01*
X148773238Y-102819623D01*
X148712678Y-102818632D01*
X148664028Y-102782551D01*
X148645500Y-102724886D01*
X148645500Y-97029080D01*
X148657190Y-96982412D01*
X148689499Y-96946764D01*
X148734797Y-96930557D01*
X148782384Y-96937615D01*
X148837738Y-96960544D01*
X148994500Y-96981182D01*
X149151262Y-96960544D01*
X149297341Y-96900036D01*
X149422782Y-96803782D01*
X149519036Y-96678341D01*
X149579544Y-96532262D01*
X149600182Y-96375500D01*
X149579544Y-96218738D01*
X149519036Y-96072659D01*
X149451810Y-95985048D01*
X149422782Y-95947217D01*
X149297341Y-95850964D01*
X149151261Y-95790455D01*
X148994500Y-95769818D01*
X148837738Y-95790455D01*
X148812369Y-95800964D01*
X148782384Y-95813384D01*
X148734797Y-95820443D01*
X148689499Y-95804236D01*
X148657190Y-95768588D01*
X148645500Y-95721920D01*
X148645500Y-95070355D01*
X148660089Y-95018628D01*
X148699555Y-94982145D01*
X148752267Y-94971660D01*
X148802691Y-94990262D01*
X148835963Y-95032468D01*
X148846026Y-95056761D01*
X148875464Y-95127832D01*
X148971717Y-95253272D01*
X148998035Y-95273466D01*
X149097159Y-95349526D01*
X149243238Y-95410034D01*
X149400000Y-95430672D01*
X149556762Y-95410034D01*
X149702841Y-95349526D01*
X149828282Y-95253272D01*
X149924536Y-95127831D01*
X149985044Y-94981752D01*
X150005682Y-94824990D01*
X149985044Y-94668228D01*
X149924536Y-94522149D01*
X149885838Y-94471717D01*
X149828282Y-94396707D01*
X149702841Y-94300454D01*
X149556761Y-94239945D01*
X149400000Y-94219308D01*
X149243238Y-94239945D01*
X149097158Y-94300454D01*
X148971717Y-94396707D01*
X148875464Y-94522147D01*
X148835964Y-94617511D01*
X148802691Y-94659718D01*
X148752267Y-94678320D01*
X148699555Y-94667835D01*
X148660089Y-94631352D01*
X148645500Y-94579625D01*
X148645500Y-89145365D01*
X148660089Y-89093638D01*
X148699555Y-89057155D01*
X148752267Y-89046670D01*
X148802691Y-89065272D01*
X148835963Y-89107478D01*
X148843342Y-89125291D01*
X148875464Y-89202842D01*
X148971717Y-89328282D01*
X149057778Y-89394318D01*
X149097159Y-89424536D01*
X149243238Y-89485044D01*
X149400000Y-89505682D01*
X149556762Y-89485044D01*
X149702841Y-89424536D01*
X149828282Y-89328282D01*
X149841071Y-89311615D01*
X149877429Y-89264233D01*
X149912184Y-89235710D01*
X149955971Y-89225500D01*
X151481466Y-89225500D01*
X151490093Y-89225876D01*
X151503357Y-89227037D01*
X151528805Y-89229264D01*
X151528805Y-89229263D01*
X151528807Y-89229264D01*
X151566359Y-89219201D01*
X151574777Y-89217335D01*
X151613045Y-89210588D01*
X151614346Y-89209836D01*
X151638232Y-89199942D01*
X151639684Y-89199554D01*
X151671529Y-89177254D01*
X151678785Y-89172632D01*
X151712455Y-89153194D01*
X151737442Y-89123414D01*
X151743254Y-89117070D01*
X154517066Y-86343258D01*
X154523410Y-86337444D01*
X154553194Y-86312455D01*
X154572632Y-86278785D01*
X154577254Y-86271529D01*
X154599554Y-86239684D01*
X154599942Y-86238232D01*
X154609838Y-86214343D01*
X154610588Y-86213045D01*
X154617335Y-86174777D01*
X154619201Y-86166359D01*
X154629264Y-86128807D01*
X154625876Y-86090093D01*
X154625500Y-86081466D01*
X154625500Y-85849000D01*
X154638763Y-85799500D01*
X154675000Y-85763263D01*
X154724500Y-85750000D01*
X154792165Y-85750000D01*
X154849831Y-85768528D01*
G37*
%TD.AperFunction*%
%TA.AperFunction,Conductor*%
G36*
X157426706Y-59238555D02*
G01*
X157462884Y-59274278D01*
X157476560Y-59323247D01*
X157523211Y-63008759D01*
X157512232Y-63055342D01*
X157480683Y-63091331D01*
X157435939Y-63108316D01*
X157388456Y-63102327D01*
X157229799Y-63040862D01*
X157011198Y-63000000D01*
X156788802Y-63000000D01*
X156570200Y-63040862D01*
X156362819Y-63121203D01*
X156246672Y-63193118D01*
X156899999Y-63846445D01*
X157567449Y-63178996D01*
X157599567Y-63157536D01*
X157637453Y-63150000D01*
X157850761Y-63150000D01*
X157900330Y-63163303D01*
X157936577Y-63199638D01*
X157949761Y-63249238D01*
X157949245Y-63463537D01*
X157941663Y-63501295D01*
X157920249Y-63533302D01*
X157253553Y-64199999D01*
X157916716Y-64863162D01*
X157938222Y-64895390D01*
X157945712Y-64933404D01*
X157911334Y-79234932D01*
X157896311Y-79287124D01*
X157856014Y-79323537D01*
X157802572Y-79333211D01*
X157752067Y-79313236D01*
X157702842Y-79275464D01*
X157556761Y-79214955D01*
X157420636Y-79197034D01*
X157400000Y-79194318D01*
X157399999Y-79194318D01*
X157238577Y-79215569D01*
X157187769Y-79208880D01*
X157147113Y-79177683D01*
X157127502Y-79130338D01*
X157134190Y-79079532D01*
X157185044Y-78956762D01*
X157205682Y-78800000D01*
X157185044Y-78643238D01*
X157124536Y-78497159D01*
X157088350Y-78450000D01*
X157028282Y-78371717D01*
X156902841Y-78275464D01*
X156756761Y-78214955D01*
X156600000Y-78194318D01*
X156443238Y-78214955D01*
X156297158Y-78275464D01*
X156171717Y-78371717D01*
X156075464Y-78497158D01*
X156014955Y-78643238D01*
X155994318Y-78800000D01*
X156014955Y-78956761D01*
X156075464Y-79102841D01*
X156171717Y-79228282D01*
X156267970Y-79302139D01*
X156297159Y-79324536D01*
X156443238Y-79385044D01*
X156600000Y-79405682D01*
X156756762Y-79385044D01*
X156756763Y-79385043D01*
X156761422Y-79384430D01*
X156812230Y-79391119D01*
X156852886Y-79422315D01*
X156872497Y-79469661D01*
X156865808Y-79520468D01*
X156814955Y-79643236D01*
X156798176Y-79770693D01*
X156794318Y-79800000D01*
X156796692Y-79818034D01*
X156814955Y-79956761D01*
X156875464Y-80102841D01*
X156971717Y-80228282D01*
X157067970Y-80302139D01*
X157097159Y-80324536D01*
X157243238Y-80385044D01*
X157400000Y-80405682D01*
X157480043Y-80395143D01*
X157524784Y-80399550D01*
X157562966Y-80423292D01*
X157752602Y-80612928D01*
X157774062Y-80645046D01*
X157781598Y-80682932D01*
X157781598Y-83111853D01*
X157769908Y-83158521D01*
X157737599Y-83194169D01*
X157692301Y-83210376D01*
X157644714Y-83203317D01*
X157591341Y-83181209D01*
X157538859Y-83159470D01*
X157382098Y-83138833D01*
X157225336Y-83159470D01*
X157079256Y-83219979D01*
X156953815Y-83316232D01*
X156857562Y-83441673D01*
X156797053Y-83587753D01*
X156776416Y-83744514D01*
X156797053Y-83901276D01*
X156857562Y-84047356D01*
X156953815Y-84172797D01*
X157022453Y-84225464D01*
X157079257Y-84269051D01*
X157225336Y-84329559D01*
X157382098Y-84350197D01*
X157538860Y-84329559D01*
X157644714Y-84285712D01*
X157692301Y-84278654D01*
X157737599Y-84294861D01*
X157769908Y-84330509D01*
X157781598Y-84377177D01*
X157781598Y-85451000D01*
X157768335Y-85500500D01*
X157732098Y-85536737D01*
X157682598Y-85550000D01*
X156754741Y-85550000D01*
X156712413Y-85540495D01*
X156678213Y-85513806D01*
X156575883Y-85389117D01*
X156490109Y-85318723D01*
X156423536Y-85264088D01*
X156249727Y-85171185D01*
X156061130Y-85113975D01*
X155865000Y-85094658D01*
X155668869Y-85113975D01*
X155480272Y-85171185D01*
X155306463Y-85264088D01*
X155154119Y-85389115D01*
X155154117Y-85389117D01*
X155051787Y-85513806D01*
X155017587Y-85540495D01*
X154975259Y-85550000D01*
X154724500Y-85550000D01*
X154675000Y-85536737D01*
X154638763Y-85500500D01*
X154625500Y-85451000D01*
X154625500Y-75718532D01*
X154625877Y-75709902D01*
X154629264Y-75671191D01*
X154619205Y-75633653D01*
X154617335Y-75625218D01*
X154614707Y-75610315D01*
X154610588Y-75586953D01*
X154609834Y-75585648D01*
X154599943Y-75561766D01*
X154599942Y-75561763D01*
X154599554Y-75560314D01*
X154577260Y-75528475D01*
X154572633Y-75521213D01*
X154553194Y-75487543D01*
X154523428Y-75462566D01*
X154517060Y-75456732D01*
X151923292Y-72862964D01*
X151899550Y-72824782D01*
X151895143Y-72780041D01*
X151905682Y-72699998D01*
X151885044Y-72543236D01*
X151824536Y-72397157D01*
X151766649Y-72321717D01*
X151728282Y-72271715D01*
X151602841Y-72175462D01*
X151456761Y-72114953D01*
X151300000Y-72094316D01*
X151143238Y-72114953D01*
X150997158Y-72175462D01*
X150871717Y-72271715D01*
X150775464Y-72397156D01*
X150714955Y-72543236D01*
X150694318Y-72699998D01*
X150714955Y-72856759D01*
X150775464Y-73002839D01*
X150871717Y-73128280D01*
X150936882Y-73178282D01*
X150997159Y-73224534D01*
X151062147Y-73251453D01*
X151079249Y-73258537D01*
X151123679Y-73295000D01*
X151140363Y-73350001D01*
X151123679Y-73405002D01*
X151079249Y-73441465D01*
X150997158Y-73475468D01*
X150871717Y-73571721D01*
X150775464Y-73697162D01*
X150714955Y-73843242D01*
X150694318Y-74000003D01*
X150714955Y-74156765D01*
X150775464Y-74302845D01*
X150871717Y-74428286D01*
X150956365Y-74493238D01*
X150997159Y-74524540D01*
X151143238Y-74585048D01*
X151300000Y-74605686D01*
X151380043Y-74595147D01*
X151424784Y-74599554D01*
X151462966Y-74623296D01*
X153395504Y-76555835D01*
X153416964Y-76587953D01*
X153424500Y-76625839D01*
X153424500Y-83464626D01*
X153409571Y-83516905D01*
X153369287Y-83553416D01*
X153315797Y-83563149D01*
X153265233Y-83543168D01*
X153158984Y-83461641D01*
X153012904Y-83401132D01*
X152856143Y-83380495D01*
X152699381Y-83401132D01*
X152553301Y-83461641D01*
X152427860Y-83557894D01*
X152331607Y-83683335D01*
X152271098Y-83829415D01*
X152250461Y-83986177D01*
X152271098Y-84142940D01*
X152297272Y-84206128D01*
X152303961Y-84256935D01*
X152284350Y-84304280D01*
X152243695Y-84335477D01*
X152147157Y-84375465D01*
X152021717Y-84471717D01*
X151925464Y-84597158D01*
X151864955Y-84743238D01*
X151844318Y-84899999D01*
X151864955Y-85056761D01*
X151925464Y-85202841D01*
X152021717Y-85328282D01*
X152079289Y-85372458D01*
X152113759Y-85422261D01*
X152112768Y-85482822D01*
X152076687Y-85531472D01*
X152019022Y-85550000D01*
X151412574Y-85550000D01*
X151357575Y-85533317D01*
X151334872Y-85505656D01*
X151332471Y-85507499D01*
X151228282Y-85371717D01*
X151102841Y-85275464D01*
X150956761Y-85214955D01*
X150800000Y-85194318D01*
X150643238Y-85214955D01*
X150497158Y-85275464D01*
X150371719Y-85371716D01*
X150353542Y-85395405D01*
X150304770Y-85429555D01*
X150245230Y-85429555D01*
X150196458Y-85395405D01*
X150183959Y-85379117D01*
X150178282Y-85371718D01*
X150178280Y-85371717D01*
X150178280Y-85371716D01*
X150052841Y-85275464D01*
X149906761Y-85214955D01*
X149750000Y-85194318D01*
X149593238Y-85214955D01*
X149447158Y-85275464D01*
X149321717Y-85371717D01*
X149237276Y-85481764D01*
X149189532Y-85515585D01*
X149131031Y-85516542D01*
X149082207Y-85484302D01*
X148995883Y-85379117D01*
X148889864Y-85292109D01*
X148843536Y-85254088D01*
X148669727Y-85161185D01*
X148481130Y-85103975D01*
X148285000Y-85084658D01*
X148088869Y-85103975D01*
X147900272Y-85161185D01*
X147726463Y-85254088D01*
X147574117Y-85379117D01*
X147451028Y-85529100D01*
X147400904Y-85561709D01*
X147341148Y-85559508D01*
X147293559Y-85523300D01*
X147275500Y-85466295D01*
X147275500Y-82825500D01*
X149894318Y-82825500D01*
X149914955Y-82982261D01*
X149975464Y-83128341D01*
X150071717Y-83253782D01*
X150153106Y-83316233D01*
X150197159Y-83350036D01*
X150343238Y-83410544D01*
X150500000Y-83431182D01*
X150656762Y-83410544D01*
X150802841Y-83350036D01*
X150928282Y-83253782D01*
X151024536Y-83128341D01*
X151085044Y-82982262D01*
X151105682Y-82825500D01*
X151085044Y-82668738D01*
X151024536Y-82522659D01*
X150987609Y-82474535D01*
X150928282Y-82397217D01*
X150802841Y-82300964D01*
X150656761Y-82240455D01*
X150500000Y-82219818D01*
X150343238Y-82240455D01*
X150197158Y-82300964D01*
X150071717Y-82397217D01*
X149975464Y-82522658D01*
X149914955Y-82668738D01*
X149894318Y-82825500D01*
X147275500Y-82825500D01*
X147275500Y-75344938D01*
X147291004Y-75291745D01*
X147332661Y-75255214D01*
X147387422Y-75246785D01*
X147399337Y-75248353D01*
X147455000Y-75255682D01*
X147611762Y-75235044D01*
X147757841Y-75174536D01*
X147883282Y-75078282D01*
X147979536Y-74952841D01*
X148040044Y-74806762D01*
X148060682Y-74650000D01*
X148040044Y-74493238D01*
X147979536Y-74347159D01*
X147945533Y-74302845D01*
X147883282Y-74221717D01*
X147757841Y-74125464D01*
X147611761Y-74064955D01*
X147455000Y-74044318D01*
X147298238Y-74064955D01*
X147152158Y-74125464D01*
X147026717Y-74221717D01*
X146930464Y-74347158D01*
X146869955Y-74493238D01*
X146849318Y-74650000D01*
X146859855Y-74730041D01*
X146855448Y-74774785D01*
X146831706Y-74812966D01*
X146732940Y-74911732D01*
X146726574Y-74917565D01*
X146696805Y-74942544D01*
X146690328Y-74953764D01*
X146646430Y-74993986D01*
X146587401Y-75001757D01*
X146534589Y-74974265D01*
X146473290Y-74912966D01*
X146449548Y-74874784D01*
X146445141Y-74830043D01*
X146455680Y-74750000D01*
X146435042Y-74593238D01*
X146374534Y-74447159D01*
X146297801Y-74347158D01*
X146278280Y-74321717D01*
X146152839Y-74225464D01*
X146006759Y-74164955D01*
X145849998Y-74144318D01*
X145693236Y-74164955D01*
X145547156Y-74225464D01*
X145421715Y-74321717D01*
X145325462Y-74447158D01*
X145264953Y-74593238D01*
X145244316Y-74750000D01*
X145264953Y-74906761D01*
X145325462Y-75052841D01*
X145421715Y-75178282D01*
X145495690Y-75235044D01*
X145547157Y-75274536D01*
X145693236Y-75335044D01*
X145849998Y-75355682D01*
X145930041Y-75345143D01*
X145974782Y-75349550D01*
X146012964Y-75373292D01*
X146145504Y-75505832D01*
X146166964Y-75537950D01*
X146174500Y-75575836D01*
X146174500Y-83100951D01*
X146155972Y-83158616D01*
X146107322Y-83194697D01*
X146046762Y-83195688D01*
X145996958Y-83161218D01*
X145928282Y-83071717D01*
X145802841Y-82975464D01*
X145656761Y-82914955D01*
X145500000Y-82894318D01*
X145343238Y-82914955D01*
X145197158Y-82975464D01*
X145071717Y-83071717D01*
X144975464Y-83197158D01*
X144914955Y-83343238D01*
X144894318Y-83500000D01*
X144900866Y-83549740D01*
X144896459Y-83594485D01*
X144872715Y-83632666D01*
X144853477Y-83651903D01*
X144805954Y-83678312D01*
X144751651Y-83675644D01*
X144706946Y-83644702D01*
X144685322Y-83594819D01*
X144682287Y-83571769D01*
X144677544Y-83535738D01*
X144617036Y-83389659D01*
X144566932Y-83324362D01*
X144520782Y-83264217D01*
X144395341Y-83167964D01*
X144249261Y-83107455D01*
X144092500Y-83086818D01*
X143935738Y-83107455D01*
X143789658Y-83167964D01*
X143664217Y-83264217D01*
X143567964Y-83389658D01*
X143507455Y-83535738D01*
X143486818Y-83692500D01*
X143507455Y-83849261D01*
X143567964Y-83995341D01*
X143664217Y-84120782D01*
X143789657Y-84217035D01*
X143789658Y-84217035D01*
X143789659Y-84217036D01*
X143913387Y-84268285D01*
X143957816Y-84304748D01*
X143974500Y-84359749D01*
X143974500Y-87400951D01*
X143955972Y-87458616D01*
X143907322Y-87494697D01*
X143846762Y-87495688D01*
X143796958Y-87461218D01*
X143728282Y-87371717D01*
X143602841Y-87275464D01*
X143456761Y-87214955D01*
X143300000Y-87194318D01*
X143143238Y-87214955D01*
X142997157Y-87275464D01*
X142884767Y-87361704D01*
X142834203Y-87381685D01*
X142780713Y-87371952D01*
X142740429Y-87335441D01*
X142725500Y-87283162D01*
X142725500Y-85255971D01*
X142735710Y-85212184D01*
X142764233Y-85177429D01*
X142828282Y-85128282D01*
X142839260Y-85113975D01*
X142924536Y-85002841D01*
X142985044Y-84856762D01*
X143005682Y-84700000D01*
X142985044Y-84543238D01*
X142924536Y-84397159D01*
X142866828Y-84321952D01*
X142828282Y-84271717D01*
X142702841Y-84175464D01*
X142556761Y-84114955D01*
X142400000Y-84094318D01*
X142243238Y-84114955D01*
X142209470Y-84128943D01*
X142187384Y-84138091D01*
X142139797Y-84145150D01*
X142094499Y-84128943D01*
X142062190Y-84093295D01*
X142050500Y-84046627D01*
X142050500Y-83827611D01*
X142058036Y-83789725D01*
X142079496Y-83757608D01*
X142180342Y-83656762D01*
X142696738Y-83140363D01*
X142704988Y-83132990D01*
X142733970Y-83109879D01*
X142740057Y-83100951D01*
X142766442Y-83062251D01*
X142768559Y-83059265D01*
X142802793Y-83012882D01*
X142802793Y-83012879D01*
X142804857Y-83010084D01*
X142809450Y-83000985D01*
X142810471Y-82997674D01*
X142810472Y-82997673D01*
X142827482Y-82942522D01*
X142828590Y-82939154D01*
X142847646Y-82884699D01*
X142847646Y-82884694D01*
X142848791Y-82881423D01*
X142850500Y-82871368D01*
X142850500Y-82810300D01*
X142850569Y-82806598D01*
X142852854Y-82745535D01*
X142850500Y-82727652D01*
X142850500Y-80112367D01*
X142867182Y-80057369D01*
X142894438Y-80034996D01*
X142892501Y-80032471D01*
X143028282Y-79928282D01*
X143045893Y-79905331D01*
X143124536Y-79802841D01*
X143185044Y-79656762D01*
X143192517Y-79600000D01*
X144594318Y-79600000D01*
X144614955Y-79756761D01*
X144675464Y-79902841D01*
X144771717Y-80028282D01*
X144867971Y-80102139D01*
X144897159Y-80124536D01*
X145043238Y-80185044D01*
X145200000Y-80205682D01*
X145356762Y-80185044D01*
X145502841Y-80124536D01*
X145628282Y-80028282D01*
X145724536Y-79902841D01*
X145785044Y-79756762D01*
X145805682Y-79600000D01*
X145785044Y-79443238D01*
X145724536Y-79297159D01*
X145661459Y-79214955D01*
X145628282Y-79171717D01*
X145502841Y-79075464D01*
X145356761Y-79014955D01*
X145200000Y-78994318D01*
X145043238Y-79014955D01*
X144897158Y-79075464D01*
X144771717Y-79171717D01*
X144675464Y-79297158D01*
X144614955Y-79443238D01*
X144594318Y-79600000D01*
X143192517Y-79600000D01*
X143205682Y-79500000D01*
X143185044Y-79343238D01*
X143124536Y-79197159D01*
X143073263Y-79130338D01*
X143028282Y-79071717D01*
X142902841Y-78975464D01*
X142756761Y-78914955D01*
X142600000Y-78894318D01*
X142443238Y-78914955D01*
X142297158Y-78975464D01*
X142171717Y-79071717D01*
X142153042Y-79096056D01*
X142103238Y-79130526D01*
X142042678Y-79129535D01*
X141994028Y-79093454D01*
X141975500Y-79035789D01*
X141975500Y-77825833D01*
X141983036Y-77787948D01*
X142004496Y-77755830D01*
X142032044Y-77728282D01*
X142187034Y-77573291D01*
X142225213Y-77549550D01*
X142269954Y-77545143D01*
X142350000Y-77555682D01*
X142506762Y-77535044D01*
X142652841Y-77474536D01*
X142778282Y-77378282D01*
X142874536Y-77252841D01*
X142935044Y-77106762D01*
X142955682Y-76950000D01*
X142935044Y-76793238D01*
X142874536Y-76647159D01*
X142804461Y-76555835D01*
X142778282Y-76521717D01*
X142652841Y-76425464D01*
X142506761Y-76364955D01*
X142350000Y-76344318D01*
X142193238Y-76364955D01*
X142047158Y-76425464D01*
X141921717Y-76521717D01*
X141825464Y-76647158D01*
X141764955Y-76793238D01*
X141744318Y-76950000D01*
X141754855Y-77030041D01*
X141750448Y-77074785D01*
X141726706Y-77112966D01*
X141432940Y-77406732D01*
X141426574Y-77412565D01*
X141396804Y-77437545D01*
X141377371Y-77471204D01*
X141372734Y-77478484D01*
X141350444Y-77510318D01*
X141350053Y-77511780D01*
X141340168Y-77535645D01*
X141339410Y-77536956D01*
X141332662Y-77575223D01*
X141330794Y-77583649D01*
X141320735Y-77621191D01*
X141324123Y-77659904D01*
X141324500Y-77668534D01*
X141324500Y-82224165D01*
X141316964Y-82262051D01*
X141295504Y-82294169D01*
X140794170Y-82795504D01*
X140762052Y-82816964D01*
X140724166Y-82824500D01*
X137868534Y-82824500D01*
X137859906Y-82824123D01*
X137856050Y-82823785D01*
X137821191Y-82820735D01*
X137783649Y-82830794D01*
X137775223Y-82832662D01*
X137736956Y-82839410D01*
X137735645Y-82840168D01*
X137711780Y-82850053D01*
X137710318Y-82850444D01*
X137678484Y-82872734D01*
X137671204Y-82877371D01*
X137637544Y-82896805D01*
X137612569Y-82926569D01*
X137606736Y-82932936D01*
X137332940Y-83206732D01*
X137326574Y-83212565D01*
X137296804Y-83237545D01*
X137277371Y-83271204D01*
X137272734Y-83278484D01*
X137250444Y-83310318D01*
X137250053Y-83311780D01*
X137240168Y-83335645D01*
X137239410Y-83336956D01*
X137232662Y-83375223D01*
X137230796Y-83383641D01*
X137228630Y-83391728D01*
X137204520Y-83434570D01*
X137162774Y-83460532D01*
X137113687Y-83463213D01*
X137103231Y-83461133D01*
X137044748Y-83449500D01*
X135305252Y-83449500D01*
X135276010Y-83455316D01*
X135246768Y-83461133D01*
X135180447Y-83505447D01*
X135136133Y-83571768D01*
X135131548Y-83594819D01*
X135124500Y-83630252D01*
X135124500Y-85369748D01*
X135135398Y-85424536D01*
X135136133Y-85428231D01*
X135180447Y-85494552D01*
X135213358Y-85516542D01*
X135246769Y-85538867D01*
X135305252Y-85550500D01*
X137044747Y-85550500D01*
X137044748Y-85550500D01*
X137103231Y-85538867D01*
X137103231Y-85538866D01*
X137106186Y-85538279D01*
X137163386Y-85543913D01*
X137207815Y-85580376D01*
X137224500Y-85635377D01*
X137224500Y-86386220D01*
X137206441Y-86443225D01*
X137158852Y-86479433D01*
X137099096Y-86481634D01*
X137048972Y-86449025D01*
X136996464Y-86385044D01*
X136921410Y-86293590D01*
X136761450Y-86162315D01*
X136578954Y-86064768D01*
X136578953Y-86064767D01*
X136578952Y-86064767D01*
X136380933Y-86004699D01*
X136175000Y-85984416D01*
X135969066Y-86004699D01*
X135771047Y-86064767D01*
X135588549Y-86162315D01*
X135428590Y-86293590D01*
X135297315Y-86453549D01*
X135199767Y-86636047D01*
X135139699Y-86834066D01*
X135119416Y-87039999D01*
X135139699Y-87245933D01*
X135199767Y-87443952D01*
X135199768Y-87443954D01*
X135297315Y-87626450D01*
X135428590Y-87786410D01*
X135588550Y-87917685D01*
X135771046Y-88015232D01*
X135969066Y-88075300D01*
X136175000Y-88095583D01*
X136380934Y-88075300D01*
X136578954Y-88015232D01*
X136761450Y-87917685D01*
X136921410Y-87786410D01*
X137044212Y-87636775D01*
X137048972Y-87630975D01*
X137099096Y-87598366D01*
X137158852Y-87600567D01*
X137206441Y-87636775D01*
X137224500Y-87693780D01*
X137224500Y-88926220D01*
X137206441Y-88983225D01*
X137158852Y-89019433D01*
X137099096Y-89021634D01*
X137048972Y-88989025D01*
X136974014Y-88897689D01*
X136921410Y-88833590D01*
X136761450Y-88702315D01*
X136578954Y-88604768D01*
X136578953Y-88604767D01*
X136578952Y-88604767D01*
X136380933Y-88544699D01*
X136174999Y-88524416D01*
X135969066Y-88544699D01*
X135771047Y-88604767D01*
X135588549Y-88702315D01*
X135428590Y-88833590D01*
X135297315Y-88993549D01*
X135199767Y-89176047D01*
X135139699Y-89374066D01*
X135119416Y-89579999D01*
X135139699Y-89785933D01*
X135182068Y-89925605D01*
X135199768Y-89983954D01*
X135297315Y-90166450D01*
X135428590Y-90326410D01*
X135588550Y-90457685D01*
X135771046Y-90555232D01*
X135969066Y-90615300D01*
X136175000Y-90635583D01*
X136380934Y-90615300D01*
X136578954Y-90555232D01*
X136761450Y-90457685D01*
X136921410Y-90326410D01*
X137033938Y-90189294D01*
X137048972Y-90170975D01*
X137099096Y-90138366D01*
X137158852Y-90140567D01*
X137206441Y-90176775D01*
X137224500Y-90233780D01*
X137224500Y-91466220D01*
X137206441Y-91523225D01*
X137158852Y-91559433D01*
X137099096Y-91561634D01*
X137048972Y-91529025D01*
X136997429Y-91466220D01*
X136921410Y-91373590D01*
X136761450Y-91242315D01*
X136578954Y-91144768D01*
X136578953Y-91144767D01*
X136578952Y-91144767D01*
X136380933Y-91084699D01*
X136175000Y-91064416D01*
X135969066Y-91084699D01*
X135771047Y-91144767D01*
X135588549Y-91242315D01*
X135428590Y-91373590D01*
X135297315Y-91533549D01*
X135199767Y-91716047D01*
X135139699Y-91914066D01*
X135119416Y-92120000D01*
X135139699Y-92325933D01*
X135195794Y-92510854D01*
X135199768Y-92523954D01*
X135297315Y-92706450D01*
X135428590Y-92866410D01*
X135588550Y-92997685D01*
X135771046Y-93095232D01*
X135969066Y-93155300D01*
X136175000Y-93175583D01*
X136380934Y-93155300D01*
X136578954Y-93095232D01*
X136761450Y-92997685D01*
X136921410Y-92866410D01*
X137035519Y-92727367D01*
X137048972Y-92710975D01*
X137099096Y-92678366D01*
X137158852Y-92680567D01*
X137206441Y-92716775D01*
X137224500Y-92773780D01*
X137224500Y-93441466D01*
X137224123Y-93450096D01*
X137220735Y-93488807D01*
X137230795Y-93526350D01*
X137232663Y-93534778D01*
X137239411Y-93573042D01*
X137239412Y-93573045D01*
X137240166Y-93574352D01*
X137250055Y-93598225D01*
X137250446Y-93599685D01*
X137272732Y-93631514D01*
X137277370Y-93638794D01*
X137296803Y-93672452D01*
X137296805Y-93672454D01*
X137296806Y-93672455D01*
X137326589Y-93697446D01*
X137332944Y-93703270D01*
X137761497Y-94131824D01*
X137784148Y-94166954D01*
X137790281Y-94208301D01*
X137778804Y-94248494D01*
X137774767Y-94256046D01*
X137714699Y-94454066D01*
X137694416Y-94659999D01*
X137714699Y-94865933D01*
X137765217Y-95032469D01*
X137774768Y-95063954D01*
X137872315Y-95246450D01*
X138003590Y-95406410D01*
X138163550Y-95537685D01*
X138346046Y-95635232D01*
X138535267Y-95692631D01*
X138544066Y-95695300D01*
X138749999Y-95715583D01*
X138749999Y-95715582D01*
X138750000Y-95715583D01*
X138955934Y-95695300D01*
X139153954Y-95635232D01*
X139336450Y-95537685D01*
X139496410Y-95406410D01*
X139627685Y-95246450D01*
X139725232Y-95063954D01*
X139785300Y-94865934D01*
X139805583Y-94660000D01*
X139792005Y-94522147D01*
X139785300Y-94454066D01*
X139767901Y-94396708D01*
X139725232Y-94256046D01*
X139627685Y-94073550D01*
X139496410Y-93913590D01*
X139336450Y-93782315D01*
X139153954Y-93684768D01*
X139153953Y-93684767D01*
X139153952Y-93684767D01*
X138955933Y-93624699D01*
X138750000Y-93604416D01*
X138544066Y-93624699D01*
X138346046Y-93684767D01*
X138338494Y-93688804D01*
X138298301Y-93700281D01*
X138256954Y-93694148D01*
X138221824Y-93671497D01*
X137904497Y-93354171D01*
X137883036Y-93322053D01*
X137875500Y-93284167D01*
X137875500Y-92970607D01*
X137890859Y-92917642D01*
X137932172Y-92881112D01*
X137986619Y-92872352D01*
X138037304Y-92894078D01*
X138163550Y-92997685D01*
X138346046Y-93095232D01*
X138544066Y-93155300D01*
X138750000Y-93175583D01*
X138955934Y-93155300D01*
X139153954Y-93095232D01*
X139336450Y-92997685D01*
X139496410Y-92866410D01*
X139589240Y-92753294D01*
X139633944Y-92722355D01*
X139688247Y-92719687D01*
X139735771Y-92746097D01*
X140395504Y-93405830D01*
X140416964Y-93437948D01*
X140424500Y-93475834D01*
X140424500Y-97205663D01*
X140414290Y-97249450D01*
X140385767Y-97284205D01*
X140271717Y-97371717D01*
X140175464Y-97497158D01*
X140114955Y-97643238D01*
X140094318Y-97800000D01*
X140114955Y-97956761D01*
X140175464Y-98102841D01*
X140271717Y-98228282D01*
X140364705Y-98299633D01*
X140397159Y-98324536D01*
X140543238Y-98385044D01*
X140700000Y-98405682D01*
X140856762Y-98385044D01*
X141002841Y-98324536D01*
X141002843Y-98324534D01*
X141012614Y-98320487D01*
X141060203Y-98313428D01*
X141105501Y-98329635D01*
X141137810Y-98365283D01*
X141149500Y-98411951D01*
X141149500Y-115867068D01*
X141144246Y-115898891D01*
X141129042Y-115927335D01*
X141075464Y-115997158D01*
X141014955Y-116143238D01*
X140994318Y-116299999D01*
X141014955Y-116456761D01*
X141075464Y-116602841D01*
X141171717Y-116728282D01*
X141258727Y-116795046D01*
X141297159Y-116824536D01*
X141443238Y-116885044D01*
X141600000Y-116905682D01*
X141756762Y-116885044D01*
X141902841Y-116824536D01*
X141915234Y-116815025D01*
X141965796Y-116795046D01*
X142019286Y-116804779D01*
X142059571Y-116841290D01*
X142074500Y-116893569D01*
X142074500Y-117856431D01*
X142059571Y-117908710D01*
X142019286Y-117945221D01*
X141965796Y-117954954D01*
X141915234Y-117934974D01*
X141902841Y-117925464D01*
X141902839Y-117925463D01*
X141756761Y-117864955D01*
X141600000Y-117844318D01*
X141443238Y-117864955D01*
X141297158Y-117925464D01*
X141171717Y-118021717D01*
X141075464Y-118147158D01*
X141014955Y-118293238D01*
X140994318Y-118450000D01*
X141014955Y-118606761D01*
X141075464Y-118752842D01*
X141176465Y-118884470D01*
X141196076Y-118931815D01*
X141189387Y-118982623D01*
X141158190Y-119023279D01*
X141110845Y-119042890D01*
X140943238Y-119064955D01*
X140797158Y-119125464D01*
X140671717Y-119221717D01*
X140575464Y-119347158D01*
X140514955Y-119493238D01*
X140494318Y-119649999D01*
X140514955Y-119806761D01*
X140536424Y-119858590D01*
X140574997Y-119951714D01*
X140580631Y-120008911D01*
X140553537Y-120059601D01*
X140502848Y-120086696D01*
X140445648Y-120081062D01*
X140406763Y-120064956D01*
X140250000Y-120044318D01*
X140093238Y-120064955D01*
X139947158Y-120125464D01*
X139821717Y-120221717D01*
X139725464Y-120347158D01*
X139664955Y-120493238D01*
X139660342Y-120528282D01*
X139647671Y-120624536D01*
X139647653Y-120624669D01*
X139635975Y-120650000D01*
X139647653Y-120675331D01*
X139664955Y-120806761D01*
X139725464Y-120952841D01*
X139821717Y-121078282D01*
X139903110Y-121140736D01*
X139947159Y-121174536D01*
X140093238Y-121235044D01*
X140250000Y-121255682D01*
X140406762Y-121235044D01*
X140552841Y-121174536D01*
X140678282Y-121078282D01*
X140774536Y-120952841D01*
X140835044Y-120806762D01*
X140855682Y-120650000D01*
X140835044Y-120493238D01*
X140775001Y-120348283D01*
X140769368Y-120291088D01*
X140796462Y-120240398D01*
X140847152Y-120213303D01*
X140904352Y-120218937D01*
X140943238Y-120235044D01*
X141100000Y-120255682D01*
X141256762Y-120235044D01*
X141402841Y-120174536D01*
X141528282Y-120078282D01*
X141624536Y-119952841D01*
X141685044Y-119806762D01*
X141705682Y-119650000D01*
X141685044Y-119493238D01*
X141624536Y-119347159D01*
X141624535Y-119347158D01*
X141624535Y-119347157D01*
X141523534Y-119215529D01*
X141503923Y-119168183D01*
X141510612Y-119117376D01*
X141541809Y-119076720D01*
X141589155Y-119057109D01*
X141599997Y-119055681D01*
X141600000Y-119055682D01*
X141756762Y-119035044D01*
X141902841Y-118974536D01*
X141915234Y-118965025D01*
X141965796Y-118945046D01*
X142019286Y-118954779D01*
X142059571Y-118991290D01*
X142074500Y-119043569D01*
X142074500Y-122732209D01*
X142059911Y-122783936D01*
X142020445Y-122820419D01*
X141967733Y-122830904D01*
X141917309Y-122812302D01*
X141884036Y-122770095D01*
X141883139Y-122767930D01*
X141874536Y-122747159D01*
X141874535Y-122747158D01*
X141874535Y-122747157D01*
X141778282Y-122621717D01*
X141652841Y-122525464D01*
X141506761Y-122464955D01*
X141370636Y-122447034D01*
X141350000Y-122444318D01*
X141349999Y-122444318D01*
X141196555Y-122464519D01*
X141137920Y-122454180D01*
X141095819Y-122412079D01*
X141085480Y-122353446D01*
X141105682Y-122200000D01*
X141085044Y-122043238D01*
X141024536Y-121897159D01*
X140988820Y-121850613D01*
X140928282Y-121771717D01*
X140802841Y-121675464D01*
X140656761Y-121614955D01*
X140500000Y-121594318D01*
X140343238Y-121614955D01*
X140197158Y-121675464D01*
X140071717Y-121771717D01*
X139975464Y-121897158D01*
X139914955Y-122043238D01*
X139894318Y-122200000D01*
X139914955Y-122356761D01*
X139975464Y-122502841D01*
X140071717Y-122628282D01*
X140135767Y-122677429D01*
X140164290Y-122712184D01*
X140174500Y-122755971D01*
X140174500Y-127124166D01*
X140166964Y-127162052D01*
X140145504Y-127194170D01*
X138394170Y-128945504D01*
X138362052Y-128966964D01*
X138324166Y-128974500D01*
X136361422Y-128974500D01*
X136308960Y-128959457D01*
X136272442Y-128918899D01*
X136262964Y-128865152D01*
X136265972Y-128836534D01*
X136280322Y-128700000D01*
X136261085Y-128516971D01*
X136204214Y-128341941D01*
X136204213Y-128341939D01*
X136204212Y-128341936D01*
X136112197Y-128182563D01*
X136112196Y-128182562D01*
X136112195Y-128182560D01*
X135989050Y-128045793D01*
X135982154Y-128040783D01*
X135894748Y-127977279D01*
X135840161Y-127937619D01*
X135837124Y-127936267D01*
X135770855Y-127906762D01*
X135672034Y-127862764D01*
X135492019Y-127824500D01*
X135307981Y-127824500D01*
X135127966Y-127862764D01*
X135127963Y-127862765D01*
X135127964Y-127862765D01*
X134959840Y-127937618D01*
X134810950Y-128045792D01*
X134687802Y-128182563D01*
X134610236Y-128316912D01*
X134574000Y-128353149D01*
X134524500Y-128366412D01*
X134475000Y-128353148D01*
X134438763Y-128316912D01*
X134425500Y-128267412D01*
X134425500Y-127132588D01*
X134438763Y-127083088D01*
X134475000Y-127046852D01*
X134524500Y-127033588D01*
X134574000Y-127046851D01*
X134610236Y-127083088D01*
X134687802Y-127217436D01*
X134687803Y-127217438D01*
X134687805Y-127217440D01*
X134810950Y-127354207D01*
X134959839Y-127462381D01*
X135127966Y-127537236D01*
X135307981Y-127575500D01*
X135492016Y-127575500D01*
X135492019Y-127575500D01*
X135672034Y-127537236D01*
X135840161Y-127462381D01*
X135989050Y-127354207D01*
X136084465Y-127248237D01*
X136126038Y-127220795D01*
X136175713Y-127217072D01*
X136220912Y-127238011D01*
X136250192Y-127278312D01*
X136313604Y-127439883D01*
X136441044Y-127660617D01*
X136599944Y-127859871D01*
X136599948Y-127859875D01*
X136599950Y-127859877D01*
X136786783Y-128033232D01*
X136858820Y-128082346D01*
X136997364Y-128176804D01*
X136997365Y-128176804D01*
X136997366Y-128176805D01*
X137226996Y-128287389D01*
X137470542Y-128362513D01*
X137620972Y-128385187D01*
X137722564Y-128400500D01*
X137722565Y-128400500D01*
X137977435Y-128400500D01*
X137977436Y-128400500D01*
X138027839Y-128392902D01*
X138229458Y-128362513D01*
X138473004Y-128287389D01*
X138702634Y-128176805D01*
X138913217Y-128033232D01*
X139100050Y-127859877D01*
X139120576Y-127834139D01*
X139258955Y-127660617D01*
X139258954Y-127660617D01*
X139258959Y-127660612D01*
X139386393Y-127439888D01*
X139479508Y-127202637D01*
X139536222Y-126954157D01*
X139555268Y-126700000D01*
X139536222Y-126445843D01*
X139479508Y-126197363D01*
X139408112Y-126015450D01*
X139386395Y-125960116D01*
X139386393Y-125960112D01*
X139258959Y-125739388D01*
X139258957Y-125739385D01*
X139258955Y-125739382D01*
X139100055Y-125540128D01*
X139100050Y-125540123D01*
X138913217Y-125366768D01*
X138833855Y-125312660D01*
X138702635Y-125223195D01*
X138473006Y-125112612D01*
X138473004Y-125112611D01*
X138229458Y-125037487D01*
X138229456Y-125037486D01*
X138229454Y-125037486D01*
X137977436Y-124999500D01*
X137977435Y-124999500D01*
X137722565Y-124999500D01*
X137722564Y-124999500D01*
X137470545Y-125037486D01*
X137226992Y-125112612D01*
X137175314Y-125137499D01*
X137121275Y-125146680D01*
X137070634Y-125125704D01*
X137038915Y-125081000D01*
X137035842Y-125026273D01*
X137062354Y-124978301D01*
X139228269Y-122812385D01*
X139232590Y-122808319D01*
X139278183Y-122767929D01*
X139312806Y-122717766D01*
X139316304Y-122713013D01*
X139353878Y-122665056D01*
X139358967Y-122653746D01*
X139367770Y-122638139D01*
X139374818Y-122627930D01*
X139396409Y-122570996D01*
X139398699Y-122565469D01*
X139423694Y-122509933D01*
X139423693Y-122509933D01*
X139423695Y-122509931D01*
X139425931Y-122497724D01*
X139430742Y-122480466D01*
X139435140Y-122468872D01*
X139442479Y-122408422D01*
X139443378Y-122402518D01*
X139444716Y-122395221D01*
X139454358Y-122342606D01*
X139454317Y-122341936D01*
X139450681Y-122281823D01*
X139450500Y-122275845D01*
X139450500Y-120688253D01*
X139462378Y-120650000D01*
X139450500Y-120611747D01*
X139450500Y-112081165D01*
X139458036Y-112043279D01*
X139479496Y-112011161D01*
X139849095Y-111641562D01*
X140225290Y-111265367D01*
X140303878Y-111165057D01*
X140373695Y-111009931D01*
X140373694Y-111009931D01*
X140373696Y-111009929D01*
X140404358Y-110842606D01*
X140394086Y-110672804D01*
X140343478Y-110510395D01*
X140343478Y-110510394D01*
X140255472Y-110364815D01*
X140135185Y-110244528D01*
X139989606Y-110156522D01*
X139989605Y-110156521D01*
X139989604Y-110156521D01*
X139827195Y-110105913D01*
X139657393Y-110095641D01*
X139490070Y-110126303D01*
X139334944Y-110196120D01*
X139234630Y-110274712D01*
X138271742Y-111237598D01*
X138267390Y-111241695D01*
X138221818Y-111282070D01*
X138187223Y-111332187D01*
X138183682Y-111336999D01*
X138146121Y-111384944D01*
X138141029Y-111396257D01*
X138132230Y-111411857D01*
X138125182Y-111422067D01*
X138103593Y-111478993D01*
X138101306Y-111484515D01*
X138076305Y-111540067D01*
X138074067Y-111552279D01*
X138069258Y-111569531D01*
X138064860Y-111581129D01*
X138057521Y-111641562D01*
X138056622Y-111647469D01*
X138045641Y-111707395D01*
X138049319Y-111768177D01*
X138049500Y-111774155D01*
X138049500Y-121968836D01*
X138041964Y-122006722D01*
X138020504Y-122038840D01*
X136088839Y-123970504D01*
X136056721Y-123991964D01*
X136018835Y-123999500D01*
X135957501Y-123999500D01*
X135899310Y-123980593D01*
X135880680Y-123967058D01*
X135840161Y-123937619D01*
X135672034Y-123862764D01*
X135492019Y-123824500D01*
X135307981Y-123824500D01*
X135127966Y-123862764D01*
X135127963Y-123862765D01*
X135127964Y-123862765D01*
X134959840Y-123937618D01*
X134810950Y-124045792D01*
X134687802Y-124182563D01*
X134610236Y-124316912D01*
X134574000Y-124353149D01*
X134524500Y-124366412D01*
X134475000Y-124353148D01*
X134438763Y-124316912D01*
X134425500Y-124267412D01*
X134425500Y-123132588D01*
X134438763Y-123083088D01*
X134475000Y-123046852D01*
X134524500Y-123033588D01*
X134574000Y-123046851D01*
X134610236Y-123083088D01*
X134687802Y-123217436D01*
X134687803Y-123217438D01*
X134687805Y-123217440D01*
X134810950Y-123354207D01*
X134959839Y-123462381D01*
X135127966Y-123537236D01*
X135307981Y-123575500D01*
X135492016Y-123575500D01*
X135492019Y-123575500D01*
X135672034Y-123537236D01*
X135840161Y-123462381D01*
X135989050Y-123354207D01*
X136112195Y-123217440D01*
X136181640Y-123097158D01*
X136204212Y-123058063D01*
X136204212Y-123058061D01*
X136204214Y-123058059D01*
X136261085Y-122883029D01*
X136280322Y-122700000D01*
X136261085Y-122516971D01*
X136204214Y-122341941D01*
X136204213Y-122341939D01*
X136204212Y-122341936D01*
X136112197Y-122182563D01*
X136112196Y-122182562D01*
X136112195Y-122182560D01*
X135989050Y-122045793D01*
X135987862Y-122044930D01*
X135917654Y-121993921D01*
X135840161Y-121937619D01*
X135672034Y-121862764D01*
X135492019Y-121824500D01*
X135307981Y-121824500D01*
X135127966Y-121862764D01*
X135127963Y-121862765D01*
X135127964Y-121862765D01*
X134959840Y-121937618D01*
X134810950Y-122045792D01*
X134687802Y-122182563D01*
X134610236Y-122316912D01*
X134574000Y-122353149D01*
X134524500Y-122366412D01*
X134475000Y-122353148D01*
X134438763Y-122316912D01*
X134425500Y-122267412D01*
X134425500Y-121131590D01*
X134438763Y-121082090D01*
X134475000Y-121045854D01*
X134524500Y-121032590D01*
X134574000Y-121045853D01*
X134610236Y-121082090D01*
X134688208Y-121217140D01*
X134811286Y-121353834D01*
X134960091Y-121461946D01*
X135128121Y-121536759D01*
X135149999Y-121541409D01*
X135150000Y-121541409D01*
X135650000Y-121541409D01*
X135671878Y-121536759D01*
X135839908Y-121461946D01*
X135988713Y-121353834D01*
X136111791Y-121217140D01*
X136203754Y-121057858D01*
X136238799Y-120950000D01*
X135650001Y-120950000D01*
X135650000Y-120950001D01*
X135650000Y-121541409D01*
X135150000Y-121541409D01*
X135150000Y-119858591D01*
X135149999Y-119858590D01*
X135650000Y-119858590D01*
X135650000Y-120449999D01*
X135650001Y-120450000D01*
X136238799Y-120450000D01*
X136203754Y-120342141D01*
X136111791Y-120182859D01*
X135988713Y-120046165D01*
X135839908Y-119938053D01*
X135671878Y-119863240D01*
X135650000Y-119858590D01*
X135149999Y-119858590D01*
X135128121Y-119863240D01*
X134960091Y-119938053D01*
X134811286Y-120046165D01*
X134688208Y-120182859D01*
X134610236Y-120317910D01*
X134574000Y-120354147D01*
X134524500Y-120367410D01*
X134475000Y-120354146D01*
X134438763Y-120317910D01*
X134425500Y-120268410D01*
X134425500Y-117499999D01*
X136394318Y-117499999D01*
X136414955Y-117656761D01*
X136475464Y-117802841D01*
X136571717Y-117928282D01*
X136667971Y-118002139D01*
X136697159Y-118024536D01*
X136843238Y-118085044D01*
X137000000Y-118105682D01*
X137156762Y-118085044D01*
X137302841Y-118024536D01*
X137428282Y-117928282D01*
X137524536Y-117802841D01*
X137585044Y-117656762D01*
X137605682Y-117500000D01*
X137585044Y-117343238D01*
X137524536Y-117197159D01*
X137493538Y-117156761D01*
X137428282Y-117071717D01*
X137302841Y-116975464D01*
X137156761Y-116914955D01*
X137000000Y-116894318D01*
X136843238Y-116914955D01*
X136697158Y-116975464D01*
X136571717Y-117071717D01*
X136475464Y-117197158D01*
X136414955Y-117343238D01*
X136394318Y-117499999D01*
X134425500Y-117499999D01*
X134425500Y-106839999D01*
X138644416Y-106839999D01*
X138664699Y-107045933D01*
X138718975Y-107224857D01*
X138724768Y-107243954D01*
X138822315Y-107426450D01*
X138953590Y-107586410D01*
X139113550Y-107717685D01*
X139296046Y-107815232D01*
X139494066Y-107875300D01*
X139700000Y-107895583D01*
X139905934Y-107875300D01*
X140103954Y-107815232D01*
X140286450Y-107717685D01*
X140446410Y-107586410D01*
X140577685Y-107426450D01*
X140675232Y-107243954D01*
X140735300Y-107045934D01*
X140755583Y-106840000D01*
X140746998Y-106752841D01*
X140735300Y-106634066D01*
X140675232Y-106436046D01*
X140577685Y-106253550D01*
X140446410Y-106093590D01*
X140286450Y-105962315D01*
X140103954Y-105864768D01*
X140103953Y-105864767D01*
X140103952Y-105864767D01*
X139905933Y-105804699D01*
X139700000Y-105784416D01*
X139494066Y-105804699D01*
X139296047Y-105864767D01*
X139113549Y-105962315D01*
X138953590Y-106093590D01*
X138822315Y-106253549D01*
X138724767Y-106436047D01*
X138664699Y-106634066D01*
X138644416Y-106839999D01*
X134425500Y-106839999D01*
X134425500Y-104300000D01*
X138644416Y-104300000D01*
X138664699Y-104505933D01*
X138719320Y-104685994D01*
X138724768Y-104703954D01*
X138822315Y-104886450D01*
X138953590Y-105046410D01*
X139113550Y-105177685D01*
X139296046Y-105275232D01*
X139494066Y-105335300D01*
X139700000Y-105355583D01*
X139905934Y-105335300D01*
X140103954Y-105275232D01*
X140286450Y-105177685D01*
X140446410Y-105046410D01*
X140577685Y-104886450D01*
X140675232Y-104703954D01*
X140735300Y-104505934D01*
X140755583Y-104300000D01*
X140735300Y-104094066D01*
X140675232Y-103896046D01*
X140577685Y-103713550D01*
X140446410Y-103553590D01*
X140286450Y-103422315D01*
X140103954Y-103324768D01*
X140103953Y-103324767D01*
X140103952Y-103324767D01*
X139905933Y-103264699D01*
X139700000Y-103244416D01*
X139494066Y-103264699D01*
X139296047Y-103324767D01*
X139113549Y-103422315D01*
X138953590Y-103553590D01*
X138822315Y-103713549D01*
X138724767Y-103896047D01*
X138664699Y-104094066D01*
X138644416Y-104300000D01*
X134425500Y-104300000D01*
X134425500Y-102629697D01*
X138650000Y-102629697D01*
X138661604Y-102688036D01*
X138705807Y-102754192D01*
X138771963Y-102798395D01*
X138830303Y-102810000D01*
X139449999Y-102810000D01*
X139450000Y-102809999D01*
X139950000Y-102809999D01*
X139950001Y-102810000D01*
X140569697Y-102810000D01*
X140628036Y-102798395D01*
X140694192Y-102754192D01*
X140738395Y-102688036D01*
X140750000Y-102629697D01*
X140750000Y-102010001D01*
X140749999Y-102010000D01*
X139950001Y-102010000D01*
X139950000Y-102010001D01*
X139950000Y-102809999D01*
X139450000Y-102809999D01*
X139450000Y-102010001D01*
X139449999Y-102010000D01*
X138650001Y-102010000D01*
X138650000Y-102010001D01*
X138650000Y-102629697D01*
X134425500Y-102629697D01*
X134425500Y-101509999D01*
X138650000Y-101509999D01*
X138650001Y-101510000D01*
X139449999Y-101510000D01*
X139450000Y-101509999D01*
X139950000Y-101509999D01*
X139950001Y-101510000D01*
X140749999Y-101510000D01*
X140750000Y-101509999D01*
X140750000Y-100890303D01*
X140738395Y-100831963D01*
X140694192Y-100765807D01*
X140628036Y-100721604D01*
X140569697Y-100710000D01*
X139950001Y-100710000D01*
X139950000Y-100710001D01*
X139950000Y-101509999D01*
X139450000Y-101509999D01*
X139450000Y-100710001D01*
X139449999Y-100710000D01*
X138830303Y-100710000D01*
X138771963Y-100721604D01*
X138705807Y-100765807D01*
X138661604Y-100831963D01*
X138650000Y-100890303D01*
X138650000Y-101509999D01*
X134425500Y-101509999D01*
X134425500Y-97450000D01*
X135153589Y-97450000D01*
X135200231Y-97603763D01*
X135297730Y-97786170D01*
X135428945Y-97946054D01*
X135588829Y-98077269D01*
X135771236Y-98174768D01*
X135924999Y-98221411D01*
X135925000Y-98221411D01*
X136425000Y-98221411D01*
X136578763Y-98174768D01*
X136761170Y-98077269D01*
X136921054Y-97946054D01*
X137052269Y-97786170D01*
X137149768Y-97603763D01*
X137196411Y-97450000D01*
X137728589Y-97450000D01*
X137775231Y-97603763D01*
X137872730Y-97786170D01*
X138003945Y-97946054D01*
X138163829Y-98077269D01*
X138346236Y-98174768D01*
X138499999Y-98221411D01*
X138500000Y-98221411D01*
X139000000Y-98221411D01*
X139153763Y-98174768D01*
X139336170Y-98077269D01*
X139496054Y-97946054D01*
X139627269Y-97786170D01*
X139724768Y-97603763D01*
X139771411Y-97450000D01*
X139000001Y-97450000D01*
X139000000Y-97450001D01*
X139000000Y-98221411D01*
X138500000Y-98221411D01*
X138500000Y-97450001D01*
X138499999Y-97450000D01*
X137728589Y-97450000D01*
X137196411Y-97450000D01*
X136425001Y-97450000D01*
X136425000Y-97450001D01*
X136425000Y-98221411D01*
X135925000Y-98221411D01*
X135925000Y-97450001D01*
X135924999Y-97450000D01*
X135153589Y-97450000D01*
X134425500Y-97450000D01*
X134425500Y-96949999D01*
X135153588Y-96949999D01*
X135153589Y-96950000D01*
X135924999Y-96950000D01*
X135925000Y-96949999D01*
X135925000Y-96178589D01*
X135924999Y-96178588D01*
X136425000Y-96178588D01*
X136425000Y-96949999D01*
X136425001Y-96950000D01*
X137196411Y-96950000D01*
X137196411Y-96949999D01*
X137728588Y-96949999D01*
X137728589Y-96950000D01*
X138499999Y-96950000D01*
X138500000Y-96949999D01*
X138500000Y-96178589D01*
X138499999Y-96178588D01*
X139000000Y-96178588D01*
X139000000Y-96949999D01*
X139000001Y-96950000D01*
X139771411Y-96950000D01*
X139771411Y-96949999D01*
X139724768Y-96796236D01*
X139627269Y-96613829D01*
X139496054Y-96453945D01*
X139336170Y-96322730D01*
X139153763Y-96225231D01*
X139000000Y-96178588D01*
X138499999Y-96178588D01*
X138346236Y-96225231D01*
X138163829Y-96322730D01*
X138003945Y-96453945D01*
X137872730Y-96613829D01*
X137775231Y-96796236D01*
X137728588Y-96949999D01*
X137196411Y-96949999D01*
X137149768Y-96796236D01*
X137052269Y-96613829D01*
X136921054Y-96453945D01*
X136761170Y-96322730D01*
X136578763Y-96225231D01*
X136425000Y-96178588D01*
X135924999Y-96178588D01*
X135771236Y-96225231D01*
X135588829Y-96322730D01*
X135428945Y-96453945D01*
X135297730Y-96613829D01*
X135200231Y-96796236D01*
X135153588Y-96949999D01*
X134425500Y-96949999D01*
X134425500Y-94659999D01*
X135119416Y-94659999D01*
X135139699Y-94865933D01*
X135190217Y-95032469D01*
X135199768Y-95063954D01*
X135297315Y-95246450D01*
X135428590Y-95406410D01*
X135588550Y-95537685D01*
X135771046Y-95635232D01*
X135960267Y-95692631D01*
X135969066Y-95695300D01*
X136174999Y-95715583D01*
X136174999Y-95715582D01*
X136175000Y-95715583D01*
X136380934Y-95695300D01*
X136578954Y-95635232D01*
X136761450Y-95537685D01*
X136921410Y-95406410D01*
X137052685Y-95246450D01*
X137150232Y-95063954D01*
X137210300Y-94865934D01*
X137230583Y-94660000D01*
X137217005Y-94522147D01*
X137210300Y-94454066D01*
X137192901Y-94396708D01*
X137150232Y-94256046D01*
X137052685Y-94073550D01*
X136921410Y-93913590D01*
X136761450Y-93782315D01*
X136578954Y-93684768D01*
X136578953Y-93684767D01*
X136578952Y-93684767D01*
X136380933Y-93624699D01*
X136175000Y-93604416D01*
X135969066Y-93624699D01*
X135771047Y-93684767D01*
X135588549Y-93782315D01*
X135428590Y-93913590D01*
X135297315Y-94073549D01*
X135199767Y-94256047D01*
X135139699Y-94454066D01*
X135119416Y-94659999D01*
X134425500Y-94659999D01*
X134425500Y-81449999D01*
X135544318Y-81449999D01*
X135564955Y-81606761D01*
X135625464Y-81752841D01*
X135721717Y-81878282D01*
X135786879Y-81928282D01*
X135847159Y-81974536D01*
X135993238Y-82035044D01*
X136150000Y-82055682D01*
X136306762Y-82035044D01*
X136452841Y-81974536D01*
X136578282Y-81878282D01*
X136674536Y-81752841D01*
X136735044Y-81606762D01*
X136749100Y-81499999D01*
X137294318Y-81499999D01*
X137314955Y-81656761D01*
X137375464Y-81802841D01*
X137471717Y-81928282D01*
X137567970Y-82002139D01*
X137597159Y-82024536D01*
X137743238Y-82085044D01*
X137900000Y-82105682D01*
X138056762Y-82085044D01*
X138202841Y-82024536D01*
X138299980Y-81949999D01*
X139644318Y-81949999D01*
X139664955Y-82106761D01*
X139725464Y-82252841D01*
X139821717Y-82378282D01*
X139917971Y-82452139D01*
X139947159Y-82474536D01*
X140093238Y-82535044D01*
X140250000Y-82555682D01*
X140406762Y-82535044D01*
X140552841Y-82474536D01*
X140678282Y-82378282D01*
X140774536Y-82252841D01*
X140835044Y-82106762D01*
X140855682Y-81950000D01*
X140841971Y-81845858D01*
X140843970Y-81809372D01*
X140845224Y-81806607D01*
X140845034Y-81806556D01*
X140849551Y-81789686D01*
X140849554Y-81789684D01*
X140849943Y-81788228D01*
X140859838Y-81764343D01*
X140860588Y-81763045D01*
X140867335Y-81724777D01*
X140869201Y-81716359D01*
X140879264Y-81678807D01*
X140875876Y-81640093D01*
X140875500Y-81631466D01*
X140875500Y-73305971D01*
X140885710Y-73262184D01*
X140914233Y-73227429D01*
X140978282Y-73178282D01*
X140978281Y-73178282D01*
X141074536Y-73052841D01*
X141135044Y-72906762D01*
X141155682Y-72750000D01*
X141135044Y-72593238D01*
X141074536Y-72447159D01*
X141052139Y-72417971D01*
X140978282Y-72321717D01*
X140852841Y-72225464D01*
X140706761Y-72164955D01*
X140550000Y-72144318D01*
X140393238Y-72164955D01*
X140247158Y-72225464D01*
X140121717Y-72321717D01*
X140025464Y-72447158D01*
X139964955Y-72593238D01*
X139944318Y-72750000D01*
X139964955Y-72906761D01*
X140025464Y-73052841D01*
X140121717Y-73178282D01*
X140185767Y-73227429D01*
X140214290Y-73262184D01*
X140224500Y-73305971D01*
X140224500Y-81260854D01*
X140213314Y-81306567D01*
X140182284Y-81341950D01*
X140138422Y-81359007D01*
X140093238Y-81364955D01*
X139947158Y-81425464D01*
X139821717Y-81521717D01*
X139725464Y-81647158D01*
X139664955Y-81793238D01*
X139644318Y-81949999D01*
X138299980Y-81949999D01*
X138328282Y-81928282D01*
X138424536Y-81802841D01*
X138485044Y-81656762D01*
X138505682Y-81500000D01*
X138485044Y-81343238D01*
X138424536Y-81197159D01*
X138386169Y-81147158D01*
X138328282Y-81071717D01*
X138202841Y-80975464D01*
X138056761Y-80914955D01*
X137900000Y-80894318D01*
X137743238Y-80914955D01*
X137597158Y-80975464D01*
X137471717Y-81071717D01*
X137375464Y-81197158D01*
X137314955Y-81343238D01*
X137294318Y-81499999D01*
X136749100Y-81499999D01*
X136755682Y-81450000D01*
X136735044Y-81293238D01*
X136674536Y-81147159D01*
X136652139Y-81117971D01*
X136578282Y-81021717D01*
X136452841Y-80925464D01*
X136306761Y-80864955D01*
X136150000Y-80844318D01*
X135993238Y-80864955D01*
X135847158Y-80925464D01*
X135721717Y-81021717D01*
X135625464Y-81147158D01*
X135564955Y-81293238D01*
X135544318Y-81449999D01*
X134425500Y-81449999D01*
X134425500Y-78649999D01*
X135344318Y-78649999D01*
X135364955Y-78806761D01*
X135425464Y-78952841D01*
X135521717Y-79078282D01*
X135578325Y-79121718D01*
X135647159Y-79174536D01*
X135793238Y-79235044D01*
X135950000Y-79255682D01*
X136106762Y-79235044D01*
X136252841Y-79174536D01*
X136378282Y-79078282D01*
X136474536Y-78952841D01*
X136535044Y-78806762D01*
X136555682Y-78650000D01*
X136535044Y-78493238D01*
X136474536Y-78347159D01*
X136452139Y-78317971D01*
X136378282Y-78221717D01*
X136252841Y-78125464D01*
X136106761Y-78064955D01*
X135950000Y-78044318D01*
X135793238Y-78064955D01*
X135647158Y-78125464D01*
X135521717Y-78221717D01*
X135425464Y-78347158D01*
X135364955Y-78493238D01*
X135344318Y-78649999D01*
X134425500Y-78649999D01*
X134425500Y-77700000D01*
X136794318Y-77700000D01*
X136814955Y-77856761D01*
X136875464Y-78002841D01*
X136971717Y-78128282D01*
X137057778Y-78194318D01*
X137097159Y-78224536D01*
X137220110Y-78275464D01*
X137243238Y-78285044D01*
X137360638Y-78300500D01*
X137360639Y-78300500D01*
X137439361Y-78300500D01*
X137439362Y-78300500D01*
X137498061Y-78292771D01*
X137556762Y-78285044D01*
X137702841Y-78224536D01*
X137828282Y-78128282D01*
X137924536Y-78002841D01*
X137985044Y-77856762D01*
X138005682Y-77700000D01*
X137985044Y-77543238D01*
X137924536Y-77397159D01*
X137902139Y-77367970D01*
X137828282Y-77271717D01*
X137702841Y-77175464D01*
X137556761Y-77114955D01*
X137439362Y-77099500D01*
X137439361Y-77099500D01*
X137360639Y-77099500D01*
X137360638Y-77099500D01*
X137243238Y-77114955D01*
X137097158Y-77175464D01*
X136971717Y-77271717D01*
X136875464Y-77397158D01*
X136814955Y-77543238D01*
X136794318Y-77700000D01*
X134425500Y-77700000D01*
X134425500Y-69600000D01*
X141944416Y-69600000D01*
X141964699Y-69805933D01*
X142024767Y-70003952D01*
X142024768Y-70003954D01*
X142122315Y-70186450D01*
X142253590Y-70346410D01*
X142413550Y-70477685D01*
X142596046Y-70575232D01*
X142794065Y-70635299D01*
X142794066Y-70635300D01*
X142948389Y-70650500D01*
X142948392Y-70650500D01*
X143051608Y-70650500D01*
X143051611Y-70650500D01*
X143167352Y-70639100D01*
X143205934Y-70635300D01*
X143403954Y-70575232D01*
X143586450Y-70477685D01*
X143746410Y-70346410D01*
X143877685Y-70186450D01*
X143975232Y-70003954D01*
X144035300Y-69805934D01*
X144055583Y-69600000D01*
X144035300Y-69394066D01*
X143975232Y-69196046D01*
X143877685Y-69013550D01*
X143746410Y-68853590D01*
X143586450Y-68722315D01*
X143403954Y-68624768D01*
X143403953Y-68624767D01*
X143403952Y-68624767D01*
X143205933Y-68564699D01*
X143051611Y-68549500D01*
X143051608Y-68549500D01*
X142948392Y-68549500D01*
X142948389Y-68549500D01*
X142794066Y-68564699D01*
X142596047Y-68624767D01*
X142413549Y-68722315D01*
X142253590Y-68853590D01*
X142122315Y-69013549D01*
X142024767Y-69196047D01*
X141964699Y-69394066D01*
X141944416Y-69600000D01*
X134425500Y-69600000D01*
X134425500Y-66634678D01*
X135445748Y-66634678D01*
X135455748Y-66895591D01*
X135505462Y-67151927D01*
X135593720Y-67397666D01*
X135718459Y-67627059D01*
X135871812Y-67828238D01*
X135876750Y-67834716D01*
X136064886Y-68015778D01*
X136177491Y-68094982D01*
X136278459Y-68166001D01*
X136512451Y-68281859D01*
X136651997Y-68326020D01*
X136761395Y-68360641D01*
X137019445Y-68400500D01*
X137215171Y-68400500D01*
X137215177Y-68400500D01*
X137410344Y-68385516D01*
X137664586Y-68326021D01*
X137906766Y-68228414D01*
X138131208Y-68094982D01*
X138332652Y-67928852D01*
X138506375Y-67733920D01*
X138648306Y-67514753D01*
X138755118Y-67276489D01*
X138824307Y-67024713D01*
X138854252Y-66765325D01*
X138844251Y-66504407D01*
X138794538Y-66248073D01*
X138706279Y-66002332D01*
X138642610Y-65885247D01*
X138581540Y-65772940D01*
X138423252Y-65565287D01*
X138423250Y-65565284D01*
X138303461Y-65449999D01*
X146594318Y-65449999D01*
X146614955Y-65606761D01*
X146675464Y-65752841D01*
X146771717Y-65878282D01*
X146835767Y-65927429D01*
X146864290Y-65962184D01*
X146874500Y-66005971D01*
X146874500Y-72331466D01*
X146874123Y-72340096D01*
X146870735Y-72378807D01*
X146880795Y-72416350D01*
X146882663Y-72424778D01*
X146889411Y-72463042D01*
X146889412Y-72463045D01*
X146890166Y-72464352D01*
X146900055Y-72488225D01*
X146900446Y-72489685D01*
X146922732Y-72521514D01*
X146927370Y-72528794D01*
X146946803Y-72562452D01*
X146946805Y-72562454D01*
X146946806Y-72562455D01*
X146976583Y-72587441D01*
X146982938Y-72593264D01*
X150245504Y-75855830D01*
X150266964Y-75887948D01*
X150274500Y-75925834D01*
X150274500Y-79494029D01*
X150264290Y-79537816D01*
X150235767Y-79572571D01*
X150171717Y-79621717D01*
X150075464Y-79747158D01*
X150014955Y-79893238D01*
X149994318Y-80049999D01*
X150014955Y-80206761D01*
X150075464Y-80352841D01*
X150171717Y-80478282D01*
X150267970Y-80552139D01*
X150297159Y-80574536D01*
X150443238Y-80635044D01*
X150600000Y-80655682D01*
X150756762Y-80635044D01*
X150902841Y-80574536D01*
X151028282Y-80478282D01*
X151124536Y-80352841D01*
X151185044Y-80206762D01*
X151205682Y-80050000D01*
X151185044Y-79893238D01*
X151124536Y-79747159D01*
X151077957Y-79686456D01*
X151028282Y-79621717D01*
X150964233Y-79572571D01*
X150945709Y-79550000D01*
X151894318Y-79550000D01*
X151914955Y-79706761D01*
X151975464Y-79852841D01*
X152071717Y-79978282D01*
X152165182Y-80049999D01*
X152197159Y-80074536D01*
X152343238Y-80135044D01*
X152500000Y-80155682D01*
X152656762Y-80135044D01*
X152802841Y-80074536D01*
X152928282Y-79978282D01*
X153024536Y-79852841D01*
X153085044Y-79706762D01*
X153105682Y-79550000D01*
X153085044Y-79393238D01*
X153024536Y-79247159D01*
X152983990Y-79194318D01*
X152928282Y-79121717D01*
X152802841Y-79025464D01*
X152656761Y-78964955D01*
X152500000Y-78944318D01*
X152343238Y-78964955D01*
X152197158Y-79025464D01*
X152071717Y-79121717D01*
X151975464Y-79247158D01*
X151914955Y-79393238D01*
X151894318Y-79550000D01*
X150945709Y-79550000D01*
X150935710Y-79537816D01*
X150925500Y-79494029D01*
X150925500Y-75768526D01*
X150925877Y-75759897D01*
X150929263Y-75721194D01*
X150927392Y-75714212D01*
X150919199Y-75683638D01*
X150917335Y-75675223D01*
X150910589Y-75636958D01*
X150910588Y-75636956D01*
X150910588Y-75636955D01*
X150909834Y-75635650D01*
X150899943Y-75611768D01*
X150899942Y-75611765D01*
X150899554Y-75610316D01*
X150877260Y-75578477D01*
X150872633Y-75571215D01*
X150853194Y-75537545D01*
X150823428Y-75512568D01*
X150817060Y-75506734D01*
X147554496Y-72244170D01*
X147533036Y-72212052D01*
X147525500Y-72174166D01*
X147525500Y-66005971D01*
X147535710Y-65962184D01*
X147564233Y-65927429D01*
X147628282Y-65878282D01*
X147628282Y-65878281D01*
X147724536Y-65752841D01*
X147785044Y-65606762D01*
X147805682Y-65450000D01*
X147785044Y-65293238D01*
X147749273Y-65206880D01*
X149246672Y-65206880D01*
X149362819Y-65278796D01*
X149570200Y-65359137D01*
X149788802Y-65400000D01*
X150011198Y-65400000D01*
X150229799Y-65359137D01*
X150437178Y-65278798D01*
X150553326Y-65206880D01*
X156246672Y-65206880D01*
X156362819Y-65278796D01*
X156570200Y-65359137D01*
X156788802Y-65400000D01*
X157011198Y-65400000D01*
X157229799Y-65359137D01*
X157437178Y-65278798D01*
X157553326Y-65206880D01*
X156899999Y-64553553D01*
X156246672Y-65206880D01*
X150553326Y-65206880D01*
X149899999Y-64553553D01*
X149246672Y-65206880D01*
X147749273Y-65206880D01*
X147724536Y-65147159D01*
X147702139Y-65117971D01*
X147628282Y-65021717D01*
X147502841Y-64925464D01*
X147356761Y-64864955D01*
X147220637Y-64847034D01*
X147200000Y-64844318D01*
X147199999Y-64844318D01*
X147043238Y-64864955D01*
X146897158Y-64925464D01*
X146771717Y-65021717D01*
X146675464Y-65147158D01*
X146614955Y-65293238D01*
X146594318Y-65449999D01*
X138303461Y-65449999D01*
X138235114Y-65384222D01*
X138021544Y-65234001D01*
X138021540Y-65233998D01*
X137787548Y-65118140D01*
X137538609Y-65039360D01*
X137538607Y-65039359D01*
X137538605Y-65039359D01*
X137280555Y-64999500D01*
X137084823Y-64999500D01*
X136938447Y-65010737D01*
X136889654Y-65014484D01*
X136635414Y-65073979D01*
X136393231Y-65171587D01*
X136168795Y-65305015D01*
X135967345Y-65471149D01*
X135793623Y-65666081D01*
X135651695Y-65885244D01*
X135544881Y-66123513D01*
X135475693Y-66375284D01*
X135445748Y-66634678D01*
X134425500Y-66634678D01*
X134425500Y-64200000D01*
X148694859Y-64200000D01*
X148715379Y-64421445D01*
X148776239Y-64635348D01*
X148875366Y-64834422D01*
X148891138Y-64855307D01*
X149546445Y-64199999D01*
X150253553Y-64199999D01*
X150908861Y-64855307D01*
X150924631Y-64834424D01*
X151023760Y-64635348D01*
X151084620Y-64421445D01*
X151105140Y-64200000D01*
X155694859Y-64200000D01*
X155715379Y-64421445D01*
X155776239Y-64635348D01*
X155875366Y-64834422D01*
X155891138Y-64855307D01*
X156546445Y-64199999D01*
X155891137Y-63544691D01*
X155875367Y-63565575D01*
X155776239Y-63764651D01*
X155715379Y-63978554D01*
X155694859Y-64200000D01*
X151105140Y-64200000D01*
X151084620Y-63978554D01*
X151023760Y-63764651D01*
X150924633Y-63565577D01*
X150908861Y-63544691D01*
X150253553Y-64199999D01*
X149546445Y-64199999D01*
X148891137Y-63544691D01*
X148875367Y-63565575D01*
X148776239Y-63764651D01*
X148715379Y-63978554D01*
X148694859Y-64200000D01*
X134425500Y-64200000D01*
X134425500Y-62599999D01*
X141944416Y-62599999D01*
X141964699Y-62805933D01*
X142024767Y-63003952D01*
X142024768Y-63003954D01*
X142122315Y-63186450D01*
X142253590Y-63346410D01*
X142413550Y-63477685D01*
X142596046Y-63575232D01*
X142794065Y-63635299D01*
X142794066Y-63635300D01*
X142948389Y-63650500D01*
X142948392Y-63650500D01*
X143051608Y-63650500D01*
X143051611Y-63650500D01*
X143167352Y-63639099D01*
X143205934Y-63635300D01*
X143403954Y-63575232D01*
X143586450Y-63477685D01*
X143746410Y-63346410D01*
X143872213Y-63193118D01*
X149246672Y-63193118D01*
X149899999Y-63846445D01*
X150553326Y-63193118D01*
X150437180Y-63121203D01*
X150229799Y-63040862D01*
X150011198Y-63000000D01*
X149788802Y-63000000D01*
X149570200Y-63040862D01*
X149362819Y-63121203D01*
X149246672Y-63193118D01*
X143872213Y-63193118D01*
X143877685Y-63186450D01*
X143975232Y-63003954D01*
X144035300Y-62805934D01*
X144055583Y-62600000D01*
X144055487Y-62599023D01*
X150354529Y-62599023D01*
X150496237Y-62674768D01*
X150694165Y-62734808D01*
X150900000Y-62755081D01*
X151105834Y-62734808D01*
X151303760Y-62674768D01*
X151445469Y-62599023D01*
X150899999Y-62053553D01*
X150354529Y-62599023D01*
X144055487Y-62599023D01*
X144035300Y-62394066D01*
X143975232Y-62196046D01*
X143877685Y-62013550D01*
X143746410Y-61853590D01*
X143586450Y-61722315D01*
X143544702Y-61700000D01*
X149844918Y-61700000D01*
X149865191Y-61905834D01*
X149925231Y-62103763D01*
X150000975Y-62245469D01*
X150546446Y-61699999D01*
X151253553Y-61699999D01*
X151799023Y-62245469D01*
X151874768Y-62103760D01*
X151934808Y-61905834D01*
X151955081Y-61700000D01*
X154844416Y-61700000D01*
X154864699Y-61905933D01*
X154909479Y-62053553D01*
X154924768Y-62103954D01*
X155022315Y-62286450D01*
X155153590Y-62446410D01*
X155313550Y-62577685D01*
X155496046Y-62675232D01*
X155694066Y-62735300D01*
X155900000Y-62755583D01*
X156105934Y-62735300D01*
X156303954Y-62675232D01*
X156486450Y-62577685D01*
X156646410Y-62446410D01*
X156777685Y-62286450D01*
X156875232Y-62103954D01*
X156935300Y-61905934D01*
X156955583Y-61700000D01*
X156935300Y-61494066D01*
X156875232Y-61296046D01*
X156777685Y-61113550D01*
X156646410Y-60953590D01*
X156486450Y-60822315D01*
X156303954Y-60724768D01*
X156303953Y-60724767D01*
X156303952Y-60724767D01*
X156105933Y-60664699D01*
X155900000Y-60644416D01*
X155694066Y-60664699D01*
X155496047Y-60724767D01*
X155313549Y-60822315D01*
X155153590Y-60953590D01*
X155022315Y-61113549D01*
X154924767Y-61296047D01*
X154864699Y-61494066D01*
X154844416Y-61700000D01*
X151955081Y-61700000D01*
X151934808Y-61494165D01*
X151874768Y-61296237D01*
X151799023Y-61154529D01*
X151253553Y-61699999D01*
X150546446Y-61699999D01*
X150000975Y-61154528D01*
X149925231Y-61296236D01*
X149865191Y-61494165D01*
X149844918Y-61700000D01*
X143544702Y-61700000D01*
X143403954Y-61624768D01*
X143403953Y-61624767D01*
X143403952Y-61624767D01*
X143205933Y-61564699D01*
X143051611Y-61549500D01*
X143051608Y-61549500D01*
X142948392Y-61549500D01*
X142948389Y-61549500D01*
X142794066Y-61564699D01*
X142596047Y-61624767D01*
X142413549Y-61722315D01*
X142253590Y-61853590D01*
X142122315Y-62013549D01*
X142024767Y-62196047D01*
X141964699Y-62394066D01*
X141944416Y-62599999D01*
X134425500Y-62599999D01*
X134425500Y-60800975D01*
X150354528Y-60800975D01*
X150899999Y-61346446D01*
X151445469Y-60800975D01*
X151303763Y-60725231D01*
X151105834Y-60665191D01*
X150900000Y-60644918D01*
X150694165Y-60665191D01*
X150496236Y-60725231D01*
X150354528Y-60800975D01*
X134425500Y-60800975D01*
X134425500Y-59324500D01*
X134438763Y-59275000D01*
X134475000Y-59238763D01*
X134524500Y-59225500D01*
X157377568Y-59225500D01*
X157426706Y-59238555D01*
G37*
%TD.AperFunction*%
%TA.AperFunction,Conductor*%
G36*
X164440195Y-128063464D02*
G01*
X164465150Y-128070150D01*
X164537165Y-128099980D01*
X164559543Y-128112901D01*
X164621376Y-128160347D01*
X164639651Y-128178622D01*
X164687097Y-128240455D01*
X164700019Y-128262836D01*
X164729845Y-128334841D01*
X164736534Y-128359805D01*
X164746707Y-128437077D01*
X164746707Y-128462921D01*
X164736534Y-128540192D01*
X164729845Y-128565156D01*
X164700019Y-128637162D01*
X164687097Y-128659543D01*
X164639651Y-128721376D01*
X164621376Y-128739651D01*
X164559543Y-128787097D01*
X164537162Y-128800019D01*
X164465157Y-128829845D01*
X164440192Y-128836534D01*
X164362920Y-128846706D01*
X164337078Y-128846706D01*
X164259806Y-128836534D01*
X164234841Y-128829845D01*
X164162836Y-128800019D01*
X164140455Y-128787097D01*
X164078622Y-128739651D01*
X164060347Y-128721376D01*
X164012901Y-128659543D01*
X163999980Y-128637165D01*
X163970150Y-128565150D01*
X163963464Y-128540192D01*
X163953291Y-128462913D01*
X163953291Y-128437085D01*
X163963464Y-128359800D01*
X163970149Y-128334851D01*
X163999984Y-128262824D01*
X164012899Y-128240456D01*
X164060349Y-128178617D01*
X164078617Y-128160349D01*
X164140456Y-128112899D01*
X164162824Y-128099984D01*
X164234851Y-128070149D01*
X164259800Y-128063464D01*
X164337085Y-128053291D01*
X164362913Y-128053291D01*
X164440195Y-128063464D01*
G37*
%TD.AperFunction*%
%TA.AperFunction,Conductor*%
G36*
X172325000Y-59238763D02*
G01*
X172361237Y-59275000D01*
X172374500Y-59324500D01*
X172374500Y-88108982D01*
X172358996Y-88162175D01*
X172317339Y-88198707D01*
X172262577Y-88207135D01*
X172211864Y-88184820D01*
X172173434Y-88152573D01*
X172167066Y-88146739D01*
X171588502Y-87568175D01*
X171565850Y-87533041D01*
X171559718Y-87491691D01*
X171571199Y-87451498D01*
X171575232Y-87443954D01*
X171587704Y-87402841D01*
X171616848Y-87306762D01*
X171635300Y-87245934D01*
X171655583Y-87040000D01*
X171654212Y-87026085D01*
X171635300Y-86834066D01*
X171625234Y-86800882D01*
X171575232Y-86636046D01*
X171477685Y-86453550D01*
X171346410Y-86293590D01*
X171186450Y-86162315D01*
X171003954Y-86064768D01*
X171003953Y-86064767D01*
X171003952Y-86064767D01*
X170805933Y-86004699D01*
X170600000Y-85984416D01*
X170394066Y-86004699D01*
X170196047Y-86064767D01*
X170013549Y-86162315D01*
X169853590Y-86293590D01*
X169722315Y-86453549D01*
X169624767Y-86636047D01*
X169564699Y-86834066D01*
X169544416Y-87039999D01*
X169564699Y-87245933D01*
X169624767Y-87443952D01*
X169624768Y-87443954D01*
X169722315Y-87626450D01*
X169853590Y-87786410D01*
X170013550Y-87917685D01*
X170196046Y-88015232D01*
X170394066Y-88075300D01*
X170600000Y-88095583D01*
X170805934Y-88075300D01*
X170958346Y-88029067D01*
X171003952Y-88015233D01*
X171003954Y-88015232D01*
X171011498Y-88011199D01*
X171051691Y-87999718D01*
X171093041Y-88005850D01*
X171128175Y-88028502D01*
X171595504Y-88495831D01*
X171616964Y-88527949D01*
X171624500Y-88565835D01*
X171624500Y-88895758D01*
X171606441Y-88952763D01*
X171558852Y-88988971D01*
X171499095Y-88991172D01*
X171448972Y-88958563D01*
X171436530Y-88943402D01*
X171346410Y-88833590D01*
X171186450Y-88702315D01*
X171003954Y-88604768D01*
X171003953Y-88604767D01*
X171003952Y-88604767D01*
X170805933Y-88544699D01*
X170599999Y-88524416D01*
X170394066Y-88544699D01*
X170196047Y-88604767D01*
X170013549Y-88702315D01*
X169853590Y-88833590D01*
X169722315Y-88993549D01*
X169624767Y-89176047D01*
X169564699Y-89374066D01*
X169544416Y-89579999D01*
X169564699Y-89785933D01*
X169607068Y-89925605D01*
X169624768Y-89983954D01*
X169722315Y-90166450D01*
X169853590Y-90326410D01*
X170013550Y-90457685D01*
X170196046Y-90555232D01*
X170394066Y-90615300D01*
X170600000Y-90635583D01*
X170805934Y-90615300D01*
X171003954Y-90555232D01*
X171186450Y-90457685D01*
X171346410Y-90326410D01*
X171448972Y-90201436D01*
X171499095Y-90168828D01*
X171558852Y-90171029D01*
X171606441Y-90207237D01*
X171624500Y-90264242D01*
X171624500Y-91435758D01*
X171606441Y-91492763D01*
X171558852Y-91528971D01*
X171499095Y-91531172D01*
X171448972Y-91498563D01*
X171444212Y-91492763D01*
X171346410Y-91373590D01*
X171186450Y-91242315D01*
X171003954Y-91144768D01*
X171003953Y-91144767D01*
X171003952Y-91144767D01*
X170805933Y-91084699D01*
X170599999Y-91064416D01*
X170394066Y-91084699D01*
X170196047Y-91144767D01*
X170013549Y-91242315D01*
X169853590Y-91373590D01*
X169722315Y-91533549D01*
X169624767Y-91716047D01*
X169564699Y-91914066D01*
X169544416Y-92120000D01*
X169564699Y-92325933D01*
X169620794Y-92510854D01*
X169624768Y-92523954D01*
X169722315Y-92706450D01*
X169853590Y-92866410D01*
X170013550Y-92997685D01*
X170196046Y-93095232D01*
X170394066Y-93155300D01*
X170600000Y-93175583D01*
X170805934Y-93155300D01*
X171003954Y-93095232D01*
X171186450Y-92997685D01*
X171346410Y-92866410D01*
X171448972Y-92741436D01*
X171499095Y-92708828D01*
X171558852Y-92711029D01*
X171606441Y-92747237D01*
X171624500Y-92804242D01*
X171624500Y-93975758D01*
X171606441Y-94032763D01*
X171558852Y-94068971D01*
X171499095Y-94071172D01*
X171448972Y-94038563D01*
X171425733Y-94010246D01*
X171346410Y-93913590D01*
X171186450Y-93782315D01*
X171003954Y-93684768D01*
X171003953Y-93684767D01*
X171003952Y-93684767D01*
X170805933Y-93624699D01*
X170600000Y-93604416D01*
X170394066Y-93624699D01*
X170196047Y-93684767D01*
X170013549Y-93782315D01*
X169853590Y-93913590D01*
X169722313Y-94073550D01*
X169711810Y-94093202D01*
X169676227Y-94130945D01*
X169626444Y-94145515D01*
X169576127Y-94132911D01*
X169539089Y-94096594D01*
X169525500Y-94046534D01*
X169525500Y-93438534D01*
X169525877Y-93429904D01*
X169529264Y-93391193D01*
X169529263Y-93391192D01*
X169519203Y-93353647D01*
X169517335Y-93345220D01*
X169516543Y-93340732D01*
X169510588Y-93306955D01*
X169509834Y-93305650D01*
X169499943Y-93281768D01*
X169499942Y-93281765D01*
X169499554Y-93280316D01*
X169477260Y-93248477D01*
X169472633Y-93241215D01*
X169453194Y-93207545D01*
X169423428Y-93182568D01*
X169417060Y-93176734D01*
X168888502Y-92648176D01*
X168865851Y-92613043D01*
X168859718Y-92571693D01*
X168871196Y-92531503D01*
X168875232Y-92523954D01*
X168935300Y-92325934D01*
X168955583Y-92120000D01*
X168935300Y-91914066D01*
X168875232Y-91716046D01*
X168777685Y-91533550D01*
X168646410Y-91373590D01*
X168486450Y-91242315D01*
X168303954Y-91144768D01*
X168303953Y-91144767D01*
X168303952Y-91144767D01*
X168105933Y-91084699D01*
X167899999Y-91064416D01*
X167694066Y-91084699D01*
X167496047Y-91144767D01*
X167313549Y-91242315D01*
X167153590Y-91373590D01*
X167151039Y-91376699D01*
X167100915Y-91409308D01*
X167041159Y-91407107D01*
X166993570Y-91370899D01*
X166975511Y-91313894D01*
X166975511Y-91005823D01*
X166983047Y-90967937D01*
X167004507Y-90935820D01*
X167371823Y-90568503D01*
X167406955Y-90545851D01*
X167448304Y-90539718D01*
X167488496Y-90551196D01*
X167496046Y-90555232D01*
X167496048Y-90555232D01*
X167496049Y-90555233D01*
X167609920Y-90589775D01*
X167694066Y-90615300D01*
X167900000Y-90635583D01*
X168105934Y-90615300D01*
X168303954Y-90555232D01*
X168486450Y-90457685D01*
X168646410Y-90326410D01*
X168777685Y-90166450D01*
X168875232Y-89983954D01*
X168935300Y-89785934D01*
X168955583Y-89580000D01*
X168943984Y-89462240D01*
X168935300Y-89374066D01*
X168914441Y-89305303D01*
X168875232Y-89176046D01*
X168777685Y-88993550D01*
X168646410Y-88833590D01*
X168486450Y-88702315D01*
X168303954Y-88604768D01*
X168303953Y-88604767D01*
X168303952Y-88604767D01*
X168105933Y-88544699D01*
X167899999Y-88524416D01*
X167694066Y-88544699D01*
X167496047Y-88604767D01*
X167313549Y-88702315D01*
X167153590Y-88833590D01*
X167022315Y-88993549D01*
X166924767Y-89176047D01*
X166864699Y-89374066D01*
X166844416Y-89579999D01*
X166864699Y-89785933D01*
X166924767Y-89983953D01*
X166928803Y-89991504D01*
X166940280Y-90031697D01*
X166934147Y-90073044D01*
X166911496Y-90108174D01*
X166432951Y-90586720D01*
X166426586Y-90592553D01*
X166413149Y-90603829D01*
X166362435Y-90626146D01*
X166307673Y-90617718D01*
X166266015Y-90581187D01*
X166250510Y-90527993D01*
X166250510Y-89190824D01*
X166258046Y-89152938D01*
X166279506Y-89120820D01*
X166525020Y-88875306D01*
X167371824Y-88028500D01*
X167406953Y-88005851D01*
X167448301Y-87999718D01*
X167488495Y-88011196D01*
X167489799Y-88011893D01*
X167496046Y-88015232D01*
X167694066Y-88075300D01*
X167900000Y-88095583D01*
X168105934Y-88075300D01*
X168303954Y-88015232D01*
X168486450Y-87917685D01*
X168646410Y-87786410D01*
X168777685Y-87626450D01*
X168875232Y-87443954D01*
X168935300Y-87245934D01*
X168955583Y-87040000D01*
X168954212Y-87026085D01*
X168935300Y-86834066D01*
X168925234Y-86800882D01*
X168875232Y-86636046D01*
X168777685Y-86453550D01*
X168646410Y-86293590D01*
X168486450Y-86162315D01*
X168303954Y-86064768D01*
X168303953Y-86064767D01*
X168303952Y-86064767D01*
X168105933Y-86004699D01*
X167900000Y-85984416D01*
X167694066Y-86004699D01*
X167496047Y-86064767D01*
X167313549Y-86162315D01*
X167153590Y-86293590D01*
X167022315Y-86453549D01*
X166924767Y-86636047D01*
X166864699Y-86834066D01*
X166844416Y-87039999D01*
X166864699Y-87245933D01*
X166924767Y-87443955D01*
X166928804Y-87451507D01*
X166940280Y-87491700D01*
X166934146Y-87533046D01*
X166911496Y-87568176D01*
X165707950Y-88771722D01*
X165701584Y-88777555D01*
X165671814Y-88802535D01*
X165652381Y-88836194D01*
X165647744Y-88843474D01*
X165625454Y-88875308D01*
X165625063Y-88876770D01*
X165615178Y-88900635D01*
X165614420Y-88901946D01*
X165607672Y-88940213D01*
X165605804Y-88948639D01*
X165595745Y-88986181D01*
X165599133Y-89024894D01*
X165599510Y-89033524D01*
X165599510Y-91844029D01*
X165589300Y-91887816D01*
X165560777Y-91922571D01*
X165496727Y-91971717D01*
X165400474Y-92097158D01*
X165339965Y-92243238D01*
X165319328Y-92400000D01*
X165339965Y-92556761D01*
X165400474Y-92702841D01*
X165496727Y-92828282D01*
X165592981Y-92902139D01*
X165622169Y-92924536D01*
X165768248Y-92985044D01*
X165925010Y-93005682D01*
X166081772Y-92985044D01*
X166187616Y-92941201D01*
X166235203Y-92934143D01*
X166280501Y-92950350D01*
X166312810Y-92985998D01*
X166324500Y-93032666D01*
X166324500Y-93217338D01*
X166312810Y-93264006D01*
X166280501Y-93299654D01*
X166235203Y-93315861D01*
X166187616Y-93308802D01*
X166134243Y-93286694D01*
X166081761Y-93264955D01*
X165925000Y-93244318D01*
X165768238Y-93264955D01*
X165622158Y-93325464D01*
X165496717Y-93421717D01*
X165400464Y-93547158D01*
X165339955Y-93693238D01*
X165319318Y-93850000D01*
X165339955Y-94006761D01*
X165400464Y-94152841D01*
X165496717Y-94278282D01*
X165560767Y-94327429D01*
X165589290Y-94362184D01*
X165599500Y-94405971D01*
X165599500Y-95361751D01*
X165582088Y-95417825D01*
X165535978Y-95454176D01*
X165477389Y-95458016D01*
X165426929Y-95427995D01*
X165402347Y-95374673D01*
X165385044Y-95243242D01*
X165376828Y-95223406D01*
X165324536Y-95097163D01*
X165274895Y-95032469D01*
X165228282Y-94971721D01*
X165102841Y-94875468D01*
X164956761Y-94814959D01*
X164800000Y-94794322D01*
X164643238Y-94814959D01*
X164497158Y-94875468D01*
X164371717Y-94971721D01*
X164275464Y-95097162D01*
X164214955Y-95243242D01*
X164194318Y-95400004D01*
X164214955Y-95556765D01*
X164275464Y-95702845D01*
X164371717Y-95828286D01*
X164461551Y-95897217D01*
X164497159Y-95924540D01*
X164643238Y-95985048D01*
X164800000Y-96005686D01*
X164880043Y-95995147D01*
X164924784Y-95999554D01*
X164962966Y-96023296D01*
X165070505Y-96130835D01*
X165091965Y-96162953D01*
X165099501Y-96200839D01*
X165099501Y-96867338D01*
X165087811Y-96914006D01*
X165055502Y-96949654D01*
X165010205Y-96965861D01*
X164962615Y-96958802D01*
X164941365Y-96950000D01*
X164911468Y-96937616D01*
X164856761Y-96914955D01*
X164700000Y-96894318D01*
X164543238Y-96914955D01*
X164397158Y-96975464D01*
X164271717Y-97071717D01*
X164175464Y-97197158D01*
X164114955Y-97343238D01*
X164094318Y-97499999D01*
X164114955Y-97656761D01*
X164175464Y-97802841D01*
X164271717Y-97928282D01*
X164367971Y-98002139D01*
X164397159Y-98024536D01*
X164543238Y-98085044D01*
X164700000Y-98105682D01*
X164856762Y-98085044D01*
X164962615Y-98041197D01*
X165010205Y-98034139D01*
X165055502Y-98050346D01*
X165087811Y-98085994D01*
X165099501Y-98132662D01*
X165099501Y-101206467D01*
X165099124Y-101215097D01*
X165095736Y-101253808D01*
X165105796Y-101291351D01*
X165107664Y-101299779D01*
X165112571Y-101327601D01*
X165114413Y-101338046D01*
X165115167Y-101339353D01*
X165125056Y-101363226D01*
X165125447Y-101364686D01*
X165147733Y-101396515D01*
X165152371Y-101403795D01*
X165171804Y-101437453D01*
X165171806Y-101437455D01*
X165171807Y-101437456D01*
X165201584Y-101462442D01*
X165207939Y-101468265D01*
X165545503Y-101805829D01*
X165566963Y-101837947D01*
X165574499Y-101875833D01*
X165574499Y-104074166D01*
X165566963Y-104112052D01*
X165545502Y-104144170D01*
X165262965Y-104426706D01*
X165224785Y-104450448D01*
X165180041Y-104454855D01*
X165100000Y-104444318D01*
X164943238Y-104464955D01*
X164797158Y-104525464D01*
X164671717Y-104621717D01*
X164575464Y-104747158D01*
X164514955Y-104893238D01*
X164494318Y-105050000D01*
X164514955Y-105206761D01*
X164575464Y-105352841D01*
X164671717Y-105478282D01*
X164767970Y-105552139D01*
X164797159Y-105574536D01*
X164943238Y-105635044D01*
X165100000Y-105655682D01*
X165256762Y-105635044D01*
X165402841Y-105574536D01*
X165528282Y-105478282D01*
X165624536Y-105352841D01*
X165685044Y-105206762D01*
X165705682Y-105050000D01*
X165695143Y-104969954D01*
X165699550Y-104925213D01*
X165723291Y-104887033D01*
X166117065Y-104493260D01*
X166123423Y-104487435D01*
X166153193Y-104462456D01*
X166172633Y-104428781D01*
X166177257Y-104421524D01*
X166190124Y-104403148D01*
X166238718Y-104366422D01*
X166299614Y-104365094D01*
X166349761Y-104399668D01*
X166371717Y-104428282D01*
X166466004Y-104500630D01*
X166497159Y-104524536D01*
X166643238Y-104585044D01*
X166800000Y-104605682D01*
X166956762Y-104585044D01*
X167102841Y-104524536D01*
X167228282Y-104428282D01*
X167324536Y-104302841D01*
X167385044Y-104156762D01*
X167405682Y-104000000D01*
X167385044Y-103843238D01*
X167334190Y-103720467D01*
X167327502Y-103669661D01*
X167347113Y-103622316D01*
X167387769Y-103591119D01*
X167438577Y-103584430D01*
X167443236Y-103585043D01*
X167443238Y-103585044D01*
X167600000Y-103605682D01*
X167756762Y-103585044D01*
X167902841Y-103524536D01*
X168028282Y-103428282D01*
X168124536Y-103302841D01*
X168185044Y-103156762D01*
X168205682Y-103000000D01*
X168191971Y-102895858D01*
X168193970Y-102859372D01*
X168195224Y-102856607D01*
X168195034Y-102856556D01*
X168199551Y-102839686D01*
X168199554Y-102839684D01*
X168199943Y-102838228D01*
X168209838Y-102814343D01*
X168210588Y-102813045D01*
X168217335Y-102774777D01*
X168219201Y-102766359D01*
X168229264Y-102728807D01*
X168225876Y-102690093D01*
X168225500Y-102681466D01*
X168225500Y-98272454D01*
X168234325Y-98231595D01*
X168259226Y-98198021D01*
X168295765Y-98177716D01*
X168303954Y-98175232D01*
X168318223Y-98167605D01*
X168486450Y-98077685D01*
X168646410Y-97946410D01*
X168698971Y-97882363D01*
X168749096Y-97849754D01*
X168808852Y-97851955D01*
X168856441Y-97888163D01*
X168874500Y-97945168D01*
X168874500Y-98144035D01*
X168864290Y-98187822D01*
X168835767Y-98222577D01*
X168771717Y-98271723D01*
X168675464Y-98397164D01*
X168614955Y-98543244D01*
X168594318Y-98700005D01*
X168594318Y-98700006D01*
X168595459Y-98708674D01*
X168614955Y-98856767D01*
X168675464Y-99002847D01*
X168771717Y-99128288D01*
X168865653Y-99200367D01*
X168897159Y-99224542D01*
X169043238Y-99285050D01*
X169200000Y-99305688D01*
X169356762Y-99285050D01*
X169502841Y-99224542D01*
X169628282Y-99128288D01*
X169724536Y-99002847D01*
X169785044Y-98856768D01*
X169805682Y-98700006D01*
X169785044Y-98543244D01*
X169724536Y-98397165D01*
X169680665Y-98339991D01*
X169628282Y-98271723D01*
X169564233Y-98222577D01*
X169535710Y-98187822D01*
X169525500Y-98144035D01*
X169525500Y-97812408D01*
X169539089Y-97762348D01*
X169576126Y-97726031D01*
X169626444Y-97713427D01*
X169676227Y-97727997D01*
X169711810Y-97765740D01*
X169722730Y-97786170D01*
X169853945Y-97946054D01*
X170013829Y-98077269D01*
X170196236Y-98174768D01*
X170349999Y-98221411D01*
X170350000Y-98221411D01*
X170350000Y-96178589D01*
X170349999Y-96178588D01*
X170196236Y-96225231D01*
X170013829Y-96322730D01*
X169853945Y-96453945D01*
X169722730Y-96613829D01*
X169711810Y-96634260D01*
X169676227Y-96672003D01*
X169626444Y-96686573D01*
X169576126Y-96673969D01*
X169539089Y-96637652D01*
X169525500Y-96587592D01*
X169525500Y-95273466D01*
X169539089Y-95223406D01*
X169576127Y-95187089D01*
X169626444Y-95174485D01*
X169676227Y-95189055D01*
X169711810Y-95226798D01*
X169722313Y-95246449D01*
X169774267Y-95309754D01*
X169853590Y-95406410D01*
X170013550Y-95537685D01*
X170196046Y-95635232D01*
X170385267Y-95692631D01*
X170394066Y-95695300D01*
X170599999Y-95715583D01*
X170599999Y-95715582D01*
X170600000Y-95715583D01*
X170805934Y-95695300D01*
X171003954Y-95635232D01*
X171186450Y-95537685D01*
X171346410Y-95406410D01*
X171448972Y-95281436D01*
X171499095Y-95248828D01*
X171558852Y-95251029D01*
X171606441Y-95287237D01*
X171624500Y-95344242D01*
X171624500Y-96516544D01*
X171606441Y-96573549D01*
X171558852Y-96609757D01*
X171499096Y-96611958D01*
X171448972Y-96579349D01*
X171346054Y-96453945D01*
X171186170Y-96322730D01*
X171003763Y-96225231D01*
X170850000Y-96178588D01*
X170850000Y-98221411D01*
X171003763Y-98174768D01*
X171186170Y-98077269D01*
X171346054Y-97946054D01*
X171448972Y-97820651D01*
X171499096Y-97788042D01*
X171558852Y-97790243D01*
X171606441Y-97826451D01*
X171624500Y-97883456D01*
X171624500Y-99474166D01*
X171616964Y-99512052D01*
X171595504Y-99544170D01*
X169082940Y-102056732D01*
X169076574Y-102062565D01*
X169046804Y-102087545D01*
X169027371Y-102121204D01*
X169022734Y-102128484D01*
X169000444Y-102160318D01*
X169000053Y-102161780D01*
X168990168Y-102185645D01*
X168989410Y-102186956D01*
X168982662Y-102225223D01*
X168980794Y-102233649D01*
X168970735Y-102271191D01*
X168974123Y-102309904D01*
X168974500Y-102318534D01*
X168974500Y-112595500D01*
X168961237Y-112645000D01*
X168925000Y-112681237D01*
X168875500Y-112694500D01*
X163524500Y-112694500D01*
X163475000Y-112681237D01*
X163438763Y-112645000D01*
X163425500Y-112595500D01*
X163425500Y-109868534D01*
X163425877Y-109859904D01*
X163429264Y-109821193D01*
X163426594Y-109811228D01*
X163419203Y-109783647D01*
X163417335Y-109775220D01*
X163415564Y-109765174D01*
X163410588Y-109736955D01*
X163409834Y-109735650D01*
X163399943Y-109711768D01*
X163399942Y-109711765D01*
X163399554Y-109710316D01*
X163377260Y-109678477D01*
X163372633Y-109671215D01*
X163353194Y-109637545D01*
X163323428Y-109612568D01*
X163317060Y-109606734D01*
X162804496Y-109094170D01*
X162783036Y-109062052D01*
X162775500Y-109024166D01*
X162775500Y-105400000D01*
X163044318Y-105400000D01*
X163064955Y-105556761D01*
X163125464Y-105702841D01*
X163221717Y-105828282D01*
X163307580Y-105894166D01*
X163347159Y-105924536D01*
X163493238Y-105985044D01*
X163650000Y-106005682D01*
X163806762Y-105985044D01*
X163952841Y-105924536D01*
X164078282Y-105828282D01*
X164174536Y-105702841D01*
X164235044Y-105556762D01*
X164255682Y-105400000D01*
X164235044Y-105243238D01*
X164174536Y-105097159D01*
X164100378Y-105000514D01*
X164078282Y-104971717D01*
X163952841Y-104875464D01*
X163806761Y-104814955D01*
X163650000Y-104794318D01*
X163493238Y-104814955D01*
X163347158Y-104875464D01*
X163221717Y-104971717D01*
X163125464Y-105097158D01*
X163064955Y-105243238D01*
X163044318Y-105400000D01*
X162775500Y-105400000D01*
X162775500Y-99375834D01*
X162783036Y-99337948D01*
X162804496Y-99305830D01*
X163057485Y-99052841D01*
X163367072Y-98743253D01*
X163373431Y-98737428D01*
X163382124Y-98730134D01*
X163403194Y-98712455D01*
X163422634Y-98678780D01*
X163427254Y-98671529D01*
X163449553Y-98639684D01*
X163449942Y-98638230D01*
X163459833Y-98614351D01*
X163460588Y-98613045D01*
X163467338Y-98574761D01*
X163469198Y-98566367D01*
X163479263Y-98528807D01*
X163475876Y-98490102D01*
X163475500Y-98481475D01*
X163475500Y-92655928D01*
X163483036Y-92618042D01*
X163504496Y-92585925D01*
X163594238Y-92496183D01*
X163867561Y-92222858D01*
X163873904Y-92217045D01*
X163903694Y-92192050D01*
X163923132Y-92158380D01*
X163927754Y-92151124D01*
X163950054Y-92119279D01*
X163950442Y-92117827D01*
X163960338Y-92093938D01*
X163961088Y-92092640D01*
X163967835Y-92054372D01*
X163969701Y-92045954D01*
X163979764Y-92008402D01*
X163976376Y-91969688D01*
X163976000Y-91961061D01*
X163976000Y-85699999D01*
X164194318Y-85699999D01*
X164214955Y-85856761D01*
X164275464Y-86002841D01*
X164371717Y-86128282D01*
X164465154Y-86199978D01*
X164497159Y-86224536D01*
X164643238Y-86285044D01*
X164800000Y-86305682D01*
X164956762Y-86285044D01*
X165102841Y-86224536D01*
X165228282Y-86128282D01*
X165324536Y-86002841D01*
X165385044Y-85856762D01*
X165405682Y-85700000D01*
X165385044Y-85543238D01*
X165324536Y-85397159D01*
X165303503Y-85369748D01*
X166849500Y-85369748D01*
X166860398Y-85424536D01*
X166861133Y-85428231D01*
X166905447Y-85494552D01*
X166938358Y-85516542D01*
X166971769Y-85538867D01*
X167030252Y-85550500D01*
X168769747Y-85550500D01*
X168769748Y-85550500D01*
X168828231Y-85538867D01*
X168894552Y-85494552D01*
X168938867Y-85428231D01*
X168950500Y-85369748D01*
X169549500Y-85369748D01*
X169560398Y-85424536D01*
X169561133Y-85428231D01*
X169605447Y-85494552D01*
X169638358Y-85516542D01*
X169671769Y-85538867D01*
X169730252Y-85550500D01*
X171469747Y-85550500D01*
X171469748Y-85550500D01*
X171528231Y-85538867D01*
X171594552Y-85494552D01*
X171638867Y-85428231D01*
X171650500Y-85369748D01*
X171650500Y-83630252D01*
X171638867Y-83571769D01*
X171615377Y-83536614D01*
X171594552Y-83505447D01*
X171528231Y-83461133D01*
X171520574Y-83459610D01*
X171469748Y-83449500D01*
X169730252Y-83449500D01*
X169701010Y-83455316D01*
X169671768Y-83461133D01*
X169605447Y-83505447D01*
X169561133Y-83571768D01*
X169556548Y-83594819D01*
X169549500Y-83630252D01*
X169549500Y-85369748D01*
X168950500Y-85369748D01*
X168950500Y-83630252D01*
X168938867Y-83571769D01*
X168915377Y-83536614D01*
X168894552Y-83505447D01*
X168828231Y-83461133D01*
X168820574Y-83459610D01*
X168769748Y-83449500D01*
X167030252Y-83449500D01*
X167001010Y-83455316D01*
X166971768Y-83461133D01*
X166905447Y-83505447D01*
X166861133Y-83571768D01*
X166856548Y-83594819D01*
X166849500Y-83630252D01*
X166849500Y-85369748D01*
X165303503Y-85369748D01*
X165271685Y-85328282D01*
X165228282Y-85271717D01*
X165102841Y-85175464D01*
X164956761Y-85114955D01*
X164800000Y-85094318D01*
X164643238Y-85114955D01*
X164497158Y-85175464D01*
X164371717Y-85271717D01*
X164275464Y-85397158D01*
X164214955Y-85543238D01*
X164194318Y-85699999D01*
X163976000Y-85699999D01*
X163976000Y-81449999D01*
X167544318Y-81449999D01*
X167564955Y-81606761D01*
X167625464Y-81752841D01*
X167721717Y-81878282D01*
X167786879Y-81928282D01*
X167847159Y-81974536D01*
X167993238Y-82035044D01*
X168150000Y-82055682D01*
X168306762Y-82035044D01*
X168452841Y-81974536D01*
X168578282Y-81878282D01*
X168674536Y-81752841D01*
X168735044Y-81606762D01*
X168755682Y-81450000D01*
X168755682Y-81449999D01*
X170044318Y-81449999D01*
X170064955Y-81606761D01*
X170125464Y-81752841D01*
X170221717Y-81878282D01*
X170286879Y-81928282D01*
X170347159Y-81974536D01*
X170493238Y-82035044D01*
X170650000Y-82055682D01*
X170806762Y-82035044D01*
X170952841Y-81974536D01*
X171078282Y-81878282D01*
X171174536Y-81752841D01*
X171235044Y-81606762D01*
X171255682Y-81450000D01*
X171235044Y-81293238D01*
X171174536Y-81147159D01*
X171152139Y-81117971D01*
X171078282Y-81021717D01*
X170952841Y-80925464D01*
X170806761Y-80864955D01*
X170650000Y-80844318D01*
X170493238Y-80864955D01*
X170347158Y-80925464D01*
X170221717Y-81021717D01*
X170125464Y-81147158D01*
X170064955Y-81293238D01*
X170044318Y-81449999D01*
X168755682Y-81449999D01*
X168735044Y-81293238D01*
X168674536Y-81147159D01*
X168652139Y-81117971D01*
X168578282Y-81021717D01*
X168452841Y-80925464D01*
X168306761Y-80864955D01*
X168150000Y-80844318D01*
X167993238Y-80864955D01*
X167847158Y-80925464D01*
X167721717Y-81021717D01*
X167625464Y-81147158D01*
X167564955Y-81293238D01*
X167544318Y-81449999D01*
X163976000Y-81449999D01*
X163976000Y-79975334D01*
X163983536Y-79937448D01*
X164004996Y-79905331D01*
X164360326Y-79550000D01*
X166444318Y-79550000D01*
X166464955Y-79706761D01*
X166525464Y-79852841D01*
X166621717Y-79978282D01*
X166715182Y-80049999D01*
X166747159Y-80074536D01*
X166893238Y-80135044D01*
X167050000Y-80155682D01*
X167206762Y-80135044D01*
X167352841Y-80074536D01*
X167478282Y-79978282D01*
X167574536Y-79852841D01*
X167635044Y-79706762D01*
X167655682Y-79550000D01*
X167635044Y-79393238D01*
X167574536Y-79247159D01*
X167533990Y-79194318D01*
X167478282Y-79121717D01*
X167352841Y-79025464D01*
X167206761Y-78964955D01*
X167050000Y-78944318D01*
X166893238Y-78964955D01*
X166747158Y-79025464D01*
X166621717Y-79121717D01*
X166525464Y-79247158D01*
X166464955Y-79393238D01*
X166444318Y-79550000D01*
X164360326Y-79550000D01*
X164837032Y-79073293D01*
X164875214Y-79049550D01*
X164919954Y-79045143D01*
X165000000Y-79055682D01*
X165156762Y-79035044D01*
X165302841Y-78974536D01*
X165428282Y-78878282D01*
X165524536Y-78752841D01*
X165585044Y-78606762D01*
X165605682Y-78450000D01*
X165585044Y-78293238D01*
X165524536Y-78147159D01*
X165445624Y-78044318D01*
X165428282Y-78021717D01*
X165302841Y-77925464D01*
X165156761Y-77864955D01*
X165000000Y-77844318D01*
X164843238Y-77864955D01*
X164697158Y-77925464D01*
X164571717Y-78021717D01*
X164475464Y-78147158D01*
X164414955Y-78293238D01*
X164394318Y-78450000D01*
X164404855Y-78530041D01*
X164400448Y-78574785D01*
X164376706Y-78612966D01*
X163433440Y-79556232D01*
X163427074Y-79562065D01*
X163397304Y-79587045D01*
X163377871Y-79620704D01*
X163373234Y-79627984D01*
X163350944Y-79659818D01*
X163350553Y-79661280D01*
X163340668Y-79685145D01*
X163339910Y-79686456D01*
X163333162Y-79724723D01*
X163331294Y-79733149D01*
X163321235Y-79770691D01*
X163324623Y-79809404D01*
X163325000Y-79818034D01*
X163325000Y-89445180D01*
X163310071Y-89497459D01*
X163269787Y-89533970D01*
X163216297Y-89543703D01*
X163165733Y-89523722D01*
X163102842Y-89475464D01*
X162956761Y-89414955D01*
X162800000Y-89394318D01*
X162643238Y-89414955D01*
X162497158Y-89475464D01*
X162371717Y-89571717D01*
X162275464Y-89697158D01*
X162215964Y-89840804D01*
X162182690Y-89883011D01*
X162132267Y-89901613D01*
X162079555Y-89891128D01*
X162040089Y-89854645D01*
X162025500Y-89802918D01*
X162025500Y-87218523D01*
X162025877Y-87209894D01*
X162028999Y-87174213D01*
X162047361Y-87124884D01*
X162088410Y-87091938D01*
X162140544Y-87084689D01*
X162143236Y-87085043D01*
X162143238Y-87085044D01*
X162300000Y-87105682D01*
X162456762Y-87085044D01*
X162602841Y-87024536D01*
X162728282Y-86928282D01*
X162824536Y-86802841D01*
X162885044Y-86656762D01*
X162905682Y-86500000D01*
X162885044Y-86343238D01*
X162824536Y-86197159D01*
X162788838Y-86150636D01*
X162728282Y-86071717D01*
X162664233Y-86022571D01*
X162635710Y-85987816D01*
X162625500Y-85944029D01*
X162625500Y-80555971D01*
X162635710Y-80512184D01*
X162664233Y-80477429D01*
X162728282Y-80428282D01*
X162732111Y-80423292D01*
X162824536Y-80302841D01*
X162885044Y-80156762D01*
X162905682Y-80000000D01*
X162885044Y-79843238D01*
X162824536Y-79697159D01*
X162783160Y-79643236D01*
X162728282Y-79571717D01*
X162602841Y-79475464D01*
X162456761Y-79414955D01*
X162300000Y-79394318D01*
X162143238Y-79414955D01*
X161997158Y-79475464D01*
X161871717Y-79571717D01*
X161775464Y-79697158D01*
X161714955Y-79843238D01*
X161694318Y-80000000D01*
X161714955Y-80156761D01*
X161775464Y-80302841D01*
X161871717Y-80428282D01*
X161935767Y-80477429D01*
X161964290Y-80512184D01*
X161974500Y-80555971D01*
X161974500Y-84682209D01*
X161959911Y-84733936D01*
X161920445Y-84770419D01*
X161867733Y-84780904D01*
X161817309Y-84762302D01*
X161784036Y-84720095D01*
X161774535Y-84697157D01*
X161678282Y-84571717D01*
X161552842Y-84475464D01*
X161516398Y-84460368D01*
X161461112Y-84437468D01*
X161416685Y-84401007D01*
X161400000Y-84346006D01*
X161400000Y-77733584D01*
X161405254Y-77701762D01*
X161406196Y-77699999D01*
X168794318Y-77699999D01*
X168814955Y-77856761D01*
X168875464Y-78002841D01*
X168971717Y-78128282D01*
X169057778Y-78194318D01*
X169097159Y-78224536D01*
X169220110Y-78275464D01*
X169243238Y-78285044D01*
X169360638Y-78300500D01*
X169360639Y-78300500D01*
X169439361Y-78300500D01*
X169439362Y-78300500D01*
X169498061Y-78292771D01*
X169556762Y-78285044D01*
X169702841Y-78224536D01*
X169828282Y-78128282D01*
X169924536Y-78002841D01*
X169985044Y-77856762D01*
X170005682Y-77700000D01*
X169985044Y-77543238D01*
X169924536Y-77397159D01*
X169902139Y-77367970D01*
X169828282Y-77271717D01*
X169702841Y-77175464D01*
X169556761Y-77114955D01*
X169439362Y-77099500D01*
X169439361Y-77099500D01*
X169360639Y-77099500D01*
X169360638Y-77099500D01*
X169243238Y-77114955D01*
X169097158Y-77175464D01*
X168971717Y-77271717D01*
X168875464Y-77397158D01*
X168814955Y-77543238D01*
X168794318Y-77699999D01*
X161406196Y-77699999D01*
X161420458Y-77673317D01*
X161431332Y-77659144D01*
X161474536Y-77602841D01*
X161535044Y-77456762D01*
X161555682Y-77300000D01*
X161535044Y-77143238D01*
X161474536Y-76997159D01*
X161420458Y-76926683D01*
X161405254Y-76898238D01*
X161400000Y-76866416D01*
X161400000Y-69600000D01*
X162744416Y-69600000D01*
X162764699Y-69805933D01*
X162824767Y-70003952D01*
X162824768Y-70003954D01*
X162922315Y-70186450D01*
X163053590Y-70346410D01*
X163213550Y-70477685D01*
X163396046Y-70575232D01*
X163594065Y-70635299D01*
X163594066Y-70635300D01*
X163748389Y-70650500D01*
X163748392Y-70650500D01*
X163851608Y-70650500D01*
X163851611Y-70650500D01*
X163967352Y-70639100D01*
X164005934Y-70635300D01*
X164203954Y-70575232D01*
X164386450Y-70477685D01*
X164546410Y-70346410D01*
X164677685Y-70186450D01*
X164775232Y-70003954D01*
X164835300Y-69805934D01*
X164855583Y-69600000D01*
X164835300Y-69394066D01*
X164775232Y-69196046D01*
X164677685Y-69013550D01*
X164546410Y-68853590D01*
X164386450Y-68722315D01*
X164203954Y-68624768D01*
X164203953Y-68624767D01*
X164203952Y-68624767D01*
X164005933Y-68564699D01*
X163851611Y-68549500D01*
X163851608Y-68549500D01*
X163748392Y-68549500D01*
X163748389Y-68549500D01*
X163594066Y-68564699D01*
X163396047Y-68624767D01*
X163213549Y-68722315D01*
X163053590Y-68853590D01*
X162922315Y-69013549D01*
X162824767Y-69196047D01*
X162764699Y-69394066D01*
X162744416Y-69600000D01*
X161400000Y-69600000D01*
X161400000Y-66634678D01*
X168445748Y-66634678D01*
X168455748Y-66895591D01*
X168505462Y-67151927D01*
X168593720Y-67397666D01*
X168718459Y-67627059D01*
X168871812Y-67828238D01*
X168876750Y-67834716D01*
X169064886Y-68015778D01*
X169177491Y-68094982D01*
X169278459Y-68166001D01*
X169512451Y-68281859D01*
X169651997Y-68326020D01*
X169761395Y-68360641D01*
X170019445Y-68400500D01*
X170215171Y-68400500D01*
X170215177Y-68400500D01*
X170410344Y-68385516D01*
X170664586Y-68326021D01*
X170906766Y-68228414D01*
X171131208Y-68094982D01*
X171332652Y-67928852D01*
X171506375Y-67733920D01*
X171648306Y-67514753D01*
X171755118Y-67276489D01*
X171824307Y-67024713D01*
X171854252Y-66765325D01*
X171844251Y-66504407D01*
X171794538Y-66248073D01*
X171706279Y-66002332D01*
X171642610Y-65885247D01*
X171581540Y-65772940D01*
X171423252Y-65565287D01*
X171423250Y-65565284D01*
X171235114Y-65384222D01*
X171021544Y-65234001D01*
X171021540Y-65233998D01*
X170787548Y-65118140D01*
X170538609Y-65039360D01*
X170538607Y-65039359D01*
X170538605Y-65039359D01*
X170280555Y-64999500D01*
X170084823Y-64999500D01*
X169938447Y-65010737D01*
X169889654Y-65014484D01*
X169635414Y-65073979D01*
X169393231Y-65171587D01*
X169168795Y-65305015D01*
X168967345Y-65471149D01*
X168793623Y-65666081D01*
X168651695Y-65885244D01*
X168544881Y-66123513D01*
X168475693Y-66375284D01*
X168445748Y-66634678D01*
X161400000Y-66634678D01*
X161400000Y-62599999D01*
X162744416Y-62599999D01*
X162764699Y-62805933D01*
X162824767Y-63003952D01*
X162824768Y-63003954D01*
X162922315Y-63186450D01*
X163053590Y-63346410D01*
X163213550Y-63477685D01*
X163396046Y-63575232D01*
X163594065Y-63635299D01*
X163594066Y-63635300D01*
X163748389Y-63650500D01*
X163748392Y-63650500D01*
X163851608Y-63650500D01*
X163851611Y-63650500D01*
X163967352Y-63639099D01*
X164005934Y-63635300D01*
X164203954Y-63575232D01*
X164386450Y-63477685D01*
X164546410Y-63346410D01*
X164677685Y-63186450D01*
X164775232Y-63003954D01*
X164835300Y-62805934D01*
X164855583Y-62600000D01*
X164835300Y-62394066D01*
X164775232Y-62196046D01*
X164677685Y-62013550D01*
X164546410Y-61853590D01*
X164386450Y-61722315D01*
X164203954Y-61624768D01*
X164203953Y-61624767D01*
X164203952Y-61624767D01*
X164005933Y-61564699D01*
X163851611Y-61549500D01*
X163851608Y-61549500D01*
X163748392Y-61549500D01*
X163748389Y-61549500D01*
X163594066Y-61564699D01*
X163396047Y-61624767D01*
X163213549Y-61722315D01*
X163053590Y-61853590D01*
X162922315Y-62013549D01*
X162824767Y-62196047D01*
X162764699Y-62394066D01*
X162744416Y-62599999D01*
X161400000Y-62599999D01*
X161400000Y-59324500D01*
X161413263Y-59275000D01*
X161449500Y-59238763D01*
X161499000Y-59225500D01*
X172275500Y-59225500D01*
X172325000Y-59238763D01*
G37*
%TD.AperFunction*%
%TA.AperFunction,Conductor*%
G36*
X160202958Y-89758345D02*
G01*
X160231618Y-89796988D01*
X160275464Y-89902841D01*
X160371717Y-90028282D01*
X160444512Y-90084139D01*
X160497159Y-90124536D01*
X160643238Y-90185044D01*
X160800000Y-90205682D01*
X160956762Y-90185044D01*
X161102841Y-90124536D01*
X161155488Y-90084139D01*
X161215233Y-90038296D01*
X161265797Y-90018315D01*
X161319287Y-90028048D01*
X161359571Y-90064559D01*
X161374500Y-90116838D01*
X161374500Y-97199471D01*
X161366964Y-97237357D01*
X161345504Y-97269475D01*
X160194504Y-98420474D01*
X160143814Y-98447568D01*
X160086614Y-98441934D01*
X160042185Y-98405471D01*
X160025500Y-98350470D01*
X160025500Y-93093569D01*
X160040429Y-93041290D01*
X160080714Y-93004779D01*
X160134204Y-92995046D01*
X160184765Y-93015025D01*
X160197159Y-93024536D01*
X160343238Y-93085044D01*
X160500000Y-93105682D01*
X160656762Y-93085044D01*
X160802841Y-93024536D01*
X160928282Y-92928282D01*
X161024536Y-92802841D01*
X161085044Y-92656762D01*
X161105682Y-92500000D01*
X161085044Y-92343238D01*
X161024536Y-92197159D01*
X160989197Y-92151104D01*
X160928282Y-92071717D01*
X160802841Y-91975464D01*
X160656761Y-91914955D01*
X160500000Y-91894318D01*
X160343238Y-91914955D01*
X160197160Y-91975463D01*
X160197158Y-91975464D01*
X160197159Y-91975464D01*
X160184765Y-91984974D01*
X160134204Y-92004954D01*
X160080714Y-91995221D01*
X160040429Y-91958710D01*
X160025500Y-91906431D01*
X160025500Y-89850529D01*
X160033035Y-89812645D01*
X160054494Y-89780528D01*
X160070148Y-89764873D01*
X160111413Y-89740138D01*
X160159466Y-89737776D01*
X160202958Y-89758345D01*
G37*
%TD.AperFunction*%
%TA.AperFunction,Conductor*%
G36*
X160950500Y-59238763D02*
G01*
X160986737Y-59275000D01*
X161000000Y-59324500D01*
X161000000Y-76600915D01*
X160988814Y-76646628D01*
X160957784Y-76682011D01*
X160913923Y-76699067D01*
X160888547Y-76702408D01*
X160793238Y-76714955D01*
X160647158Y-76775464D01*
X160521717Y-76871717D01*
X160425464Y-76997158D01*
X160364955Y-77143238D01*
X160344318Y-77299999D01*
X160364955Y-77456761D01*
X160425464Y-77602841D01*
X160521717Y-77728282D01*
X160585767Y-77777429D01*
X160614290Y-77812184D01*
X160624500Y-77855971D01*
X160624500Y-82033162D01*
X160609571Y-82085441D01*
X160569287Y-82121952D01*
X160515797Y-82131685D01*
X160465233Y-82111704D01*
X160352842Y-82025464D01*
X160206761Y-81964955D01*
X160050000Y-81944318D01*
X159893238Y-81964955D01*
X159747158Y-82025464D01*
X159621717Y-82121717D01*
X159525464Y-82247158D01*
X159464955Y-82393238D01*
X159444318Y-82549999D01*
X159464955Y-82706761D01*
X159525464Y-82852841D01*
X159621717Y-82978282D01*
X159668995Y-83014559D01*
X159747159Y-83074536D01*
X159893238Y-83135044D01*
X160050000Y-83155682D01*
X160206762Y-83135044D01*
X160352841Y-83074536D01*
X160372791Y-83059228D01*
X160465233Y-82988296D01*
X160515797Y-82968315D01*
X160569287Y-82978048D01*
X160609571Y-83014559D01*
X160624500Y-83066838D01*
X160624500Y-83337664D01*
X160616964Y-83375550D01*
X160595503Y-83407668D01*
X160307938Y-83695232D01*
X160301573Y-83701065D01*
X160271803Y-83726045D01*
X160252370Y-83759704D01*
X160247733Y-83766984D01*
X160225443Y-83798818D01*
X160225052Y-83800280D01*
X160215167Y-83824145D01*
X160214409Y-83825456D01*
X160207661Y-83863723D01*
X160205793Y-83872149D01*
X160195734Y-83909691D01*
X160199122Y-83948404D01*
X160199499Y-83957034D01*
X160199499Y-85451000D01*
X160186236Y-85500500D01*
X160149999Y-85536737D01*
X160100499Y-85550000D01*
X158531598Y-85550000D01*
X158482098Y-85536737D01*
X158445861Y-85500500D01*
X158432598Y-85451000D01*
X158432598Y-80525632D01*
X158432975Y-80517002D01*
X158436362Y-80478291D01*
X158426303Y-80440753D01*
X158424433Y-80432318D01*
X158417878Y-80395143D01*
X158417686Y-80394053D01*
X158416932Y-80392748D01*
X158407041Y-80368866D01*
X158407040Y-80368863D01*
X158406652Y-80367414D01*
X158384358Y-80335575D01*
X158379731Y-80328313D01*
X158360292Y-80294643D01*
X158353846Y-80289234D01*
X158327660Y-80255025D01*
X158318483Y-80212931D01*
X158319214Y-80057369D01*
X158400000Y-62850000D01*
X158399998Y-62849999D01*
X157903121Y-62870703D01*
X157851899Y-62858867D01*
X157813959Y-62822474D01*
X157800000Y-62771789D01*
X157800000Y-59324500D01*
X157813263Y-59275000D01*
X157849500Y-59238763D01*
X157899000Y-59225500D01*
X160901000Y-59225500D01*
X160950500Y-59238763D01*
G37*
%TD.AperFunction*%
%TA.AperFunction,Conductor*%
G36*
X168925000Y-112913263D02*
G01*
X168961237Y-112949500D01*
X168974500Y-112999000D01*
X168974500Y-113024167D01*
X168966964Y-113062053D01*
X168945503Y-113094171D01*
X168787967Y-113251705D01*
X168749787Y-113275447D01*
X168705043Y-113279854D01*
X168625001Y-113269317D01*
X168468239Y-113289954D01*
X168322159Y-113350463D01*
X168196718Y-113446716D01*
X168100465Y-113572157D01*
X168039956Y-113718237D01*
X168019319Y-113874999D01*
X168039956Y-114031760D01*
X168100465Y-114177840D01*
X168148724Y-114240733D01*
X168168705Y-114291297D01*
X168158972Y-114344787D01*
X168122461Y-114385071D01*
X168070182Y-114400000D01*
X167800000Y-114400000D01*
X167800000Y-126800000D01*
X172275500Y-126800000D01*
X172325000Y-126813263D01*
X172361237Y-126849500D01*
X172374500Y-126899000D01*
X172374500Y-133075500D01*
X172361237Y-133125000D01*
X172325000Y-133161237D01*
X172275500Y-133174500D01*
X161991152Y-133174500D01*
X161941924Y-133161393D01*
X161905731Y-133125543D01*
X161892156Y-133076443D01*
X161888840Y-132728282D01*
X161884761Y-132300000D01*
X162494318Y-132300000D01*
X162514955Y-132456761D01*
X162575464Y-132602841D01*
X162671717Y-132728282D01*
X162767970Y-132802139D01*
X162797159Y-132824536D01*
X162943238Y-132885044D01*
X163100000Y-132905682D01*
X163256762Y-132885044D01*
X163402841Y-132824536D01*
X163528282Y-132728282D01*
X163624536Y-132602841D01*
X163685044Y-132456762D01*
X163705682Y-132300000D01*
X163685044Y-132143238D01*
X163624536Y-131997159D01*
X163602139Y-131967971D01*
X163528282Y-131871717D01*
X163402841Y-131775464D01*
X163256761Y-131714955D01*
X163100000Y-131694318D01*
X162943238Y-131714955D01*
X162797158Y-131775464D01*
X162671717Y-131871717D01*
X162575464Y-131997158D01*
X162514955Y-132143238D01*
X162494318Y-132300000D01*
X161884761Y-132300000D01*
X161868901Y-130634678D01*
X164445748Y-130634678D01*
X164455748Y-130895591D01*
X164505462Y-131151927D01*
X164593720Y-131397666D01*
X164718459Y-131627059D01*
X164831584Y-131775464D01*
X164876750Y-131834716D01*
X165064886Y-132015778D01*
X165177491Y-132094982D01*
X165278459Y-132166001D01*
X165512451Y-132281859D01*
X165651997Y-132326020D01*
X165761395Y-132360641D01*
X166019445Y-132400500D01*
X166215171Y-132400500D01*
X166215177Y-132400500D01*
X166410344Y-132385516D01*
X166664586Y-132326021D01*
X166906766Y-132228414D01*
X167131208Y-132094982D01*
X167332652Y-131928852D01*
X167506375Y-131733920D01*
X167648306Y-131514753D01*
X167755118Y-131276489D01*
X167824307Y-131024713D01*
X167854252Y-130765325D01*
X167844251Y-130504407D01*
X167794538Y-130248073D01*
X167706279Y-130002332D01*
X167642610Y-129885247D01*
X167581540Y-129772940D01*
X167423252Y-129565287D01*
X167423250Y-129565284D01*
X167235114Y-129384222D01*
X167021544Y-129234001D01*
X167021540Y-129233998D01*
X166787548Y-129118140D01*
X166538609Y-129039360D01*
X166538607Y-129039359D01*
X166538605Y-129039359D01*
X166280555Y-128999500D01*
X166084823Y-128999500D01*
X165938447Y-129010737D01*
X165889654Y-129014484D01*
X165635414Y-129073979D01*
X165393231Y-129171587D01*
X165168795Y-129305015D01*
X164967345Y-129471149D01*
X164793623Y-129666081D01*
X164651695Y-129885244D01*
X164544881Y-130123513D01*
X164475693Y-130375284D01*
X164445748Y-130634678D01*
X161868901Y-130634678D01*
X161848095Y-128449999D01*
X163744318Y-128449999D01*
X163764955Y-128606761D01*
X163825464Y-128752841D01*
X163921717Y-128878282D01*
X164017971Y-128952139D01*
X164047159Y-128974536D01*
X164193238Y-129035044D01*
X164350000Y-129055682D01*
X164506762Y-129035044D01*
X164652841Y-128974536D01*
X164778282Y-128878282D01*
X164874536Y-128752841D01*
X164935044Y-128606762D01*
X164955682Y-128450000D01*
X164935044Y-128293238D01*
X164874536Y-128147159D01*
X164852139Y-128117970D01*
X164778282Y-128021717D01*
X164652841Y-127925464D01*
X164506761Y-127864955D01*
X164370636Y-127847034D01*
X164350000Y-127844318D01*
X164349999Y-127844318D01*
X164193238Y-127864955D01*
X164047158Y-127925464D01*
X163921717Y-128021717D01*
X163825464Y-128147158D01*
X163764955Y-128293238D01*
X163744318Y-128449999D01*
X161848095Y-128449999D01*
X161828571Y-126399999D01*
X162344318Y-126399999D01*
X162364955Y-126556761D01*
X162425464Y-126702841D01*
X162521717Y-126828282D01*
X162584531Y-126876480D01*
X162647159Y-126924536D01*
X162793238Y-126985044D01*
X162950000Y-127005682D01*
X163106762Y-126985044D01*
X163252841Y-126924536D01*
X163378282Y-126828282D01*
X163474536Y-126702841D01*
X163483536Y-126681110D01*
X163519999Y-126636683D01*
X163575000Y-126619998D01*
X163630001Y-126636683D01*
X163666464Y-126681112D01*
X163675464Y-126702842D01*
X163771717Y-126828282D01*
X163834531Y-126876480D01*
X163897159Y-126924536D01*
X164043238Y-126985044D01*
X164200000Y-127005682D01*
X164356762Y-126985044D01*
X164502841Y-126924536D01*
X164628282Y-126828282D01*
X164696458Y-126739432D01*
X164745230Y-126705282D01*
X164804770Y-126705282D01*
X164853542Y-126739433D01*
X164921717Y-126828282D01*
X164984531Y-126876480D01*
X165047159Y-126924536D01*
X165193238Y-126985044D01*
X165350000Y-127005682D01*
X165506762Y-126985044D01*
X165652841Y-126924536D01*
X165778282Y-126828282D01*
X165795099Y-126806364D01*
X165835755Y-126775168D01*
X165886563Y-126768478D01*
X165933909Y-126788089D01*
X166049103Y-126876480D01*
X166195182Y-126936988D01*
X166351944Y-126957626D01*
X166508706Y-126936988D01*
X166654785Y-126876480D01*
X166780226Y-126780226D01*
X166876480Y-126654785D01*
X166936988Y-126508706D01*
X166957626Y-126351944D01*
X166946651Y-126268585D01*
X166947706Y-126236355D01*
X166959064Y-126206175D01*
X166972638Y-126182663D01*
X166977254Y-126175417D01*
X166999554Y-126143572D01*
X166999943Y-126142117D01*
X167009837Y-126118233D01*
X167010588Y-126116933D01*
X167017338Y-126078643D01*
X167019196Y-126070262D01*
X167029264Y-126032694D01*
X167025876Y-125993977D01*
X167025500Y-125985350D01*
X167025500Y-119268534D01*
X167025877Y-119259904D01*
X167029264Y-119221193D01*
X167023709Y-119200464D01*
X167019203Y-119183647D01*
X167017335Y-119175220D01*
X167011117Y-119139956D01*
X167010588Y-119136955D01*
X167009834Y-119135650D01*
X166999943Y-119111768D01*
X166999942Y-119111765D01*
X166999554Y-119110316D01*
X166977260Y-119078477D01*
X166972633Y-119071215D01*
X166953194Y-119037545D01*
X166923428Y-119012568D01*
X166917060Y-119006734D01*
X166298292Y-118387966D01*
X166274550Y-118349784D01*
X166270143Y-118305043D01*
X166280682Y-118225000D01*
X166260044Y-118068238D01*
X166199536Y-117922159D01*
X166199535Y-117922158D01*
X166199535Y-117922157D01*
X166137378Y-117841152D01*
X166117766Y-117793801D01*
X166124460Y-117742989D01*
X166155665Y-117702333D01*
X166203018Y-117682729D01*
X166229929Y-117686278D01*
X166230316Y-117683343D01*
X166252611Y-117686278D01*
X166400000Y-117705682D01*
X166556762Y-117685044D01*
X166702841Y-117624536D01*
X166828282Y-117528282D01*
X166924536Y-117402841D01*
X166985044Y-117256762D01*
X167005682Y-117100000D01*
X166985044Y-116943238D01*
X166924536Y-116797159D01*
X166902139Y-116767970D01*
X166828282Y-116671717D01*
X166702841Y-116575464D01*
X166556761Y-116514955D01*
X166400000Y-116494318D01*
X166243238Y-116514955D01*
X166097158Y-116575464D01*
X165971717Y-116671717D01*
X165875464Y-116797158D01*
X165814955Y-116943238D01*
X165794318Y-117100000D01*
X165814955Y-117256761D01*
X165875463Y-117402839D01*
X165875464Y-117402841D01*
X165937622Y-117483847D01*
X165957232Y-117531191D01*
X165950544Y-117581997D01*
X165919350Y-117622653D01*
X165872007Y-117642266D01*
X165845070Y-117638721D01*
X165844684Y-117641657D01*
X165675000Y-117619318D01*
X165518238Y-117639955D01*
X165372158Y-117700464D01*
X165246717Y-117796717D01*
X165150464Y-117922158D01*
X165089955Y-118068238D01*
X165069318Y-118225000D01*
X165089955Y-118381761D01*
X165150464Y-118527841D01*
X165246717Y-118653282D01*
X165342971Y-118727139D01*
X165372159Y-118749536D01*
X165518238Y-118810044D01*
X165675000Y-118830682D01*
X165755043Y-118820143D01*
X165799784Y-118824550D01*
X165837966Y-118848292D01*
X166023677Y-119034003D01*
X166049938Y-119080896D01*
X166047828Y-119134600D01*
X166017968Y-119179287D01*
X165969160Y-119201788D01*
X165915787Y-119195471D01*
X165781761Y-119139955D01*
X165625000Y-119119318D01*
X165468238Y-119139955D01*
X165322158Y-119200464D01*
X165196717Y-119296717D01*
X165100464Y-119422158D01*
X165039955Y-119568238D01*
X165019318Y-119724999D01*
X165039955Y-119881761D01*
X165100464Y-120027841D01*
X165196717Y-120153282D01*
X165292970Y-120227139D01*
X165322159Y-120249536D01*
X165468238Y-120310044D01*
X165625000Y-120330682D01*
X165660860Y-120325960D01*
X165705600Y-120330367D01*
X165743783Y-120354109D01*
X165845504Y-120455830D01*
X165866964Y-120487948D01*
X165874500Y-120525834D01*
X165874500Y-122606431D01*
X165859571Y-122658710D01*
X165819286Y-122695221D01*
X165765796Y-122704954D01*
X165715234Y-122684974D01*
X165702841Y-122675464D01*
X165702839Y-122675463D01*
X165556761Y-122614955D01*
X165400000Y-122594318D01*
X165243238Y-122614955D01*
X165097158Y-122675464D01*
X164971717Y-122771717D01*
X164875464Y-122897158D01*
X164814955Y-123043238D01*
X164794318Y-123199999D01*
X164814955Y-123356761D01*
X164875464Y-123502841D01*
X164971717Y-123628282D01*
X165035767Y-123677429D01*
X165064290Y-123712184D01*
X165074500Y-123755971D01*
X165074500Y-125024165D01*
X165066964Y-125062051D01*
X165045504Y-125094169D01*
X164362966Y-125776706D01*
X164324785Y-125800448D01*
X164280041Y-125804855D01*
X164200000Y-125794318D01*
X164043238Y-125814955D01*
X163897158Y-125875464D01*
X163771717Y-125971717D01*
X163675465Y-126097157D01*
X163675464Y-126097158D01*
X163675464Y-126097159D01*
X163667274Y-126116933D01*
X163666464Y-126118888D01*
X163630001Y-126163317D01*
X163575000Y-126180001D01*
X163519999Y-126163317D01*
X163483536Y-126118888D01*
X163483265Y-126118233D01*
X163474536Y-126097159D01*
X163438197Y-126049801D01*
X163378282Y-125971717D01*
X163252841Y-125875464D01*
X163106761Y-125814955D01*
X162970636Y-125797034D01*
X162950000Y-125794318D01*
X162949999Y-125794318D01*
X162793238Y-125814955D01*
X162647158Y-125875464D01*
X162521717Y-125971717D01*
X162425464Y-126097158D01*
X162364955Y-126243238D01*
X162344318Y-126399999D01*
X161828571Y-126399999D01*
X161803441Y-123761340D01*
X161814334Y-123715247D01*
X161845395Y-123679486D01*
X161889513Y-123662249D01*
X161960870Y-123652855D01*
X162106949Y-123592347D01*
X162232390Y-123496093D01*
X162328644Y-123370652D01*
X162389152Y-123224573D01*
X162409790Y-123067811D01*
X162389152Y-122911049D01*
X162387451Y-122898127D01*
X162389621Y-122897841D01*
X162385699Y-122868064D01*
X162405309Y-122820714D01*
X162445967Y-122789515D01*
X162456760Y-122785044D01*
X162456762Y-122785044D01*
X162602841Y-122724536D01*
X162728282Y-122628282D01*
X162824536Y-122502841D01*
X162885044Y-122356762D01*
X162905682Y-122200000D01*
X162885044Y-122043238D01*
X162864883Y-121994567D01*
X162858567Y-121941195D01*
X162881068Y-121892387D01*
X162925755Y-121862527D01*
X162979459Y-121860417D01*
X163026352Y-121886678D01*
X163476706Y-122337032D01*
X163500448Y-122375213D01*
X163504855Y-122419957D01*
X163494318Y-122499999D01*
X163514955Y-122656761D01*
X163575464Y-122802841D01*
X163671717Y-122928282D01*
X163732021Y-122974554D01*
X163797159Y-123024536D01*
X163943238Y-123085044D01*
X164100000Y-123105682D01*
X164256762Y-123085044D01*
X164402841Y-123024536D01*
X164528282Y-122928282D01*
X164624536Y-122802841D01*
X164685044Y-122656762D01*
X164705682Y-122500000D01*
X164685044Y-122343238D01*
X164624536Y-122197159D01*
X164602139Y-122167970D01*
X164528282Y-122071717D01*
X164402841Y-121975464D01*
X164256761Y-121914955D01*
X164120636Y-121897034D01*
X164100000Y-121894318D01*
X164099999Y-121894318D01*
X164019957Y-121904855D01*
X163975213Y-121900448D01*
X163937032Y-121876706D01*
X163454496Y-121394170D01*
X163433036Y-121362052D01*
X163425500Y-121324166D01*
X163425500Y-112999000D01*
X163438763Y-112949500D01*
X163475000Y-112913263D01*
X163524500Y-112900000D01*
X168875500Y-112900000D01*
X168925000Y-112913263D01*
G37*
%TD.AperFunction*%
M02*
