%TF.GenerationSoftware,KiCad,Pcbnew,7.0.1-0*%
%TF.CreationDate,2024-02-14T11:54:32-05:00*%
%TF.ProjectId,Tympan_Rev_F,54796d70-616e-45f5-9265-765f462e6b69,rev?*%
%TF.SameCoordinates,Original*%
%TF.FileFunction,Soldermask,Top*%
%TF.FilePolarity,Negative*%
%FSLAX46Y46*%
G04 Gerber Fmt 4.6, Leading zero omitted, Abs format (unit mm)*
G04 Created by KiCad (PCBNEW 7.0.1-0) date 2024-02-14 11:54:32*
%MOMM*%
%LPD*%
G01*
G04 APERTURE LIST*
G04 Aperture macros list*
%AMRoundRect*
0 Rectangle with rounded corners*
0 $1 Rounding radius*
0 $2 $3 $4 $5 $6 $7 $8 $9 X,Y pos of 4 corners*
0 Add a 4 corners polygon primitive as box body*
4,1,4,$2,$3,$4,$5,$6,$7,$8,$9,$2,$3,0*
0 Add four circle primitives for the rounded corners*
1,1,$1+$1,$2,$3*
1,1,$1+$1,$4,$5*
1,1,$1+$1,$6,$7*
1,1,$1+$1,$8,$9*
0 Add four rect primitives between the rounded corners*
20,1,$1+$1,$2,$3,$4,$5,0*
20,1,$1+$1,$4,$5,$6,$7,0*
20,1,$1+$1,$6,$7,$8,$9,0*
20,1,$1+$1,$8,$9,$2,$3,0*%
G04 Aperture macros list end*
%ADD10R,3.500000X1.000000*%
%ADD11R,3.400000X1.500000*%
%ADD12C,1.700000*%
%ADD13R,2.800000X2.200000*%
%ADD14R,2.800000X2.800000*%
%ADD15R,1.600000X1.200000*%
%ADD16RoundRect,0.147500X0.147500X0.172500X-0.147500X0.172500X-0.147500X-0.172500X0.147500X-0.172500X0*%
%ADD17RoundRect,0.147500X-0.172500X0.147500X-0.172500X-0.147500X0.172500X-0.147500X0.172500X0.147500X0*%
%ADD18RoundRect,0.147500X0.172500X-0.147500X0.172500X0.147500X-0.172500X0.147500X-0.172500X-0.147500X0*%
%ADD19RoundRect,0.250000X-0.375000X-0.625000X0.375000X-0.625000X0.375000X0.625000X-0.375000X0.625000X0*%
%ADD20RoundRect,0.250000X0.375000X0.625000X-0.375000X0.625000X-0.375000X-0.625000X0.375000X-0.625000X0*%
%ADD21RoundRect,0.250000X0.625000X-0.375000X0.625000X0.375000X-0.625000X0.375000X-0.625000X-0.375000X0*%
%ADD22R,1.700000X1.700000*%
%ADD23O,1.700000X1.700000*%
%ADD24C,3.000000*%
%ADD25RoundRect,0.218750X-0.218750X-0.256250X0.218750X-0.256250X0.218750X0.256250X-0.218750X0.256250X0*%
%ADD26RoundRect,0.218750X0.218750X0.256250X-0.218750X0.256250X-0.218750X-0.256250X0.218750X-0.256250X0*%
%ADD27R,1.060000X0.650000*%
%ADD28R,0.650000X0.400000*%
%ADD29RoundRect,0.050000X0.050000X-0.325000X0.050000X0.325000X-0.050000X0.325000X-0.050000X-0.325000X0*%
%ADD30RoundRect,0.050000X0.325000X-0.050000X0.325000X0.050000X-0.325000X0.050000X-0.325000X-0.050000X0*%
%ADD31R,3.800000X3.800000*%
%ADD32RoundRect,0.218750X-0.256250X0.218750X-0.256250X-0.218750X0.256250X-0.218750X0.256250X0.218750X0*%
%ADD33RoundRect,0.218750X0.256250X-0.218750X0.256250X0.218750X-0.256250X0.218750X-0.256250X-0.218750X0*%
%ADD34RoundRect,0.147500X-0.147500X-0.172500X0.147500X-0.172500X0.147500X0.172500X-0.147500X0.172500X0*%
%ADD35R,0.500000X0.400000*%
%ADD36R,0.350000X0.700000*%
%ADD37R,1.960000X2.560000*%
%ADD38R,1.000000X0.800000*%
%ADD39R,4.000000X4.000000*%
%ADD40R,1.350000X1.350000*%
%ADD41O,1.350000X1.350000*%
%ADD42C,2.000000*%
%ADD43RoundRect,0.140000X0.170000X-0.140000X0.170000X0.140000X-0.170000X0.140000X-0.170000X-0.140000X0*%
%ADD44RoundRect,0.140000X-0.170000X0.140000X-0.170000X-0.140000X0.170000X-0.140000X0.170000X0.140000X0*%
%ADD45RoundRect,0.200000X0.275000X-0.200000X0.275000X0.200000X-0.275000X0.200000X-0.275000X-0.200000X0*%
%ADD46R,0.400000X0.600000*%
%ADD47R,0.600000X0.400000*%
%ADD48RoundRect,0.225000X0.250000X-0.225000X0.250000X0.225000X-0.250000X0.225000X-0.250000X-0.225000X0*%
%ADD49R,1.000000X1.800000*%
%ADD50C,1.600000*%
G04 APERTURE END LIST*
D10*
X160450000Y-104800000D03*
X160450000Y-102800000D03*
D11*
X166000000Y-107150000D03*
X166000000Y-100450000D03*
D12*
X163800000Y-62600000D03*
X163800000Y-69600000D03*
D13*
X159600000Y-61500000D03*
D14*
X159600000Y-70900000D03*
D13*
X168000000Y-63500000D03*
D12*
X143000000Y-62600000D03*
X143000000Y-69600000D03*
D13*
X138800000Y-61500000D03*
D14*
X138800000Y-70900000D03*
D13*
X147200000Y-63500000D03*
D14*
X143750000Y-74800000D03*
D15*
X135475000Y-112300000D03*
X135475000Y-114800000D03*
X135475000Y-117300000D03*
X138675000Y-112300000D03*
X138675000Y-114800000D03*
X138675000Y-117300000D03*
D16*
X142035000Y-88350000D03*
X141065000Y-88350000D03*
X142035000Y-90800000D03*
X141065000Y-90800000D03*
X142035000Y-93400000D03*
X141065000Y-93400000D03*
D17*
X169925000Y-79515000D03*
X169925000Y-80485000D03*
X137925000Y-79515000D03*
X137925000Y-80485000D03*
X142200000Y-80615000D03*
X142200000Y-81585000D03*
X168875000Y-79515000D03*
X168875000Y-80485000D03*
X136850000Y-79515000D03*
X136850000Y-80485000D03*
X147150000Y-80615000D03*
X147150000Y-81585000D03*
D18*
X142500000Y-103435000D03*
X142500000Y-102465000D03*
D19*
X145700000Y-100200000D03*
X148500000Y-100200000D03*
D20*
X158400001Y-100200000D03*
X155600001Y-100200000D03*
D21*
X141600000Y-115000000D03*
X141600000Y-112200000D03*
D22*
X136175000Y-84500000D03*
D23*
X136175000Y-87040000D03*
X136175000Y-89580000D03*
X136175000Y-92120000D03*
X136175000Y-94660000D03*
X136175000Y-97200000D03*
D22*
X167900000Y-84500000D03*
D23*
X167900000Y-87040000D03*
X167900000Y-89580000D03*
X167900000Y-92120000D03*
X167900000Y-94660000D03*
X167900000Y-97200000D03*
D22*
X170600000Y-84500000D03*
D23*
X170600000Y-87040000D03*
X170600000Y-89580000D03*
X170600000Y-92120000D03*
X170600000Y-94660000D03*
X170600000Y-97200000D03*
D24*
X170150000Y-66700000D03*
X137150000Y-66700000D03*
D25*
X152412500Y-73800000D03*
X153987500Y-73800000D03*
X152412500Y-72250000D03*
X153987500Y-72250000D03*
D26*
X153987500Y-75350000D03*
X152412500Y-75350000D03*
X153987500Y-70700000D03*
X152412500Y-70700000D03*
D18*
X149900000Y-100685000D03*
X149900000Y-99715000D03*
X154200000Y-100735000D03*
X154200000Y-99765000D03*
D17*
X155600000Y-128500000D03*
X155600000Y-129470000D03*
X156900000Y-130780000D03*
X156900000Y-131750000D03*
X152950000Y-128600000D03*
X152950000Y-129570000D03*
D22*
X139700000Y-101760000D03*
D23*
X139700000Y-104300000D03*
X139700000Y-106840000D03*
D27*
X143600000Y-80600000D03*
X143600000Y-81550000D03*
X143600000Y-82500000D03*
X145800000Y-82500000D03*
X145800000Y-80600000D03*
D22*
X138750000Y-84500000D03*
D23*
X138750000Y-87040000D03*
X138750000Y-89580000D03*
X138750000Y-92120000D03*
X138750000Y-94660000D03*
X138750000Y-97200000D03*
D28*
X158250000Y-84200000D03*
X158250000Y-84850000D03*
X158250000Y-85500000D03*
X160150000Y-85500000D03*
X160150000Y-84200000D03*
D29*
X151600000Y-92675000D03*
X152000000Y-92675000D03*
X152400000Y-92675000D03*
X152800000Y-92675000D03*
X153200000Y-92675000D03*
X153600000Y-92675000D03*
X154000000Y-92675000D03*
X154400000Y-92675000D03*
X154800000Y-92675000D03*
X155200000Y-92675000D03*
D30*
X155875000Y-92000000D03*
X155875000Y-91600000D03*
X155875000Y-91200000D03*
X155875000Y-90800000D03*
X155875000Y-90400000D03*
X155875000Y-90000000D03*
X155875000Y-89600000D03*
X155875000Y-89200000D03*
X155875000Y-88800000D03*
X155875000Y-88400000D03*
D29*
X155200000Y-87725000D03*
X154800000Y-87725000D03*
X154400000Y-87725000D03*
X154000000Y-87725000D03*
X153600000Y-87725000D03*
X153200000Y-87725000D03*
X152800000Y-87725000D03*
X152400000Y-87725000D03*
X152000000Y-87725000D03*
X151600000Y-87725000D03*
D30*
X150925000Y-88400000D03*
X150925000Y-88800000D03*
X150925000Y-89200000D03*
X150925000Y-89600000D03*
X150925000Y-90000000D03*
X150925000Y-90400000D03*
X150925000Y-90800000D03*
X150925000Y-91200000D03*
X150925000Y-91600000D03*
X150925000Y-92000000D03*
D31*
X153400000Y-90200000D03*
D17*
X159450000Y-89580000D03*
X159450000Y-90550000D03*
D18*
X159450000Y-92520000D03*
X159450000Y-91550000D03*
D32*
X152000000Y-81000000D03*
X152000000Y-82575000D03*
D33*
X155650000Y-82575000D03*
X155650000Y-81000000D03*
D16*
X158485000Y-91550000D03*
X157515000Y-91550000D03*
X158485000Y-90550000D03*
X157515000Y-90550000D03*
D18*
X151800000Y-95585000D03*
X151800000Y-94615000D03*
X156000000Y-95585000D03*
X156000000Y-94615000D03*
X154950000Y-95585000D03*
X154950000Y-94615000D03*
X153900000Y-95585000D03*
X153900000Y-94615000D03*
X152850000Y-95585000D03*
X152850000Y-94615000D03*
X150750000Y-95585000D03*
X150750000Y-94615000D03*
X153300000Y-82935000D03*
X153300000Y-81965000D03*
X154300000Y-82935000D03*
X154300000Y-81965000D03*
D34*
X155215000Y-84150000D03*
X156185000Y-84150000D03*
D18*
X150950000Y-84885000D03*
X150950000Y-83915000D03*
D16*
X148635000Y-87800000D03*
X147665000Y-87800000D03*
D17*
X148400000Y-90765000D03*
X148400000Y-91735000D03*
D16*
X149385000Y-92800000D03*
X148415000Y-92800000D03*
X149385000Y-93850000D03*
X148415000Y-93850000D03*
D18*
X157100000Y-94635000D03*
X157100000Y-93665000D03*
X158100000Y-94635000D03*
X158100000Y-93665000D03*
D17*
X149900000Y-83915000D03*
X149900000Y-84885000D03*
X149400000Y-90765000D03*
X149400000Y-91735000D03*
D27*
X164850000Y-110950000D03*
X164850000Y-111900000D03*
X164850000Y-112850000D03*
X167050000Y-112850000D03*
X167050000Y-110950000D03*
D34*
X168565000Y-110950000D03*
X169535000Y-110950000D03*
D16*
X167435000Y-109550000D03*
X166465000Y-109550000D03*
X165485000Y-109550000D03*
X164515000Y-109550000D03*
D35*
X168450000Y-112150000D03*
X169650000Y-112150000D03*
X168450000Y-112850000D03*
X169650000Y-112850000D03*
D17*
X142600000Y-106000000D03*
X142600000Y-106970000D03*
D16*
X162885000Y-98600000D03*
X161915000Y-98600000D03*
D18*
X164550000Y-87585000D03*
X164550000Y-86615000D03*
X165550000Y-87585000D03*
X165550000Y-86615000D03*
D36*
X161825000Y-97500000D03*
X162475000Y-97500000D03*
X163125000Y-97500000D03*
X163775000Y-97500000D03*
X163775000Y-93900000D03*
X163125000Y-93900000D03*
X162475000Y-93900000D03*
X161825000Y-93900000D03*
D37*
X162800000Y-95700000D03*
D38*
X154100000Y-130650000D03*
X155600000Y-130650000D03*
X155600000Y-131750000D03*
X154100000Y-131750000D03*
D16*
X142035000Y-96000000D03*
X141065000Y-96000000D03*
D24*
X166150000Y-130700000D03*
X137850000Y-126700000D03*
X151050000Y-126700000D03*
D39*
X144450000Y-126700000D03*
D40*
X135400000Y-130700000D03*
D41*
X135400000Y-128700000D03*
X135400000Y-126700000D03*
X135400000Y-124700000D03*
X135400000Y-122700000D03*
X135400000Y-120700000D03*
D12*
X155900000Y-61700000D03*
X150900000Y-61700000D03*
D42*
X156900000Y-64200000D03*
X149900000Y-64200000D03*
D43*
X153200000Y-113180000D03*
X153200000Y-112220000D03*
X158800000Y-113180000D03*
X158800000Y-112220000D03*
D44*
X153100000Y-120820000D03*
X153100000Y-121780000D03*
D45*
X161100000Y-130925000D03*
X161100000Y-129275000D03*
D46*
X167550000Y-115950000D03*
X166450000Y-115950000D03*
X165650000Y-115950000D03*
X164050000Y-115950000D03*
X163650000Y-116850000D03*
X163250000Y-115950000D03*
X162850000Y-116850000D03*
X162450000Y-115950000D03*
X162050000Y-116850000D03*
X161650000Y-115950000D03*
X161250000Y-116850000D03*
X160850000Y-115950000D03*
X160450000Y-116850000D03*
X160050000Y-115950000D03*
D47*
X156650000Y-115800000D03*
X156650000Y-116600000D03*
X156650000Y-117400000D03*
X156650000Y-118200000D03*
X157550000Y-118600000D03*
X156650000Y-119000000D03*
X157550000Y-119400000D03*
X156650000Y-119800000D03*
X157550000Y-120200000D03*
X156650000Y-120600000D03*
X157550000Y-121000000D03*
X156650000Y-121400000D03*
X157550000Y-121800000D03*
X156650000Y-122200000D03*
X157550000Y-122600000D03*
X156650000Y-123000000D03*
X156650000Y-123800000D03*
X156650000Y-124600000D03*
X156650000Y-125400000D03*
D46*
X157650000Y-125250000D03*
X158450000Y-125250000D03*
X158850000Y-124350000D03*
X159250000Y-125250000D03*
X159650000Y-124350000D03*
X160050000Y-125250000D03*
X160450000Y-124350000D03*
X160850000Y-125250000D03*
X161250000Y-124350000D03*
X162050000Y-124350000D03*
X162450000Y-125250000D03*
X162850000Y-124350000D03*
X163250000Y-125250000D03*
X163650000Y-124350000D03*
X164050000Y-125250000D03*
X164450000Y-124350000D03*
X165250000Y-124350000D03*
X165650000Y-125250000D03*
X166050000Y-124350000D03*
X166450000Y-125250000D03*
X166850000Y-124350000D03*
X167550000Y-125250000D03*
D47*
X163250000Y-118600000D03*
X163250000Y-119400000D03*
X163250000Y-120200000D03*
X163250000Y-121000000D03*
X163250000Y-121800000D03*
X163250000Y-122600000D03*
D48*
X153900000Y-124775000D03*
X153900000Y-123225000D03*
D49*
X154725000Y-112900000D03*
X157275000Y-112900000D03*
D44*
X154200000Y-120820000D03*
X154200000Y-121780000D03*
D50*
X158445000Y-129270000D03*
X148285000Y-86090000D03*
X155865000Y-86100000D03*
M02*
