M48
; DRILL file {KiCad 7.0.1-0} date 2024 February 14, Wednesday 11:54:45
; FORMAT={-:-/ absolute / inch / decimal}
; #@! TF.CreationDate,2024-02-14T11:54:45-05:00
; #@! TF.GenerationSoftware,Kicad,Pcbnew,7.0.1-0
; #@! TF.FileFunction,Plated,1,4,PTH
FMAT,2
INCH
; #@! TA.AperFunction,Plated,PTH,ViaDrill
T1C0.0157
; #@! TA.AperFunction,Plated,PTH,ComponentDrill
T2C0.0315
; #@! TA.AperFunction,Plated,PTH,ComponentDrill
T3C0.0394
; #@! TA.AperFunction,Plated,PTH,ComponentDrill
T4C0.0512
; #@! TA.AperFunction,Plated,PTH,ComponentDrill
T5C0.0748
%
G90
G05
T1
X5.3524Y-3.0965
X5.3602Y-3.2067
X5.3937Y-4.626
X5.4291Y-3.2087
X5.4449Y-2.9941
X5.5Y-4.3622
X5.5217Y-3.2264
X5.5217Y-3.4272
X5.5217Y-3.5276
X5.5217Y-4.75
X5.5315Y-4.811
X5.5335Y-2.8642
X5.5394Y-3.8504
X5.5551Y-4.7106
X5.565Y-4.8445
X5.5689Y-5.1535
X5.5748Y-4.5787
X5.5748Y-4.6634
X5.6043Y-3.0295
X5.6063Y-3.3346
X5.6142Y-3.1299
X5.6142Y-4.122
X5.6417Y-3.4567
X5.6417Y-3.5039
X5.6545Y-4.7283
X5.6729Y-3.295
X5.6732Y-3.6417
X5.6752Y-5.1339
X5.6909Y-4.8583
X5.7008Y-3.7205
X5.7165Y-3.1339
X5.7283Y-3.2874
X5.7303Y-3.8504
X5.7309Y-5.0945
X5.7323Y-3.3366
X5.7421Y-2.9429
X5.7608Y-3.6299
X5.7618Y-3.5343
X5.7677Y-4.7835
X5.7717Y-4.5323
X5.7874Y-3.7362
X5.7913Y-3.9429
X5.7913Y-3.998
X5.7953Y-2.5768
X5.7992Y-5.0295
X5.8051Y-3.628
X5.8053Y-2.939
X5.8108Y-3.7923
X5.811Y-4.7845
X5.8465Y-5.0315
X5.8659Y-3.7943
X5.878Y-4.061
X5.8819Y-3.5
X5.8819Y-3.7333
X5.8819Y-4.4606
X5.8858Y-3.4291
X5.8858Y-4.6811
X5.8917Y-4.5197
X5.8957Y-3.378
X5.9055Y-4.1909
X5.9232Y-3.4488
X5.9252Y-3.2608
X5.9291Y-3.1516
X5.937Y-3.378
X5.9567Y-2.8622
X5.9567Y-2.9134
X5.9606Y-4.8819
X5.9764Y-3.813
X5.9764Y-5.2008
X5.9843Y-3.3917
X6.002Y-3.3425
X6.0039Y-3.1319
X6.0118Y-4.7038
X6.0177Y-3.8445
X6.018Y-3.3065
X6.0236Y-5.1457
X6.0394Y-3.5512
X6.0571Y-3.813
X6.0591Y-5.063
X6.0669Y-4.7008
X6.0797Y-4.0984
X6.1004Y-3.8366
X6.1063Y-4.3622
X6.1102Y-4.8386
X6.122Y-4.6063
X6.126Y-4.5177
X6.126Y-4.7677
X6.128Y-5.0217
X6.1398Y-4.2913
X6.1417Y-3.8091
X6.1654Y-3.1024
X6.1693Y-5.0984
X6.1752Y-3.4311
X6.1831Y-3.6437
X6.189Y-4.2362
X6.1929Y-5.0118
X6.1961Y-3.297
X6.1969Y-3.1417
X6.2126Y-3.5256
X6.2293Y-4.5217
X6.2297Y-3.4857
X6.2441Y-4.6978
X6.2441Y-4.8346
X6.2559Y-3.4439
X6.2559Y-5.0346
X6.2677Y-4.7323
X6.2751Y-3.4877
X6.2795Y-4.5276
X6.2795Y-4.6378
X6.2835Y-2.498
X6.2874Y-4.8327
X6.3012Y-3.25
X6.315Y-3.4567
X6.3189Y-3.6417
X6.3199Y-4.6535
X6.3209Y-3.8386
X6.3228Y-4.7441
X6.3268Y-4.4882
X6.3307Y-3.5276
X6.3321Y-5.0307
X6.3366Y-3.0433
X6.3484Y-3.3465
X6.3504Y-4.3455
X6.3702Y-4.8452
X6.372Y-4.4134
X6.3898Y-3.1496
X6.3898Y-3.4055
X6.3898Y-4.811
X6.3937Y-4.3465
X6.4016Y-5.1535
X6.4094Y-3.5433
X6.4154Y-4.9764
X6.4164Y-3.6102
X6.4213Y-5.2087
X6.4429Y-4.1496
X6.4606Y-4.8228
X6.4646Y-4.9764
X6.4705Y-5.0571
X6.4843Y-3.8386
X6.4882Y-3.374
X6.4882Y-3.7559
X6.4961Y-3.0886
X6.5Y-4.1358
X6.502Y-4.0276
X6.5098Y-4.9764
X6.5118Y-4.8504
X6.5207Y-4.7136
X6.5226Y-4.6545
X6.5325Y-3.6949
X6.5325Y-3.6378
X6.5493Y-4.9745
X6.5512Y-4.6102
X6.561Y-3.8878
X6.5669Y-4.0945
X6.5728Y-4.1398
X6.5768Y-3.1319
X6.5787Y-4.4902
X6.5984Y-4.0551
X6.6201Y-3.2067
X6.6309Y-4.2933
X6.6388Y-4.4833
X6.6535Y-3.0
X6.6614Y-3.8858
X6.7185Y-3.2067
T2
X5.3307Y-4.752
X5.3307Y-4.8307
X5.3307Y-4.9094
X5.3307Y-4.9882
X5.3307Y-5.0669
X5.3307Y-5.1457
T3
X5.3612Y-3.3268
X5.3612Y-3.4268
X5.3612Y-3.5268
X5.3612Y-3.6268
X5.3612Y-3.7268
X5.3612Y-3.8268
X5.4626Y-3.3268
X5.4626Y-3.4268
X5.4626Y-3.5268
X5.4626Y-3.6268
X5.4626Y-3.7268
X5.4626Y-3.8268
X5.5Y-4.0063
X5.5Y-4.1063
X5.5Y-4.2063
X5.838Y-3.3894
X5.9409Y-2.4291
X6.1364Y-3.3898
X6.1378Y-2.4291
X6.238Y-5.0894
X6.6102Y-3.3268
X6.6102Y-3.4268
X6.6102Y-3.5268
X6.6102Y-3.6268
X6.6102Y-3.7268
X6.6102Y-3.8268
X6.7165Y-3.3268
X6.7165Y-3.4268
X6.7165Y-3.5268
X6.7165Y-3.6268
X6.7165Y-3.7268
X6.7165Y-3.8268
T4
X5.9016Y-2.5276
X6.1772Y-2.5276
T5
X5.4272Y-4.9882
X5.9469Y-4.9882
T0
M30
